<svg xmlns="http://www.w3.org/2000/svg" class="graphdiagram" viewBox="-777.7933670698984 -289.4694326886261 1853 981"><g class="layer relationships"><g class="related-pair"><g class="relationship" transform="translate(493.01416015625,0) rotate(90)"><path class="relationship" d="M 107.82015205403813 4 L 327.12642600915353 4 L 327.12642600915353 16 L 359.12642600915353 0 L 327.12642600915353 -16 L 327.12642600915353 -4 L 107.82015205403813 -4 Z" fill="rgb(0, 0, 0)" stroke="rgb(51, 51, 51)" stroke-width="0px"/><text class="type" text-anchor="middle" baseline-shift="30%" alignment-baseline="alphabetic" x="217.4732890315958" y="0" font-size="50px" font-family="&quot;Gill Sans&quot;, &quot;Gill Sans MT&quot;, Calibri, sans-serif">AUTHOR</text></g></g><g class="related-pair"><g class="relationship" transform="translate(493.01416015625,0) rotate(180)"><path class="relationship" d="M 107.82015205403813 4 L 521.6085092923975 4 L 521.6085092923975 16 L 553.6085092923975 0 L 521.6085092923975 -16 L 521.6085092923975 -4 L 107.82015205403813 -4 Z" fill="rgb(0, 0, 0)" stroke="rgb(51, 51, 51)" stroke-width="0px"/><text class="type" text-anchor="middle" baseline-shift="30%" alignment-baseline="alphabetic" x="-314.7143306732178" y="0" font-size="50px" font-family="&quot;Gill Sans&quot;, &quot;Gill Sans MT&quot;, Calibri, sans-serif" transform="rotate(180)">CITED</text></g></g><g class="related-pair"><g class="relationship" transform="translate(493.01416015625,0) rotate(143.853433194731)"><path class="relationship" d="M 107.82015205403813 4 L 402.21913547596677 4 L 402.21913547596677 16 L 434.21913547596677 0 L 402.21913547596677 -16 L 402.21913547596677 -4 L 107.82015205403813 -4 Z" fill="rgb(0, 0, 0)" stroke="rgb(51, 51, 51)" stroke-width="0px"/><text class="type" text-anchor="middle" baseline-shift="30%" alignment-baseline="alphabetic" transform="rotate(180)" x="-255.01964376500246" y="0" font-size="50px" font-family="&quot;Gill Sans&quot;, &quot;Gill Sans MT&quot;, Calibri, sans-serif">VENUE</text></g></g></g><g class="layer nodes"><circle class="node node-id-0" r="96.78423378088554" fill="rgb(255, 255, 255)" stroke="rgb(0, 0, 0)" stroke-width="8px" cx="493.01416015625" cy="470.91065979003906"/><g class="caption"><text class="caption node" text-anchor="middle" alignment-baseline="central" x="493.01416015625" y="470.91065979003906" fill="rgb(51, 51, 51)" font-size="50px" font-family="&quot;Gill Sans&quot;, &quot;Gill Sans MT&quot;, Calibri, sans-serif">Author</text></g><circle class="node node-id-1" r="92.82015205403813" fill="rgb(255, 255, 255)" stroke="rgb(0, 0, 0)" stroke-width="8px" cx="493.01416015625" cy="0"/><g class="caption"><text class="caption node" text-anchor="middle" alignment-baseline="central" x="493.01416015625" y="0" fill="rgb(51, 51, 51)" font-size="50px" font-family="&quot;Gill Sans&quot;, &quot;Gill Sans MT&quot;, Calibri, sans-serif">Article</text></g><circle class="node node-id-2" r="92.82015205403813" fill="rgb(255, 255, 255)" stroke="rgb(0, 0, 0)" stroke-width="8px" cx="-168.41450119018555" cy="0"/><g class="caption"><text class="caption node" text-anchor="middle" alignment-baseline="central" x="-168.41450119018555" y="0" fill="rgb(51, 51, 51)" font-size="50px" font-family="&quot;Gill Sans&quot;, &quot;Gill Sans MT&quot;, Calibri, sans-serif">Article</text></g><circle class="node node-id-3" r="94.18855968721103" fill="rgb(255, 255, 255)" stroke="rgb(0, 0, 0)" stroke-width="8px" cx="54.20660400390625" cy="320.53057861328125"/><g class="caption"><text class="caption node" text-anchor="middle" alignment-baseline="central" x="54.20660400390625" y="320.53057861328125" fill="rgb(51, 51, 51)" font-size="50px" font-family="&quot;Gill Sans&quot;, &quot;Gill Sans MT&quot;, Calibri, sans-serif">Venue</text></g></g><g class="layer properties"><g class="speech-bubble node-speech-bubble" transform="translate(493.01416015625,567.6948935709246) "><path class="speech-bubble-outline" transform="scale(1,1) " d="M 0 0 L -10 20 L -141.73583984375 20 A 10 10 0 0 0 -151.73583984375 30 L -151.73583984375 80 A 10 10 0 0 0 -141.73583984375 90 L 141.73583984375 90 A 10 10 0 0 0 151.73583984375 80 L 151.73583984375 30 A 10 10 0 0 0 141.73583984375 20 L 10 20 Z" fill="rgb(255, 255, 255)" stroke="rgb(0, 0, 0)" stroke-width="3px"/><text class="speech-bubble-content property-key" x="11.12060546875" y="55" alignment-baseline="central" text-anchor="end" font-size="50px" font-family="&quot;Gill Sans&quot;, &quot;Gill Sans MT&quot;, Calibri, sans-serif" xml:space="preserve">name: </text><text class="speech-bubble-content property-value" x="11.12060546875" y="55" alignment-baseline="central" font-size="50px" font-family="&quot;Gill Sans&quot;, &quot;Gill Sans MT&quot;, Calibri, sans-serif">String</text></g><g class="speech-bubble node-speech-bubble" transform="translate(558.6479191044268,-65.63375894817682) "><path class="speech-bubble-outline" transform="scale(1,-1) " d="M 0 0 L 30 20 L 366.2548828125 20 A 10 10 0 0 1 376.2548828125 30 L 376.2548828125 180 A 10 10 0 0 1 366.2548828125 190 L 30 190 A 10 10 0 0 1 20 180 L 20 30 Z" fill="rgb(255, 255, 255)" stroke="rgb(0, 0, 0)" stroke-width="3px"/><text class="speech-bubble-content property-key" x="235.6396484375" y="-155" alignment-baseline="central" text-anchor="end" font-size="50px" font-family="&quot;Gill Sans&quot;, &quot;Gill Sans MT&quot;, Calibri, sans-serif" xml:space="preserve">index: </text><text class="speech-bubble-content property-key" x="235.6396484375" y="-105" alignment-baseline="central" text-anchor="end" font-size="50px" font-family="&quot;Gill Sans&quot;, &quot;Gill Sans MT&quot;, Calibri, sans-serif" xml:space="preserve">title: </text><text class="speech-bubble-content property-key" x="235.6396484375" y="-55" alignment-baseline="central" text-anchor="end" font-size="50px" font-family="&quot;Gill Sans&quot;, &quot;Gill Sans MT&quot;, Calibri, sans-serif" xml:space="preserve">abstract: </text><text class="speech-bubble-content property-value" x="235.6396484375" y="-155" alignment-baseline="central" font-size="50px" font-family="&quot;Gill Sans&quot;, &quot;Gill Sans MT&quot;, Calibri, sans-serif">String</text><text class="speech-bubble-content property-value" x="235.6396484375" y="-105" alignment-baseline="central" font-size="50px" font-family="&quot;Gill Sans&quot;, &quot;Gill Sans MT&quot;, Calibri, sans-serif">String</text><text class="speech-bubble-content property-value" x="235.6396484375" y="-55" alignment-baseline="central" font-size="50px" font-family="&quot;Gill Sans&quot;, &quot;Gill Sans MT&quot;, Calibri, sans-serif">String</text></g><g class="speech-bubble node-speech-bubble" transform="translate(-261.2346532442237,0) "><path class="speech-bubble-outline" transform="scale(-1,1) " d="M 0 0 L 20 -10 L 20 -75 A 10 10 0 0 1 30 -85 L 366.2548828125 -85 A 10 10 0 0 1 376.2548828125 -75 L 376.2548828125 75 A 10 10 0 0 1 366.2548828125 85 L 30 85 A 10 10 0 0 1 20 75 L 20 10 Z" fill="rgb(255, 255, 255)" stroke="rgb(0, 0, 0)" stroke-width="3px"/><text class="speech-bubble-content property-key" x="-160.615234375" y="-50" alignment-baseline="central" text-anchor="end" font-size="50px" font-family="&quot;Gill Sans&quot;, &quot;Gill Sans MT&quot;, Calibri, sans-serif" xml:space="preserve">index: </text><text class="speech-bubble-content property-key" x="-160.615234375" y="0" alignment-baseline="central" text-anchor="end" font-size="50px" font-family="&quot;Gill Sans&quot;, &quot;Gill Sans MT&quot;, Calibri, sans-serif" xml:space="preserve">title: </text><text class="speech-bubble-content property-key" x="-160.615234375" y="50" alignment-baseline="central" text-anchor="end" font-size="50px" font-family="&quot;Gill Sans&quot;, &quot;Gill Sans MT&quot;, Calibri, sans-serif" xml:space="preserve">abstract: </text><text class="speech-bubble-content property-value" x="-160.615234375" y="-50" alignment-baseline="central" font-size="50px" font-family="&quot;Gill Sans&quot;, &quot;Gill Sans MT&quot;, Calibri, sans-serif">String</text><text class="speech-bubble-content property-value" x="-160.615234375" y="0" alignment-baseline="central" font-size="50px" font-family="&quot;Gill Sans&quot;, &quot;Gill Sans MT&quot;, Calibri, sans-serif">String</text><text class="speech-bubble-content property-value" x="-160.615234375" y="50" alignment-baseline="central" font-size="50px" font-family="&quot;Gill Sans&quot;, &quot;Gill Sans MT&quot;, Calibri, sans-serif">String</text></g><g class="speech-bubble node-speech-bubble" transform="translate(-12.394765261114557,387.13194787830207) "><path class="speech-bubble-outline" transform="scale(-1,1) " d="M 0 0 L 30 20 L 313.4716796875 20 A 10 10 0 0 1 323.4716796875 30 L 323.4716796875 80 A 10 10 0 0 1 313.4716796875 90 L 30 90 A 10 10 0 0 1 20 80 L 20 30 Z" fill="rgb(255, 255, 255)" stroke="rgb(0, 0, 0)" stroke-width="3px"/><text class="speech-bubble-content property-key" x="-160.615234375" y="55" alignment-baseline="central" text-anchor="end" font-size="50px" font-family="&quot;Gill Sans&quot;, &quot;Gill Sans MT&quot;, Calibri, sans-serif" xml:space="preserve">name: </text><text class="speech-bubble-content property-value" x="-160.615234375" y="55" alignment-baseline="central" font-size="50px" font-family="&quot;Gill Sans&quot;, &quot;Gill Sans MT&quot;, Calibri, sans-serif">String</text></g></g><g class="layer overlay"><circle class="node overlay" r="100.78423378088554" stroke="none" fill="rgba(255, 255, 255, 0)" cx="493.01416015625" cy="470.91065979003906"/><circle class="node ring" r="105.78423378088554" fill="none" stroke="rgba(255, 255, 255, 0)" stroke-width="10px" cx="493.01416015625" cy="470.91065979003906"/><circle class="node overlay" r="96.82015205403813" stroke="none" fill="rgba(255, 255, 255, 0)" cx="493.01416015625" cy="0"/><circle class="node ring" r="101.82015205403813" fill="none" stroke="rgba(255, 255, 255, 0)" stroke-width="10px" cx="493.01416015625" cy="0"/><path class="relationship overlay" fill="rgba(255, 255, 255, 0)" stroke="rgba(255, 255, 255, 0)" stroke-width="10px" transform="translate(493.01416015625,0) rotate(90)" d="M 107.82015205403813 4 L 327.12642600915353 4 L 327.12642600915353 16 L 359.12642600915353 0 L 327.12642600915353 -16 L 327.12642600915353 -4 L 107.82015205403813 -4 Z"/><circle class="node overlay" r="96.82015205403813" stroke="none" fill="rgba(255, 255, 255, 0)" cx="-168.41450119018555" cy="0"/><circle class="node ring" r="101.82015205403813" fill="none" stroke="rgba(255, 255, 255, 0)" stroke-width="10px" cx="-168.41450119018555" cy="0"/><path class="relationship overlay" fill="rgba(255, 255, 255, 0)" stroke="rgba(255, 255, 255, 0)" stroke-width="10px" transform="translate(493.01416015625,0) rotate(180)" d="M 107.82015205403813 4 L 521.6085092923975 4 L 521.6085092923975 16 L 553.6085092923975 0 L 521.6085092923975 -16 L 521.6085092923975 -4 L 107.82015205403813 -4 Z"/><circle class="node overlay" r="98.18855968721103" stroke="none" fill="rgba(255, 255, 255, 0)" cx="54.20660400390625" cy="320.53057861328125"/><circle class="node ring" r="103.18855968721103" fill="none" stroke="rgba(255, 255, 255, 0)" stroke-width="10px" cx="54.20660400390625" cy="320.53057861328125"/><path class="relationship overlay" fill="rgba(255, 255, 255, 0)" stroke="rgba(255, 255, 255, 0)" stroke-width="10px" transform="translate(493.01416015625,0) rotate(143.853433194731)" d="M 107.82015205403813 4 L 402.21913547596677 4 L 402.21913547596677 16 L 434.21913547596677 0 L 402.21913547596677 -16 L 402.21913547596677 -4 L 107.82015205403813 -4 Z"/></g></svg>