<svg xmlns="http://www.w3.org/2000/svg" width="945.449951171875" height="537.7254028320312" viewBox="-399.5200500488281 -349.10076904296875 945.449951171875 537.7254028320312"><title>Neo4j Graph Visualization</title><desc>Created using Neo4j (http://www.neo4j.com/)</desc><g class="layer relationships"><g class="relationship" transform="translate(388.3951357511154 29.990860815382554) rotate(538.7179025256936)"><path class="outline" fill="#A5ABB6" stroke="none" d="M 32.5 0.5 L 88.0802925367332 0.5 L 88.0802925367332 -0.5 L 32.5 -0.5 Z M 171.9396675367332 0.5 L 227.5199600734664 0.5 L 227.5199600734664 3.5 L 234.5199600734664 0 L 227.5199600734664 -3.5 L 227.5199600734664 -0.5 L 171.9396675367332 -0.5 Z"/><text text-anchor="middle" pointer-events="none" font-size="8px" fill="#000000" x="130.0099800367332" y="3" transform="rotate(180 130.0099800367332 0)" font-family="sans-serif">0.5990415335463259</text></g><g class="relationship" transform="translate(406.6318618675684 -116.34147488242503) rotate(512.4829065902877)"><path class="outline" fill="#A5ABB6" stroke="none" d="M 32.5 0.5 L 113.60689842472988 0.5 L 113.60689842472988 -0.5 L 32.5 -0.5 Z M 201.91549217472988 0.5 L 283.02239059945975 0.5 L 283.02239059945975 3.5 L 290.02239059945975 0 L 283.02239059945975 -3.5 L 283.02239059945975 -0.5 L 201.91549217472988 -0.5 Z"/><text text-anchor="middle" pointer-events="none" font-size="8px" fill="#000000" x="157.76119529972988" y="3" transform="rotate(180 157.76119529972988 0)" font-family="sans-serif">0.02582159624413147</text></g><g class="relationship" transform="translate(84.57306170800257 152.12464722645686) rotate(284.2095165966162)"><path class="outline" fill="#A5ABB6" stroke="none" d="M 32.5 0.5 L 44.015564767991336 0.5 L 44.015564767991336 -0.5 L 32.5 -0.5 Z M 61.136658517991336 0.5 L 72.65222328598267 0.5 L 72.65222328598267 3.5 L 79.65222328598267 0 L 72.65222328598267 -3.5 L 72.65222328598267 -0.5 L 61.136658517991336 -0.5 Z"/><text text-anchor="middle" pointer-events="none" font-size="8px" fill="#000000" x="52.576111642991336" y="3" font-family="sans-serif">0.0</text></g><g class="relationship" transform="translate(416.69828915852406 -198.37764358667005) rotate(502.23895289141717)"><path class="outline" fill="#A5ABB6" stroke="none" d="M 32.5 0.5 L 175.6676307380442 0.5 L 175.6676307380442 -0.5 L 32.5 -0.5 Z M 192.7887244880442 0.5 L 335.9563552260884 0.5 L 335.9563552260884 3.5 L 342.9563552260884 0 L 335.9563552260884 -3.5 L 335.9563552260884 -0.5 L 192.7887244880442 -0.5 Z"/><text text-anchor="middle" pointer-events="none" font-size="8px" fill="#000000" x="184.2281776130442" y="3" transform="rotate(180 184.2281776130442 0)" font-family="sans-serif">0.0</text></g><g class="relationship" transform="translate(509.42987822052197 -35.415980091248976) rotate(529.7452726626814)"><path class="outline" fill="#A5ABB6" stroke="none" d="M 32.5 0.5 L 182.91785273059128 0.5 L 182.91785273059128 -0.5 L 32.5 -0.5 Z M 204.48816523059128 0.5 L 354.90601796118256 0.5 L 354.90601796118256 3.5 L 361.90601796118256 0 L 354.90601796118256 -3.5 L 354.90601796118256 -0.5 L 204.48816523059128 -0.5 Z"/><text text-anchor="middle" pointer-events="none" font-size="8px" fill="#000000" x="193.70300898059128" y="3" transform="rotate(180 193.70300898059128 0)" font-family="sans-serif">0.45</text></g><g class="relationship" transform="translate(241.05794470828178 -258.5447346406701) rotate(473.33372274926154)"><path class="outline" fill="#A5ABB6" stroke="none" d="M 32.5 0.5 L 106.83377181813071 0.5 L 106.83377181813071 -0.5 L 32.5 -0.5 Z M 199.5915843181307 0.5 L 273.9253561362614 0.5 L 273.9253561362614 3.5 L 280.9253561362614 0 L 273.9253561362614 -3.5 L 273.9253561362614 -0.5 L 199.5915843181307 -0.5 Z"/><text text-anchor="middle" pointer-events="none" font-size="8px" fill="#000000" x="153.2126780681307" y="3" transform="rotate(180 153.2126780681307 0)" font-family="sans-serif">0.014285714285714292</text></g><g class="relationship" transform="translate(-212.84015354505047 -251.32009396924968) rotate(401.3362495044954)"><path class="outline" fill="#A5ABB6" stroke="none" d="M 32.5 0.5 L 197.35068554173878 0.5 L 197.35068554173878 -0.5 L 32.5 -0.5 Z M 223.37021679173878 0.5 L 388.22090233347757 0.5 L 388.22090233347757 3.5 L 395.22090233347757 0 L 388.22090233347757 -3.5 L 388.22090233347757 -0.5 L 223.37021679173878 -0.5 Z"/><text text-anchor="middle" pointer-events="none" font-size="8px" fill="#000000" x="210.36045116673878" y="3" font-family="sans-serif">0.075</text></g><g class="relationship" transform="translate(1.067867368279483 -116.17095694542736) rotate(413.4570301821413)"><path class="outline" fill="#A5ABB6" stroke="none" d="M 32.5 0.5 L 78.97548230462229 0.5 L 78.97548230462229 -0.5 L 32.5 -0.5 Z M 96.09657605462229 0.5 L 142.57205835924458 0.5 L 142.57205835924458 3.5 L 149.57205835924458 0 L 142.57205835924458 -3.5 L 142.57205835924458 -0.5 L 96.09657605462229 -0.5 Z"/><text text-anchor="middle" pointer-events="none" font-size="8px" fill="#000000" x="87.53602917962229" y="3" font-family="sans-serif">0.5</text></g><g class="relationship" transform="translate(-363.02005470454776 -88.664979975934) rotate(374.66279918401744)"><path class="outline" fill="#A5ABB6" stroke="none" d="M 32.5 0.5 L 230.69970127405946 0.5 L 230.69970127405946 -0.5 L 32.5 -0.5 Z M 247.82079502405946 0.5 L 446.0204962981189 0.5 L 446.0204962981189 3.5 L 453.0204962981189 0 L 446.0204962981189 -3.5 L 446.0204962981189 -0.5 L 247.82079502405946 -0.5 Z"/><text text-anchor="middle" pointer-events="none" font-size="8px" fill="#000000" x="239.26024814905946" y="3" font-family="sans-serif">0.0</text></g><g class="relationship" transform="translate(-360.4191404699345 90.60980993894833) rotate(353.4487649305547)"><path class="outline" fill="#A5ABB6" stroke="none" d="M 32.5 0.5 L 222.9298945443059 0.5 L 222.9298945443059 -0.5 L 32.5 -0.5 Z M 240.0509882943059 0.5 L 430.4808828386118 0.5 L 430.4808828386118 3.5 L 437.4808828386118 0 L 430.4808828386118 -3.5 L 430.4808828386118 -0.5 L 240.0509882943059 -0.5 Z"/><text text-anchor="middle" pointer-events="none" font-size="8px" fill="#000000" x="231.4904414193059" y="3" font-family="sans-serif">0.5</text></g><g class="relationship" transform="translate(144.6092264276724 -312.6007728194986) rotate(455.0252800902466)"><path class="outline" fill="#A5ABB6" stroke="none" d="M 32.5 0.5 L 159.22928331887408 0.5 L 159.22928331887408 -0.5 L 32.5 -0.5 Z M 176.35037706887408 0.5 L 303.07966038774816 0.5 L 303.07966038774816 3.5 L 310.07966038774816 0 L 303.07966038774816 -3.5 L 303.07966038774816 -0.5 L 176.35037706887408 -0.5 Z"/><text text-anchor="middle" pointer-events="none" font-size="8px" fill="#000000" x="167.78983019387408" y="3" transform="rotate(180 167.78983019387408 0)" font-family="sans-serif">0.0</text></g><g class="relationship" transform="translate(-360.4191404699345 90.60980993894833) rotate(321.17158070186053)"><path class="outline" fill="#A5ABB6" stroke="none" d="M 32.5 0.5 L 229.72735541413417 0.5 L 229.72735541413417 -0.5 L 32.5 -0.5 Z M 246.84844916413417 0.5 L 444.07580457826833 0.5 L 444.07580457826833 3.5 L 451.07580457826833 0 L 444.07580457826833 -3.5 L 444.07580457826833 -0.5 L 246.84844916413417 -0.5 Z"/><text text-anchor="middle" pointer-events="none" font-size="8px" fill="#000000" x="238.28790228913417" y="3" font-family="sans-serif">0.5</text></g><g class="relationship" transform="translate(-363.02005470454776 -88.664979975934) rotate(341.53325294127626)"><path class="outline" fill="#A5ABB6" stroke="none" d="M 32.5 0.5 L 153.85623832961647 0.5 L 153.85623832961647 -0.5 L 32.5 -0.5 Z M 237.71561332961647 0.5 L 359.07185165923295 0.5 L 359.07185165923295 3.5 L 366.07185165923295 0 L 359.07185165923295 -3.5 L 359.07185165923295 -0.5 L 237.71561332961647 -0.5 Z"/><text text-anchor="middle" pointer-events="none" font-size="8px" fill="#000000" x="195.78592582961647" y="3" font-family="sans-serif">0.7187499999999999</text></g><g class="relationship" transform="translate(509.42987822052197 -35.415980091248976) rotate(200.4674539593488)"><path class="outline" fill="#A5ABB6" stroke="none" d="M 32.5 0.5 L 244.250705618192 0.5 L 244.250705618192 -0.5 L 32.5 -0.5 Z M 261.371799368192 0.5 L 473.122504986384 0.5 L 473.122504986384 3.5 L 480.122504986384 0 L 473.122504986384 -3.5 L 473.122504986384 -0.5 L 261.371799368192 -0.5 Z"/><text text-anchor="middle" pointer-events="none" font-size="8px" fill="#000000" x="252.811252493192" y="3" transform="rotate(180 252.811252493192 0)" font-family="sans-serif">0.5</text></g><g class="relationship" transform="translate(416.69828915852406 -198.37764358667005) rotate(182.74426580619507)"><path class="outline" fill="#A5ABB6" stroke="none" d="M 32.5 0.5 L 181.69399759050117 0.5 L 181.69399759050117 -0.5 L 32.5 -0.5 Z M 198.81509134050117 0.5 L 348.00908893100234 0.5 L 348.00908893100234 3.5 L 355.00908893100234 0 L 348.00908893100234 -3.5 L 348.00908893100234 -0.5 L 198.81509134050117 -0.5 Z"/><text text-anchor="middle" pointer-events="none" font-size="8px" fill="#000000" x="190.25454446550117" y="3" transform="rotate(180 190.25454446550117 0)" font-family="sans-serif">1.0</text></g><g class="relationship" transform="translate(406.6318618675684 -116.34147488242503) rotate(194.71108412765022)"><path class="outline" fill="#A5ABB6" stroke="none" d="M 32.5 0.5 L 149.8776543958137 0.5 L 149.8776543958137 -0.5 L 32.5 -0.5 Z M 233.1432793958137 0.5 L 350.5209337916274 0.5 L 350.5209337916274 3.5 L 357.5209337916274 0 L 350.5209337916274 -3.5 L 350.5209337916274 -0.5 L 233.1432793958137 -0.5 Z"/><text text-anchor="middle" pointer-events="none" font-size="8px" fill="#000000" x="191.5104668958137" y="3" transform="rotate(180 191.5104668958137 0)" font-family="sans-serif">0.7042253521126761</text></g><g class="relationship" transform="translate(1.067867368279483 -116.17095694542736) rotate(281.77256721010735)"><path class="outline" fill="#A5ABB6" stroke="none" d="M 32.5 0.5 L 35.83531216260365 0.5 L 35.83531216260365 -0.5 L 32.5 -0.5 Z M 52.95640591260365 0.5 L 56.2917180752073 0.5 L 56.2917180752073 3.5 L 63.2917180752073 0 L 56.2917180752073 -3.5 L 56.2917180752073 -0.5 L 52.95640591260365 -0.5 Z"/><text text-anchor="middle" pointer-events="none" font-size="8px" fill="#000000" x="44.39585903760365" y="3" font-family="sans-serif">0.5</text></g><g class="relationship" transform="translate(388.3951357511154 29.990860815382554) rotate(214.0258068544572)"><path class="outline" fill="#A5ABB6" stroke="none" d="M 32.5 0.5 L 169.55328472670337 0.5 L 169.55328472670337 -0.5 L 32.5 -0.5 Z M 257.8618784767034 0.5 L 394.91516320340673 0.5 L 394.91516320340673 3.5 L 401.91516320340673 0 L 394.91516320340673 -3.5 L 394.91516320340673 -0.5 L 257.8618784767034 -0.5 Z"/><text text-anchor="middle" pointer-events="none" font-size="8px" fill="#000000" x="213.70758160170337" y="3" transform="rotate(180 213.70758160170337 0)" font-family="sans-serif">0.20127795527156556</text></g><g class="relationship" transform="translate(241.05794470828178 -258.5447346406701) rotate(529.3277435792185)"><path class="outline" fill="#A5ABB6" stroke="none" d="M 32.5 0.5 L 95.57398844454613 0.5 L 95.57398844454613 -0.5 L 32.5 -0.5 Z M 112.69508219454613 0.5 L 175.76907063909226 0.5 L 175.76907063909226 3.5 L 182.76907063909226 0 L 175.76907063909226 -3.5 L 175.76907063909226 -0.5 L 112.69508219454613 -0.5 Z"/><text text-anchor="middle" pointer-events="none" font-size="8px" fill="#000000" x="104.13453531954613" y="3" transform="rotate(180 104.13453531954613 0)" font-family="sans-serif">0.5</text></g><g class="relationship" transform="translate(144.6092264276724 -312.6007728194986) rotate(502.1079117529555)"><path class="outline" fill="#A5ABB6" stroke="none" d="M 32.5 0.5 L 61.7818562719559 0.5 L 61.7818562719559 -0.5 L 32.5 -0.5 Z M 78.9029500219559 0.5 L 108.1848062939118 0.5 L 108.1848062939118 3.5 L 115.1848062939118 0 L 108.1848062939118 -3.5 L 108.1848062939118 -0.5 L 78.9029500219559 -0.5 Z"/><text text-anchor="middle" pointer-events="none" font-size="8px" fill="#000000" x="70.3424031469559" y="3" transform="rotate(180 70.3424031469559 0)" font-family="sans-serif">0.5</text></g><g class="relationship" transform="translate(84.57306170800257 152.12464722645686) rotate(260.40768183362235)"><path class="outline" fill="#A5ABB6" stroke="none" d="M 32.5 0.5 L 171.51587880505718 0.5 L 171.51587880505718 -0.5 L 32.5 -0.5 Z M 188.63697255505718 0.5 L 327.65285136011437 0.5 L 327.65285136011437 3.5 L 334.65285136011437 0 L 327.65285136011437 -3.5 L 327.65285136011437 -0.5 L 188.63697255505718 -0.5 Z"/><text text-anchor="middle" pointer-events="none" font-size="8px" fill="#000000" x="180.07642568005718" y="3" transform="rotate(180 180.07642568005718 0)" font-family="sans-serif">0.0</text></g><g class="relationship" transform="translate(-212.84015354505047 -251.32009396924968) rotate(368.2402851288065)"><path class="outline" fill="#A5ABB6" stroke="none" d="M 32.5 0.5 L 98.45708081603918 0.5 L 98.45708081603918 -0.5 L 32.5 -0.5 Z M 124.47661206603918 0.5 L 190.43369288207836 0.5 L 190.43369288207836 3.5 L 197.43369288207836 0 L 190.43369288207836 -3.5 L 190.43369288207836 -0.5 L 124.47661206603918 -0.5 Z"/><text text-anchor="middle" pointer-events="none" font-size="8px" fill="#000000" x="111.46684644103918" y="3" font-family="sans-serif">0.225</text></g><g class="relationship" transform="translate(-363.02005470454776 -88.664979975934) rotate(398.40104844377004)"><path class="outline" fill="#A5ABB6" stroke="none" d="M 32.5 0.5 L 141.8142556559145 0.5 L 141.8142556559145 -0.5 L 32.5 -0.5 Z M 181.1814431559145 0.5 L 290.495698811829 0.5 L 290.495698811829 3.5 L 297.495698811829 0 L 290.495698811829 -3.5 L 290.495698811829 -0.5 L 181.1814431559145 -0.5 Z"/><text text-anchor="middle" pointer-events="none" font-size="8px" fill="#000000" x="161.4978494059145" y="3" font-family="sans-serif">0.265625</text></g><g class="relationship" transform="translate(1.067867368279483 -116.17095694542736) rotate(472.7818857787082)"><path class="outline" fill="#A5ABB6" stroke="none" d="M 32.5 0.5 L 112.79532069827266 0.5 L 112.79532069827266 -0.5 L 32.5 -0.5 Z M 129.91641444827266 0.5 L 210.21173514654532 0.5 L 210.21173514654532 3.5 L 217.21173514654532 0 L 210.21173514654532 -3.5 L 210.21173514654532 -0.5 L 129.91641444827266 -0.5 Z"/><text text-anchor="middle" pointer-events="none" font-size="8px" fill="#000000" x="121.35586757327266" y="3" transform="rotate(180 121.35586757327266 0)" font-family="sans-serif">0.5</text></g><g class="relationship" transform="translate(84.57306170800257 152.12464722645686) rotate(189.65486983703056)"><path class="outline" fill="#A5ABB6" stroke="none" d="M 32.5 0.5 L 77.05672733263833 0.5 L 77.05672733263833 -0.5 L 32.5 -0.5 Z M 94.17782108263833 0.5 L 138.73454841527666 0.5 L 138.73454841527666 3.5 L 145.73454841527666 0 L 138.73454841527666 -3.5 L 138.73454841527666 -0.5 L 94.17782108263833 -0.5 Z"/><text text-anchor="middle" pointer-events="none" font-size="8px" fill="#000000" x="85.61727420763833" y="3" transform="rotate(180 85.61727420763833 0)" font-family="sans-serif">0.0</text></g></g><g class="layer nodes"><g class="node" transform="translate(388.3951357511154,29.990860815382554)"><circle class="outline" cx="0" cy="0" r="32.5" fill="#DA7194" stroke="#cc3c6c" stroke-width="2px"/><text text-anchor="middle" pointer-events="none" font-family="sans-serif" dy="2.03125" font-size="32.5" fill="#FFFFFF"/><text text-anchor="middle" pointer-events="none" y="5" font-size="10px" fill="#FFFFFF" font-family="sans-serif"> Conservative</text></g><g class="node" transform="translate(113.9439019255059,36.13323253469382)"><circle class="outline" cx="0" cy="0" r="40" fill="#F79767" stroke="#f36924" stroke-width="2px"/><text text-anchor="middle" pointer-events="none" font-family="sans-serif" dy="2.5" font-size="40" fill="#FFFFFF"/><text text-anchor="middle" pointer-events="none" font-family="sans-serif" dy="2.5" font-size="40" fill="#FFFFFF"/><text text-anchor="middle" pointer-events="none" font-family="sans-serif" dy="2.5" font-size="40" fill="#FFFFFF"/><text text-anchor="middle" pointer-events="none" y="-5" font-size="10px" fill="#FFFFFF" font-family="sans-serif"> Mr Baron's</text><text text-anchor="middle" pointer-events="none" y="5" font-size="10px" fill="#FFFFFF" font-family="sans-serif"> motion B (No</text><text text-anchor="middle" pointer-events="none" y="15" font-size="10px" fill="#FFFFFF" font-family="sans-serif"> deal)</text></g><g class="node" transform="translate(406.6318618675684,-116.34147488242503)"><circle class="outline" cx="0" cy="0" r="32.5" fill="#DA7194" stroke="#cc3c6c" stroke-width="2px"/><text text-anchor="middle" pointer-events="none" font-family="sans-serif" dy="2.03125" font-size="32.5" fill="#FFFFFF"/><text text-anchor="middle" pointer-events="none" y="5" font-size="10px" fill="#FFFFFF" font-family="sans-serif"> Labour</text></g><g class="node" transform="translate(84.57306170800257,152.12464722645686)"><circle class="outline" cx="0" cy="0" r="32.5" fill="#DA7194" stroke="#cc3c6c" stroke-width="2px"/><text text-anchor="middle" pointer-events="none" font-family="sans-serif" dy="2.03125" font-size="32.5" fill="#FFFFFF"/><text text-anchor="middle" pointer-events="none" y="5" font-size="10px" fill="#FFFFFF" font-family="sans-serif"> Green</text></g><g class="node" transform="translate(416.69828915852406,-198.37764358667005)"><circle class="outline" cx="0" cy="0" r="32.5" fill="#DA7194" stroke="#cc3c6c" stroke-width="2px"/><text text-anchor="middle" pointer-events="none" font-family="sans-serif" dy="2.03125" font-size="32.5" fill="#FFFFFF"/><text text-anchor="middle" pointer-events="none" y="5" font-size="10px" fill="#FFFFFF" font-family="sans-serif"> Plaid Cymru</text></g><g class="node" transform="translate(509.42987822052197,-35.415980091248976)"><circle class="outline" cx="0" cy="0" r="32.5" fill="#DA7194" stroke="#cc3c6c" stroke-width="2px"/><text text-anchor="middle" pointer-events="none" font-family="sans-serif" dy="2.03125" font-size="32.5" fill="#FFFFFF"/><text text-anchor="middle" pointer-events="none" y="5" font-size="10px" fill="#FFFFFF" font-family="sans-serif"> DUP</text></g><g class="node" transform="translate(241.05794470828178,-258.5447346406701)"><circle class="outline" cx="0" cy="0" r="32.5" fill="#DA7194" stroke="#cc3c6c" stroke-width="2px"/><text text-anchor="middle" pointer-events="none" font-family="sans-serif" dy="2.03125" font-size="32.5" fill="#FFFFFF"/><text text-anchor="middle" pointer-events="none" font-family="sans-serif" dy="2.03125" font-size="32.5" fill="#FFFFFF"/><text text-anchor="middle" pointer-events="none" font-family="sans-serif" dy="2.03125" font-size="32.5" fill="#FFFFFF"/><text text-anchor="middle" pointer-events="none" y="-5" font-size="10px" fill="#FFFFFF" font-family="sans-serif"> Scottish</text><text text-anchor="middle" pointer-events="none" y="5" font-size="10px" fill="#FFFFFF" font-family="sans-serif"> National</text><text text-anchor="middle" pointer-events="none" y="15" font-size="10px" fill="#FFFFFF" font-family="sans-serif"> Party</text></g><g class="node" transform="translate(-212.84015354505047,-251.32009396924968)"><circle class="outline" cx="0" cy="0" r="32.5" fill="#DA7194" stroke="#cc3c6c" stroke-width="2px"/><text text-anchor="middle" pointer-events="none" font-family="sans-serif" dy="2.03125" font-size="32.5" fill="#FFFFFF"/><text text-anchor="middle" pointer-events="none" y="5" font-size="10px" fill="#FFFFFF" font-family="sans-serif"> Independent</text></g><g class="node" transform="translate(1.067867368279483,-116.17095694542736)"><circle class="outline" cx="0" cy="0" r="32.5" fill="#DA7194" stroke="#cc3c6c" stroke-width="2px"/><text text-anchor="middle" pointer-events="none" font-family="sans-serif" dy="2.03125" font-size="32.5" fill="#FFFFFF"/><text text-anchor="middle" pointer-events="none" y="5" font-size="10px" fill="#FFFFFF" font-family="sans-serif"> Speaker</text></g><g class="node" transform="translate(-363.02005470454776,-88.664979975934)"><circle class="outline" cx="0" cy="0" r="32.5" fill="#DA7194" stroke="#cc3c6c" stroke-width="2px"/><text text-anchor="middle" pointer-events="none" font-family="sans-serif" dy="2.03125" font-size="32.5" fill="#FFFFFF"/><text text-anchor="middle" pointer-events="none" y="5" font-size="10px" fill="#FFFFFF" font-family="sans-serif"> Labour/Co-…</text></g><g class="node" transform="translate(-360.4191404699345,90.60980993894833)"><circle class="outline" cx="0" cy="0" r="32.5" fill="#DA7194" stroke="#cc3c6c" stroke-width="2px"/><text text-anchor="middle" pointer-events="none" font-family="sans-serif" dy="2.03125" font-size="32.5" fill="#FFFFFF"/><text text-anchor="middle" pointer-events="none" y="5" font-size="10px" fill="#FFFFFF" font-family="sans-serif"> Sinn Féin</text></g><g class="node" transform="translate(144.6092264276724,-312.6007728194986)"><circle class="outline" cx="0" cy="0" r="32.5" fill="#DA7194" stroke="#cc3c6c" stroke-width="2px"/><text text-anchor="middle" pointer-events="none" font-family="sans-serif" dy="2.03125" font-size="32.5" fill="#FFFFFF"/><text text-anchor="middle" pointer-events="none" font-family="sans-serif" dy="2.03125" font-size="32.5" fill="#FFFFFF"/><text text-anchor="middle" pointer-events="none" y="0" font-size="10px" fill="#FFFFFF" font-family="sans-serif"> Liberal</text><text text-anchor="middle" pointer-events="none" y="10" font-size="10px" fill="#FFFFFF" font-family="sans-serif"> Democrat</text></g><g class="node" transform="translate(22.142203302380693,-217.2899531225293)"><circle class="outline" cx="0" cy="0" r="40" fill="#F79767" stroke="#f36924" stroke-width="2px"/><text text-anchor="middle" pointer-events="none" font-family="sans-serif" dy="2.5" font-size="40" fill="#FFFFFF"/><text text-anchor="middle" pointer-events="none" font-family="sans-serif" dy="2.5" font-size="40" fill="#FFFFFF"/><text text-anchor="middle" pointer-events="none" font-family="sans-serif" dy="2.5" font-size="40" fill="#FFFFFF"/><text text-anchor="middle" pointer-events="none" font-family="sans-serif" dy="2.5" font-size="40" fill="#FFFFFF"/><text text-anchor="middle" pointer-events="none" y="-10" font-size="10px" fill="#FFFFFF" font-family="sans-serif"> Nick Boles's</text><text text-anchor="middle" pointer-events="none" y="0" font-size="10px" fill="#FFFFFF" font-family="sans-serif"> motion D</text><text text-anchor="middle" pointer-events="none" y="10" font-size="10px" fill="#FFFFFF" font-family="sans-serif"> (Common</text><text text-anchor="middle" pointer-events="none" y="20" font-size="10px" fill="#FFFFFF" font-family="sans-serif"> market 2.0)</text></g><g class="node" transform="translate(-98.53071977703337,120.97456406594257)"><circle class="outline" cx="0" cy="0" r="40" fill="#F79767" stroke="#f36924" stroke-width="2px"/><text text-anchor="middle" pointer-events="none" font-family="sans-serif" dy="2.5" font-size="40" fill="#FFFFFF"/><text text-anchor="middle" pointer-events="none" font-family="sans-serif" dy="2.5" font-size="40" fill="#FFFFFF"/><text text-anchor="middle" pointer-events="none" font-family="sans-serif" dy="2.5" font-size="40" fill="#FFFFFF"/><text text-anchor="middle" pointer-events="none" font-family="sans-serif" dy="2.5" font-size="40" fill="#FFFFFF"/><text text-anchor="middle" pointer-events="none" y="-10" font-size="10px" fill="#FFFFFF" font-family="sans-serif"> George</text><text text-anchor="middle" pointer-events="none" y="0" font-size="10px" fill="#FFFFFF" font-family="sans-serif"> Eustice's motion</text><text text-anchor="middle" pointer-events="none" y="10" font-size="10px" fill="#FFFFFF" font-family="sans-serif"> H (EFTA and</text><text text-anchor="middle" pointer-events="none" y="20" font-size="10px" fill="#FFFFFF" font-family="sans-serif"> EEA)</text></g></g></svg>