<svg xmlns="http://www.w3.org/2000/svg" width="974.3758544921875" height="790.0106811523438" viewBox="-455.0064392089844 -745.4990844726562 974.3758544921875 790.0106811523438"><title>Neo4j Graph Visualization</title><desc>Created using Neo4j (http://www.neo4j.com/)</desc><g class="layer relationships"><g class="relationship" transform="translate(-411.00644975244126 -287.2962075678693) rotate(356.85488151777963)"><path class="outline" fill="#A5ABB6" stroke="none" d="M 40 0.5 L 205.96096649803937 0.5 L 205.96096649803937 -0.5 L 40 -0.5 Z M 223.08206024803937 0.5 L 389.04302674607874 0.5 L 389.04302674607874 3.5 L 396.04302674607874 0 L 389.04302674607874 -3.5 L 389.04302674607874 -0.5 L 223.08206024803937 -0.5 Z"/><text text-anchor="middle" pointer-events="none" font-size="8px" fill="#000000" x="214.52151337303937" y="3" font-family="sans-serif">0.5</text></g><g class="relationship" transform="translate(475.36935350967565 -285.46229552055195) rotate(183.26879472295008)"><path class="outline" fill="#A5ABB6" stroke="none" d="M 40 0.5 L 213.80170411084615 0.5 L 213.80170411084615 -0.5 L 40 -0.5 Z M 230.92279786084615 0.5 L 404.7245019716923 0.5 L 404.7245019716923 3.5 L 411.7245019716923 0 L 404.7245019716923 -3.5 L 404.7245019716923 -0.5 L 230.92279786084615 -0.5 Z"/><text text-anchor="middle" pointer-events="none" font-size="8px" fill="#000000" x="222.36225098584615" y="3" transform="rotate(180 222.36225098584615 0)" font-family="sans-serif">0.5</text></g><g class="relationship" transform="translate(-411.00644975244126 -287.2962075678693) rotate(316.0456926253718)"><path class="outline" fill="#A5ABB6" stroke="none" d="M 40 0.5 L 289.6561274100323 0.5 L 289.6561274100323 -0.5 L 40 -0.5 Z M 300.1053461600323 0.5 L 549.7614735700646 0.5 L 549.7614735700646 3.5 L 556.7614735700646 0 L 549.7614735700646 -3.5 L 549.7614735700646 -0.5 L 300.1053461600323 -0.5 Z"/><text text-anchor="middle" pointer-events="none" font-size="8px" fill="#000000" x="294.8807367850323" y="3" font-family="sans-serif">1</text></g><g class="relationship" transform="translate(475.36935350967565 -285.46229552055195) rotate(222.32792316275078)"><path class="outline" fill="#A5ABB6" stroke="none" d="M 40 0.5 L 263.4903747964934 0.5 L 263.4903747964934 -0.5 L 40 -0.5 Z M 347.3497497964934 0.5 L 570.8401245929869 0.5 L 570.8401245929869 3.5 L 577.8401245929869 0 L 570.8401245929869 -3.5 L 570.8401245929869 -0.5 L 347.3497497964934 -0.5 Z"/><text text-anchor="middle" pointer-events="none" font-size="8px" fill="#000000" x="305.4200622964934" y="3" transform="rotate(180 305.4200622964934 0)" font-family="sans-serif">0.9545454545454545</text></g><g class="relationship" transform="translate(-411.00644975244126 -287.2962075678693) rotate(343.9222392492977)"><path class="outline" fill="#A5ABB6" stroke="none" d="M 40 0.5 L 213.12564139752013 0.5 L 213.12564139752013 -0.5 L 40 -0.5 Z M 230.24673514752013 0.5 L 403.37237654504025 0.5 L 403.37237654504025 3.5 L 410.37237654504025 0 L 403.37237654504025 -3.5 L 403.37237654504025 -0.5 L 230.24673514752013 -0.5 Z"/><text text-anchor="middle" pointer-events="none" font-size="8px" fill="#000000" x="221.68618827252013" y="3" font-family="sans-serif">0.5</text></g><g class="relationship" transform="translate(475.36935350967565 -285.46229552055195) rotate(195.58923301395504)"><path class="outline" fill="#A5ABB6" stroke="none" d="M 40 0.5 L 190.04207581514962 0.5 L 190.04207581514962 -0.5 L 40 -0.5 Z M 273.9014508151496 0.5 L 423.94352663029923 0.5 L 423.94352663029923 3.5 L 430.94352663029923 0 L 423.94352663029923 -3.5 L 423.94352663029923 -0.5 L 273.9014508151496 -0.5 Z"/><text text-anchor="middle" pointer-events="none" font-size="8px" fill="#000000" x="231.97176331514962" y="3" transform="rotate(180 231.97176331514962 0)" font-family="sans-serif">0.4090909090909091</text></g><g class="relationship" transform="translate(-411.00644975244126 -287.2962075678693) rotate(381.4593186458838)"><path class="outline" fill="#A5ABB6" stroke="none" d="M 40 0.5 L 225.31868437519393 0.5 L 225.31868437519393 -0.5 L 40 -0.5 Z M 242.43977812519393 0.5 L 427.75846250038785 0.5 L 427.75846250038785 3.5 L 434.75846250038785 0 L 427.75846250038785 -3.5 L 427.75846250038785 -0.5 L 242.43977812519393 -0.5 Z"/><text text-anchor="middle" pointer-events="none" font-size="8px" fill="#000000" x="233.87923125019393" y="3" font-family="sans-serif">0.5</text></g><g class="relationship" transform="translate(475.36935350967565 -285.46229552055195) rotate(518.8638175837821)"><path class="outline" fill="#A5ABB6" stroke="none" d="M 40 0.5 L 226.23491824687335 0.5 L 226.23491824687335 -0.5 L 40 -0.5 Z M 243.35601199687335 0.5 L 429.5909302437467 0.5 L 429.5909302437467 3.5 L 436.5909302437467 0 L 429.5909302437467 -3.5 L 429.5909302437467 -0.5 L 243.35601199687335 -0.5 Z"/><text text-anchor="middle" pointer-events="none" font-size="8px" fill="#000000" x="234.79546512187335" y="3" transform="rotate(180 234.79546512187335 0)" font-family="sans-serif">0.0</text></g><g class="relationship" transform="translate(-411.00644975244126 -287.2962075678693) rotate(323.42926478833476)"><path class="outline" fill="#A5ABB6" stroke="none" d="M 40 0.5 L 260.1503704849016 0.5 L 260.1503704849016 -0.5 L 40 -0.5 Z M 270.5995892349016 0.5 L 490.7499597198032 0.5 L 490.7499597198032 3.5 L 497.7499597198032 0 L 490.7499597198032 -3.5 L 490.7499597198032 -0.5 L 270.5995892349016 -0.5 Z"/><text text-anchor="middle" pointer-events="none" font-size="8px" fill="#000000" x="265.3749798599016" y="3" font-family="sans-serif">1</text></g><g class="relationship" transform="translate(475.36935350967565 -285.46229552055195) rotate(215.33621049286882)"><path class="outline" fill="#A5ABB6" stroke="none" d="M 40 0.5 L 266.50804027089794 0.5 L 266.50804027089794 -0.5 L 40 -0.5 Z M 283.62913402089794 0.5 L 510.1371742917959 0.5 L 510.1371742917959 3.5 L 517.1371742917959 0 L 510.1371742917959 -3.5 L 510.1371742917959 -0.5 L 283.62913402089794 -0.5 Z"/><text text-anchor="middle" pointer-events="none" font-size="8px" fill="#000000" x="275.06858714589794" y="3" transform="rotate(180 275.06858714589794 0)" font-family="sans-serif">1.0</text></g><g class="relationship" transform="translate(-411.00644975244126 -287.2962075678693) rotate(392.77100902422524)"><path class="outline" fill="#A5ABB6" stroke="none" d="M 40 0.5 L 253.7965667059932 0.5 L 253.7965667059932 -0.5 L 40 -0.5 Z M 270.9176604559932 0.5 L 484.7142271619864 0.5 L 484.7142271619864 3.5 L 491.7142271619864 0 L 484.7142271619864 -3.5 L 484.7142271619864 -0.5 L 270.9176604559932 -0.5 Z"/><text text-anchor="middle" pointer-events="none" font-size="8px" fill="#000000" x="262.3571135809932" y="3" font-family="sans-serif">0.5</text></g><g class="relationship" transform="translate(475.36935350967565 -285.46229552055195) rotate(506.93616623847834)"><path class="outline" fill="#A5ABB6" stroke="none" d="M 40 0.5 L 216.65607481001615 0.5 L 216.65607481001615 -0.5 L 40 -0.5 Z M 300.51544981001615 0.5 L 477.1715246200323 0.5 L 477.1715246200323 3.5 L 484.1715246200323 0 L 477.1715246200323 -3.5 L 477.1715246200323 -0.5 L 300.51544981001615 -0.5 Z"/><text text-anchor="middle" pointer-events="none" font-size="8px" fill="#000000" x="258.58576231001615" y="3" transform="rotate(180 258.58576231001615 0)" font-family="sans-serif">0.4090909090909091</text></g><g class="relationship" transform="translate(-411.00644975244126 -287.2962075678693) rotate(332.8973095846542)"><path class="outline" fill="#A5ABB6" stroke="none" d="M 40 0.5 L 232.02217798140987 0.5 L 232.02217798140987 -0.5 L 40 -0.5 Z M 249.14327173140987 0.5 L 441.16544971281974 0.5 L 441.16544971281974 3.5 L 448.16544971281974 0 L 441.16544971281974 -3.5 L 441.16544971281974 -0.5 L 249.14327173140987 -0.5 Z"/><text text-anchor="middle" pointer-events="none" font-size="8px" fill="#000000" x="240.58272485640987" y="3" font-family="sans-serif">0.5</text></g><g class="relationship" transform="translate(475.36935350967565 -285.46229552055195) rotate(206.39518060293165)"><path class="outline" fill="#A5ABB6" stroke="none" d="M 40 0.5 L 240.13902721464595 0.5 L 240.13902721464595 -0.5 L 40 -0.5 Z M 257.2601209646459 0.5 L 457.3991481792919 0.5 L 457.3991481792919 3.5 L 464.3991481792919 0 L 457.3991481792919 -3.5 L 457.3991481792919 -0.5 L 257.2601209646459 -0.5 Z"/><text text-anchor="middle" pointer-events="none" font-size="8px" fill="#000000" x="248.69957408964595" y="3" transform="rotate(180 248.69957408964595 0)" font-family="sans-serif">0.5</text></g><g class="relationship" transform="translate(-411.00644975244126 -287.2962075678693) rotate(369.31964850297265)"><path class="outline" fill="#A5ABB6" stroke="none" d="M 40 0.5 L 213.93272759455905 0.5 L 213.93272759455905 -0.5 L 40 -0.5 Z M 224.38194634455905 0.5 L 398.3146739391181 0.5 L 398.3146739391181 3.5 L 405.3146739391181 0 L 398.3146739391181 -3.5 L 398.3146739391181 -0.5 L 224.38194634455905 -0.5 Z"/><text text-anchor="middle" pointer-events="none" font-size="8px" fill="#000000" x="219.15733696955905" y="3" font-family="sans-serif">0</text></g><g class="relationship" transform="translate(475.36935350967565 -285.46229552055195) rotate(531.0633995776125)"><path class="outline" fill="#A5ABB6" stroke="none" d="M 40 0.5 L 214.15511039662863 0.5 L 214.15511039662863 -0.5 L 40 -0.5 Z M 231.27620414662863 0.5 L 405.43131454325726 0.5 L 405.43131454325726 3.5 L 412.43131454325726 0 L 405.43131454325726 -3.5 L 405.43131454325726 -0.5 L 231.27620414662863 -0.5 Z"/><text text-anchor="middle" pointer-events="none" font-size="8px" fill="#000000" x="222.71565727162863" y="3" transform="rotate(180 222.71565727162863 0)" font-family="sans-serif">0.0</text></g></g><g class="layer nodes"><g class="node" transform="translate(-411.00644975244126,-287.2962075678693)"><circle class="outline" cx="0" cy="0" r="40" fill="#F16667" stroke="#eb2728" stroke-width="2px"/><text text-anchor="middle" pointer-events="none" font-family="sans-serif" dy="2.5" font-size="40" fill="#FFFFFF"/><text text-anchor="middle" pointer-events="none" y="5" font-size="10px" fill="#FFFFFF" font-family="sans-serif"> Justine Greening</text></g><g class="node" transform="translate(24.379798304873702,-311.2197561436087)"><circle class="outline" cx="0" cy="0" r="40" fill="#4C8EDA" stroke="#2870c2" stroke-width="2px"/><text text-anchor="middle" pointer-events="none" font-family="sans-serif" dy="2.5" font-size="40" fill="#FFFFFF"/><text text-anchor="middle" pointer-events="none" font-family="sans-serif" dy="2.5" font-size="40" fill="#FFFFFF"/><text text-anchor="middle" pointer-events="none" font-family="sans-serif" dy="2.5" font-size="40" fill="#FFFFFF"/><text text-anchor="middle" pointer-events="none" y="-5" font-size="10px" fill="#FFFFFF" font-family="sans-serif"> Mr Clarke's</text><text text-anchor="middle" pointer-events="none" y="5" font-size="10px" fill="#FFFFFF" font-family="sans-serif"> motion J</text><text text-anchor="middle" pointer-events="none" y="15" font-size="10px" fill="#FFFFFF" font-family="sans-serif"> (Customs uni…</text></g><g class="node" transform="translate(475.36935350967565,-285.46229552055195)"><circle class="outline" cx="0" cy="0" r="40" fill="#DA7194" stroke="#cc3c6c" stroke-width="2px"/><text text-anchor="middle" pointer-events="none" font-family="sans-serif" dy="2.5" font-size="40" fill="#FFFFFF"/><text text-anchor="middle" pointer-events="none" y="5" font-size="10px" fill="#FFFFFF" font-family="sans-serif"> Liberal Democrat</text></g><g class="node" transform="translate(18.59828738304705,-701.4990880120581)"><circle class="outline" cx="0" cy="0" r="40" fill="#4C8EDA" stroke="#2870c2" stroke-width="2px"/><text text-anchor="middle" pointer-events="none" font-family="sans-serif" dy="2.5" font-size="40" fill="#FFFFFF"/><text text-anchor="middle" pointer-events="none" font-family="sans-serif" dy="2.5" font-size="40" fill="#FFFFFF"/><text text-anchor="middle" pointer-events="none" font-family="sans-serif" dy="2.5" font-size="40" fill="#FFFFFF"/><text text-anchor="middle" pointer-events="none" font-family="sans-serif" dy="2.5" font-size="40" fill="#FFFFFF"/><text text-anchor="middle" pointer-events="none" y="-10" font-size="10px" fill="#FFFFFF" font-family="sans-serif"> Joanna</text><text text-anchor="middle" pointer-events="none" y="0" font-size="10px" fill="#FFFFFF" font-family="sans-serif"> Cherry's motion</text><text text-anchor="middle" pointer-events="none" y="10" font-size="10px" fill="#FFFFFF" font-family="sans-serif"> L (Revocation to</text><text text-anchor="middle" pointer-events="none" y="20" font-size="10px" fill="#FFFFFF" font-family="sans-serif"> avoid no deal)</text></g><g class="node" transform="translate(21.7503863488552,-412.0231026724262)"><circle class="outline" cx="0" cy="0" r="40" fill="#4C8EDA" stroke="#2870c2" stroke-width="2px"/><text text-anchor="middle" pointer-events="none" font-family="sans-serif" dy="2.5" font-size="40" fill="#FFFFFF"/><text text-anchor="middle" pointer-events="none" font-family="sans-serif" dy="2.5" font-size="40" fill="#FFFFFF"/><text text-anchor="middle" pointer-events="none" font-family="sans-serif" dy="2.5" font-size="40" fill="#FFFFFF"/><text text-anchor="middle" pointer-events="none" font-family="sans-serif" dy="2.5" font-size="40" fill="#FFFFFF"/><text text-anchor="middle" pointer-events="none" font-family="sans-serif" dy="2.5" font-size="40" fill="#FFFFFF"/><text text-anchor="middle" pointer-events="none" font-family="sans-serif" dy="2.5" font-size="40" fill="#FFFFFF"/><text text-anchor="middle" pointer-events="none" y="-20" font-size="10px" fill="#FFFFFF" font-family="sans-serif"> Jeremy</text><text text-anchor="middle" pointer-events="none" y="-10" font-size="10px" fill="#FFFFFF" font-family="sans-serif"> Corbyn's</text><text text-anchor="middle" pointer-events="none" y="0" font-size="10px" fill="#FFFFFF" font-family="sans-serif"> motion K</text><text text-anchor="middle" pointer-events="none" y="10" font-size="10px" fill="#FFFFFF" font-family="sans-serif"> (Labour's</text><text text-anchor="middle" pointer-events="none" y="20" font-size="10px" fill="#FFFFFF" font-family="sans-serif"> alternative</text><text text-anchor="middle" pointer-events="none" y="30" font-size="10px" fill="#FFFFFF" font-family="sans-serif"> plan)</text></g><g class="node" transform="translate(30.840596740448973,-113.61032667583515)"><circle class="outline" cx="0" cy="0" r="40" fill="#4C8EDA" stroke="#2870c2" stroke-width="2px"/><text text-anchor="middle" pointer-events="none" font-family="sans-serif" dy="2.5" font-size="40" fill="#FFFFFF"/><text text-anchor="middle" pointer-events="none" font-family="sans-serif" dy="2.5" font-size="40" fill="#FFFFFF"/><text text-anchor="middle" pointer-events="none" font-family="sans-serif" dy="2.5" font-size="40" fill="#FFFFFF"/><text text-anchor="middle" pointer-events="none" font-family="sans-serif" dy="2.5" font-size="40" fill="#FFFFFF"/><text text-anchor="middle" pointer-events="none" font-family="sans-serif" dy="2.5" font-size="40" fill="#FFFFFF"/><text text-anchor="middle" pointer-events="none" y="-15" font-size="10px" fill="#FFFFFF" font-family="sans-serif"> Mr Fysh's</text><text text-anchor="middle" pointer-events="none" y="-5" font-size="10px" fill="#FFFFFF" font-family="sans-serif"> motion O</text><text text-anchor="middle" pointer-events="none" y="5" font-size="10px" fill="#FFFFFF" font-family="sans-serif"> (Contingent</text><text text-anchor="middle" pointer-events="none" y="15" font-size="10px" fill="#FFFFFF" font-family="sans-serif"> preferential</text><text text-anchor="middle" pointer-events="none" y="25" font-size="10px" fill="#FFFFFF" font-family="sans-serif"> arrangeme…</text></g><g class="node" transform="translate(20.872320910602404,-607.6955624817456)"><circle class="outline" cx="0" cy="0" r="40" fill="#4C8EDA" stroke="#2870c2" stroke-width="2px"/><text text-anchor="middle" pointer-events="none" font-family="sans-serif" dy="2.5" font-size="40" fill="#FFFFFF"/><text text-anchor="middle" pointer-events="none" font-family="sans-serif" dy="2.5" font-size="40" fill="#FFFFFF"/><text text-anchor="middle" pointer-events="none" font-family="sans-serif" dy="2.5" font-size="40" fill="#FFFFFF"/><text text-anchor="middle" pointer-events="none" font-family="sans-serif" dy="2.5" font-size="40" fill="#FFFFFF"/><text text-anchor="middle" pointer-events="none" y="-10" font-size="10px" fill="#FFFFFF" font-family="sans-serif"> Margaret</text><text text-anchor="middle" pointer-events="none" y="0" font-size="10px" fill="#FFFFFF" font-family="sans-serif"> Beckett's motion</text><text text-anchor="middle" pointer-events="none" y="10" font-size="10px" fill="#FFFFFF" font-family="sans-serif"> M (Confirmatory</text><text text-anchor="middle" pointer-events="none" y="20" font-size="10px" fill="#FFFFFF" font-family="sans-serif"> public vote)</text></g><g class="node" transform="translate(36.080456706399545,0.5115710614308568)"><circle class="outline" cx="0" cy="0" r="40" fill="#4C8EDA" stroke="#2870c2" stroke-width="2px"/><text text-anchor="middle" pointer-events="none" font-family="sans-serif" dy="2.5" font-size="40" fill="#FFFFFF"/><text text-anchor="middle" pointer-events="none" font-family="sans-serif" dy="2.5" font-size="40" fill="#FFFFFF"/><text text-anchor="middle" pointer-events="none" font-family="sans-serif" dy="2.5" font-size="40" fill="#FFFFFF"/><text text-anchor="middle" pointer-events="none" font-family="sans-serif" dy="2.5" font-size="40" fill="#FFFFFF"/><text text-anchor="middle" pointer-events="none" y="-10" font-size="10px" fill="#FFFFFF" font-family="sans-serif"> George</text><text text-anchor="middle" pointer-events="none" y="0" font-size="10px" fill="#FFFFFF" font-family="sans-serif"> Eustice's motion</text><text text-anchor="middle" pointer-events="none" y="10" font-size="10px" fill="#FFFFFF" font-family="sans-serif"> H (EFTA and</text><text text-anchor="middle" pointer-events="none" y="20" font-size="10px" fill="#FFFFFF" font-family="sans-serif"> EEA)</text></g><g class="node" transform="translate(23.554241601200673,-509.6978978122654)"><circle class="outline" cx="0" cy="0" r="40" fill="#4C8EDA" stroke="#2870c2" stroke-width="2px"/><text text-anchor="middle" pointer-events="none" font-family="sans-serif" dy="2.5" font-size="40" fill="#FFFFFF"/><text text-anchor="middle" pointer-events="none" font-family="sans-serif" dy="2.5" font-size="40" fill="#FFFFFF"/><text text-anchor="middle" pointer-events="none" font-family="sans-serif" dy="2.5" font-size="40" fill="#FFFFFF"/><text text-anchor="middle" pointer-events="none" font-family="sans-serif" dy="2.5" font-size="40" fill="#FFFFFF"/><text text-anchor="middle" pointer-events="none" y="-10" font-size="10px" fill="#FFFFFF" font-family="sans-serif"> Nick Boles's</text><text text-anchor="middle" pointer-events="none" y="0" font-size="10px" fill="#FFFFFF" font-family="sans-serif"> motion D</text><text text-anchor="middle" pointer-events="none" y="10" font-size="10px" fill="#FFFFFF" font-family="sans-serif"> (Common</text><text text-anchor="middle" pointer-events="none" y="20" font-size="10px" fill="#FFFFFF" font-family="sans-serif"> market 2.0)</text></g><g class="node" transform="translate(28.43017710286508,-215.18095395579803)"><circle class="outline" cx="0" cy="0" r="40" fill="#4C8EDA" stroke="#2870c2" stroke-width="2px"/><text text-anchor="middle" pointer-events="none" font-family="sans-serif" dy="2.5" font-size="40" fill="#FFFFFF"/><text text-anchor="middle" pointer-events="none" font-family="sans-serif" dy="2.5" font-size="40" fill="#FFFFFF"/><text text-anchor="middle" pointer-events="none" font-family="sans-serif" dy="2.5" font-size="40" fill="#FFFFFF"/><text text-anchor="middle" pointer-events="none" y="-5" font-size="10px" fill="#FFFFFF" font-family="sans-serif"> Mr Baron's</text><text text-anchor="middle" pointer-events="none" y="5" font-size="10px" fill="#FFFFFF" font-family="sans-serif"> motion B (No</text><text text-anchor="middle" pointer-events="none" y="15" font-size="10px" fill="#FFFFFF" font-family="sans-serif"> deal)</text></g></g></svg>