<svg xmlns="http://www.w3.org/2000/svg" width="792.8868408203125" height="738.2770385742188" viewBox="-323.3062438964844 -596.4754028320312 792.8868408203125 738.2770385742188"><title>Neo4j Graph Visualization</title><desc>Created using Neo4j (http://www.neo4j.com/)</desc><g class="layer relationships"><g class="relationship" transform="translate(-279.30625443994126 -229.6172982661115) rotate(402.1903341134193)"><path class="outline" fill="#A5ABB6" stroke="none" d="M 40 0.5 L 235.03734537889312 0.5 L 235.03734537889312 -0.5 L 40 -0.5 Z M 245.48656412889312 0.5 L 440.52390950778624 0.5 L 440.52390950778624 3.5 L 447.52390950778624 0 L 440.52390950778624 -3.5 L 440.52390950778624 -0.5 L 245.48656412889312 -0.5 Z"/><text text-anchor="middle" pointer-events="none" font-size="8px" fill="#000000" x="240.26195475389312" y="3" font-family="sans-serif">0</text></g><g class="relationship" transform="translate(425.58060045844445 -206.26324869620873) rotate(498.4990775243815)"><path class="outline" fill="#A5ABB6" stroke="none" d="M 40 0.5 L 217.3766192021121 0.5 L 217.3766192021121 -0.5 L 40 -0.5 Z M 234.4977129521121 0.5 L 411.8743321542242 0.5 L 411.8743321542242 3.5 L 418.8743321542242 0 L 411.8743321542242 -3.5 L 411.8743321542242 -0.5 L 234.4977129521121 -0.5 Z"/><text text-anchor="middle" pointer-events="none" font-size="8px" fill="#000000" x="225.9371660771121" y="3" transform="rotate(180 225.9371660771121 0)" font-family="sans-serif">0.5</text></g><g class="relationship" transform="translate(-279.30625443994126 -229.6172982661115) rotate(353.5300798364)"><path class="outline" fill="#A5ABB6" stroke="none" d="M 40 0.5 L 168.39212569921293 0.5 L 168.39212569921293 -0.5 L 40 -0.5 Z M 178.84134444921293 0.5 L 307.23347014842585 0.5 L 307.23347014842585 3.5 L 314.23347014842585 0 L 307.23347014842585 -3.5 L 307.23347014842585 -0.5 L 178.84134444921293 -0.5 Z"/><text text-anchor="middle" pointer-events="none" font-size="8px" fill="#000000" x="173.61673507421293" y="3" font-family="sans-serif">1</text></g><g class="relationship" transform="translate(425.58060045844445 -206.26324869620873) rotate(190.1640153829071)"><path class="outline" fill="#A5ABB6" stroke="none" d="M 40 0.5 L 133.8383542333775 0.5 L 133.8383542333775 -0.5 L 40 -0.5 Z M 217.6977292333775 0.5 L 311.536083466755 0.5 L 311.536083466755 3.5 L 318.536083466755 0 L 311.536083466755 -3.5 L 311.536083466755 -0.5 L 217.6977292333775 -0.5 Z"/><text text-anchor="middle" pointer-events="none" font-size="8px" fill="#000000" x="175.7680417333775" y="3" transform="rotate(180 175.7680417333775 0)" font-family="sans-serif">0.9545454545454545</text></g><g class="relationship" transform="translate(-279.30625443994126 -229.6172982661115) rotate(368.1444907986654)"><path class="outline" fill="#A5ABB6" stroke="none" d="M 40 0.5 L 170.3694829117091 0.5 L 170.3694829117091 -0.5 L 40 -0.5 Z M 180.8187016617091 0.5 L 311.1881845734182 0.5 L 311.1881845734182 3.5 L 318.1881845734182 0 L 311.1881845734182 -3.5 L 311.1881845734182 -0.5 L 180.8187016617091 -0.5 Z"/><text text-anchor="middle" pointer-events="none" font-size="8px" fill="#000000" x="175.5940922867091" y="3" font-family="sans-serif">0</text></g><g class="relationship" transform="translate(425.58060045844445 -206.26324869620873) rotate(535.5292031315132)"><path class="outline" fill="#A5ABB6" stroke="none" d="M 40 0.5 L 130.26059142123415 0.5 L 130.26059142123415 -0.5 L 40 -0.5 Z M 214.11996642123415 0.5 L 304.3805578424683 0.5 L 304.3805578424683 3.5 L 311.3805578424683 0 L 304.3805578424683 -3.5 L 304.3805578424683 -0.5 L 214.11996642123415 -0.5 Z"/><text text-anchor="middle" pointer-events="none" font-size="8px" fill="#000000" x="172.19027892123415" y="3" transform="rotate(180 172.19027892123415 0)" font-family="sans-serif">0.4090909090909091</text></g><g class="relationship" transform="translate(-279.30625443994126 -229.6172982661115) rotate(381.7376081448072)"><path class="outline" fill="#A5ABB6" stroke="none" d="M 40 0.5 L 183.88162732559707 0.5 L 183.88162732559707 -0.5 L 40 -0.5 Z M 194.33084607559707 0.5 L 338.21247340119413 0.5 L 338.21247340119413 3.5 L 345.21247340119413 0 L 338.21247340119413 -3.5 L 338.21247340119413 -0.5 L 194.33084607559707 -0.5 Z"/><text text-anchor="middle" pointer-events="none" font-size="8px" fill="#000000" x="189.10623670059707" y="3" font-family="sans-serif">0</text></g><g class="relationship" transform="translate(425.58060045844445 -206.26324869620873) rotate(521.0284638577397)"><path class="outline" fill="#A5ABB6" stroke="none" d="M 40 0.5 L 171.44068680981977 0.5 L 171.44068680981977 -0.5 L 40 -0.5 Z M 188.56178055981977 0.5 L 320.00246736963953 0.5 L 320.00246736963953 3.5 L 327.00246736963953 0 L 320.00246736963953 -3.5 L 320.00246736963953 -0.5 L 188.56178055981977 -0.5 Z"/><text text-anchor="middle" pointer-events="none" font-size="8px" fill="#000000" x="180.00123368481977" y="3" transform="rotate(180 180.00123368481977 0)" font-family="sans-serif">0.0</text></g><g class="relationship" transform="translate(-279.30625443994126 -229.6172982661115) rotate(316.6985836653315)"><path class="outline" fill="#A5ABB6" stroke="none" d="M 40 0.5 L 226.65087782258323 0.5 L 226.65087782258323 -0.5 L 40 -0.5 Z M 237.10009657258323 0.5 L 423.75097439516645 0.5 L 423.75097439516645 3.5 L 430.75097439516645 0 L 423.75097439516645 -3.5 L 423.75097439516645 -0.5 L 237.10009657258323 -0.5 Z"/><text text-anchor="middle" pointer-events="none" font-size="8px" fill="#000000" x="231.87548719758323" y="3" font-family="sans-serif">1</text></g><g class="relationship" transform="translate(425.58060045844445 -206.26324869620873) rotate(223.69962453798598)"><path class="outline" fill="#A5ABB6" stroke="none" d="M 40 0.5 L 238.49913224893922 0.5 L 238.49913224893922 -0.5 L 40 -0.5 Z M 255.62022599893922 0.5 L 454.11935824787844 0.5 L 454.11935824787844 3.5 L 461.11935824787844 0 L 454.11935824787844 -3.5 L 454.11935824787844 -0.5 L 255.62022599893922 -0.5 Z"/><text text-anchor="middle" pointer-events="none" font-size="8px" fill="#000000" x="247.05967912393922" y="3" transform="rotate(180 247.05967912393922 0)" font-family="sans-serif">1.0</text></g><g class="relationship" transform="translate(-279.30625443994126 -229.6172982661115) rotate(339.2073227946971)"><path class="outline" fill="#A5ABB6" stroke="none" d="M 40 0.5 L 177.2979416313599 0.5 L 177.2979416313599 -0.5 L 40 -0.5 Z M 187.7471603813599 0.5 L 325.0451020127198 0.5 L 325.0451020127198 3.5 L 332.0451020127198 0 L 325.0451020127198 -3.5 L 325.0451020127198 -0.5 L 187.7471603813599 -0.5 Z"/><text text-anchor="middle" pointer-events="none" font-size="8px" fill="#000000" x="182.5225510063599" y="3" font-family="sans-serif">0</text></g><g class="relationship" transform="translate(425.58060045844445 -206.26324869620873) rotate(203.5223693946342)"><path class="outline" fill="#A5ABB6" stroke="none" d="M 40 0.5 L 149.28673412460157 0.5 L 149.28673412460157 -0.5 L 40 -0.5 Z M 233.14610912460157 0.5 L 342.43284324920313 0.5 L 342.43284324920313 3.5 L 349.43284324920313 0 L 342.43284324920313 -3.5 L 342.43284324920313 -0.5 L 233.14610912460157 -0.5 Z"/><text text-anchor="middle" pointer-events="none" font-size="8px" fill="#000000" x="191.21642162460157" y="3" transform="rotate(180 191.21642162460157 0)" font-family="sans-serif">0.4090909090909091</text></g><g class="relationship" transform="translate(-279.30625443994126 -229.6172982661115) rotate(326.57782069945733)"><path class="outline" fill="#A5ABB6" stroke="none" d="M 40 0.5 L 198.9285858453661 0.5 L 198.9285858453661 -0.5 L 40 -0.5 Z M 209.3778045953661 0.5 L 368.3063904407322 0.5 L 368.3063904407322 3.5 L 375.3063904407322 0 L 368.3063904407322 -3.5 L 368.3063904407322 -0.5 L 209.3778045953661 -0.5 Z"/><text text-anchor="middle" pointer-events="none" font-size="8px" fill="#000000" x="204.1531952203661" y="3" font-family="sans-serif">0</text></g><g class="relationship" transform="translate(425.58060045844445 -206.26324869620873) rotate(215.13409972932027)"><path class="outline" fill="#A5ABB6" stroke="none" d="M 40 0.5 L 206.974977681203 0.5 L 206.974977681203 -0.5 L 40 -0.5 Z M 224.096071431203 0.5 L 391.071049112406 0.5 L 391.071049112406 3.5 L 398.071049112406 0 L 391.071049112406 -3.5 L 391.071049112406 -0.5 L 224.096071431203 -0.5 Z"/><text text-anchor="middle" pointer-events="none" font-size="8px" fill="#000000" x="215.535524556203" y="3" transform="rotate(180 215.535524556203 0)" font-family="sans-serif">0.5</text></g><g class="relationship" transform="translate(-279.30625443994126 -229.6172982661115) rotate(392.89256883986764)"><path class="outline" fill="#A5ABB6" stroke="none" d="M 40 0.5 L 205.29675409431886 0.5 L 205.29675409431886 -0.5 L 40 -0.5 Z M 215.74597284431886 0.5 L 381.0427269386377 0.5 L 381.0427269386377 3.5 L 388.0427269386377 0 L 381.0427269386377 -3.5 L 381.0427269386377 -0.5 L 215.74597284431886 -0.5 Z"/><text text-anchor="middle" pointer-events="none" font-size="8px" fill="#000000" x="210.52136346931886" y="3" font-family="sans-serif">0</text></g><g class="relationship" transform="translate(425.58060045844445 -206.26324869620873) rotate(508.81443497882225)"><path class="outline" fill="#A5ABB6" stroke="none" d="M 40 0.5 L 189.84807325367942 0.5 L 189.84807325367942 -0.5 L 40 -0.5 Z M 206.96916700367942 0.5 L 356.81724025735883 0.5 L 356.81724025735883 3.5 L 363.81724025735883 0 L 356.81724025735883 -3.5 L 356.81724025735883 -0.5 L 206.96916700367942 -0.5 Z"/><text text-anchor="middle" pointer-events="none" font-size="8px" fill="#000000" x="198.40862012867942" y="3" transform="rotate(180 198.40862012867942 0)" font-family="sans-serif">0.0</text></g></g><g class="layer nodes"><g class="node" transform="translate(-279.30625443994126,-229.6172982661115)"><circle class="outline" cx="0" cy="0" r="40" fill="#F16667" stroke="#eb2728" stroke-width="2px"/><text text-anchor="middle" pointer-events="none" font-family="sans-serif" dy="2.5" font-size="40" fill="#FFFFFF"/><text text-anchor="middle" pointer-events="none" y="5" font-size="10px" fill="#FFFFFF" font-family="sans-serif"> Phillip Lee</text></g><g class="node" transform="translate(81.90893974010051,97.80161663532004)"><circle class="outline" cx="0" cy="0" r="40" fill="#4C8EDA" stroke="#2870c2" stroke-width="2px"/><text text-anchor="middle" pointer-events="none" font-family="sans-serif" dy="2.5" font-size="40" fill="#FFFFFF"/><text text-anchor="middle" pointer-events="none" font-family="sans-serif" dy="2.5" font-size="40" fill="#FFFFFF"/><text text-anchor="middle" pointer-events="none" font-family="sans-serif" dy="2.5" font-size="40" fill="#FFFFFF"/><text text-anchor="middle" pointer-events="none" y="-5" font-size="10px" fill="#FFFFFF" font-family="sans-serif"> Mr Clarke's</text><text text-anchor="middle" pointer-events="none" y="5" font-size="10px" fill="#FFFFFF" font-family="sans-serif"> motion J</text><text text-anchor="middle" pointer-events="none" y="15" font-size="10px" fill="#FFFFFF" font-family="sans-serif"> (Customs uni…</text></g><g class="node" transform="translate(425.58060045844445,-206.26324869620873)"><circle class="outline" cx="0" cy="0" r="40" fill="#DA7194" stroke="#cc3c6c" stroke-width="2px"/><text text-anchor="middle" pointer-events="none" font-family="sans-serif" dy="2.5" font-size="40" fill="#FFFFFF"/><text text-anchor="middle" pointer-events="none" y="5" font-size="10px" fill="#FFFFFF" font-family="sans-serif"> Liberal Democrat</text></g><g class="node" transform="translate(72.6711557140381,-269.5328856311136)"><circle class="outline" cx="0" cy="0" r="40" fill="#4C8EDA" stroke="#2870c2" stroke-width="2px"/><text text-anchor="middle" pointer-events="none" font-family="sans-serif" dy="2.5" font-size="40" fill="#FFFFFF"/><text text-anchor="middle" pointer-events="none" font-family="sans-serif" dy="2.5" font-size="40" fill="#FFFFFF"/><text text-anchor="middle" pointer-events="none" font-family="sans-serif" dy="2.5" font-size="40" fill="#FFFFFF"/><text text-anchor="middle" pointer-events="none" font-family="sans-serif" dy="2.5" font-size="40" fill="#FFFFFF"/><text text-anchor="middle" pointer-events="none" y="-10" font-size="10px" fill="#FFFFFF" font-family="sans-serif"> Joanna</text><text text-anchor="middle" pointer-events="none" y="0" font-size="10px" fill="#FFFFFF" font-family="sans-serif"> Cherry's motion</text><text text-anchor="middle" pointer-events="none" y="10" font-size="10px" fill="#FFFFFF" font-family="sans-serif"> L (Revocation to</text><text text-anchor="middle" pointer-events="none" y="20" font-size="10px" fill="#FFFFFF" font-family="sans-serif"> avoid no deal)</text></g><g class="node" transform="translate(75.26922544403186,-178.87279478986022)"><circle class="outline" cx="0" cy="0" r="40" fill="#4C8EDA" stroke="#2870c2" stroke-width="2px"/><text text-anchor="middle" pointer-events="none" font-family="sans-serif" dy="2.5" font-size="40" fill="#FFFFFF"/><text text-anchor="middle" pointer-events="none" font-family="sans-serif" dy="2.5" font-size="40" fill="#FFFFFF"/><text text-anchor="middle" pointer-events="none" font-family="sans-serif" dy="2.5" font-size="40" fill="#FFFFFF"/><text text-anchor="middle" pointer-events="none" font-family="sans-serif" dy="2.5" font-size="40" fill="#FFFFFF"/><text text-anchor="middle" pointer-events="none" font-family="sans-serif" dy="2.5" font-size="40" fill="#FFFFFF"/><text text-anchor="middle" pointer-events="none" font-family="sans-serif" dy="2.5" font-size="40" fill="#FFFFFF"/><text text-anchor="middle" pointer-events="none" y="-20" font-size="10px" fill="#FFFFFF" font-family="sans-serif"> Jeremy</text><text text-anchor="middle" pointer-events="none" y="-10" font-size="10px" fill="#FFFFFF" font-family="sans-serif"> Corbyn's</text><text text-anchor="middle" pointer-events="none" y="0" font-size="10px" fill="#FFFFFF" font-family="sans-serif"> motion K</text><text text-anchor="middle" pointer-events="none" y="10" font-size="10px" fill="#FFFFFF" font-family="sans-serif"> (Labour's</text><text text-anchor="middle" pointer-events="none" y="20" font-size="10px" fill="#FFFFFF" font-family="sans-serif"> alternative</text><text text-anchor="middle" pointer-events="none" y="30" font-size="10px" fill="#FFFFFF" font-family="sans-serif"> plan)</text></g><g class="node" transform="translate(78.51363471397158,-86.9513366994253)"><circle class="outline" cx="0" cy="0" r="40" fill="#4C8EDA" stroke="#2870c2" stroke-width="2px"/><text text-anchor="middle" pointer-events="none" font-family="sans-serif" dy="2.5" font-size="40" fill="#FFFFFF"/><text text-anchor="middle" pointer-events="none" font-family="sans-serif" dy="2.5" font-size="40" fill="#FFFFFF"/><text text-anchor="middle" pointer-events="none" font-family="sans-serif" dy="2.5" font-size="40" fill="#FFFFFF"/><text text-anchor="middle" pointer-events="none" font-family="sans-serif" dy="2.5" font-size="40" fill="#FFFFFF"/><text text-anchor="middle" pointer-events="none" font-family="sans-serif" dy="2.5" font-size="40" fill="#FFFFFF"/><text text-anchor="middle" pointer-events="none" y="-15" font-size="10px" fill="#FFFFFF" font-family="sans-serif"> Mr Fysh's</text><text text-anchor="middle" pointer-events="none" y="-5" font-size="10px" fill="#FFFFFF" font-family="sans-serif"> motion O</text><text text-anchor="middle" pointer-events="none" y="5" font-size="10px" fill="#FFFFFF" font-family="sans-serif"> (Contingent</text><text text-anchor="middle" pointer-events="none" y="15" font-size="10px" fill="#FFFFFF" font-family="sans-serif"> preferential</text><text text-anchor="middle" pointer-events="none" y="25" font-size="10px" fill="#FFFFFF" font-family="sans-serif"> arrangeme…</text></g><g class="node" transform="translate(63.28549951302769,-552.475425029907)"><circle class="outline" cx="0" cy="0" r="40" fill="#4C8EDA" stroke="#2870c2" stroke-width="2px"/><text text-anchor="middle" pointer-events="none" font-family="sans-serif" dy="2.5" font-size="40" fill="#FFFFFF"/><text text-anchor="middle" pointer-events="none" font-family="sans-serif" dy="2.5" font-size="40" fill="#FFFFFF"/><text text-anchor="middle" pointer-events="none" font-family="sans-serif" dy="2.5" font-size="40" fill="#FFFFFF"/><text text-anchor="middle" pointer-events="none" font-family="sans-serif" dy="2.5" font-size="40" fill="#FFFFFF"/><text text-anchor="middle" pointer-events="none" y="-10" font-size="10px" fill="#FFFFFF" font-family="sans-serif"> Margaret</text><text text-anchor="middle" pointer-events="none" y="0" font-size="10px" fill="#FFFFFF" font-family="sans-serif"> Beckett's motion</text><text text-anchor="middle" pointer-events="none" y="10" font-size="10px" fill="#FFFFFF" font-family="sans-serif"> M (Confirmatory</text><text text-anchor="middle" pointer-events="none" y="20" font-size="10px" fill="#FFFFFF" font-family="sans-serif"> public vote)</text></g><g class="node" transform="translate(68.50794216700771,-361.6886523528996)"><circle class="outline" cx="0" cy="0" r="40" fill="#4C8EDA" stroke="#2870c2" stroke-width="2px"/><text text-anchor="middle" pointer-events="none" font-family="sans-serif" dy="2.5" font-size="40" fill="#FFFFFF"/><text text-anchor="middle" pointer-events="none" font-family="sans-serif" dy="2.5" font-size="40" fill="#FFFFFF"/><text text-anchor="middle" pointer-events="none" font-family="sans-serif" dy="2.5" font-size="40" fill="#FFFFFF"/><text text-anchor="middle" pointer-events="none" font-family="sans-serif" dy="2.5" font-size="40" fill="#FFFFFF"/><text text-anchor="middle" pointer-events="none" y="-10" font-size="10px" fill="#FFFFFF" font-family="sans-serif"> George</text><text text-anchor="middle" pointer-events="none" y="0" font-size="10px" fill="#FFFFFF" font-family="sans-serif"> Eustice's motion</text><text text-anchor="middle" pointer-events="none" y="10" font-size="10px" fill="#FFFFFF" font-family="sans-serif"> H (EFTA and</text><text text-anchor="middle" pointer-events="none" y="20" font-size="10px" fill="#FFFFFF" font-family="sans-serif"> EEA)</text></g><g class="node" transform="translate(67.32287373447971,-458.3696653400955)"><circle class="outline" cx="0" cy="0" r="40" fill="#4C8EDA" stroke="#2870c2" stroke-width="2px"/><text text-anchor="middle" pointer-events="none" font-family="sans-serif" dy="2.5" font-size="40" fill="#FFFFFF"/><text text-anchor="middle" pointer-events="none" font-family="sans-serif" dy="2.5" font-size="40" fill="#FFFFFF"/><text text-anchor="middle" pointer-events="none" font-family="sans-serif" dy="2.5" font-size="40" fill="#FFFFFF"/><text text-anchor="middle" pointer-events="none" font-family="sans-serif" dy="2.5" font-size="40" fill="#FFFFFF"/><text text-anchor="middle" pointer-events="none" y="-10" font-size="10px" fill="#FFFFFF" font-family="sans-serif"> Nick Boles's</text><text text-anchor="middle" pointer-events="none" y="0" font-size="10px" fill="#FFFFFF" font-family="sans-serif"> motion D</text><text text-anchor="middle" pointer-events="none" y="10" font-size="10px" fill="#FFFFFF" font-family="sans-serif"> (Common</text><text text-anchor="middle" pointer-events="none" y="20" font-size="10px" fill="#FFFFFF" font-family="sans-serif"> market 2.0)</text></g><g class="node" transform="translate(80.11707402142491,2.837959886544766)"><circle class="outline" cx="0" cy="0" r="40" fill="#4C8EDA" stroke="#2870c2" stroke-width="2px"/><text text-anchor="middle" pointer-events="none" font-family="sans-serif" dy="2.5" font-size="40" fill="#FFFFFF"/><text text-anchor="middle" pointer-events="none" font-family="sans-serif" dy="2.5" font-size="40" fill="#FFFFFF"/><text text-anchor="middle" pointer-events="none" font-family="sans-serif" dy="2.5" font-size="40" fill="#FFFFFF"/><text text-anchor="middle" pointer-events="none" y="-5" font-size="10px" fill="#FFFFFF" font-family="sans-serif"> Mr Baron's</text><text text-anchor="middle" pointer-events="none" y="5" font-size="10px" fill="#FFFFFF" font-family="sans-serif"> motion B (No</text><text text-anchor="middle" pointer-events="none" y="15" font-size="10px" fill="#FFFFFF" font-family="sans-serif"> deal)</text></g></g></svg>