<svg xmlns="http://www.w3.org/2000/svg" width="916.7454833984375" height="716.244384765625" viewBox="-405.0180358886719 -518.876220703125 916.7454833984375 716.244384765625"><title>Neo4j Graph Visualization</title><desc>Created using Neo4j (http://www.neo4j.com/)</desc><g class="layer relationships"><g class="relationship" transform="translate(-361.01804547845444 -186.35811247509588) rotate(367.8893449826124)"><path class="outline" fill="#A5ABB6" stroke="none" d="M 40 0.5 L 221.71022348806977 0.5 L 221.71022348806977 -0.5 L 40 -0.5 Z M 232.15944223806977 0.5 L 413.86966572613954 0.5 L 413.86966572613954 3.5 L 420.86966572613954 0 L 413.86966572613954 -3.5 L 413.86966572613954 -0.5 L 232.15944223806977 -0.5 Z"/><text text-anchor="middle" pointer-events="none" font-size="8px" fill="#000000" x="226.93483286306977" y="3" font-family="sans-serif">0</text></g><g class="relationship" transform="translate(467.72746522926303 -170.112861189943) rotate(532.8016233056956)"><path class="outline" fill="#A5ABB6" stroke="none" d="M 40 0.5 L 175.53703683146435 0.5 L 175.53703683146435 -0.5 L 40 -0.5 Z M 192.65813058146435 0.5 L 328.1951674129287 0.5 L 328.1951674129287 3.5 L 335.1951674129287 0 L 328.1951674129287 -3.5 L 328.1951674129287 -0.5 L 192.65813058146435 -0.5 Z"/><text text-anchor="middle" pointer-events="none" font-size="8px" fill="#000000" x="184.09758370646435" y="3" transform="rotate(180 184.09758370646435 0)" font-family="sans-serif">0.0</text></g><g class="relationship" transform="translate(-361.01804547845444 -186.35811247509588) rotate(357.2384044340705)"><path class="outline" fill="#A5ABB6" stroke="none" d="M 40 0.5 L 217.50307232491525 0.5 L 217.50307232491525 -0.5 L 40 -0.5 Z M 227.95229107491525 0.5 L 405.4553633998305 0.5 L 405.4553633998305 3.5 L 412.4553633998305 0 L 405.4553633998305 -3.5 L 405.4553633998305 -0.5 L 227.95229107491525 -0.5 Z"/><text text-anchor="middle" pointer-events="none" font-size="8px" fill="#000000" x="222.72768169991525" y="3" font-family="sans-serif">0</text></g><g class="relationship" transform="translate(467.72746522926303 -170.112861189943) rotate(185.76525379759443)"><path class="outline" fill="#A5ABB6" stroke="none" d="M 40 0.5 L 177.3051023281903 0.5 L 177.3051023281903 -0.5 L 40 -0.5 Z M 194.4261960781903 0.5 L 331.7312984063806 0.5 L 331.7312984063806 3.5 L 338.7312984063806 0 L 331.7312984063806 -3.5 L 331.7312984063806 -0.5 L 194.4261960781903 -0.5 Z"/><text text-anchor="middle" pointer-events="none" font-size="8px" fill="#000000" x="185.8656492031903" y="3" transform="rotate(180 185.8656492031903 0)" font-family="sans-serif">0.0</text></g><g class="relationship" transform="translate(-361.01804547845444 -186.35811247509588) rotate(346.29143932141176)"><path class="outline" fill="#A5ABB6" stroke="none" d="M 40 0.5 L 220.8659261059241 0.5 L 220.8659261059241 -0.5 L 40 -0.5 Z M 231.3151448559241 0.5 L 412.1810709618482 0.5 L 412.1810709618482 3.5 L 419.1810709618482 0 L 412.1810709618482 -3.5 L 412.1810709618482 -0.5 L 231.3151448559241 -0.5 Z"/><text text-anchor="middle" pointer-events="none" font-size="8px" fill="#000000" x="226.0905354809241" y="3" font-family="sans-serif">0</text></g><g class="relationship" transform="translate(467.72746522926303 -170.112861189943) rotate(198.09944537032646)"><path class="outline" fill="#A5ABB6" stroke="none" d="M 40 0.5 L 189.2215443580433 0.5 L 189.2215443580433 -0.5 L 40 -0.5 Z M 206.3426381080433 0.5 L 355.5641824660866 0.5 L 355.5641824660866 3.5 L 362.5641824660866 0 L 355.5641824660866 -3.5 L 355.5641824660866 -0.5 L 206.3426381080433 -0.5 Z"/><text text-anchor="middle" pointer-events="none" font-size="8px" fill="#000000" x="197.7820912330433" y="3" transform="rotate(180 197.7820912330433 0)" font-family="sans-serif">0.0</text></g><g class="relationship" transform="translate(-361.01804547845444 -186.35811247509588) rotate(379.7448282694605)"><path class="outline" fill="#A5ABB6" stroke="none" d="M 40 0.5 L 234.84368653071093 0.5 L 234.84368653071093 -0.5 L 40 -0.5 Z M 245.29290528071093 0.5 L 440.13659181142185 0.5 L 440.13659181142185 3.5 L 447.13659181142185 0 L 440.13659181142185 -3.5 L 440.13659181142185 -0.5 L 245.29290528071093 -0.5 Z"/><text text-anchor="middle" pointer-events="none" font-size="8px" fill="#000000" x="240.06829590571093" y="3" font-family="sans-serif">1</text></g><g class="relationship" transform="translate(467.72746522926303 -170.112861189943) rotate(518.1685526626991)"><path class="outline" fill="#A5ABB6" stroke="none" d="M 40 0.5 L 187.366693064868 0.5 L 187.366693064868 -0.5 L 40 -0.5 Z M 204.487786814868 0.5 L 351.854479879736 0.5 L 351.854479879736 3.5 L 358.854479879736 0 L 351.854479879736 -3.5 L 351.854479879736 -0.5 L 204.487786814868 -0.5 Z"/><text text-anchor="middle" pointer-events="none" font-size="8px" fill="#000000" x="195.927239939868" y="3" transform="rotate(180 195.927239939868 0)" font-family="sans-serif">1.0</text></g><g class="relationship" transform="translate(-361.01804547845444 -186.35811247509588) rotate(335.9198048162194)"><path class="outline" fill="#A5ABB6" stroke="none" d="M 40 0.5 L 234.86908178978578 0.5 L 234.86908178978578 -0.5 L 40 -0.5 Z M 245.31830053978578 0.5 L 440.18738232957156 0.5 L 440.18738232957156 3.5 L 447.18738232957156 0 L 440.18738232957156 -3.5 L 440.18738232957156 -0.5 L 245.31830053978578 -0.5 Z"/><text text-anchor="middle" pointer-events="none" font-size="8px" fill="#000000" x="240.09369116478578" y="3" font-family="sans-serif">0</text></g><g class="relationship" transform="translate(467.72746522926303 -170.112861189943) rotate(209.2499505395105)"><path class="outline" fill="#A5ABB6" stroke="none" d="M 40 0.5 L 207.97214785967444 0.5 L 207.97214785967444 -0.5 L 40 -0.5 Z M 225.09324160967444 0.5 L 393.0653894693489 0.5 L 393.0653894693489 3.5 L 400.0653894693489 0 L 393.0653894693489 -3.5 L 393.0653894693489 -0.5 L 225.09324160967444 -0.5 Z"/><text text-anchor="middle" pointer-events="none" font-size="8px" fill="#000000" x="216.53269473467444" y="3" transform="rotate(180 216.53269473467444 0)" font-family="sans-serif">0.0</text></g><g class="relationship" transform="translate(-361.01804547845444 -186.35811247509588) rotate(396.3610153530946)"><path class="outline" fill="#A5ABB6" stroke="none" d="M 40 0.5 L 277.7848158244935 0.5 L 277.7848158244935 -0.5 L 40 -0.5 Z M 288.2340345744935 0.5 L 526.018850398987 0.5 L 526.018850398987 3.5 L 533.018850398987 0 L 526.018850398987 -3.5 L 526.018850398987 -0.5 L 288.2340345744935 -0.5 Z"/><text text-anchor="middle" pointer-events="none" font-size="8px" fill="#000000" x="283.0094251994935" y="3" font-family="sans-serif">0</text></g><g class="relationship" transform="translate(467.72746522926303 -170.112861189943) rotate(498.6292397691668)"><path class="outline" fill="#A5ABB6" stroke="none" d="M 40 0.5 L 232.65641371817736 0.5 L 232.65641371817736 -0.5 L 40 -0.5 Z M 249.77750746817736 0.5 L 442.4339211863547 0.5 L 442.4339211863547 3.5 L 449.4339211863547 0 L 442.4339211863547 -3.5 L 442.4339211863547 -0.5 L 249.77750746817736 -0.5 Z"/><text text-anchor="middle" pointer-events="none" font-size="8px" fill="#000000" x="241.21696059317736" y="3" transform="rotate(180 241.21696059317736 0)" font-family="sans-serif">0.0</text></g><g class="relationship" transform="translate(-361.01804547845444 -186.35811247509588) rotate(327.02495917122076)"><path class="outline" fill="#A5ABB6" stroke="none" d="M 40 0.5 L 256.32412311153354 0.5 L 256.32412311153354 -0.5 L 40 -0.5 Z M 266.77334186153354 0.5 L 483.0974649730671 0.5 L 483.0974649730671 3.5 L 490.0974649730671 0 L 483.0974649730671 -3.5 L 483.0974649730671 -0.5 L 266.77334186153354 -0.5 Z"/><text text-anchor="middle" pointer-events="none" font-size="8px" fill="#000000" x="261.54873248653354" y="3" font-family="sans-serif">0</text></g><g class="relationship" transform="translate(467.72746522926303 -170.112861189943) rotate(218.4343339171789)"><path class="outline" fill="#A5ABB6" stroke="none" d="M 40 0.5 L 233.07688290078488 0.5 L 233.07688290078488 -0.5 L 40 -0.5 Z M 250.19797665078488 0.5 L 443.27485955156976 0.5 L 443.27485955156976 3.5 L 450.27485955156976 0 L 443.27485955156976 -3.5 L 443.27485955156976 -0.5 L 250.19797665078488 -0.5 Z"/><text text-anchor="middle" pointer-events="none" font-size="8px" fill="#000000" x="241.63742977578488" y="3" transform="rotate(180 241.63742977578488 0)" font-family="sans-serif">0.0</text></g><g class="relationship" transform="translate(-361.01804547845444 -186.35811247509588) rotate(388.82378833132304)"><path class="outline" fill="#A5ABB6" stroke="none" d="M 40 0.5 L 252.56746366443406 0.5 L 252.56746366443406 -0.5 L 40 -0.5 Z M 263.01668241443406 0.5 L 475.5841460788681 0.5 L 475.5841460788681 3.5 L 482.5841460788681 0 L 475.5841460788681 -3.5 L 475.5841460788681 -0.5 L 263.01668241443406 -0.5 Z"/><text text-anchor="middle" pointer-events="none" font-size="8px" fill="#000000" x="257.79207303943406" y="3" font-family="sans-serif">1</text></g><g class="relationship" transform="translate(467.72746522926303 -170.112861189943) rotate(507.56504665529974)"><path class="outline" fill="#A5ABB6" stroke="none" d="M 40 0.5 L 207.6703227743401 0.5 L 207.6703227743401 -0.5 L 40 -0.5 Z M 224.7914165243401 0.5 L 392.4617392986802 0.5 L 392.4617392986802 3.5 L 399.4617392986802 0 L 392.4617392986802 -3.5 L 392.4617392986802 -0.5 L 224.7914165243401 -0.5 Z"/><text text-anchor="middle" pointer-events="none" font-size="8px" fill="#000000" x="216.2308696493401" y="3" transform="rotate(180 216.2308696493401 0)" font-family="sans-serif">1.0</text></g></g><g class="layer nodes"><g class="node" transform="translate(-361.01804547845444,-186.35811247509588)"><circle class="outline" cx="0" cy="0" r="40" fill="#F16667" stroke="#eb2728" stroke-width="2px"/><text text-anchor="middle" pointer-events="none" font-family="sans-serif" dy="2.5" font-size="40" fill="#FFFFFF"/><text text-anchor="middle" pointer-events="none" y="5" font-size="10px" fill="#FFFFFF" font-family="sans-serif"> Phillip Lee</text></g><g class="node" transform="translate(95.48949162880888,-123.09898387863)"><circle class="outline" cx="0" cy="0" r="40" fill="#4C8EDA" stroke="#2870c2" stroke-width="2px"/><text text-anchor="middle" pointer-events="none" font-family="sans-serif" dy="2.5" font-size="40" fill="#FFFFFF"/><text text-anchor="middle" pointer-events="none" font-family="sans-serif" dy="2.5" font-size="40" fill="#FFFFFF"/><text text-anchor="middle" pointer-events="none" font-family="sans-serif" dy="2.5" font-size="40" fill="#FFFFFF"/><text text-anchor="middle" pointer-events="none" font-family="sans-serif" dy="2.5" font-size="40" fill="#FFFFFF"/><text text-anchor="middle" pointer-events="none" font-family="sans-serif" dy="2.5" font-size="40" fill="#FFFFFF"/><text text-anchor="middle" pointer-events="none" font-family="sans-serif" dy="2.5" font-size="40" fill="#FFFFFF"/><text text-anchor="middle" pointer-events="none" y="-20" font-size="10px" fill="#FFFFFF" font-family="sans-serif"> Jeremy</text><text text-anchor="middle" pointer-events="none" y="-10" font-size="10px" fill="#FFFFFF" font-family="sans-serif"> Corbyn's</text><text text-anchor="middle" pointer-events="none" y="0" font-size="10px" fill="#FFFFFF" font-family="sans-serif"> motion K</text><text text-anchor="middle" pointer-events="none" y="10" font-size="10px" fill="#FFFFFF" font-family="sans-serif"> (Labour's</text><text text-anchor="middle" pointer-events="none" y="20" font-size="10px" fill="#FFFFFF" font-family="sans-serif"> alternative</text><text text-anchor="middle" pointer-events="none" y="30" font-size="10px" fill="#FFFFFF" font-family="sans-serif"> plan)</text></g><g class="node" transform="translate(467.72746522926303,-170.112861189943)"><circle class="outline" cx="0" cy="0" r="40" fill="#DA7194" stroke="#cc3c6c" stroke-width="2px"/><text text-anchor="middle" pointer-events="none" font-family="sans-serif" dy="2.5" font-size="40" fill="#FFFFFF"/><text text-anchor="middle" pointer-events="none" y="5" font-size="10px" fill="#FFFFFF" font-family="sans-serif"> Green</text></g><g class="node" transform="translate(90.91186168007886,-208.15753643427854)"><circle class="outline" cx="0" cy="0" r="40" fill="#4C8EDA" stroke="#2870c2" stroke-width="2px"/><text text-anchor="middle" pointer-events="none" font-family="sans-serif" dy="2.5" font-size="40" fill="#FFFFFF"/><text text-anchor="middle" pointer-events="none" font-family="sans-serif" dy="2.5" font-size="40" fill="#FFFFFF"/><text text-anchor="middle" pointer-events="none" font-family="sans-serif" dy="2.5" font-size="40" fill="#FFFFFF"/><text text-anchor="middle" pointer-events="none" y="-5" font-size="10px" fill="#FFFFFF" font-family="sans-serif"> Mr Baron's</text><text text-anchor="middle" pointer-events="none" y="5" font-size="10px" fill="#FFFFFF" font-family="sans-serif"> motion B (No</text><text text-anchor="middle" pointer-events="none" y="15" font-size="10px" fill="#FFFFFF" font-family="sans-serif"> deal)</text></g><g class="node" transform="translate(85.08266615852452,-295.17636005633017)"><circle class="outline" cx="0" cy="0" r="40" fill="#4C8EDA" stroke="#2870c2" stroke-width="2px"/><text text-anchor="middle" pointer-events="none" font-family="sans-serif" dy="2.5" font-size="40" fill="#FFFFFF"/><text text-anchor="middle" pointer-events="none" font-family="sans-serif" dy="2.5" font-size="40" fill="#FFFFFF"/><text text-anchor="middle" pointer-events="none" font-family="sans-serif" dy="2.5" font-size="40" fill="#FFFFFF"/><text text-anchor="middle" pointer-events="none" font-family="sans-serif" dy="2.5" font-size="40" fill="#FFFFFF"/><text text-anchor="middle" pointer-events="none" y="-10" font-size="10px" fill="#FFFFFF" font-family="sans-serif"> George</text><text text-anchor="middle" pointer-events="none" y="0" font-size="10px" fill="#FFFFFF" font-family="sans-serif"> Eustice's motion</text><text text-anchor="middle" pointer-events="none" y="10" font-size="10px" fill="#FFFFFF" font-family="sans-serif"> H (EFTA and</text><text text-anchor="middle" pointer-events="none" y="20" font-size="10px" fill="#FFFFFF" font-family="sans-serif"> EEA)</text></g><g class="node" transform="translate(97.47808747661895,-21.787899049666095)"><circle class="outline" cx="0" cy="0" r="40" fill="#4C8EDA" stroke="#2870c2" stroke-width="2px"/><text text-anchor="middle" pointer-events="none" font-family="sans-serif" dy="2.5" font-size="40" fill="#FFFFFF"/><text text-anchor="middle" pointer-events="none" font-family="sans-serif" dy="2.5" font-size="40" fill="#FFFFFF"/><text text-anchor="middle" pointer-events="none" font-family="sans-serif" dy="2.5" font-size="40" fill="#FFFFFF"/><text text-anchor="middle" pointer-events="none" font-family="sans-serif" dy="2.5" font-size="40" fill="#FFFFFF"/><text text-anchor="middle" pointer-events="none" y="-10" font-size="10px" fill="#FFFFFF" font-family="sans-serif"> Margaret</text><text text-anchor="middle" pointer-events="none" y="0" font-size="10px" fill="#FFFFFF" font-family="sans-serif"> Beckett's motion</text><text text-anchor="middle" pointer-events="none" y="10" font-size="10px" fill="#FFFFFF" font-family="sans-serif"> M (Confirmatory</text><text text-anchor="middle" pointer-events="none" y="20" font-size="10px" fill="#FFFFFF" font-family="sans-serif"> public vote)</text></g><g class="node" transform="translate(83.77198444622213,-385.13782668342617)"><circle class="outline" cx="0" cy="0" r="40" fill="#4C8EDA" stroke="#2870c2" stroke-width="2px"/><text text-anchor="middle" pointer-events="none" font-family="sans-serif" dy="2.5" font-size="40" fill="#FFFFFF"/><text text-anchor="middle" pointer-events="none" font-family="sans-serif" dy="2.5" font-size="40" fill="#FFFFFF"/><text text-anchor="middle" pointer-events="none" font-family="sans-serif" dy="2.5" font-size="40" fill="#FFFFFF"/><text text-anchor="middle" pointer-events="none" font-family="sans-serif" dy="2.5" font-size="40" fill="#FFFFFF"/><text text-anchor="middle" pointer-events="none" font-family="sans-serif" dy="2.5" font-size="40" fill="#FFFFFF"/><text text-anchor="middle" pointer-events="none" y="-15" font-size="10px" fill="#FFFFFF" font-family="sans-serif"> Mr Fysh's</text><text text-anchor="middle" pointer-events="none" y="-5" font-size="10px" fill="#FFFFFF" font-family="sans-serif"> motion O</text><text text-anchor="middle" pointer-events="none" y="5" font-size="10px" fill="#FFFFFF" font-family="sans-serif"> (Contingent</text><text text-anchor="middle" pointer-events="none" y="15" font-size="10px" fill="#FFFFFF" font-family="sans-serif"> preferential</text><text text-anchor="middle" pointer-events="none" y="25" font-size="10px" fill="#FFFFFF" font-family="sans-serif"> arrangeme…</text></g><g class="node" transform="translate(100.43253310498618,153.3681986013124)"><circle class="outline" cx="0" cy="0" r="40" fill="#4C8EDA" stroke="#2870c2" stroke-width="2px"/><text text-anchor="middle" pointer-events="none" font-family="sans-serif" dy="2.5" font-size="40" fill="#FFFFFF"/><text text-anchor="middle" pointer-events="none" font-family="sans-serif" dy="2.5" font-size="40" fill="#FFFFFF"/><text text-anchor="middle" pointer-events="none" font-family="sans-serif" dy="2.5" font-size="40" fill="#FFFFFF"/><text text-anchor="middle" pointer-events="none" y="-5" font-size="10px" fill="#FFFFFF" font-family="sans-serif"> Mr Clarke's</text><text text-anchor="middle" pointer-events="none" y="5" font-size="10px" fill="#FFFFFF" font-family="sans-serif"> motion J</text><text text-anchor="middle" pointer-events="none" y="15" font-size="10px" fill="#FFFFFF" font-family="sans-serif"> (Customs uni…</text></g><g class="node" transform="translate(83.6848228906111,-474.87619030592725)"><circle class="outline" cx="0" cy="0" r="40" fill="#4C8EDA" stroke="#2870c2" stroke-width="2px"/><text text-anchor="middle" pointer-events="none" font-family="sans-serif" dy="2.5" font-size="40" fill="#FFFFFF"/><text text-anchor="middle" pointer-events="none" font-family="sans-serif" dy="2.5" font-size="40" fill="#FFFFFF"/><text text-anchor="middle" pointer-events="none" font-family="sans-serif" dy="2.5" font-size="40" fill="#FFFFFF"/><text text-anchor="middle" pointer-events="none" font-family="sans-serif" dy="2.5" font-size="40" fill="#FFFFFF"/><text text-anchor="middle" pointer-events="none" y="-10" font-size="10px" fill="#FFFFFF" font-family="sans-serif"> Nick Boles's</text><text text-anchor="middle" pointer-events="none" y="0" font-size="10px" fill="#FFFFFF" font-family="sans-serif"> motion D</text><text text-anchor="middle" pointer-events="none" y="10" font-size="10px" fill="#FFFFFF" font-family="sans-serif"> (Common</text><text text-anchor="middle" pointer-events="none" y="20" font-size="10px" fill="#FFFFFF" font-family="sans-serif"> market 2.0)</text></g><g class="node" transform="translate(96.82136756244024,65.58882955704863)"><circle class="outline" cx="0" cy="0" r="40" fill="#4C8EDA" stroke="#2870c2" stroke-width="2px"/><text text-anchor="middle" pointer-events="none" font-family="sans-serif" dy="2.5" font-size="40" fill="#FFFFFF"/><text text-anchor="middle" pointer-events="none" font-family="sans-serif" dy="2.5" font-size="40" fill="#FFFFFF"/><text text-anchor="middle" pointer-events="none" font-family="sans-serif" dy="2.5" font-size="40" fill="#FFFFFF"/><text text-anchor="middle" pointer-events="none" font-family="sans-serif" dy="2.5" font-size="40" fill="#FFFFFF"/><text text-anchor="middle" pointer-events="none" y="-10" font-size="10px" fill="#FFFFFF" font-family="sans-serif"> Joanna</text><text text-anchor="middle" pointer-events="none" y="0" font-size="10px" fill="#FFFFFF" font-family="sans-serif"> Cherry's motion</text><text text-anchor="middle" pointer-events="none" y="10" font-size="10px" fill="#FFFFFF" font-family="sans-serif"> L (Revocation to</text><text text-anchor="middle" pointer-events="none" y="20" font-size="10px" fill="#FFFFFF" font-family="sans-serif"> avoid no deal)</text></g></g></svg>