<svg xmlns="http://www.w3.org/2000/svg" width="838.751708984375" height="763.76025390625" viewBox="-343.3258972167969 -525.13037109375 838.751708984375 763.76025390625"><title>Neo4j Graph Visualization</title><desc>Created using Neo4j (http://www.neo4j.com/)</desc><g class="layer relationships"><g class="relationship" transform="translate(-188.52438570885678 -98.29025458799052) rotate(402.90926820937887)"><path class="outline" fill="#A5ABB6" stroke="none" d="M 40 0.5 L 206.3922712361697 0.5 L 206.3922712361697 -0.5 L 40 -0.5 Z M 216.8414899861697 0.5 L 383.2337612223394 0.5 L 383.2337612223394 3.5 L 390.2337612223394 0 L 383.2337612223394 -3.5 L 383.2337612223394 -0.5 L 216.8414899861697 -0.5 Z"/><text text-anchor="middle" pointer-events="none" font-size="8px" fill="#000000" x="211.6168806111697" y="3" font-family="sans-serif">0</text></g><g class="relationship" transform="translate(-188.52438570885678 -98.29025458799052) rotate(244.8025345154282)"><path class="outline" fill="#A5ABB6" stroke="none" d="M 40 0.5 L 96.51119451508191 0.5 L 96.51119451508191 -0.5 L 40 -0.5 Z M 156.7455695150819 0.5 L 213.25676403016382 0.5 L 213.25676403016382 3.5 L 220.25676403016382 0 L 213.25676403016382 -3.5 L 213.25676403016382 -0.5 L 156.7455695150819 -0.5 Z"/><text text-anchor="middle" pointer-events="none" font-size="8px" fill="#000000" x="126.62838201508191" y="3" transform="rotate(180 126.62838201508191 0)" font-family="sans-serif">REPRESENTS</text></g><g class="relationship" transform="translate(451.4258250602471 -60.718144313045954) rotate(501.82945821272875)"><path class="outline" fill="#A5ABB6" stroke="none" d="M 40 0.5 L 161.1610910459775 0.5 L 161.1610910459775 -0.5 L 40 -0.5 Z M 245.0204660459775 0.5 L 366.181557091955 0.5 L 366.181557091955 3.5 L 373.181557091955 0 L 366.181557091955 -3.5 L 366.181557091955 -0.5 L 245.0204660459775 -0.5 Z"/><text text-anchor="middle" pointer-events="none" font-size="8px" fill="#000000" x="203.0907785459775" y="3" transform="rotate(180 203.0907785459775 0)" font-family="sans-serif">0.6643192488262909</text></g><g class="relationship" transform="translate(-188.52438570885678 -98.29025458799052) rotate(361.1087313226969)"><path class="outline" fill="#A5ABB6" stroke="none" d="M 40 0.5 L 146.20142752410598 0.5 L 146.20142752410598 -0.5 L 40 -0.5 Z M 156.65064627410598 0.5 L 262.85207379821196 0.5 L 262.85207379821196 3.5 L 269.85207379821196 0 L 262.85207379821196 -3.5 L 262.85207379821196 -0.5 L 156.65064627410598 -0.5 Z"/><text text-anchor="middle" pointer-events="none" font-size="8px" fill="#000000" x="151.42603689910598" y="3" font-family="sans-serif">0</text></g><g class="relationship" transform="translate(451.4258250602471 -60.718144313045954) rotate(185.46322026455363)"><path class="outline" fill="#A5ABB6" stroke="none" d="M 40 0.5 L 120.40167276518491 0.5 L 120.40167276518491 -0.5 L 40 -0.5 Z M 204.2610477651849 0.5 L 284.6627205303698 0.5 L 284.6627205303698 3.5 L 291.6627205303698 0 L 284.6627205303698 -3.5 L 284.6627205303698 -0.5 L 204.2610477651849 -0.5 Z"/><text text-anchor="middle" pointer-events="none" font-size="8px" fill="#000000" x="162.3313602651849" y="3" transform="rotate(180 162.3313602651849 0)" font-family="sans-serif">0.8403755868544599</text></g><g class="relationship" transform="translate(-188.52438570885678 -98.29025458799052) rotate(343.1078713064825)"><path class="outline" fill="#A5ABB6" stroke="none" d="M 40 0.5 L 150.97108270668468 0.5 L 150.97108270668468 -0.5 L 40 -0.5 Z M 161.42030145668468 0.5 L 272.39138416336937 0.5 L 272.39138416336937 3.5 L 279.39138416336937 0 L 272.39138416336937 -3.5 L 272.39138416336937 -0.5 L 161.42030145668468 -0.5 Z"/><text text-anchor="middle" pointer-events="none" font-size="8px" fill="#000000" x="156.19569208168468" y="3" font-family="sans-serif">1</text></g><g class="relationship" transform="translate(451.4258250602471 -60.718144313045954) rotate(201.3036296601437)"><path class="outline" fill="#A5ABB6" stroke="none" d="M 40 0.5 L 131.77623333415252 0.5 L 131.77623333415252 -0.5 L 40 -0.5 Z M 220.08482708415252 0.5 L 311.86106041830504 0.5 L 311.86106041830504 3.5 L 318.86106041830504 0 L 311.86106041830504 -3.5 L 311.86106041830504 -0.5 L 220.08482708415252 -0.5 Z"/><text text-anchor="middle" pointer-events="none" font-size="8px" fill="#000000" x="175.93053020915252" y="3" transform="rotate(180 175.93053020915252 0)" font-family="sans-serif">0.02582159624413147</text></g><g class="relationship" transform="translate(-188.52438570885678 -98.29025458799052) rotate(316.1367560978785)"><path class="outline" fill="#A5ABB6" stroke="none" d="M 40 0.5 L 197.6624904344701 0.5 L 197.6624904344701 -0.5 L 40 -0.5 Z M 208.1117091844701 0.5 L 365.7741996189402 0.5 L 365.7741996189402 3.5 L 372.7741996189402 0 L 365.7741996189402 -3.5 L 365.7741996189402 -0.5 L 208.1117091844701 -0.5 Z"/><text text-anchor="middle" pointer-events="none" font-size="8px" fill="#000000" x="202.8870998094701" y="3" font-family="sans-serif">0</text></g><g class="relationship" transform="translate(451.4258250602471 -60.718144313045954) rotate(223.38790496702813)"><path class="outline" fill="#A5ABB6" stroke="none" d="M 40 0.5 L 190.40624836484432 0.5 L 190.40624836484432 -0.5 L 40 -0.5 Z M 273.6718733648443 0.5 L 424.07812172968863 0.5 L 424.07812172968863 3.5 L 431.07812172968863 0 L 424.07812172968863 -3.5 L 424.07812172968863 -0.5 L 273.6718733648443 -0.5 Z"/><text text-anchor="middle" pointer-events="none" font-size="8px" fill="#000000" x="232.03906086484432" y="3" transform="rotate(180 232.03906086484432 0)" font-family="sans-serif">0.7042253521126761</text></g><g class="relationship" transform="translate(-188.52438570885678 -98.29025458799052) rotate(307.335429715872)"><path class="outline" fill="#A5ABB6" stroke="none" d="M 40 0.5 L 232.02547369149474 0.5 L 232.02547369149474 -0.5 L 40 -0.5 Z M 242.47469244149474 0.5 L 434.5001661329895 0.5 L 434.5001661329895 3.5 L 441.5001661329895 0 L 434.5001661329895 -3.5 L 434.5001661329895 -0.5 L 242.47469244149474 -0.5 Z"/><text text-anchor="middle" pointer-events="none" font-size="8px" fill="#000000" x="237.25008306649474" y="3" font-family="sans-serif">1</text></g><g class="relationship" transform="translate(451.4258250602471 -60.718144313045954) rotate(230.3891055943547)"><path class="outline" fill="#A5ABB6" stroke="none" d="M 40 0.5 L 225.49860904827392 0.5 L 225.49860904827392 -0.5 L 40 -0.5 Z M 313.2134527982739 0.5 L 498.71206184654784 0.5 L 498.71206184654784 3.5 L 505.71206184654784 0 L 498.71206184654784 -3.5 L 498.71206184654784 -0.5 L 313.2134527982739 -0.5 Z"/><text text-anchor="middle" pointer-events="none" font-size="8px" fill="#000000" x="269.3560309232739" y="3" transform="rotate(180 269.3560309232739 0)" font-family="sans-serif">0.25352112676056326</text></g><g class="relationship" transform="translate(-188.52438570885678 -98.29025458799052) rotate(378.36100454580935)"><path class="outline" fill="#A5ABB6" stroke="none" d="M 40 0.5 L 153.83100366440965 0.5 L 153.83100366440965 -0.5 L 40 -0.5 Z M 164.28022241440965 0.5 L 278.1112260788193 0.5 L 278.1112260788193 3.5 L 285.1112260788193 0 L 278.1112260788193 -3.5 L 278.1112260788193 -0.5 L 164.28022241440965 -0.5 Z"/><text text-anchor="middle" pointer-events="none" font-size="8px" fill="#000000" x="159.05561303940965" y="3" font-family="sans-serif">0</text></g><g class="relationship" transform="translate(451.4258250602471 -60.718144313045954) rotate(528.9295074813995)"><path class="outline" fill="#A5ABB6" stroke="none" d="M 40 0.5 L 121.47944548874875 0.5 L 121.47944548874875 -0.5 L 40 -0.5 Z M 209.19428923874875 0.5 L 290.6737347274975 0.5 L 290.6737347274975 3.5 L 297.6737347274975 0 L 290.6737347274975 -3.5 L 290.6737347274975 -0.5 L 209.19428923874875 -0.5 Z"/><text text-anchor="middle" pointer-events="none" font-size="8px" fill="#000000" x="165.33686736374875" y="3" transform="rotate(180 165.33686736374875 0)" font-family="sans-serif">0.03521126760563382</text></g><g class="relationship" transform="translate(-188.52438570885678 -98.29025458799052) rotate(327.60768756281936)"><path class="outline" fill="#A5ABB6" stroke="none" d="M 40 0.5 L 168.83462443638595 0.5 L 168.83462443638595 -0.5 L 40 -0.5 Z M 179.28384318638595 0.5 L 308.1184676227719 0.5 L 308.1184676227719 3.5 L 315.1184676227719 0 L 308.1184676227719 -3.5 L 308.1184676227719 -0.5 L 179.28384318638595 -0.5 Z"/><text text-anchor="middle" pointer-events="none" font-size="8px" fill="#000000" x="174.05923381138595" y="3" font-family="sans-serif">1</text></g><g class="relationship" transform="translate(451.4258250602471 -60.718144313045954) rotate(213.8168228663967)"><path class="outline" fill="#A5ABB6" stroke="none" d="M 40 0.5 L 159.2402738437981 0.5 L 159.2402738437981 -0.5 L 40 -0.5 Z M 243.0996488437981 0.5 L 362.3399226875962 0.5 L 362.3399226875962 3.5 L 369.3399226875962 0 L 362.3399226875962 -3.5 L 362.3399226875962 -0.5 L 243.0996488437981 -0.5 Z"/><text text-anchor="middle" pointer-events="none" font-size="8px" fill="#000000" x="201.1699613437981" y="3" transform="rotate(180 201.1699613437981 0)" font-family="sans-serif">0.9600938967136151</text></g><g class="relationship" transform="translate(-188.52438570885678 -98.29025458799052) rotate(392.1607914282504)"><path class="outline" fill="#A5ABB6" stroke="none" d="M 40 0.5 L 176.71780908871517 0.5 L 176.71780908871517 -0.5 L 40 -0.5 Z M 187.16702783871517 0.5 L 323.88483692743034 0.5 L 323.88483692743034 3.5 L 330.88483692743034 0 L 323.88483692743034 -3.5 L 323.88483692743034 -0.5 L 187.16702783871517 -0.5 Z"/><text text-anchor="middle" pointer-events="none" font-size="8px" fill="#000000" x="181.94241846371517" y="3" font-family="sans-serif">0</text></g><g class="relationship" transform="translate(451.4258250602471 -60.718144313045954) rotate(513.8779780173315)"><path class="outline" fill="#A5ABB6" stroke="none" d="M 40 0.5 L 138.32400160527678 0.5 L 138.32400160527678 -0.5 L 40 -0.5 Z M 217.73415785527678 0.5 L 316.05815946055355 0.5 L 316.05815946055355 3.5 L 323.05815946055355 0 L 316.05815946055355 -3.5 L 316.05815946055355 -0.5 L 217.73415785527678 -0.5 Z"/><text text-anchor="middle" pointer-events="none" font-size="8px" fill="#000000" x="178.02907973027678" y="3" transform="rotate(180 178.02907973027678 0)" font-family="sans-serif">0.927230046948357</text></g></g><g class="layer nodes"><g class="node" transform="translate(-188.52438570885678,-98.29025458799052)"><circle class="outline" cx="0" cy="0" r="40" fill="#569480" stroke="#447666" stroke-width="2px"/><text text-anchor="middle" pointer-events="none" font-family="sans-serif" dy="2.5" font-size="40" fill="#FFFFFF"/><text text-anchor="middle" pointer-events="none" y="5" font-size="10px" fill="#FFFFFF" font-family="sans-serif"> Dennis Skinner</text></g><g class="node" transform="translate(126.59292203904977,194.62982265703562)"><circle class="outline" cx="0" cy="0" r="40" fill="#4C8EDA" stroke="#2870c2" stroke-width="2px"/><text text-anchor="middle" pointer-events="none" font-family="sans-serif" dy="2.5" font-size="40" fill="#FFFFFF"/><text text-anchor="middle" pointer-events="none" font-family="sans-serif" dy="2.5" font-size="40" fill="#FFFFFF"/><text text-anchor="middle" pointer-events="none" font-family="sans-serif" dy="2.5" font-size="40" fill="#FFFFFF"/><text text-anchor="middle" pointer-events="none" font-family="sans-serif" dy="2.5" font-size="40" fill="#FFFFFF"/><text text-anchor="middle" pointer-events="none" y="-10" font-size="10px" fill="#FFFFFF" font-family="sans-serif"> Joanna</text><text text-anchor="middle" pointer-events="none" y="0" font-size="10px" fill="#FFFFFF" font-family="sans-serif"> Cherry's motion</text><text text-anchor="middle" pointer-events="none" y="10" font-size="10px" fill="#FFFFFF" font-family="sans-serif"> L (Revocation to</text><text text-anchor="middle" pointer-events="none" y="20" font-size="10px" fill="#FFFFFF" font-family="sans-serif"> avoid no deal)</text></g><g class="node" transform="translate(-299.32590928030874,-333.7825168763667)"><circle class="outline" cx="0" cy="0" r="40" fill="#ECB5C9" stroke="#da7298" stroke-width="2px"/><text text-anchor="middle" pointer-events="none" font-family="sans-serif" dy="2.5" font-size="40" fill="#604A0E"/><text text-anchor="middle" pointer-events="none" font-family="sans-serif" dy="2.5" font-size="40" fill="#604A0E"/><text text-anchor="middle" pointer-events="none" y="0" font-size="10px" fill="#604A0E" font-family="sans-serif"> Bolsover</text><text text-anchor="middle" pointer-events="none" y="10" font-size="10px" fill="#604A0E" font-family="sans-serif"> (Leave70.4)</text></g><g class="node" transform="translate(451.4258250602471,-60.718144313045954)"><circle class="outline" cx="0" cy="0" r="40" fill="#DA7194" stroke="#cc3c6c" stroke-width="2px"/><text text-anchor="middle" pointer-events="none" font-family="sans-serif" dy="2.5" font-size="40" fill="#FFFFFF"/><text text-anchor="middle" pointer-events="none" y="5" font-size="10px" fill="#FFFFFF" font-family="sans-serif"> Labour</text></g><g class="node" transform="translate(121.26967603726246,-92.29467756036324)"><circle class="outline" cx="0" cy="0" r="40" fill="#4C8EDA" stroke="#2870c2" stroke-width="2px"/><text text-anchor="middle" pointer-events="none" font-family="sans-serif" dy="2.5" font-size="40" fill="#FFFFFF"/><text text-anchor="middle" pointer-events="none" font-family="sans-serif" dy="2.5" font-size="40" fill="#FFFFFF"/><text text-anchor="middle" pointer-events="none" font-family="sans-serif" dy="2.5" font-size="40" fill="#FFFFFF"/><text text-anchor="middle" pointer-events="none" font-family="sans-serif" dy="2.5" font-size="40" fill="#FFFFFF"/><text text-anchor="middle" pointer-events="none" y="-10" font-size="10px" fill="#FFFFFF" font-family="sans-serif"> Margaret</text><text text-anchor="middle" pointer-events="none" y="0" font-size="10px" fill="#FFFFFF" font-family="sans-serif"> Beckett's motion</text><text text-anchor="middle" pointer-events="none" y="10" font-size="10px" fill="#FFFFFF" font-family="sans-serif"> M (Confirmatory</text><text text-anchor="middle" pointer-events="none" y="20" font-size="10px" fill="#FFFFFF" font-family="sans-serif"> public vote)</text></g><g class="node" transform="translate(117.08638185313822,-191.0960465837558)"><circle class="outline" cx="0" cy="0" r="40" fill="#4C8EDA" stroke="#2870c2" stroke-width="2px"/><text text-anchor="middle" pointer-events="none" font-family="sans-serif" dy="2.5" font-size="40" fill="#FFFFFF"/><text text-anchor="middle" pointer-events="none" font-family="sans-serif" dy="2.5" font-size="40" fill="#FFFFFF"/><text text-anchor="middle" pointer-events="none" font-family="sans-serif" dy="2.5" font-size="40" fill="#FFFFFF"/><text text-anchor="middle" pointer-events="none" y="-5" font-size="10px" fill="#FFFFFF" font-family="sans-serif"> Mr Baron's</text><text text-anchor="middle" pointer-events="none" y="5" font-size="10px" fill="#FFFFFF" font-family="sans-serif"> motion B (No</text><text text-anchor="middle" pointer-events="none" y="15" font-size="10px" fill="#FFFFFF" font-family="sans-serif"> deal)</text></g><g class="node" transform="translate(109.08407485209332,-384.3177778678282)"><circle class="outline" cx="0" cy="0" r="40" fill="#4C8EDA" stroke="#2870c2" stroke-width="2px"/><text text-anchor="middle" pointer-events="none" font-family="sans-serif" dy="2.5" font-size="40" fill="#FFFFFF"/><text text-anchor="middle" pointer-events="none" font-family="sans-serif" dy="2.5" font-size="40" fill="#FFFFFF"/><text text-anchor="middle" pointer-events="none" font-family="sans-serif" dy="2.5" font-size="40" fill="#FFFFFF"/><text text-anchor="middle" pointer-events="none" font-family="sans-serif" dy="2.5" font-size="40" fill="#FFFFFF"/><text text-anchor="middle" pointer-events="none" y="-10" font-size="10px" fill="#FFFFFF" font-family="sans-serif"> Nick Boles's</text><text text-anchor="middle" pointer-events="none" y="0" font-size="10px" fill="#FFFFFF" font-family="sans-serif"> motion D</text><text text-anchor="middle" pointer-events="none" y="10" font-size="10px" fill="#FFFFFF" font-family="sans-serif"> (Common</text><text text-anchor="middle" pointer-events="none" y="20" font-size="10px" fill="#FFFFFF" font-family="sans-serif"> market 2.0)</text></g><g class="node" transform="translate(103.49592050938611,-481.13036578625577)"><circle class="outline" cx="0" cy="0" r="40" fill="#4C8EDA" stroke="#2870c2" stroke-width="2px"/><text text-anchor="middle" pointer-events="none" font-family="sans-serif" dy="2.5" font-size="40" fill="#FFFFFF"/><text text-anchor="middle" pointer-events="none" font-family="sans-serif" dy="2.5" font-size="40" fill="#FFFFFF"/><text text-anchor="middle" pointer-events="none" font-family="sans-serif" dy="2.5" font-size="40" fill="#FFFFFF"/><text text-anchor="middle" pointer-events="none" font-family="sans-serif" dy="2.5" font-size="40" fill="#FFFFFF"/><text text-anchor="middle" pointer-events="none" y="-10" font-size="10px" fill="#FFFFFF" font-family="sans-serif"> George</text><text text-anchor="middle" pointer-events="none" y="0" font-size="10px" fill="#FFFFFF" font-family="sans-serif"> Eustice's motion</text><text text-anchor="middle" pointer-events="none" y="10" font-size="10px" fill="#FFFFFF" font-family="sans-serif"> H (EFTA and</text><text text-anchor="middle" pointer-events="none" y="20" font-size="10px" fill="#FFFFFF" font-family="sans-serif"> EEA)</text></g><g class="node" transform="translate(120.03563016756888,4.120808900351022)"><circle class="outline" cx="0" cy="0" r="40" fill="#4C8EDA" stroke="#2870c2" stroke-width="2px"/><text text-anchor="middle" pointer-events="none" font-family="sans-serif" dy="2.5" font-size="40" fill="#FFFFFF"/><text text-anchor="middle" pointer-events="none" font-family="sans-serif" dy="2.5" font-size="40" fill="#FFFFFF"/><text text-anchor="middle" pointer-events="none" font-family="sans-serif" dy="2.5" font-size="40" fill="#FFFFFF"/><text text-anchor="middle" pointer-events="none" font-family="sans-serif" dy="2.5" font-size="40" fill="#FFFFFF"/><text text-anchor="middle" pointer-events="none" font-family="sans-serif" dy="2.5" font-size="40" fill="#FFFFFF"/><text text-anchor="middle" pointer-events="none" y="-15" font-size="10px" fill="#FFFFFF" font-family="sans-serif"> Mr Fysh's</text><text text-anchor="middle" pointer-events="none" y="-5" font-size="10px" fill="#FFFFFF" font-family="sans-serif"> motion O</text><text text-anchor="middle" pointer-events="none" y="5" font-size="10px" fill="#FFFFFF" font-family="sans-serif"> (Contingent</text><text text-anchor="middle" pointer-events="none" y="15" font-size="10px" fill="#FFFFFF" font-family="sans-serif"> preferential</text><text text-anchor="middle" pointer-events="none" y="25" font-size="10px" fill="#FFFFFF" font-family="sans-serif"> arrangeme…</text></g><g class="node" transform="translate(111.33758142683192,-288.5320131802114)"><circle class="outline" cx="0" cy="0" r="40" fill="#4C8EDA" stroke="#2870c2" stroke-width="2px"/><text text-anchor="middle" pointer-events="none" font-family="sans-serif" dy="2.5" font-size="40" fill="#FFFFFF"/><text text-anchor="middle" pointer-events="none" font-family="sans-serif" dy="2.5" font-size="40" fill="#FFFFFF"/><text text-anchor="middle" pointer-events="none" font-family="sans-serif" dy="2.5" font-size="40" fill="#FFFFFF"/><text text-anchor="middle" pointer-events="none" font-family="sans-serif" dy="2.5" font-size="40" fill="#FFFFFF"/><text text-anchor="middle" pointer-events="none" font-family="sans-serif" dy="2.5" font-size="40" fill="#FFFFFF"/><text text-anchor="middle" pointer-events="none" font-family="sans-serif" dy="2.5" font-size="40" fill="#FFFFFF"/><text text-anchor="middle" pointer-events="none" y="-20" font-size="10px" fill="#FFFFFF" font-family="sans-serif"> Jeremy</text><text text-anchor="middle" pointer-events="none" y="-10" font-size="10px" fill="#FFFFFF" font-family="sans-serif"> Corbyn's</text><text text-anchor="middle" pointer-events="none" y="0" font-size="10px" fill="#FFFFFF" font-family="sans-serif"> motion K</text><text text-anchor="middle" pointer-events="none" y="10" font-size="10px" fill="#FFFFFF" font-family="sans-serif"> (Labour's</text><text text-anchor="middle" pointer-events="none" y="20" font-size="10px" fill="#FFFFFF" font-family="sans-serif"> alternative</text><text text-anchor="middle" pointer-events="none" y="30" font-size="10px" fill="#FFFFFF" font-family="sans-serif"> plan)</text></g><g class="node" transform="translate(125.45100104529564,99.13066318737341)"><circle class="outline" cx="0" cy="0" r="40" fill="#4C8EDA" stroke="#2870c2" stroke-width="2px"/><text text-anchor="middle" pointer-events="none" font-family="sans-serif" dy="2.5" font-size="40" fill="#FFFFFF"/><text text-anchor="middle" pointer-events="none" font-family="sans-serif" dy="2.5" font-size="40" fill="#FFFFFF"/><text text-anchor="middle" pointer-events="none" font-family="sans-serif" dy="2.5" font-size="40" fill="#FFFFFF"/><text text-anchor="middle" pointer-events="none" y="-5" font-size="10px" fill="#FFFFFF" font-family="sans-serif"> Mr Clarke's</text><text text-anchor="middle" pointer-events="none" y="5" font-size="10px" fill="#FFFFFF" font-family="sans-serif"> motion J</text><text text-anchor="middle" pointer-events="none" y="15" font-size="10px" fill="#FFFFFF" font-family="sans-serif"> (Customs uni…</text></g></g></svg>