<svg xmlns="http://www.w3.org/2000/svg" width="1031.7957763671875" height="788.6795654296875" viewBox="-380.9449768066406 -403.00384521484375 1031.7957763671875 788.6795654296875"><title>Neo4j Graph Visualization</title><desc>Created using Neo4j (http://www.neo4j.com/)</desc><g class="layer relationships"><g class="relationship" transform="translate(-46.67951608783861 12.984776424715832) rotate(396.3527254742519)"><path class="outline" fill="#A5ABB6" stroke="none" d="M 40 0.5 L 183.34780728924932 0.5 L 183.34780728924932 -0.5 L 40 -0.5 Z M 193.79702603924932 0.5 L 337.14483332849863 0.5 L 337.14483332849863 3.5 L 344.14483332849863 0 L 337.14483332849863 -3.5 L 337.14483332849863 -0.5 L 193.79702603924932 -0.5 Z"/><text text-anchor="middle" pointer-events="none" font-size="8px" fill="#000000" x="188.57241666424932" y="3" font-family="sans-serif">0</text></g><g class="relationship" transform="translate(-46.67951608783861 12.984776424715832) rotate(537.5536224950785)"><path class="outline" fill="#A5ABB6" stroke="none" d="M 40 0.5 L 111.64793962079446 0.5 L 111.64793962079446 -0.5 L 40 -0.5 Z M 171.88231462079446 0.5 L 243.53025424158892 0.5 L 243.53025424158892 3.5 L 250.53025424158892 0 L 243.53025424158892 -3.5 L 243.53025424158892 -0.5 L 171.88231462079446 -0.5 Z"/><text text-anchor="middle" pointer-events="none" font-size="8px" fill="#000000" x="141.76512712079446" y="3" transform="rotate(180 141.76512712079446 0)" font-family="sans-serif">REPRESENTS</text></g><g class="relationship" transform="translate(606.8508152141776 23.13348178532692) rotate(507.70065669877977)"><path class="outline" fill="#A5ABB6" stroke="none" d="M 40 0.5 L 158.1427725058531 0.5 L 158.1427725058531 -0.5 L 40 -0.5 Z M 242.0021475058531 0.5 L 360.1449200117062 0.5 L 360.1449200117062 3.5 L 367.1449200117062 0 L 360.1449200117062 -3.5 L 360.1449200117062 -0.5 L 242.0021475058531 -0.5 Z"/><text text-anchor="middle" pointer-events="none" font-size="8px" fill="#000000" x="200.0724600058531" y="3" transform="rotate(180 200.0724600058531 0)" font-family="sans-serif">0.6643192488262909</text></g><g class="relationship" transform="translate(-46.67951608783861 12.984776424715832) rotate(349.1264667720485)"><path class="outline" fill="#A5ABB6" stroke="none" d="M 40 0.5 L 141.56978941623987 0.5 L 141.56978941623987 -0.5 L 40 -0.5 Z M 152.01900816623987 0.5 L 253.58879758247974 0.5 L 253.58879758247974 3.5 L 260.58879758247974 0 L 253.58879758247974 -3.5 L 253.58879758247974 -0.5 L 152.01900816623987 -0.5 Z"/><text text-anchor="middle" pointer-events="none" font-size="8px" fill="#000000" x="146.79439879123987" y="3" font-family="sans-serif">0</text></g><g class="relationship" transform="translate(606.8508152141776 23.13348178532692) rotate(190.56773001658604)"><path class="outline" fill="#A5ABB6" stroke="none" d="M 40 0.5 L 136.83082888605387 0.5 L 136.83082888605387 -0.5 L 40 -0.5 Z M 220.69020388605387 0.5 L 317.52103277210773 0.5 L 317.52103277210773 3.5 L 324.52103277210773 0 L 317.52103277210773 -3.5 L 317.52103277210773 -0.5 L 220.69020388605387 -0.5 Z"/><text text-anchor="middle" pointer-events="none" font-size="8px" fill="#000000" x="178.76051638605387" y="3" transform="rotate(180 178.76051638605387 0)" font-family="sans-serif">0.8403755868544599</text></g><g class="relationship" transform="translate(-46.67951608783861 12.984776424715832) rotate(316.59095374396776)"><path class="outline" fill="#A5ABB6" stroke="none" d="M 40 0.5 L 189.92986794248566 0.5 L 189.92986794248566 -0.5 L 40 -0.5 Z M 200.37908669248566 0.5 L 350.3089546349713 0.5 L 350.3089546349713 3.5 L 357.3089546349713 0 L 350.3089546349713 -3.5 L 350.3089546349713 -0.5 L 200.37908669248566 -0.5 Z"/><text text-anchor="middle" pointer-events="none" font-size="8px" fill="#000000" x="195.15447731748566" y="3" font-family="sans-serif">1</text></g><g class="relationship" transform="translate(606.8508152141776 23.13348178532692) rotate(217.81330740739617)"><path class="outline" fill="#A5ABB6" stroke="none" d="M 40 0.5 L 183.29062418195664 0.5 L 183.29062418195664 -0.5 L 40 -0.5 Z M 271.5992179319567 0.5 L 414.8898421139133 0.5 L 414.8898421139133 3.5 L 421.8898421139133 0 L 414.8898421139133 -3.5 L 414.8898421139133 -0.5 L 271.5992179319567 -0.5 Z"/><text text-anchor="middle" pointer-events="none" font-size="8px" fill="#000000" x="227.44492105695664" y="3" transform="rotate(180 227.44492105695664 0)" font-family="sans-serif">0.02582159624413147</text></g><g class="relationship" transform="translate(-46.67951608783861 12.984776424715832) rotate(330.85050699769283)"><path class="outline" fill="#A5ABB6" stroke="none" d="M 40 0.5 L 157.7562883441554 0.5 L 157.7562883441554 -0.5 L 40 -0.5 Z M 168.2055070941554 0.5 L 285.9617954383108 0.5 L 285.9617954383108 3.5 L 292.9617954383108 0 L 285.9617954383108 -3.5 L 285.9617954383108 -0.5 L 168.2055070941554 -0.5 Z"/><text text-anchor="middle" pointer-events="none" font-size="8px" fill="#000000" x="162.9808977191554" y="3" font-family="sans-serif">0</text></g><g class="relationship" transform="translate(606.8508152141776 23.13348178532692) rotate(205.41167735178044)"><path class="outline" fill="#A5ABB6" stroke="none" d="M 40 0.5 L 155.66343011071493 0.5 L 155.66343011071493 -0.5 L 40 -0.5 Z M 238.92905511071493 0.5 L 354.59248522142985 0.5 L 354.59248522142985 3.5 L 361.59248522142985 0 L 354.59248522142985 -3.5 L 354.59248522142985 -0.5 L 238.92905511071493 -0.5 Z"/><text text-anchor="middle" pointer-events="none" font-size="8px" fill="#000000" x="197.29624261071493" y="3" transform="rotate(180 197.29624261071493 0)" font-family="sans-serif">0.7042253521126761</text></g><g class="relationship" transform="translate(-46.67951608783861 12.984776424715832) rotate(307.31771613369784)"><path class="outline" fill="#A5ABB6" stroke="none" d="M 40 0.5 L 225.14633774494803 0.5 L 225.14633774494803 -0.5 L 40 -0.5 Z M 235.59555649494803 0.5 L 420.74189423989606 0.5 L 420.74189423989606 3.5 L 427.74189423989606 0 L 420.74189423989606 -3.5 L 420.74189423989606 -0.5 L 235.59555649494803 -0.5 Z"/><text text-anchor="middle" pointer-events="none" font-size="8px" fill="#000000" x="230.37094711994803" y="3" font-family="sans-serif">1</text></g><g class="relationship" transform="translate(606.8508152141776 23.13348178532692) rotate(225.92689629561778)"><path class="outline" fill="#A5ABB6" stroke="none" d="M 40 0.5 L 218.58716355377658 0.5 L 218.58716355377658 -0.5 L 40 -0.5 Z M 306.3020073037766 0.5 L 484.88917085755315 0.5 L 484.88917085755315 3.5 L 491.88917085755315 0 L 484.88917085755315 -3.5 L 484.88917085755315 -0.5 L 306.3020073037766 -0.5 Z"/><text text-anchor="middle" pointer-events="none" font-size="8px" fill="#000000" x="262.4445854287766" y="3" transform="rotate(180 262.4445854287766 0)" font-family="sans-serif">0.25352112676056326</text></g><g class="relationship" transform="translate(-46.67951608783861 12.984776424715832) rotate(406.50279087637216)"><path class="outline" fill="#A5ABB6" stroke="none" d="M 40 0.5 L 217.83133266400145 0.5 L 217.83133266400145 -0.5 L 40 -0.5 Z M 228.28055141400145 0.5 L 406.1118840780029 0.5 L 406.1118840780029 3.5 L 413.1118840780029 0 L 406.1118840780029 -3.5 L 406.1118840780029 -0.5 L 228.28055141400145 -0.5 Z"/><text text-anchor="middle" pointer-events="none" font-size="8px" fill="#000000" x="223.05594203900145" y="3" font-family="sans-serif">0</text></g><g class="relationship" transform="translate(606.8508152141776 23.13348178532692) rotate(497.00418081156204)"><path class="outline" fill="#A5ABB6" stroke="none" d="M 40 0.5 L 186.1967786468585 0.5 L 186.1967786468585 -0.5 L 40 -0.5 Z M 273.9116223968585 0.5 L 420.108401043717 0.5 L 420.108401043717 3.5 L 427.108401043717 0 L 420.108401043717 -3.5 L 420.108401043717 -0.5 L 273.9116223968585 -0.5 Z"/><text text-anchor="middle" pointer-events="none" font-size="8px" fill="#000000" x="230.0542005218585" y="3" transform="rotate(180 230.0542005218585 0)" font-family="sans-serif">0.03521126760563382</text></g><g class="relationship" transform="translate(-46.67951608783861 12.984776424715832) rotate(384.26229606116476)"><path class="outline" fill="#A5ABB6" stroke="none" d="M 40 0.5 L 158.98412981388188 0.5 L 158.98412981388188 -0.5 L 40 -0.5 Z M 169.43334856388188 0.5 L 288.41747837776376 0.5 L 288.41747837776376 3.5 L 295.41747837776376 0 L 288.41747837776376 -3.5 L 288.41747837776376 -0.5 L 169.43334856388188 -0.5 Z"/><text text-anchor="middle" pointer-events="none" font-size="8px" fill="#000000" x="164.20873918888188" y="3" font-family="sans-serif">1</text></g><g class="relationship" transform="translate(606.8508152141776 23.13348178532692) rotate(519.8382963788993)"><path class="outline" fill="#A5ABB6" stroke="none" d="M 40 0.5 L 139.78935564069656 0.5 L 139.78935564069656 -0.5 L 40 -0.5 Z M 223.64873064069656 0.5 L 323.4380862813931 0.5 L 323.4380862813931 3.5 L 330.4380862813931 0 L 323.4380862813931 -3.5 L 323.4380862813931 -0.5 L 223.64873064069656 -0.5 Z"/><text text-anchor="middle" pointer-events="none" font-size="8px" fill="#000000" x="181.71904314069656" y="3" transform="rotate(180 181.71904314069656 0)" font-family="sans-serif">0.9600938967136151</text></g><g class="relationship" transform="translate(-46.67951608783861 12.984776424715832) rotate(367.5956296425468)"><path class="outline" fill="#A5ABB6" stroke="none" d="M 40 0.5 L 142.875512330955 0.5 L 142.875512330955 -0.5 L 40 -0.5 Z M 153.324731080955 0.5 L 256.20024341191 0.5 L 256.20024341191 3.5 L 263.20024341191 0 L 256.20024341191 -3.5 L 256.20024341191 -0.5 L 153.324731080955 -0.5 Z"/><text text-anchor="middle" pointer-events="none" font-size="8px" fill="#000000" x="148.100121705955" y="3" font-family="sans-serif">0</text></g><g class="relationship" transform="translate(606.8508152141776 23.13348178532692) rotate(535.1537284867956)"><path class="outline" fill="#A5ABB6" stroke="none" d="M 40 0.5 L 133.923404021233 0.5 L 133.923404021233 -0.5 L 40 -0.5 Z M 213.333560271233 0.5 L 307.256964292466 0.5 L 307.256964292466 3.5 L 314.256964292466 0 L 307.256964292466 -3.5 L 307.256964292466 -0.5 L 213.333560271233 -0.5 Z"/><text text-anchor="middle" pointer-events="none" font-size="8px" fill="#000000" x="173.628482146233" y="3" transform="rotate(180 173.628482146233 0)" font-family="sans-serif">0.927230046948357</text></g></g><g class="layer nodes"><g class="node" transform="translate(-46.67951608783861,12.984776424715832)"><circle class="outline" cx="0" cy="0" r="40" fill="#569480" stroke="#447666" stroke-width="2px"/><text text-anchor="middle" pointer-events="none" font-family="sans-serif" dy="2.5" font-size="40" fill="#FFFFFF"/><text text-anchor="middle" pointer-events="none" y="5" font-size="10px" fill="#FFFFFF" font-family="sans-serif"> Dennis Skinner</text></g><g class="node" transform="translate(262.70426019786305,240.68838189502657)"><circle class="outline" cx="0" cy="0" r="40" fill="#4C8EDA" stroke="#2870c2" stroke-width="2px"/><text text-anchor="middle" pointer-events="none" font-family="sans-serif" dy="2.5" font-size="40" fill="#FFFFFF"/><text text-anchor="middle" pointer-events="none" font-family="sans-serif" dy="2.5" font-size="40" fill="#FFFFFF"/><text text-anchor="middle" pointer-events="none" font-family="sans-serif" dy="2.5" font-size="40" fill="#FFFFFF"/><text text-anchor="middle" pointer-events="none" font-family="sans-serif" dy="2.5" font-size="40" fill="#FFFFFF"/><text text-anchor="middle" pointer-events="none" y="-10" font-size="10px" fill="#FFFFFF" font-family="sans-serif"> Joanna</text><text text-anchor="middle" pointer-events="none" y="0" font-size="10px" fill="#FFFFFF" font-family="sans-serif"> Cherry's motion</text><text text-anchor="middle" pointer-events="none" y="10" font-size="10px" fill="#FFFFFF" font-family="sans-serif"> L (Revocation to</text><text text-anchor="middle" pointer-events="none" y="20" font-size="10px" fill="#FFFFFF" font-family="sans-serif"> avoid no deal)</text></g><g class="node" transform="translate(-336.9449830770485,25.385877312062973)"><circle class="outline" cx="0" cy="0" r="40" fill="#ECB5C9" stroke="#da7298" stroke-width="2px"/><text text-anchor="middle" pointer-events="none" font-family="sans-serif" dy="2.5" font-size="40" fill="#604A0E"/><text text-anchor="middle" pointer-events="none" font-family="sans-serif" dy="2.5" font-size="40" fill="#604A0E"/><text text-anchor="middle" pointer-events="none" y="0" font-size="10px" fill="#604A0E" font-family="sans-serif"> Bolsover</text><text text-anchor="middle" pointer-events="none" y="10" font-size="10px" fill="#604A0E" font-family="sans-serif"> (Leave:70.4%)</text></g><g class="node" transform="translate(606.8508152141776,23.13348178532692)"><circle class="outline" cx="0" cy="0" r="40" fill="#DA7194" stroke="#cc3c6c" stroke-width="2px"/><text text-anchor="middle" pointer-events="none" font-family="sans-serif" dy="2.5" font-size="40" fill="#FFFFFF"/><text text-anchor="middle" pointer-events="none" y="5" font-size="10px" fill="#FFFFFF" font-family="sans-serif"> Labour</text></g><g class="node" transform="translate(248.5124973645914,-43.71884273651002)"><circle class="outline" cx="0" cy="0" r="40" fill="#4C8EDA" stroke="#2870c2" stroke-width="2px"/><text text-anchor="middle" pointer-events="none" font-family="sans-serif" dy="2.5" font-size="40" fill="#FFFFFF"/><text text-anchor="middle" pointer-events="none" font-family="sans-serif" dy="2.5" font-size="40" fill="#FFFFFF"/><text text-anchor="middle" pointer-events="none" font-family="sans-serif" dy="2.5" font-size="40" fill="#FFFFFF"/><text text-anchor="middle" pointer-events="none" font-family="sans-serif" dy="2.5" font-size="40" fill="#FFFFFF"/><text text-anchor="middle" pointer-events="none" y="-10" font-size="10px" fill="#FFFFFF" font-family="sans-serif"> Margaret</text><text text-anchor="middle" pointer-events="none" y="0" font-size="10px" fill="#FFFFFF" font-family="sans-serif"> Beckett's motion</text><text text-anchor="middle" pointer-events="none" y="10" font-size="10px" fill="#FFFFFF" font-family="sans-serif"> M (Confirmatory</text><text text-anchor="middle" pointer-events="none" y="20" font-size="10px" fill="#FFFFFF" font-family="sans-serif"> public vote)</text></g><g class="node" transform="translate(241.9520023710418,-260.04681878956455)"><circle class="outline" cx="0" cy="0" r="40" fill="#4C8EDA" stroke="#2870c2" stroke-width="2px"/><text text-anchor="middle" pointer-events="none" font-family="sans-serif" dy="2.5" font-size="40" fill="#FFFFFF"/><text text-anchor="middle" pointer-events="none" font-family="sans-serif" dy="2.5" font-size="40" fill="#FFFFFF"/><text text-anchor="middle" pointer-events="none" font-family="sans-serif" dy="2.5" font-size="40" fill="#FFFFFF"/><text text-anchor="middle" pointer-events="none" y="-5" font-size="10px" fill="#FFFFFF" font-family="sans-serif"> Mr Baron's</text><text text-anchor="middle" pointer-events="none" y="5" font-size="10px" fill="#FFFFFF" font-family="sans-serif"> motion B (No</text><text text-anchor="middle" pointer-events="none" y="15" font-size="10px" fill="#FFFFFF" font-family="sans-serif"> deal)</text></g><g class="node" transform="translate(244.11326492023883,-149.19757691587364)"><circle class="outline" cx="0" cy="0" r="40" fill="#4C8EDA" stroke="#2870c2" stroke-width="2px"/><text text-anchor="middle" pointer-events="none" font-family="sans-serif" dy="2.5" font-size="40" fill="#FFFFFF"/><text text-anchor="middle" pointer-events="none" font-family="sans-serif" dy="2.5" font-size="40" fill="#FFFFFF"/><text text-anchor="middle" pointer-events="none" font-family="sans-serif" dy="2.5" font-size="40" fill="#FFFFFF"/><text text-anchor="middle" pointer-events="none" font-family="sans-serif" dy="2.5" font-size="40" fill="#FFFFFF"/><text text-anchor="middle" pointer-events="none" y="-10" font-size="10px" fill="#FFFFFF" font-family="sans-serif"> Nick Boles's</text><text text-anchor="middle" pointer-events="none" y="0" font-size="10px" fill="#FFFFFF" font-family="sans-serif"> motion D</text><text text-anchor="middle" pointer-events="none" y="10" font-size="10px" fill="#FFFFFF" font-family="sans-serif"> (Common</text><text text-anchor="middle" pointer-events="none" y="20" font-size="10px" fill="#FFFFFF" font-family="sans-serif"> market 2.0)</text></g><g class="node" transform="translate(236.8816803814272,-359.00383561071266)"><circle class="outline" cx="0" cy="0" r="40" fill="#4C8EDA" stroke="#2870c2" stroke-width="2px"/><text text-anchor="middle" pointer-events="none" font-family="sans-serif" dy="2.5" font-size="40" fill="#FFFFFF"/><text text-anchor="middle" pointer-events="none" font-family="sans-serif" dy="2.5" font-size="40" fill="#FFFFFF"/><text text-anchor="middle" pointer-events="none" font-family="sans-serif" dy="2.5" font-size="40" fill="#FFFFFF"/><text text-anchor="middle" pointer-events="none" font-family="sans-serif" dy="2.5" font-size="40" fill="#FFFFFF"/><text text-anchor="middle" pointer-events="none" y="-10" font-size="10px" fill="#FFFFFF" font-family="sans-serif"> George</text><text text-anchor="middle" pointer-events="none" y="0" font-size="10px" fill="#FFFFFF" font-family="sans-serif"> Eustice's motion</text><text text-anchor="middle" pointer-events="none" y="10" font-size="10px" fill="#FFFFFF" font-family="sans-serif"> H (EFTA and</text><text text-anchor="middle" pointer-events="none" y="20" font-size="10px" fill="#FFFFFF" font-family="sans-serif"> EEA)</text></g><g class="node" transform="translate(265.2061124587908,341.6757166691824)"><circle class="outline" cx="0" cy="0" r="40" fill="#4C8EDA" stroke="#2870c2" stroke-width="2px"/><text text-anchor="middle" pointer-events="none" font-family="sans-serif" dy="2.5" font-size="40" fill="#FFFFFF"/><text text-anchor="middle" pointer-events="none" font-family="sans-serif" dy="2.5" font-size="40" fill="#FFFFFF"/><text text-anchor="middle" pointer-events="none" font-family="sans-serif" dy="2.5" font-size="40" fill="#FFFFFF"/><text text-anchor="middle" pointer-events="none" font-family="sans-serif" dy="2.5" font-size="40" fill="#FFFFFF"/><text text-anchor="middle" pointer-events="none" font-family="sans-serif" dy="2.5" font-size="40" fill="#FFFFFF"/><text text-anchor="middle" pointer-events="none" y="-15" font-size="10px" fill="#FFFFFF" font-family="sans-serif"> Mr Fysh's</text><text text-anchor="middle" pointer-events="none" y="-5" font-size="10px" fill="#FFFFFF" font-family="sans-serif"> motion O</text><text text-anchor="middle" pointer-events="none" y="5" font-size="10px" fill="#FFFFFF" font-family="sans-serif"> (Contingent</text><text text-anchor="middle" pointer-events="none" y="15" font-size="10px" fill="#FFFFFF" font-family="sans-serif"> preferential</text><text text-anchor="middle" pointer-events="none" y="25" font-size="10px" fill="#FFFFFF" font-family="sans-serif"> arrangeme…</text></g><g class="node" transform="translate(259.1118376912111,150.81268635327012)"><circle class="outline" cx="0" cy="0" r="40" fill="#4C8EDA" stroke="#2870c2" stroke-width="2px"/><text text-anchor="middle" pointer-events="none" font-family="sans-serif" dy="2.5" font-size="40" fill="#FFFFFF"/><text text-anchor="middle" pointer-events="none" font-family="sans-serif" dy="2.5" font-size="40" fill="#FFFFFF"/><text text-anchor="middle" pointer-events="none" font-family="sans-serif" dy="2.5" font-size="40" fill="#FFFFFF"/><text text-anchor="middle" pointer-events="none" font-family="sans-serif" dy="2.5" font-size="40" fill="#FFFFFF"/><text text-anchor="middle" pointer-events="none" font-family="sans-serif" dy="2.5" font-size="40" fill="#FFFFFF"/><text text-anchor="middle" pointer-events="none" font-family="sans-serif" dy="2.5" font-size="40" fill="#FFFFFF"/><text text-anchor="middle" pointer-events="none" y="-20" font-size="10px" fill="#FFFFFF" font-family="sans-serif"> Jeremy</text><text text-anchor="middle" pointer-events="none" y="-10" font-size="10px" fill="#FFFFFF" font-family="sans-serif"> Corbyn's</text><text text-anchor="middle" pointer-events="none" y="0" font-size="10px" fill="#FFFFFF" font-family="sans-serif"> motion K</text><text text-anchor="middle" pointer-events="none" y="10" font-size="10px" fill="#FFFFFF" font-family="sans-serif"> (Labour's</text><text text-anchor="middle" pointer-events="none" y="20" font-size="10px" fill="#FFFFFF" font-family="sans-serif"> alternative</text><text text-anchor="middle" pointer-events="none" y="30" font-size="10px" fill="#FFFFFF" font-family="sans-serif"> plan)</text></g><g class="node" transform="translate(253.86033484154245,53.06202194367449)"><circle class="outline" cx="0" cy="0" r="40" fill="#4C8EDA" stroke="#2870c2" stroke-width="2px"/><text text-anchor="middle" pointer-events="none" font-family="sans-serif" dy="2.5" font-size="40" fill="#FFFFFF"/><text text-anchor="middle" pointer-events="none" font-family="sans-serif" dy="2.5" font-size="40" fill="#FFFFFF"/><text text-anchor="middle" pointer-events="none" font-family="sans-serif" dy="2.5" font-size="40" fill="#FFFFFF"/><text text-anchor="middle" pointer-events="none" y="-5" font-size="10px" fill="#FFFFFF" font-family="sans-serif"> Mr Clarke's</text><text text-anchor="middle" pointer-events="none" y="5" font-size="10px" fill="#FFFFFF" font-family="sans-serif"> motion J</text><text text-anchor="middle" pointer-events="none" y="15" font-size="10px" fill="#FFFFFF" font-family="sans-serif"> (Customs uni…</text></g></g></svg>