<svg xmlns="http://www.w3.org/2000/svg" width="932.2593994140625" height="496.0893249511719" viewBox="-304.71783447265625 -265.0334777832031 932.2593994140625 496.0893249511719"><title>Neo4j Graph Visualization</title><desc>Created using Neo4j (http://www.neo4j.com/)</desc><g class="layer relationships"><g class="relationship" transform="translate(-260.7178240976698 68.41206745636116) rotate(353.80615652270205)"><path class="outline" fill="#A5ABB6" stroke="none" d="M 38.50762352901147,10.835724717245364 L 38.766442574113995,9.869798890956295 A 604.1844212022881 604.1844212022881 0 0 0 184.95213856365163,30.370968171711297 L 184.93527493954232,31.370825970691726 A 605.1844212022881 605.1844212022881 0 0 1 38.50762352901147,10.835724717245364 Z M 199.84550046012845,31.438596980778925 L 199.83772659358496,30.43862719773597 A 604.1844212022881 604.1844212022881 0 0 0 346.20374534040616,11.267184632587078 L 345.4536621083479,8.36246861462853 L 353.1064299209858,10.00110976077745 L 347.2038563164839,15.140139323198476 L 346.4537730844256,12.235423305239927 A 605.1844212022881 605.1844212022881 0 0 1 199.84550046012845,31.438596980778925"/><text text-anchor="middle" pointer-events="none" font-size="8px" fill="#000000" x="192.39245158814467" y="33.950637674838845" font-family="sans-serif">21</text></g><g class="relationship" transform="translate(487.2930215492457 -67.8894971276357) rotate(525.3023038147644)"><path class="outline" fill="#A5ABB6" stroke="none" d="M 38.50762352901147,10.835724717245364 L 38.766442574113995,9.869798890956295 A 562.9655007162435 562.9655007162435 0 0 0 176.55003486365086,28.996633100697068 L 176.5359618857838,29.99653407144058 A 563.9655007162435 563.9655007162435 0 0 1 38.50762352901147,10.835724717245364 Z M 186.99418251550375,30.046746082852792 L 186.9897114146702,29.04675607827403 A 562.9655007162435 562.9655007162435 0 0 0 324.95061089555406,11.243826388989461 L 324.2020145349156,8.338726822909354 L 331.8539426098474,9.98128480851303 L 325.9487393764054,15.11729247709627 L 325.2001430157669,12.212192911016164 A 563.9655007162435 563.9655007162435 0 0 1 186.99418251550375,30.046746082852792"/><text text-anchor="middle" pointer-events="none" font-size="8px" fill="#000000" x="181.76735637731653" y="32.54588889871161" transform="rotate(180 181.76735637731653 29.54588889871161)" font-family="sans-serif">7</text></g><g class="relationship" transform="translate(128.83083487521327 26.135891795878415) rotate(217.49345040110518)"><path class="outline" fill="#A5ABB6" stroke="none" d="M 38.50762352901147,-10.835724717245364 L 38.766442574113995,-9.869798890956295 A 557.683534110824 557.683534110824 0 0 1 173.26315247246876,-28.78554469345363 L 173.24550373574337,-29.785388942370446 A 558.683534110824 558.683534110824 0 0 0 38.50762352901147,-10.835724717245364 Z M 187.56244563058164,-29.854626890165946 L 187.5544681567232,-28.854658710716762 A 557.683534110824 557.683534110824 0 0 1 322.2278390898136,-11.240642295794549 L 321.4794454136247,-8.33549050880639 L 329.1312588721508,-9.978582349185166 L 323.2256973247321,-15.114178011778758 L 322.4773036485432,-12.2090262247906 A 558.683534110824 558.683534110824 0 0 0 187.56244563058164,-29.854626890165946"/><text text-anchor="middle" pointer-events="none" font-size="8px" fill="#000000" x="180.4061708974051" y="-26.36587730291535" transform="rotate(180 180.4061708974051 -29.36587730291535)" font-family="sans-serif">11</text></g><g class="relationship" transform="translate(-68.28591037280837 187.05586722970804) rotate(302.1885185349486)"><path class="outline" fill="#A5ABB6" stroke="none" d="M 40 0.5 L 227.5830930062439 0.5 L 227.5830930062439 -0.5 L 40 -0.5 Z M 238.0323117562439 0.5 L 425.6154047624878 0.5 L 425.6154047624878 3.5 L 432.6154047624878 0 L 425.6154047624878 -3.5 L 425.6154047624878 -0.5 L 238.0323117562439 -0.5 Z"/><text text-anchor="middle" pointer-events="none" font-size="8px" fill="#000000" x="232.8077023812439" y="3" font-family="sans-serif">3</text></g><g class="relationship" transform="translate(352.33512464671776 145.56192352859978) rotate(302.30374153749597)"><path class="outline" fill="#A5ABB6" stroke="none" d="M 38.50762352901147,10.835724717245364 L 38.766442574113995,9.869798890956295 A 333.42407205293335 333.42407205293335 0 0 0 115.29666339316549,21.087886573279434 L 115.2673725292403,22.08745750387442 A 334.42407205293335 334.42407205293335 0 0 1 38.50762352901147,10.835724717245364 Z M 130.18651646127182,22.19169825142228 L 130.17119587171985,21.19181561854191 A 333.42407205293335 333.42407205293335 0 0 0 206.8506997669465,11.044211357289884 L 206.1148102727088,8.13586704268911 L 213.75948475005455,9.811859923168802 L 207.83188575926337,14.922003776757581 L 207.0959962650257,12.013659462156808 A 334.42407205293335 334.42407205293335 0 0 1 130.18651646127182,22.19169825142228"/><text text-anchor="middle" pointer-events="none" font-size="8px" fill="#000000" x="122.72985655514769" y="24.722798051295285" font-family="sans-serif">14</text></g><g class="relationship" transform="translate(-260.7178240976698 68.41206745636116) rotate(327.65203864347825)"><path class="outline" fill="#A5ABB6" stroke="none" d="M 38.50762352901147,10.835724717245364 L 38.766442574113995,9.869798890956295 A 863.734227140121 863.734227140121 0 0 0 251.9342659279819,39.23841886929779 L 251.92224481754,40.23834661313924 A 864.734227140121 864.734227140121 0 0 1 38.50762352901147,10.835724717245364 Z M 266.8290309155134,40.289059035031755 L 266.823813450645,39.289072646094155 A 863.734227140121 863.734227140121 0 0 0 480.1865226598536,11.371496251204931 L 479.42979956605075,8.46850294096369 L 487.086294232717,10.089641250705093 L 481.1954867849241,15.242153998193254 L 480.43876369112127,12.339160687952013 A 864.734227140121 864.734227140121 0 0 1 266.8290309155134,40.289059035031755"/><text text-anchor="middle" pointer-events="none" font-size="8px" fill="#000000" x="259.3772295622064" y="42.79582796925854" font-family="sans-serif">23</text></g><g class="relationship" transform="translate(183.4794809719191 -212.91851762493042) rotate(507.65203864347825)"><path class="outline" fill="#A5ABB6" stroke="none" d="M 38.50762352901147,10.835724717245364 L 38.766442574113995,9.869798890956295 A 863.734227140121 863.734227140121 0 0 0 251.9342659279819,39.23841886929779 L 251.92224481754,40.23834661313924 A 864.734227140121 864.734227140121 0 0 1 38.50762352901147,10.835724717245364 Z M 266.8290309155134,40.289059035031755 L 266.823813450645,39.289072646094155 A 863.734227140121 863.734227140121 0 0 0 480.1865226598536,11.371496251204931 L 479.42979956605075,8.46850294096369 L 487.086294232717,10.089641250705093 L 481.1954867849241,15.242153998193254 L 480.43876369112127,12.339160687952013 A 864.734227140121 864.734227140121 0 0 1 266.8290309155134,40.289059035031755"/><text text-anchor="middle" pointer-events="none" font-size="8px" fill="#000000" x="259.3772295622064" y="42.79582796925854" transform="rotate(180 259.3772295622064 39.79582796925854)" font-family="sans-serif">26</text></g><g class="relationship" transform="translate(487.2930215492457 -67.8894971276357) rotate(205.51803337038024)"><path class="outline" fill="#A5ABB6" stroke="none" d="M 40 0.5 L 159.6025157597622 0.5 L 159.6025157597622 -0.5 L 40 -0.5 Z M 170.0517345097622 0.5 L 289.6542502695244 0.5 L 289.6542502695244 3.5 L 296.6542502695244 0 L 289.6542502695244 -3.5 L 289.6542502695244 -0.5 L 170.0517345097622 -0.5 Z"/><text text-anchor="middle" pointer-events="none" font-size="8px" fill="#000000" x="164.8271251347622" y="3" transform="rotate(180 164.8271251347622 0)" font-family="sans-serif">2</text></g><g class="relationship" transform="translate(128.83083487521327 26.135891795878415) rotate(317.80021673238946)"><path class="outline" fill="#A5ABB6" stroke="none" d="M 38.50762352901147,-10.835724717245364 L 38.766442574113995,-9.869798890956295 A 222.8171236658502 222.8171236658502 0 0 1 89.23301145717596,-17.34566049860811 L 89.20068563688835,-18.34513788271579 A 223.8171236658502 223.8171236658502 0 0 0 38.50762352901147,-10.835724717245364 Z M 99.67192643609489,-18.438711186577194 L 99.65746744998475,-17.438815723180824 A 222.8171236658502 222.8171236658502 0 0 1 150.24957806681672,-10.866036635166488 L 149.52503114563322,-7.9548458549180445 L 157.16311437426032,-9.660625615779766 L 151.2156406283947,-14.74762434216441 L 150.4910937072112,-11.836433561915968 A 223.8171236658502 223.8171236658502 0 0 0 99.67192643609489,-18.438711186577194"/><text text-anchor="middle" pointer-events="none" font-size="8px" fill="#000000" x="94.44022664488405" y="-14.953192194734072" font-family="sans-serif">4</text></g><g class="relationship" transform="translate(-68.28591037280837 187.05586722970804) rotate(256.1671699839725)"><path class="outline" fill="#A5ABB6" stroke="none" d="M 40 0.5 L 189.43740532832916 0.5 L 189.43740532832916 -0.5 L 40 -0.5 Z M 199.88662407832916 0.5 L 349.3240294066583 0.5 L 349.3240294066583 3.5 L 356.3240294066583 0 L 349.3240294066583 -3.5 L 349.3240294066583 -0.5 L 199.88662407832916 -0.5 Z"/><text text-anchor="middle" pointer-events="none" font-size="8px" fill="#000000" x="194.66201470332916" y="3" transform="rotate(180 194.66201470332916 0)" font-family="sans-serif">1</text></g><g class="relationship" transform="translate(-260.7178240976698 68.41206745636116) rotate(391.65588712547105)"><path class="outline" fill="#A5ABB6" stroke="none" d="M 40 0.5 L 104.30900580702288 0.5 L 104.30900580702288 -0.5 L 40 -0.5 Z M 114.75822455702288 0.5 L 179.06723036404577 0.5 L 179.06723036404577 3.5 L 186.06723036404577 0 L 179.06723036404577 -3.5 L 179.06723036404577 -0.5 L 114.75822455702288 -0.5 Z"/><text text-anchor="middle" pointer-events="none" font-size="8px" fill="#000000" x="109.53361518202288" y="3" font-family="sans-serif">1</text></g><g class="relationship" transform="translate(274.01347047733526 -105.50668265145896) rotate(497.80021673238946)"><path class="outline" fill="#A5ABB6" stroke="none" d="M 38.50762352901147,-10.835724717245364 L 38.766442574113995,-9.869798890956295 A 222.8171236658502 222.8171236658502 0 0 1 89.23301145717596,-17.34566049860811 L 89.20068563688835,-18.34513788271579 A 223.8171236658502 223.8171236658502 0 0 0 38.50762352901147,-10.835724717245364 Z M 99.67192643609489,-18.438711186577194 L 99.65746744998475,-17.438815723180824 A 222.8171236658502 222.8171236658502 0 0 1 150.24957806681672,-10.866036635166488 L 149.52503114563322,-7.9548458549180445 L 157.16311437426032,-9.660625615779766 L 151.2156406283947,-14.74762434216441 L 150.4910937072112,-11.836433561915968 A 223.8171236658502 223.8171236658502 0 0 0 99.67192643609489,-18.438711186577194"/><text text-anchor="middle" pointer-events="none" font-size="8px" fill="#000000" x="94.44022664488405" y="-14.953192194734072" transform="rotate(180 94.44022664488405 -17.953192194734072)" font-family="sans-serif">1</text></g><g class="relationship" transform="translate(352.33512464671776 145.56192352859978) rotate(252.67452202753907)"><path class="outline" fill="#A5ABB6" stroke="none" d="M 38.50762352901147,-10.835724717245364 L 38.766442574113995,-9.869798890956295 A 353.824269001416 353.824269001416 0 0 1 122.74999231879363,-21.844588900711983 L 122.72853276850955,-22.844358618047693 A 354.824269001416 354.824269001416 0 0 0 38.50762352901147,-10.835724717245364 Z M 133.19188164280519,-22.914630699271413 L 133.18385237344413,-21.914662934374235 A 353.824269001416 353.824269001416 0 0 1 217.32066496361537,-11.068972976550867 L 216.5831991883202,-8.16102795811116 L 224.22878096919055,-9.832877003935447 L 218.3039526640089,-14.946233001137143 L 217.56648688871374,-12.038287982697437 A 354.824269001416 354.824269001416 0 0 0 133.19188164280519,-22.914630699271413"/><text text-anchor="middle" pointer-events="none" font-size="8px" fill="#000000" x="127.96330609091451" y="-19.418077876882535" transform="rotate(180 127.96330609091451 -22.418077876882535)" font-family="sans-serif">2</text></g><g class="relationship" transform="translate(-260.7178240976698 68.41206745636116) rotate(290.15022626946916)"><path class="outline" fill="#A5ABB6" stroke="none" d="M 38.50762352901147,-10.835724717245364 L 38.766442574113995,-9.869798890956295 A 393.82701935255216 393.82701935255216 0 0 1 131.0962663137849,-23.172103423340445 L 131.07188985185368,-24.17180627324319 A 394.82701935255216 394.82701935255216 0 0 0 38.50762352901147,-10.835724717245364 Z M 145.39365121945596,-24.261186317851525 L 145.38175417257034,-23.26125709021818 A 393.82701935255216 393.82701935255216 0 0 1 237.8704150738333,-11.112378032371817 L 237.13018623243684,-8.20513513533606 L 244.77735330714947,-9.869717885286047 L 238.8573868623619,-14.988701895086159 L 238.11715802096543,-12.081458998050403 A 394.82701935255216 394.82701935255216 0 0 0 145.39365121945596,-24.261186317851525"/><text text-anchor="middle" pointer-events="none" font-size="8px" fill="#000000" x="138.23548559548178" y="-20.78145020544008" font-family="sans-serif">11</text></g><g class="relationship" transform="translate(128.83083487521327 26.135891795878415) rotate(533.806156522702)"><path class="outline" fill="#A5ABB6" stroke="none" d="M 38.50762352901147,10.835724717245364 L 38.766442574113995,9.869798890956295 A 604.1844212022881 604.1844212022881 0 0 0 184.95213856365163,30.370968171711297 L 184.93527493954232,31.370825970691726 A 605.1844212022881 605.1844212022881 0 0 1 38.50762352901147,10.835724717245364 Z M 199.84550046012845,31.438596980778925 L 199.83772659358496,30.43862719773597 A 604.1844212022881 604.1844212022881 0 0 0 346.20374534040616,11.267184632587078 L 345.4536621083479,8.36246861462853 L 353.1064299209858,10.00110976077745 L 347.2038563164839,15.140139323198476 L 346.4537730844256,12.235423305239927 A 605.1844212022881 605.1844212022881 0 0 1 199.84550046012845,31.438596980778925"/><text text-anchor="middle" pointer-events="none" font-size="8px" fill="#000000" x="192.39245158814467" y="33.950637674838845" transform="rotate(180 192.39245158814467 30.950637674838845)" font-family="sans-serif">24</text></g><g class="relationship" transform="translate(274.01347047733526 -105.50668265145896) rotate(370.00266954433687)"><path class="outline" fill="#A5ABB6" stroke="none" d="M 38.50762352901147,10.835724717245364 L 38.766442574113995,9.869798890956295 A 263.169624942233 263.169624942233 0 0 0 99.5311557712786,18.734467381499172 L 99.50323234420381,19.734077446584735 A 264.169624942233 264.169624942233 0 0 1 38.50762352901147,10.835724717245364 Z M 109.97123657240154,19.818996525595054 L 109.95953392880114,18.819065003873305 A 263.169624942233 263.169624942233 0 0 0 170.86006533809152,10.94137552999122 L 170.13072229460215,8.031382621939091 L 177.77160596412804,9.724573913191408 L 171.83252272941064,14.821366074060723 L 171.10317968592128,11.911373166008595 A 264.169624942233 264.169624942233 0 0 1 109.97123657240154,19.818996525595054"/><text text-anchor="middle" pointer-events="none" font-size="8px" fill="#000000" x="104.74086976909403" y="22.32841096802437" font-family="sans-serif">8</text></g><g class="relationship" transform="translate(583.5415427991495 65.6596975824892) rotate(234.21981574518196)"><path class="outline" fill="#A5ABB6" stroke="none" d="M 38.50762352901147,10.835724717245364 L 38.766442574113995,9.869798890956295 A 161.08916413174103 161.08916413174103 0 0 0 73.55017959417822,15.210540929645788 L 73.50728902078605,16.209620705596677 A 162.08916413174103 162.08916413174103 0 0 1 38.50762352901147,10.835724717245364 Z M 83.98642876386656,16.320400478147945 L 83.96466887281089,15.320637252608378 A 161.08916413174103 161.08916413174103 0 0 0 118.85353842904077,10.716436160867557 L 118.13851543370285,7.8028915643085845 L 125.77097965356803,9.53363993783891 L 119.80690242282466,14.601162289612855 L 119.09187942748675,11.687617693053882 A 162.08916413174103 162.08916413174103 0 0 1 83.98642876386656,16.320400478147945"/><text text-anchor="middle" pointer-events="none" font-size="8px" fill="#000000" x="78.751248795852" y="18.849750554367205" transform="rotate(180 78.751248795852 15.849750554367205)" font-family="sans-serif">2</text></g><g class="relationship" transform="translate(-163.0429712161651 -197.77375182976374) rotate(470.15022626946916)"><path class="outline" fill="#A5ABB6" stroke="none" d="M 38.50762352901147,-10.835724717245364 L 38.766442574113995,-9.869798890956295 A 393.82701935255216 393.82701935255216 0 0 1 130.7998585995478,-23.164764259457513 L 130.77472950333893,-24.164448473859068 A 394.82701935255216 394.82701935255216 0 0 0 38.50762352901147,-10.835724717245364 Z M 145.69088025545432,-24.257538016785247 L 145.6782304003225,-23.257618029403716 A 393.82701935255216 393.82701935255216 0 0 1 237.8704150738333,-11.112378032371817 L 237.13018623243684,-8.20513513533606 L 244.77735330714947,-9.869717885286047 L 238.8573868623619,-14.988701895086159 L 238.11715802096543,-12.081458998050403 A 394.82701935255216 394.82701935255216 0 0 0 145.69088025545432,-24.257538016785247"/><text text-anchor="middle" pointer-events="none" font-size="8px" fill="#000000" x="138.23548559548178" y="-20.78145020544008" transform="rotate(180 138.23548559548178 -23.78145020544008)" font-family="sans-serif">25</text></g><g class="relationship" transform="translate(487.2930215492457 -67.8894971276357) rotate(414.21981574518196)"><path class="outline" fill="#A5ABB6" stroke="none" d="M 38.50762352901147,10.835724717245364 L 38.766442574113995,9.869798890956295 A 161.08916413174103 161.08916413174103 0 0 0 73.55017959417822,15.210540929645788 L 73.50728902078605,16.209620705596677 A 162.08916413174103 162.08916413174103 0 0 1 38.50762352901147,10.835724717245364 Z M 83.98642876386656,16.320400478147945 L 83.96466887281089,15.320637252608378 A 161.08916413174103 161.08916413174103 0 0 0 118.85353842904077,10.716436160867557 L 118.13851543370285,7.8028915643085845 L 125.77097965356803,9.53363993783891 L 119.80690242282466,14.601162289612855 L 119.09187942748675,11.687617693053882 A 162.08916413174103 162.08916413174103 0 0 1 83.98642876386656,16.320400478147945"/><text text-anchor="middle" pointer-events="none" font-size="8px" fill="#000000" x="78.751248795852" y="18.849750554367205" font-family="sans-serif">2</text></g><g class="relationship" transform="translate(183.4794809719191 -212.91851762493042) rotate(462.87674135714485)"><path class="outline" fill="#A5ABB6" stroke="none" d="M 38.50762352901147,10.835724717245364 L 38.766442574113995,9.869798890956295 A 319.15144054960837 319.15144054960837 0 0 0 111.63822488062547,20.596245313700877 L 111.60773562836681,21.595780408380733 A 320.15144054960837 320.15144054960837 0 0 1 38.50762352901147,10.835724717245364 Z M 126.52774108936207,21.703053893707988 L 126.51162737948698,20.703183727959413 A 319.15144054960837 319.15144054960837 0 0 0 199.5301122713178,11.0256750873495 L 198.79540276968004,8.117032457495641 L 206.43939665791643,9.796126688503668 L 200.50972494016816,14.903865260487978 L 199.7750154385304,11.99522263063412 A 320.15144054960837 320.15144054960837 0 0 1 126.52774108936207,21.703053893707988"/><text text-anchor="middle" pointer-events="none" font-size="8px" fill="#000000" x="119.07070821179629" y="24.23635867879966" transform="rotate(180 119.07070821179629 21.23635867879966)" font-family="sans-serif">15</text></g><g class="relationship" transform="translate(487.2930215492457 -67.8894971276357) rotate(190.00266954433687)"><path class="outline" fill="#A5ABB6" stroke="none" d="M 38.50762352901147,10.835724717245364 L 38.766442574113995,9.869798890956295 A 263.169624942233 263.169624942233 0 0 0 99.5311557712786,18.734467381499172 L 99.50323234420381,19.734077446584735 A 264.169624942233 264.169624942233 0 0 1 38.50762352901147,10.835724717245364 Z M 109.97123657240154,19.818996525595054 L 109.95953392880114,18.819065003873305 A 263.169624942233 263.169624942233 0 0 0 170.86006533809152,10.94137552999122 L 170.13072229460215,8.031382621939091 L 177.77160596412804,9.724573913191408 L 171.83252272941064,14.821366074060723 L 171.10317968592128,11.911373166008595 A 264.169624942233 264.169624942233 0 0 1 109.97123657240154,19.818996525595054"/><text text-anchor="middle" pointer-events="none" font-size="8px" fill="#000000" x="104.74086976909403" y="22.32841096802437" transform="rotate(180 104.74086976909403 19.32841096802437)" font-family="sans-serif">3</text></g><g class="relationship" transform="translate(487.2930215492457 -67.8894971276357) rotate(482.30374153749597)"><path class="outline" fill="#A5ABB6" stroke="none" d="M 38.50762352901147,10.835724717245364 L 38.766442574113995,9.869798890956295 A 333.42407205293335 333.42407205293335 0 0 0 115.29666339316549,21.087886573279434 L 115.2673725292403,22.08745750387442 A 334.42407205293335 334.42407205293335 0 0 1 38.50762352901147,10.835724717245364 Z M 130.18651646127182,22.19169825142228 L 130.17119587171985,21.19181561854191 A 333.42407205293335 333.42407205293335 0 0 0 206.8506997669465,11.044211357289884 L 206.1148102727088,8.13586704268911 L 213.75948475005455,9.811859923168802 L 207.83188575926337,14.922003776757581 L 207.0959962650257,12.013659462156808 A 334.42407205293335 334.42407205293335 0 0 1 130.18651646127182,22.19169825142228"/><text text-anchor="middle" pointer-events="none" font-size="8px" fill="#000000" x="122.72985655514769" y="24.722798051295285" transform="rotate(180 122.72985655514769 21.722798051295285)" font-family="sans-serif">20</text></g><g class="relationship" transform="translate(-163.0429712161651 -197.77375182976374) rotate(397.4934504011052)"><path class="outline" fill="#A5ABB6" stroke="none" d="M 38.50762352901147,-10.835724717245364 L 38.766442574113995,-9.869798890956295 A 557.683534110824 557.683534110824 0 0 1 172.966591005273,-28.780231053474154 L 172.9484104947923,-29.780065774334844 A 558.683534110824 558.683534110824 0 0 0 38.50762352901147,-10.835724717245364 Z M 187.85957646057375,-29.852177440240325 L 187.85106714567857,-28.85221364511574 A 557.683534110824 557.683534110824 0 0 1 322.2278390898136,-11.240642295794549 L 321.4794454136247,-8.33549050880639 L 329.1312588721508,-9.978582349185166 L 323.2256973247321,-15.114178011778758 L 322.4773036485432,-12.2090262247906 A 558.683534110824 558.683534110824 0 0 0 187.85957646057375,-29.852177440240325"/><text text-anchor="middle" pointer-events="none" font-size="8px" fill="#000000" x="180.4061708974051" y="-26.36587730291535" font-family="sans-serif">14</text></g><g class="relationship" transform="translate(274.01347047733526 -105.50668265145896) rotate(432.67452202753907)"><path class="outline" fill="#A5ABB6" stroke="none" d="M 38.50762352901147,-10.835724717245364 L 38.766442574113995,-9.869798890956295 A 353.824269001416 353.824269001416 0 0 1 120.52919798122517,-21.78994539099017 L 120.50146188483578,-22.78956067146413 A 354.824269001416 354.824269001416 0 0 0 38.50762352901147,-10.835724717245364 Z M 135.41948764692353,-22.889750460665027 L 135.4051803233291,-21.88985281565749 A 353.824269001416 353.824269001416 0 0 1 217.32066496361537,-11.068972976550867 L 216.5831991883202,-8.16102795811116 L 224.22878096919055,-9.832877003935447 L 218.3039526640089,-14.946233001137143 L 217.56648688871374,-12.038287982697437 A 354.824269001416 354.824269001416 0 0 0 135.41948764692353,-22.889750460665027"/><text text-anchor="middle" pointer-events="none" font-size="8px" fill="#000000" x="127.96330609091451" y="-19.418077876882535" font-family="sans-serif">10</text></g><g class="relationship" transform="translate(183.4794809719191 -212.91851762493042) rotate(537.4974801885353)"><path class="outline" fill="#A5ABB6" stroke="none" d="M 38.50762352901147,-10.835724717245364 L 38.766442574113995,-9.869798890956295 A 516.8950652219183 516.8950652219183 0 0 1 164.68120162205733,-27.42269284424492 L 164.66598087672554,-28.42257700199093 A 517.8950652219183 517.8950652219183 0 0 0 38.50762352901147,-10.835724717245364 Z M 175.12498251343382,-28.47616334982831 L 175.12000804483318,-27.47617572257377 A 516.8950652219183 516.8950652219183 0 0 1 301.2080153817419,-11.214409580956172 L 300.46129156331983,-8.308828135014396 L 308.11215939200974,-9.956317578961537 L 302.20364713963806,-15.088518175545206 L 301.456923321216,-12.18293672960343 A 517.8950652219183 517.8950652219183 0 0 0 175.12498251343382,-28.47616334982831"/><text text-anchor="middle" pointer-events="none" font-size="8px" fill="#000000" x="169.89790811617308" y="-24.975780479814603" transform="rotate(180 169.89790811617308 -27.975780479814603)" font-family="sans-serif">8</text></g><g class="relationship" transform="translate(583.5415427991495 65.6596975824892) rotate(520.9354508180168)"><path class="outline" fill="#A5ABB6" stroke="none" d="M 40 0.5 L 113.58725994480521 0.5 L 113.58725994480521 -0.5 L 40 -0.5 Z M 124.03647869480521 0.5 L 197.62373863961042 0.5 L 197.62373863961042 3.5 L 204.62373863961042 0 L 197.62373863961042 -3.5 L 197.62373863961042 -0.5 L 124.03647869480521 -0.5 Z"/><text text-anchor="middle" pointer-events="none" font-size="8px" fill="#000000" x="118.81186931980521" y="3" transform="rotate(180 118.81186931980521 0)" font-family="sans-serif">3</text></g><g class="relationship" transform="translate(128.83083487521327 26.135891795878415) rotate(282.87674135714485)"><path class="outline" fill="#A5ABB6" stroke="none" d="M 38.50762352901147,10.835724717245364 L 38.766442574113995,9.869798890956295 A 319.15144054960837 319.15144054960837 0 0 0 111.63822488062547,20.596245313700877 L 111.60773562836681,21.595780408380733 A 320.15144054960837 320.15144054960837 0 0 1 38.50762352901147,10.835724717245364 Z M 126.52774108936207,21.703053893707988 L 126.51162737948698,20.703183727959413 A 319.15144054960837 319.15144054960837 0 0 0 199.5301122713178,11.0256750873495 L 198.79540276968004,8.117032457495641 L 206.43939665791643,9.796126688503668 L 200.50972494016816,14.903865260487978 L 199.7750154385304,11.99522263063412 A 320.15144054960837 320.15144054960837 0 0 1 126.52774108936207,21.703053893707988"/><text text-anchor="middle" pointer-events="none" font-size="8px" fill="#000000" x="119.07070821179629" y="24.23635867879966" font-family="sans-serif">23</text></g><g class="relationship" transform="translate(-68.28591037280837 187.05586722970804) rotate(320.77287001980585)"><path class="outline" fill="#A5ABB6" stroke="none" d="M 38.50762352901147,10.835724717245364 L 38.766442574113995,9.869798890956295 A 337.1748042754369 337.1748042754369 0 0 0 118.47898945904568,21.2741059334561 L 118.45658353222531,22.27385488916616 A 338.1748042754369 338.1748042754369 0 0 1 38.50762352901147,10.835724717245364 Z M 128.92060539946235,22.346429188578668 L 128.91206868438584,21.3464656269947 A 337.1748042754369 337.1748042754369 0 0 0 208.77513105762978,11.048911627653842 L 208.0389423517199,8.140643038047523 L 215.6837892176962,9.815849412131822 L 209.75671599884296,14.926603080462266 L 209.02052729293308,12.018334490855947 A 338.1748042754369 338.1748042754369 0 0 1 128.92060539946235,22.346429188578668"/><text text-anchor="middle" pointer-events="none" font-size="8px" fill="#000000" x="123.69178145522248" y="24.850630520073253" font-family="sans-serif">3</text></g><g class="relationship" transform="translate(-163.0429712161651 -197.77375182976374) rotate(357.4974801885353)"><path class="outline" fill="#A5ABB6" stroke="none" d="M 38.50762352901147,-10.835724717245364 L 38.766442574113995,-9.869798890956295 A 516.8950652219183 516.8950652219183 0 0 1 162.45907908845993,-27.384088137113167 L 162.4395593612204,-28.383897609086944 A 517.8950652219183 517.8950652219183 0 0 0 38.50762352901147,-10.835724717245364 Z M 177.35168348003683,-28.460299382198855 L 177.34240948993823,-27.460342386569664 A 516.8950652219183 516.8950652219183 0 0 1 301.2080153817419,-11.214409580956172 L 300.46129156331983,-8.308828135014396 L 308.11215939200974,-9.956317578961537 L 302.20364713963806,-15.088518175545206 L 301.456923321216,-12.18293672960343 A 517.8950652219183 517.8950652219183 0 0 0 177.35168348003683,-28.460299382198855"/><text text-anchor="middle" pointer-events="none" font-size="8px" fill="#000000" x="169.89790811617308" y="-24.975780479814603" font-family="sans-serif">17</text></g><g class="relationship" transform="translate(128.83083487521327 26.135891795878415) rotate(345.3023038147644)"><path class="outline" fill="#A5ABB6" stroke="none" d="M 38.50762352901147,10.835724717245364 L 38.766442574113995,9.869798890956295 A 562.9655007162435 562.9655007162435 0 0 0 176.55003486365086,28.996633100697068 L 176.5359618857838,29.99653407144058 A 563.9655007162435 563.9655007162435 0 0 1 38.50762352901147,10.835724717245364 Z M 186.99418251550375,30.046746082852792 L 186.9897114146702,29.04675607827403 A 562.9655007162435 562.9655007162435 0 0 0 324.95061089555406,11.243826388989461 L 324.2020145349156,8.338726822909354 L 331.8539426098474,9.98128480851303 L 325.9487393764054,15.11729247709627 L 325.2001430157669,12.212192911016164 A 563.9655007162435 563.9655007162435 0 0 1 186.99418251550375,30.046746082852792"/><text text-anchor="middle" pointer-events="none" font-size="8px" fill="#000000" x="181.76735637731653" y="32.54588889871161" font-family="sans-serif">3</text></g><g class="relationship" transform="translate(128.83083487521327 26.135891795878415) rotate(500.77287001980585)"><path class="outline" fill="#A5ABB6" stroke="none" d="M 38.50762352901147,10.835724717245364 L 38.766442574113995,9.869798890956295 A 337.1748042754369 337.1748042754369 0 0 0 118.47898945904568,21.2741059334561 L 118.45658353222531,22.27385488916616 A 338.1748042754369 338.1748042754369 0 0 1 38.50762352901147,10.835724717245364 Z M 128.92060539946235,22.346429188578668 L 128.91206868438584,21.3464656269947 A 337.1748042754369 337.1748042754369 0 0 0 208.77513105762978,11.048911627653842 L 208.0389423517199,8.140643038047523 L 215.6837892176962,9.815849412131822 L 209.75671599884296,14.926603080462266 L 209.02052729293308,12.018334490855947 A 338.1748042754369 338.1748042754369 0 0 1 128.92060539946235,22.346429188578668"/><text text-anchor="middle" pointer-events="none" font-size="8px" fill="#000000" x="123.69178145522248" y="24.850630520073253" transform="rotate(180 123.69178145522248 21.850630520073253)" font-family="sans-serif">2</text></g><g class="relationship" transform="translate(352.33512464671776 145.56192352859978) rotate(208.11712362631704)"><path class="outline" fill="#A5ABB6" stroke="none" d="M 40 0.5 L 117.98050555893786 0.5 L 117.98050555893786 -0.5 L 40 -0.5 Z M 128.42972430893786 0.5 L 206.41022986787573 0.5 L 206.41022986787573 3.5 L 213.41022986787573 0 L 206.41022986787573 -3.5 L 206.41022986787573 -0.5 L 128.42972430893786 -0.5 Z"/><text text-anchor="middle" pointer-events="none" font-size="8px" fill="#000000" x="123.20511493393786" y="3" transform="rotate(180 123.20511493393786 0)" font-family="sans-serif">1</text></g></g><g class="layer nodes"><g class="node" transform="translate(-260.7178240976698,68.41206745636116)"><circle class="outline" cx="0" cy="0" r="40" fill="#68BDF6" stroke="#5CA8DB" stroke-width="2px"/><text text-anchor="middle" pointer-events="none" font-family="sans-serif" dy="2.5" font-size="40" fill="#FFFFFF"/><text text-anchor="middle" pointer-events="none" y="5" font-size="10px" fill="#FFFFFF" font-family="sans-serif"> Novak Djokovic</text></g><g class="node" transform="translate(128.83083487521327,26.135891795878415)"><circle class="outline" cx="0" cy="0" r="40" fill="#68BDF6" stroke="#5CA8DB" stroke-width="2px"/><text text-anchor="middle" pointer-events="none" font-family="sans-serif" dy="2.5" font-size="40" fill="#FFFFFF"/><text text-anchor="middle" pointer-events="none" y="5" font-size="10px" fill="#FFFFFF" font-family="sans-serif"> Roger Federer</text></g><g class="node" transform="translate(487.2930215492457,-67.8894971276357)"><circle class="outline" cx="0" cy="0" r="40" fill="#68BDF6" stroke="#5CA8DB" stroke-width="2px"/><text text-anchor="middle" pointer-events="none" font-family="sans-serif" dy="2.5" font-size="40" fill="#FFFFFF"/><text text-anchor="middle" pointer-events="none" y="5" font-size="10px" fill="#FFFFFF" font-family="sans-serif"> Andre Agassi</text></g><g class="node" transform="translate(-163.0429712161651,-197.77375182976374)"><circle class="outline" cx="0" cy="0" r="40" fill="#68BDF6" stroke="#5CA8DB" stroke-width="2px"/><text text-anchor="middle" pointer-events="none" font-family="sans-serif" dy="2.5" font-size="40" fill="#FFFFFF"/><text text-anchor="middle" pointer-events="none" y="5" font-size="10px" fill="#FFFFFF" font-family="sans-serif"> Andy Murray</text></g><g class="node" transform="translate(-68.28591037280837,187.05586722970804)"><circle class="outline" cx="0" cy="0" r="40" fill="#68BDF6" stroke="#5CA8DB" stroke-width="2px"/><text text-anchor="middle" pointer-events="none" font-family="sans-serif" dy="2.5" font-size="40" fill="#FFFFFF"/><text text-anchor="middle" pointer-events="none" font-family="sans-serif" dy="2.5" font-size="40" fill="#FFFFFF"/><text text-anchor="middle" pointer-events="none" y="0" font-size="10px" fill="#FFFFFF" font-family="sans-serif"> Alexander</text><text text-anchor="middle" pointer-events="none" y="10" font-size="10px" fill="#FFFFFF" font-family="sans-serif"> Zverev</text></g><g class="node" transform="translate(183.4794809719191,-212.91851762493042)"><circle class="outline" cx="0" cy="0" r="40" fill="#68BDF6" stroke="#5CA8DB" stroke-width="2px"/><text text-anchor="middle" pointer-events="none" font-family="sans-serif" dy="2.5" font-size="40" fill="#FFFFFF"/><text text-anchor="middle" pointer-events="none" y="5" font-size="10px" fill="#FFFFFF" font-family="sans-serif"> Rafael Nadal</text></g><g class="node" transform="translate(352.33512464671776,145.56192352859978)"><circle class="outline" cx="0" cy="0" r="40" fill="#68BDF6" stroke="#5CA8DB" stroke-width="2px"/><text text-anchor="middle" pointer-events="none" font-family="sans-serif" dy="2.5" font-size="40" fill="#FFFFFF"/><text text-anchor="middle" pointer-events="none" y="5" font-size="10px" fill="#FFFFFF" font-family="sans-serif"> Pete Sampras</text></g><g class="node" transform="translate(274.01347047733526,-105.50668265145896)"><circle class="outline" cx="0" cy="0" r="40" fill="#68BDF6" stroke="#5CA8DB" stroke-width="2px"/><text text-anchor="middle" pointer-events="none" font-family="sans-serif" dy="2.5" font-size="40" fill="#FFFFFF"/><text text-anchor="middle" pointer-events="none" font-family="sans-serif" dy="2.5" font-size="40" fill="#FFFFFF"/><text text-anchor="middle" pointer-events="none" y="0" font-size="10px" fill="#FFFFFF" font-family="sans-serif"> Yevgeny</text><text text-anchor="middle" pointer-events="none" y="10" font-size="10px" fill="#FFFFFF" font-family="sans-serif"> Kafelnikov</text></g><g class="node" transform="translate(583.5415427991495,65.6596975824892)"><circle class="outline" cx="0" cy="0" r="40" fill="#68BDF6" stroke="#5CA8DB" stroke-width="2px"/><text text-anchor="middle" pointer-events="none" font-family="sans-serif" dy="2.5" font-size="40" fill="#FFFFFF"/><text text-anchor="middle" pointer-events="none" y="5" font-size="10px" fill="#FFFFFF" font-family="sans-serif"> John McEnroe</text></g></g></svg>