<svg xmlns="http://www.w3.org/2000/svg" width="892.3773193359375" height="492.917724609375" viewBox="-266.9019775390625 -256.64501953125 892.3773193359375 492.917724609375"><title>Neo4j Graph Visualization</title><desc>Created using Neo4j (http://www.neo4j.com/)</desc><g class="layer relationships"><g class="relationship" transform="translate(505.2702363435933 -54.215608912380375) rotate(528.201510765677)"><path class="outline" fill="#A5ABB6" stroke="none" d="M 32.5 0.5 L 50.16482164087252 0.5 L 50.16482164087252 -0.5 L 32.5 -0.5 Z M 117.94216539087252 0.5 L 135.60698703174504 0.5 L 135.60698703174504 3.5 L 142.60698703174504 0 L 135.60698703174504 -3.5 L 135.60698703174504 -0.5 L 117.94216539087252 -0.5 Z"/><text text-anchor="middle" pointer-events="none" font-size="8px" fill="#000000" x="84.05349351587252" y="3" transform="rotate(180 84.05349351587252 0)" font-family="sans-serif">IN_COMMUNITY</text></g><g class="relationship" transform="translate(440.00644863564696 104.68938440858058) rotate(231.5948731885751)"><path class="outline" fill="#A5ABB6" stroke="none" d="M 32.5 0.5 L 45.884253439590296 0.5 L 45.884253439590296 -0.5 L 32.5 -0.5 Z M 113.6615971895903 0.5 L 127.04585062918059 0.5 L 127.04585062918059 3.5 L 134.0458506291806 0 L 127.04585062918059 -3.5 L 127.04585062918059 -0.5 L 113.6615971895903 -0.5 Z"/><text text-anchor="middle" pointer-events="none" font-size="8px" fill="#000000" x="79.7729253145903" y="3" transform="rotate(180 79.7729253145903 0)" font-family="sans-serif">IN_COMMUNITY</text></g><g class="relationship" transform="translate(522.6633247997963 101.85792637850514) rotate(213.87116850366067)"><path class="outline" fill="#A5ABB6" stroke="none" d="M 32.5 0.5 L 75.63542828379173 0.5 L 75.63542828379173 -0.5 L 32.5 -0.5 Z M 143.41277203379173 0.5 L 186.54820031758345 0.5 L 186.54820031758345 3.5 L 193.54820031758345 0 L 186.54820031758345 -3.5 L 186.54820031758345 -0.5 L 143.41277203379173 -0.5 Z"/><text text-anchor="middle" pointer-events="none" font-size="8px" fill="#000000" x="109.52410015879173" y="3" transform="rotate(180 109.52410015879173 0)" font-family="sans-serif">IN_COMMUNITY</text></g><g class="relationship" transform="translate(522.6633247997963 101.85792637850514) rotate(298.83873535196403)"><path class="outline" fill="#A5ABB6" stroke="none" d="M 32.5 0.5 L 42.8748722580427 0.5 L 42.8748722580427 -0.5 L 32.5 -0.5 Z M 110.6522160080427 0.5 L 121.0270882660854 0.5 L 121.0270882660854 3.5 L 128.0270882660854 0 L 121.0270882660854 -3.5 L 121.0270882660854 -0.5 L 110.6522160080427 -0.5 Z"/><text text-anchor="middle" pointer-events="none" font-size="8px" fill="#000000" x="76.7635441330427" y="3" font-family="sans-serif">IN_COMMUNITY</text></g><g class="relationship" transform="translate(203.16265323073455 151.49260388033827) rotate(518.989403440133)"><path class="outline" fill="#A5ABB6" stroke="none" d="M 32.5 0.5 L 44.149045576911234 0.5 L 44.149045576911234 -0.5 L 32.5 -0.5 Z M 111.92638932691123 0.5 L 123.57543490382247 0.5 L 123.57543490382247 3.5 L 130.57543490382247 0 L 123.57543490382247 -3.5 L 123.57543490382247 -0.5 L 111.92638932691123 -0.5 Z"/><text text-anchor="middle" pointer-events="none" font-size="8px" fill="#000000" x="78.03771745191123" y="3" transform="rotate(180 78.03771745191123 0)" font-family="sans-serif">IN_COMMUNITY</text></g><g class="relationship" transform="translate(543.2457168212644 -113.966086718934) rotate(222.9562820857327)"><path class="outline" fill="#A5ABB6" stroke="none" d="M 32.5 0.5 L 48.97966099361547 0.5 L 48.97966099361547 -0.5 L 32.5 -0.5 Z M 116.75700474361547 0.5 L 133.23666573723094 0.5 L 133.23666573723094 3.5 L 140.23666573723094 0 L 133.23666573723094 -3.5 L 133.23666573723094 -0.5 L 116.75700474361547 -0.5 Z"/><text text-anchor="middle" pointer-events="none" font-size="8px" fill="#000000" x="82.86833286861547" y="3" transform="rotate(180 82.86833286861547 0)" font-family="sans-serif">IN_COMMUNITY</text></g><g class="relationship" transform="translate(543.2457168212644 -113.966086718934) rotate(515.0448171344326)"><path class="outline" fill="#A5ABB6" stroke="none" d="M 32.5 0.5 L 77.7847292381413 0.5 L 77.7847292381413 -0.5 L 32.5 -0.5 Z M 145.5620729881413 0.5 L 190.8468022262826 0.5 L 190.8468022262826 3.5 L 197.8468022262826 0 L 190.8468022262826 -3.5 L 190.8468022262826 -0.5 L 145.5620729881413 -0.5 Z"/><text text-anchor="middle" pointer-events="none" font-size="8px" fill="#000000" x="111.6734011131413" y="3" transform="rotate(180 111.6734011131413 0)" font-family="sans-serif">IN_COMMUNITY</text></g><g class="relationship" transform="translate(180.35770400631372 -48.89307151966611) rotate(370.2024945452915)"><path class="outline" fill="#A5ABB6" stroke="none" d="M 32.5 0.5 L 48.076727885042104 0.5 L 48.076727885042104 -0.5 L 32.5 -0.5 Z M 115.8540716350421 0.5 L 131.4307995200842 0.5 L 131.4307995200842 3.5 L 138.4307995200842 0 L 131.4307995200842 -3.5 L 131.4307995200842 -0.5 L 115.8540716350421 -0.5 Z"/><text text-anchor="middle" pointer-events="none" font-size="8px" fill="#000000" x="81.9653997600421" y="3" font-family="sans-serif">IN_COMMUNITY</text></g><g class="relationship" transform="translate(180.35770400631372 -48.89307151966611) rotate(197.01710453115783)"><path class="outline" fill="#A5ABB6" stroke="none" d="M 32.5 0.5 L 64.81682778275861 0.5 L 64.81682778275861 -0.5 L 32.5 -0.5 Z M 132.5941715327586 0.5 L 164.91099931551722 0.5 L 164.91099931551722 3.5 L 171.91099931551722 0 L 164.91099931551722 -3.5 L 164.91099931551722 -0.5 L 132.5941715327586 -0.5 Z"/><text text-anchor="middle" pointer-events="none" font-size="8px" fill="#000000" x="98.70549965775861" y="3" transform="rotate(180 98.70549965775861 0)" font-family="sans-serif">IN_COMMUNITY</text></g><g class="relationship" transform="translate(-117.89078213404406 -220.14502935901749) rotate(381.3380203645422)"><path class="outline" fill="#A5ABB6" stroke="none" d="M 32.5 0.5 L 52.80994932434747 0.5 L 52.80994932434747 -0.5 L 32.5 -0.5 Z M 120.58729307434747 0.5 L 140.89724239869494 0.5 L 140.89724239869494 3.5 L 147.89724239869494 0 L 140.89724239869494 -3.5 L 140.89724239869494 -0.5 L 120.58729307434747 -0.5 Z"/><text text-anchor="middle" pointer-events="none" font-size="8px" fill="#000000" x="86.69862119934747" y="3" font-family="sans-serif">IN_COMMUNITY</text></g><g class="relationship" transform="translate(-11.539270976405192 -40.55913374497513) rotate(525.9752370132082)"><path class="outline" fill="#A5ABB6" stroke="none" d="M 32.5 0.5 L 75.53748417677704 0.5 L 75.53748417677704 -0.5 L 32.5 -0.5 Z M 143.31482792677704 0.5 L 186.35231210355408 0.5 L 186.35231210355408 3.5 L 193.35231210355408 0 L 186.35231210355408 -3.5 L 186.35231210355408 -0.5 L 143.31482792677704 -0.5 Z"/><text text-anchor="middle" pointer-events="none" font-size="8px" fill="#000000" x="109.42615605177704" y="3" transform="rotate(180 109.42615605177704 0)" font-family="sans-serif">IN_COMMUNITY</text></g><g class="relationship" transform="translate(231.64555492925828 78.26748227250106) rotate(318.1257978242465)"><path class="outline" fill="#A5ABB6" stroke="none" d="M 32.5 0.5 L 39.92899786674387 0.5 L 39.92899786674387 -0.5 L 32.5 -0.5 Z M 107.70634161674387 0.5 L 115.13533948348774 0.5 L 115.13533948348774 3.5 L 122.13533948348774 0 L 115.13533948348774 -3.5 L 115.13533948348774 -0.5 L 107.70634161674387 -0.5 Z"/><text text-anchor="middle" pointer-events="none" font-size="8px" fill="#000000" x="73.81766974174387" y="3" font-family="sans-serif">IN_COMMUNITY</text></g><g class="relationship" transform="translate(231.64555492925828 78.26748227250106) rotate(514.6575748785654)"><path class="outline" fill="#A5ABB6" stroke="none" d="M 32.5 0.5 L 42.191684282670394 0.5 L 42.191684282670394 -0.5 L 32.5 -0.5 Z M 109.9690280326704 0.5 L 119.66071231534079 0.5 L 119.66071231534079 3.5 L 126.66071231534079 0 L 119.66071231534079 -3.5 L 119.66071231534079 -0.5 L 109.9690280326704 -0.5 Z"/><text text-anchor="middle" pointer-events="none" font-size="8px" fill="#000000" x="76.0803561576704" y="3" transform="rotate(180 76.0803561576704 0)" font-family="sans-serif">IN_COMMUNITY</text></g><g class="relationship" transform="translate(221.588456330003 -188.99768181643606) rotate(414.71809358030237)"><path class="outline" fill="#A5ABB6" stroke="none" d="M 32.5 0.5 L 69.90693966727657 0.5 L 69.90693966727657 -0.5 L 32.5 -0.5 Z M 137.68428341727656 0.5 L 175.09122308455315 0.5 L 175.09122308455315 3.5 L 182.09122308455315 0 L 175.09122308455315 -3.5 L 175.09122308455315 -0.5 L 137.68428341727656 -0.5 Z"/><text text-anchor="middle" pointer-events="none" font-size="8px" fill="#000000" x="103.79561154227657" y="3" font-family="sans-serif">IN_COMMUNITY</text></g><g class="relationship" transform="translate(-210.9828108672113 -70.65001110759691) rotate(349.98162548664664)"><path class="outline" fill="#A5ABB6" stroke="none" d="M 32.5 0.5 L 69.45874857002369 0.5 L 69.45874857002369 -0.5 L 32.5 -0.5 Z M 137.2360923200237 0.5 L 174.19484089004737 0.5 L 174.19484089004737 3.5 L 181.19484089004737 0 L 174.19484089004737 -3.5 L 174.19484089004737 -0.5 L 137.2360923200237 -0.5 Z"/><text text-anchor="middle" pointer-events="none" font-size="8px" fill="#000000" x="103.34742044502369" y="3" font-family="sans-serif">IN_COMMUNITY</text></g><g class="relationship" transform="translate(-36.2581124212785 36.80485840005798) rotate(399.11277809487365)"><path class="outline" fill="#A5ABB6" stroke="none" d="M 32.5 0.5 L 50.67433628830533 0.5 L 50.67433628830533 -0.5 L 32.5 -0.5 Z M 118.45168003830533 0.5 L 136.62601632661065 0.5 L 136.62601632661065 3.5 L 143.62601632661065 0 L 136.62601632661065 -3.5 L 136.62601632661065 -0.5 L 118.45168003830533 -0.5 Z"/><text text-anchor="middle" pointer-events="none" font-size="8px" fill="#000000" x="84.56300816330533" y="3" font-family="sans-serif">IN_COMMUNITY</text></g><g class="relationship" transform="translate(333.4282486639575 -180.58624012087137) rotate(447.22867916979214)"><path class="outline" fill="#A5ABB6" stroke="none" d="M 32.5 0.5 L 46.77601214452609 0.5 L 46.77601214452609 -0.5 L 32.5 -0.5 Z M 114.55335589452609 0.5 L 128.82936803905218 0.5 L 128.82936803905218 3.5 L 135.82936803905218 0 L 128.82936803905218 -3.5 L 128.82936803905218 -0.5 L 114.55335589452609 -0.5 Z"/><text text-anchor="middle" pointer-events="none" font-size="8px" fill="#000000" x="80.66468401952609" y="3" font-family="sans-serif">IN_COMMUNITY</text></g><g class="relationship" transform="translate(-197.48886936111467 -162.81869588799017) rotate(376.541370784587)"><path class="outline" fill="#A5ABB6" stroke="none" d="M 32.5 0.5 L 65.23155238803116 0.5 L 65.23155238803116 -0.5 L 32.5 -0.5 Z M 133.00889613803116 0.5 L 165.74044852606232 0.5 L 165.74044852606232 3.5 L 172.74044852606232 0 L 165.74044852606232 -3.5 L 165.74044852606232 -0.5 L 133.00889613803116 -0.5 Z"/><text text-anchor="middle" pointer-events="none" font-size="8px" fill="#000000" x="99.12022426303116" y="3" font-family="sans-serif">IN_COMMUNITY</text></g><g class="relationship" transform="translate(301.2044943347522 106.8198043036393) rotate(287.51276234212764)"><path class="outline" fill="#A5ABB6" stroke="none" d="M 32.5 0.5 L 32.82427537070859 0.5 L 32.82427537070859 -0.5 L 32.5 -0.5 Z M 100.60161912070859 0.5 L 100.92589449141718 0.5 L 100.92589449141718 3.5 L 107.92589449141718 0 L 100.92589449141718 -3.5 L 100.92589449141718 -0.5 L 100.60161912070859 -0.5 Z"/><text text-anchor="middle" pointer-events="none" font-size="8px" fill="#000000" x="66.71294724570859" y="3" font-family="sans-serif">IN_COMMUNITY</text></g><g class="relationship" transform="translate(57.62381424929592 29.500779886811017) rotate(350.1092103872793)"><path class="outline" fill="#A5ABB6" stroke="none" d="M 32.5 0.5 L 110.29081137399601 0.5 L 110.29081137399601 -0.5 L 32.5 -0.5 Z M 178.068155123996 0.5 L 255.85896649799201 0.5 L 255.85896649799201 3.5 L 262.858966497992 0 L 255.85896649799201 -3.5 L 255.85896649799201 -0.5 L 178.068155123996 -0.5 Z"/><text text-anchor="middle" pointer-events="none" font-size="8px" fill="#000000" x="144.179483248996" y="3" font-family="sans-serif">IN_COMMUNITY</text></g><g class="relationship" transform="translate(-230.40199677833635 127.44305331163241) rotate(321.0847767962161)"><path class="outline" fill="#A5ABB6" stroke="none" d="M 32.5 0.5 L 38.070656938490885 0.5 L 38.070656938490885 -0.5 L 32.5 -0.5 Z M 105.84800068849088 0.5 L 111.41865762698177 0.5 L 111.41865762698177 3.5 L 118.41865762698177 0 L 111.41865762698177 -3.5 L 111.41865762698177 -0.5 L 105.84800068849088 -0.5 Z"/><text text-anchor="middle" pointer-events="none" font-size="8px" fill="#000000" x="71.95932881349088" y="3" font-family="sans-serif">IN_COMMUNITY</text></g><g class="relationship" transform="translate(157.64312120033645 -120.3605789942997) rotate(388.68049385559146)"><path class="outline" fill="#A5ABB6" stroke="none" d="M 32.5 0.5 L 70.97730236552783 0.5 L 70.97730236552783 -0.5 L 32.5 -0.5 Z M 138.75464611552783 0.5 L 177.23194848105567 0.5 L 177.23194848105567 3.5 L 184.23194848105567 0 L 177.23194848105567 -3.5 L 177.23194848105567 -0.5 L 138.75464611552783 -0.5 Z"/><text text-anchor="middle" pointer-events="none" font-size="8px" fill="#000000" x="104.86597424052783" y="3" font-family="sans-serif">IN_COMMUNITY</text></g><g class="relationship" transform="translate(-151.85827035006673 183.02978151793053) rotate(332.8296855080903)"><path class="outline" fill="#A5ABB6" stroke="none" d="M 32.5 0.5 L 33.6234996074033 0.5 L 33.6234996074033 -0.5 L 32.5 -0.5 Z M 91.1781871074033 0.5 L 92.3016867148066 0.5 L 92.3016867148066 3.5 L 99.3016867148066 0 L 92.3016867148066 -3.5 L 92.3016867148066 -0.5 L 91.1781871074033 -0.5 Z"/><text text-anchor="middle" pointer-events="none" font-size="8px" fill="#000000" x="62.4008433574033" y="3" font-family="sans-serif">IN_COMMU…</text></g><g class="relationship" transform="translate(485.541505162748 20.093326013333552) rotate(195.50370426518634)"><path class="outline" fill="#A5ABB6" stroke="none" d="M 32.5 0.5 L 41.25506670042334 0.5 L 41.25506670042334 -0.5 L 32.5 -0.5 Z M 109.03241045042334 0.5 L 117.78747715084668 0.5 L 117.78747715084668 3.5 L 124.78747715084668 0 L 117.78747715084668 -3.5 L 117.78747715084668 -0.5 L 109.03241045042334 -0.5 Z"/><text text-anchor="middle" pointer-events="none" font-size="8px" fill="#000000" x="75.14373857542334" y="3" transform="rotate(180 75.14373857542334 0)" font-family="sans-serif">IN_COMMUNITY</text></g><g class="relationship" transform="translate(370.98233561132673 134.02211303014897) rotate(259.0538515818609)"><path class="outline" fill="#A5ABB6" stroke="none" d="M 32.5 0.5 L 44.771455460050944 0.5 L 44.771455460050944 -0.5 L 32.5 -0.5 Z M 112.54879921005094 0.5 L 124.82025467010189 0.5 L 124.82025467010189 3.5 L 131.8202546701019 0 L 124.82025467010189 -3.5 L 124.82025467010189 -0.5 L 112.54879921005094 -0.5 Z"/><text text-anchor="middle" pointer-events="none" font-size="8px" fill="#000000" x="78.66012733505094" y="3" transform="rotate(180 78.66012733505094 0)" font-family="sans-serif">IN_COMMUNITY</text></g></g><g class="layer nodes"><g class="node" transform="translate(505.2702363435933,-54.215608912380375)"><circle class="outline" cx="0" cy="0" r="32.5" fill="#4C8EDA" stroke="#2870c2" stroke-width="2px"/><text text-anchor="middle" pointer-events="none" font-family="sans-serif" dy="2.03125" font-size="32.5" fill="#FFFFFF"/><text text-anchor="middle" pointer-events="none" x="0" y="5" font-size="10px" fill="#FFFFFF" font-family="sans-serif"> webmink</text></g><g class="node" transform="translate(341.2043189099624,-19.944967854463748)"><circle class="outline" cx="0" cy="0" r="25" fill="#FFC454" stroke="#d7a013" stroke-width="2px"/><text text-anchor="middle" pointer-events="none" font-family="sans-serif" dy="1.5625" font-size="25" fill="#2A2C34"/><text text-anchor="middle" pointer-events="none" x="0" y="5" font-size="10px" fill="#2A2C34" font-family="sans-serif"> 119</text></g><g class="node" transform="translate(440.00644863564696,104.68938440858058)"><circle class="outline" cx="0" cy="0" r="32.5" fill="#4C8EDA" stroke="#2870c2" stroke-width="2px"/><text text-anchor="middle" pointer-events="none" font-family="sans-serif" dy="2.03125" font-size="32.5" fill="#FFFFFF"/><text text-anchor="middle" pointer-events="none" x="0" y="5" font-size="10px" fill="#FFFFFF" font-family="sans-serif"> Synechron</text></g><g class="node" transform="translate(522.6633247997963,101.85792637850514)"><circle class="outline" cx="0" cy="0" r="32.5" fill="#4C8EDA" stroke="#2870c2" stroke-width="2px"/><text text-anchor="middle" pointer-events="none" font-family="sans-serif" dy="2.03125" font-size="32.5" fill="#FFFFFF"/><text text-anchor="middle" pointer-events="none" x="0" y="5" font-size="10px" fill="#FFFFFF" font-family="sans-serif"> flablog</text></g><g class="node" transform="translate(596.475328618005,-32.19086263332082)"><circle class="outline" cx="0" cy="0" r="25" fill="#FFC454" stroke="#d7a013" stroke-width="2px"/><text text-anchor="middle" pointer-events="none" font-family="sans-serif" dy="1.5625" font-size="25" fill="#2A2C34"/><text text-anchor="middle" pointer-events="none" x="0" y="5" font-size="10px" fill="#2A2C34" font-family="sans-serif"> 79</text></g><g class="node" transform="translate(203.16265323073455,151.49260388033827)"><circle class="outline" cx="0" cy="0" r="32.5" fill="#4C8EDA" stroke="#2870c2" stroke-width="2px"/><text text-anchor="middle" pointer-events="none" font-family="sans-serif" dy="2.03125" font-size="32.5" fill="#FFFFFF"/><text text-anchor="middle" pointer-events="none" x="0" y="5" font-size="10px" fill="#FFFFFF" font-family="sans-serif"> didierdaglin…</text></g><g class="node" transform="translate(57.93078612154372,207.27271432744868)"><circle class="outline" cx="0" cy="0" r="25" fill="#FFC454" stroke="#d7a013" stroke-width="2px"/><text text-anchor="middle" pointer-events="none" font-family="sans-serif" dy="1.5625" font-size="25" fill="#2A2C34"/><text text-anchor="middle" pointer-events="none" x="0" y="5" font-size="10px" fill="#2A2C34" font-family="sans-serif"> 3</text></g><g class="node" transform="translate(543.2457168212644,-113.966086718934)"><circle class="outline" cx="0" cy="0" r="32.5" fill="#4C8EDA" stroke="#2870c2" stroke-width="2px"/><text text-anchor="middle" pointer-events="none" font-family="sans-serif" dy="2.03125" font-size="32.5" fill="#FFFFFF"/><text text-anchor="middle" pointer-events="none" x="0" y="5" font-size="10px" fill="#FFFFFF" font-family="sans-serif"> DailyPython…</text></g><g class="node" transform="translate(422.3133191138893,-226.5649805354482)"><circle class="outline" cx="0" cy="0" r="25" fill="#FFC454" stroke="#d7a013" stroke-width="2px"/><text text-anchor="middle" pointer-events="none" font-family="sans-serif" dy="1.5625" font-size="25" fill="#2A2C34"/><text text-anchor="middle" pointer-events="none" x="0" y="5" font-size="10px" fill="#2A2C34" font-family="sans-serif"> 91</text></g><g class="node" transform="translate(180.35770400631372,-48.89307151966611)"><circle class="outline" cx="0" cy="0" r="32.5" fill="#4C8EDA" stroke="#2870c2" stroke-width="2px"/><text text-anchor="middle" pointer-events="none" font-family="sans-serif" dy="2.03125" font-size="32.5" fill="#FFFFFF"/><text text-anchor="middle" pointer-events="none" x="0" y="5" font-size="10px" fill="#FFFFFF" font-family="sans-serif"> shobeirf</text></g><g class="node" transform="translate(-7.932025995911502,-106.52048884097908)"><circle class="outline" cx="0" cy="0" r="25" fill="#FFC454" stroke="#d7a013" stroke-width="2px"/><text text-anchor="middle" pointer-events="none" font-family="sans-serif" dy="1.5625" font-size="25" fill="#2A2C34"/><text text-anchor="middle" pointer-events="none" x="0" y="5" font-size="10px" fill="#2A2C34" font-family="sans-serif"> 157</text></g><g class="node" transform="translate(-117.89078213404406,-220.14502935901749)"><circle class="outline" cx="0" cy="0" r="32.5" fill="#4C8EDA" stroke="#2870c2" stroke-width="2px"/><text text-anchor="middle" pointer-events="none" font-family="sans-serif" dy="2.03125" font-size="32.5" fill="#FFFFFF"/><text text-anchor="middle" pointer-events="none" x="0" y="5" font-size="10px" fill="#FFFFFF" font-family="sans-serif"> LitteraCaroli…</text></g><g class="node" transform="translate(43.15435015284285,-157.23301305233588)"><circle class="outline" cx="0" cy="0" r="25" fill="#FFC454" stroke="#d7a013" stroke-width="2px"/><text text-anchor="middle" pointer-events="none" font-family="sans-serif" dy="1.5625" font-size="25" fill="#2A2C34"/><text text-anchor="middle" pointer-events="none" x="0" y="5" font-size="10px" fill="#2A2C34" font-family="sans-serif"> 250</text></g><g class="node" transform="translate(-11.539270976405192,-40.55913374497513)"><circle class="outline" cx="0" cy="0" r="32.5" fill="#4C8EDA" stroke="#2870c2" stroke-width="2px"/><text text-anchor="middle" pointer-events="none" font-family="sans-serif" dy="2.03125" font-size="32.5" fill="#FFFFFF"/><text text-anchor="middle" pointer-events="none" x="0" y="5" font-size="10px" fill="#FFFFFF" font-family="sans-serif"> continentspi…</text></g><g class="node" transform="translate(-223.3827360542582,12.356634271527923)"><circle class="outline" cx="0" cy="0" r="25" fill="#FFC454" stroke="#d7a013" stroke-width="2px"/><text text-anchor="middle" pointer-events="none" font-family="sans-serif" dy="1.5625" font-size="25" fill="#2A2C34"/><text text-anchor="middle" pointer-events="none" x="0" y="5" font-size="10px" fill="#2A2C34" font-family="sans-serif"> 7</text></g><g class="node" transform="translate(231.64555492925828,78.26748227250106)"><circle class="outline" cx="0" cy="0" r="32.5" fill="#4C8EDA" stroke="#2870c2" stroke-width="2px"/><text text-anchor="middle" pointer-events="none" font-family="sans-serif" dy="2.03125" font-size="32.5" fill="#FFFFFF"/><text text-anchor="middle" pointer-events="none" x="0" y="5" font-size="10px" fill="#FFFFFF" font-family="sans-serif"> jepsen_io</text></g><g class="node" transform="translate(94.57978064227399,143.1823894903816)"><circle class="outline" cx="0" cy="0" r="25" fill="#FFC454" stroke="#d7a013" stroke-width="2px"/><text text-anchor="middle" pointer-events="none" font-family="sans-serif" dy="1.5625" font-size="25" fill="#2A2C34"/><text text-anchor="middle" pointer-events="none" x="0" y="5" font-size="10px" fill="#2A2C34" font-family="sans-serif"> 34</text></g><g class="node" transform="translate(221.588456330003,-188.99768181643606)"><circle class="outline" cx="0" cy="0" r="32.5" fill="#4C8EDA" stroke="#2870c2" stroke-width="2px"/><text text-anchor="middle" pointer-events="none" font-family="sans-serif" dy="2.03125" font-size="32.5" fill="#FFFFFF"/><text text-anchor="middle" pointer-events="none" x="0" y="5" font-size="10px" fill="#FFFFFF" font-family="sans-serif"> mvriel</text></g><g class="node" transform="translate(-210.9828108672113,-70.65001110759691)"><circle class="outline" cx="0" cy="0" r="32.5" fill="#4C8EDA" stroke="#2870c2" stroke-width="2px"/><text text-anchor="middle" pointer-events="none" font-family="sans-serif" dy="2.03125" font-size="32.5" fill="#FFFFFF"/><text text-anchor="middle" pointer-events="none" x="0" y="5" font-size="10px" fill="#FFFFFF" font-family="sans-serif"> kikewaa</text></g><g class="node" transform="translate(-36.2581124212785,36.80485840005798)"><circle class="outline" cx="0" cy="0" r="32.5" fill="#4C8EDA" stroke="#2870c2" stroke-width="2px"/><text text-anchor="middle" pointer-events="none" font-family="sans-serif" dy="2.03125" font-size="32.5" fill="#FFFFFF"/><text text-anchor="middle" pointer-events="none" x="0" y="5" font-size="10px" fill="#FFFFFF" font-family="sans-serif"> ohubaut</text></g><g class="node" transform="translate(333.4282486639575,-180.58624012087137)"><circle class="outline" cx="0" cy="0" r="32.5" fill="#4C8EDA" stroke="#2870c2" stroke-width="2px"/><text text-anchor="middle" pointer-events="none" font-family="sans-serif" dy="2.03125" font-size="32.5" fill="#FFFFFF"/><text text-anchor="middle" pointer-events="none" x="0" y="5" font-size="10px" fill="#FFFFFF" font-family="sans-serif"> rohanray</text></g><g class="node" transform="translate(-197.48886936111467,-162.81869588799017)"><circle class="outline" cx="0" cy="0" r="32.5" fill="#4C8EDA" stroke="#2870c2" stroke-width="2px"/><text text-anchor="middle" pointer-events="none" font-family="sans-serif" dy="2.03125" font-size="32.5" fill="#FFFFFF"/><text text-anchor="middle" pointer-events="none" x="0" y="5" font-size="10px" fill="#FFFFFF" font-family="sans-serif"> paskuvan</text></g><g class="node" transform="translate(301.2044943347522,106.8198043036393)"><circle class="outline" cx="0" cy="0" r="32.5" fill="#4C8EDA" stroke="#2870c2" stroke-width="2px"/><text text-anchor="middle" pointer-events="none" font-family="sans-serif" dy="2.03125" font-size="32.5" fill="#FFFFFF"/><text text-anchor="middle" pointer-events="none" x="0" y="5" font-size="10px" fill="#FFFFFF" font-family="sans-serif"> graspskills</text></g><g class="node" transform="translate(57.62381424929592,29.500779886811017)"><circle class="outline" cx="0" cy="0" r="32.5" fill="#4C8EDA" stroke="#2870c2" stroke-width="2px"/><text text-anchor="middle" pointer-events="none" font-family="sans-serif" dy="2.03125" font-size="32.5" fill="#FFFFFF"/><text text-anchor="middle" pointer-events="none" x="0" y="5" font-size="10px" fill="#FFFFFF" font-family="sans-serif"> granvilleDSC</text></g><g class="node" transform="translate(-230.40199677833635,127.44305331163241)"><circle class="outline" cx="0" cy="0" r="32.5" fill="#4C8EDA" stroke="#2870c2" stroke-width="2px"/><text text-anchor="middle" pointer-events="none" font-family="sans-serif" dy="2.03125" font-size="32.5" fill="#FFFFFF"/><text text-anchor="middle" pointer-events="none" x="0" y="5" font-size="10px" fill="#FFFFFF" font-family="sans-serif"> vingar</text></g><g class="node" transform="translate(-118.81134197309471,37.35178228239886)"><circle class="outline" cx="0" cy="0" r="25" fill="#FFC454" stroke="#d7a013" stroke-width="2px"/><text text-anchor="middle" pointer-events="none" font-family="sans-serif" dy="1.5625" font-size="25" fill="#2A2C34"/><text text-anchor="middle" pointer-events="none" x="0" y="5" font-size="10px" fill="#2A2C34" font-family="sans-serif"> 144</text></g><g class="node" transform="translate(157.64312120033645,-120.3605789942997)"><circle class="outline" cx="0" cy="0" r="32.5" fill="#4C8EDA" stroke="#2870c2" stroke-width="2px"/><text text-anchor="middle" pointer-events="none" font-family="sans-serif" dy="2.03125" font-size="32.5" fill="#FFFFFF"/><text text-anchor="middle" pointer-events="none" x="0" y="5" font-size="10px" fill="#FFFFFF" font-family="sans-serif"> SigP226</text></g><g class="node" transform="translate(-151.85827035006673,183.02978151793053)"><circle class="outline" cx="0" cy="0" r="32.5" fill="#4C8EDA" stroke="#2870c2" stroke-width="2px"/><text text-anchor="middle" pointer-events="none" font-family="sans-serif" dy="2.03125" font-size="32.5" fill="#FFFFFF"/><text text-anchor="middle" pointer-events="none" x="0" y="5" font-size="10px" fill="#FFFFFF" font-family="sans-serif"> punk_ab</text></g><g class="node" transform="translate(-41.272891809945435,126.26902594434773)"><circle class="outline" cx="0" cy="0" r="25" fill="#FFC454" stroke="#d7a013" stroke-width="2px"/><text text-anchor="middle" pointer-events="none" font-family="sans-serif" dy="1.5625" font-size="25" fill="#2A2C34"/><text text-anchor="middle" pointer-events="none" x="0" y="5" font-size="10px" fill="#2A2C34" font-family="sans-serif"> 22</text></g><g class="node" transform="translate(485.541505162748,20.093326013333552)"><circle class="outline" cx="0" cy="0" r="32.5" fill="#4C8EDA" stroke="#2870c2" stroke-width="2px"/><text text-anchor="middle" pointer-events="none" font-family="sans-serif" dy="2.03125" font-size="32.5" fill="#FFFFFF"/><text text-anchor="middle" pointer-events="none" x="0" y="5" font-size="10px" fill="#FFFFFF" font-family="sans-serif"> ZeeshanAli…</text></g><g class="node" transform="translate(370.98233561132673,134.02211303014897)"><circle class="outline" cx="0" cy="0" r="32.5" fill="#4C8EDA" stroke="#2870c2" stroke-width="2px"/><text text-anchor="middle" pointer-events="none" font-family="sans-serif" dy="2.03125" font-size="32.5" fill="#FFFFFF"/><text text-anchor="middle" pointer-events="none" x="0" y="5" font-size="10px" fill="#FFFFFF" font-family="sans-serif"> iburtally</text></g></g></svg>