<svg xmlns="http://www.w3.org/2000/svg" width="716.2930908203125" height="453.7962646484375" viewBox="-56.26314926147461 78.42686462402344 716.2930908203125 453.7962646484375"><title>Neo4j Graph Visualization</title><desc>Created using Neo4j (http://www.neo4j.com/)</desc><g class="layer relationships"><g class="relationship" transform="translate(383.3628648369794 297.4028466963967) rotate(480.1212882196383)"><path class="outline" fill="#A5ABB6" stroke="none" d="M 25 0.5 L 73.54637377459771 0.5 L 73.54637377459771 -0.5 L 25 -0.5 Z M 157.40574877459773 0.5 L 205.95212254919542 0.5 L 205.95212254919542 3.5 L 212.95212254919542 0 L 205.95212254919542 -3.5 L 205.95212254919542 -0.5 L 157.40574877459773 -0.5 Z"/><text text-anchor="middle" pointer-events="none" font-size="8px" fill="#000000" x="115.47606127459771" y="3" transform="rotate(180 115.47606127459771 0)" font-family="sans-serif">0.0521978021978022</text></g><g class="relationship" transform="translate(383.3628648369794 297.4028466963967) rotate(410.55485821352113)"><path class="outline" fill="#A5ABB6" stroke="none" d="M 25 0.5 L 71.21126603304894 0.5 L 71.21126603304894 -0.5 L 25 -0.5 Z M 159.51985978304896 0.5 L 205.7311258160979 0.5 L 205.7311258160979 3.5 L 212.7311258160979 0 L 205.7311258160979 -3.5 L 205.7311258160979 -0.5 L 159.51985978304896 -0.5 Z"/><text text-anchor="middle" pointer-events="none" font-size="8px" fill="#000000" x="115.36556290804894" y="3" font-family="sans-serif">0.03796954314720812</text></g><g class="relationship" transform="translate(383.3628648369794 297.4028466963967) rotate(385.2572350641139)"><path class="outline" fill="#A5ABB6" stroke="none" d="M 25 0.5 L 45.077486415226645 0.5 L 45.077486415226645 -0.5 L 25 -0.5 Z M 137.24154891522664 0.5 L 157.3190353304533 0.5 L 157.3190353304533 3.5 L 164.3190353304533 0 L 157.3190353304533 -3.5 L 157.3190353304533 -0.5 L 137.24154891522664 -0.5 Z"/><text text-anchor="middle" pointer-events="none" font-size="8px" fill="#000000" x="91.15951766522664" y="3" font-family="sans-serif">0.011616161616161616</text></g><g class="relationship" transform="translate(383.3628648369794 297.4028466963967) rotate(337.6045715244504)"><path class="outline" fill="#A5ABB6" stroke="none" d="M 25 0.5 L 47.98443244516419 0.5 L 47.98443244516419 -0.5 L 25 -0.5 Z M 140.7422449451642 0.5 L 163.72667739032838 0.5 L 163.72667739032838 3.5 L 170.72667739032838 0 L 163.72667739032838 -3.5 L 163.72667739032838 -0.5 L 140.7422449451642 -0.5 Z"/><text text-anchor="middle" pointer-events="none" font-size="8px" fill="#000000" x="94.36333869516419" y="3" font-family="sans-serif">0.008955223880597015</text></g><g class="relationship" transform="translate(383.3628648369794 297.4028466963967) rotate(453.2028687487567)"><path class="outline" fill="#A5ABB6" stroke="none" d="M 25 0.5 L 27.222654201280235 0.5 L 27.222654201280235 -0.5 L 25 -0.5 Z M 92.38671670128024 0.5 L 94.60937090256047 0.5 L 94.60937090256047 3.5 L 101.60937090256047 0 L 94.60937090256047 -3.5 L 94.60937090256047 -0.5 L 92.38671670128024 -0.5 Z"/><text text-anchor="middle" pointer-events="none" font-size="8px" fill="#000000" x="59.804685451280235" y="3" transform="rotate(180 59.804685451280235 0)" font-family="sans-serif">0.0087040618…</text></g><g class="relationship" transform="translate(383.3628648369794 297.4028466963967) rotate(359.81011766079143)"><path class="outline" fill="#A5ABB6" stroke="none" d="M 25 0.5 L 73.95533935793645 0.5 L 73.95533935793645 -0.5 L 25 -0.5 Z M 166.71315185793645 0.5 L 215.6684912158729 0.5 L 215.6684912158729 3.5 L 222.6684912158729 0 L 215.6684912158729 -3.5 L 215.6684912158729 -0.5 L 166.71315185793645 -0.5 Z"/><text text-anchor="middle" pointer-events="none" font-size="8px" fill="#000000" x="120.33424560793645" y="3" font-family="sans-serif">0.007070707070707071</text></g><g class="relationship" transform="translate(383.3628648369794 297.4028466963967) rotate(294.89616529770035)"><path class="outline" fill="#A5ABB6" stroke="none" d="M 25 0.5 L 33.47116127525106 0.5 L 33.47116127525106 -0.5 L 25 -0.5 Z M 126.22897377525106 0.5 L 134.70013505050213 0.5 L 134.70013505050213 3.5 L 141.70013505050213 0 L 134.70013505050213 -3.5 L 134.70013505050213 -0.5 L 126.22897377525106 -0.5 Z"/><text text-anchor="middle" pointer-events="none" font-size="8px" fill="#000000" x="79.85006752525106" y="3" font-family="sans-serif">0.005287009063444109</text></g><g class="relationship" transform="translate(534.4027519396282 480.9867258519709) rotate(535.2997496466264)"><path class="outline" fill="#A5ABB6" stroke="none" d="M 25 0.5 L 86.10022033359587 0.5 L 86.10022033359587 -0.5 L 25 -0.5 Z M 178.26428283359587 0.5 L 239.36450316719174 0.5 L 239.36450316719174 3.5 L 246.36450316719174 0 L 239.36450316719174 -3.5 L 239.36450316719174 -0.5 L 178.26428283359587 -0.5 Z"/><text text-anchor="middle" pointer-events="none" font-size="8px" fill="#000000" x="132.18225158359587" y="3" transform="rotate(180 132.18225158359587 0)" font-family="sans-serif">0.011312217194570135</text></g><g class="relationship" transform="translate(383.3628648369794 297.4028466963967) rotate(318.7324071310205)"><path class="outline" fill="#A5ABB6" stroke="none" d="M 25 0.5 L 37.69085503488694 0.5 L 37.69085503488694 -0.5 L 25 -0.5 Z M 134.89788628488694 0.5 L 147.58874131977387 0.5 L 147.58874131977387 3.5 L 154.58874131977387 0 L 147.58874131977387 -3.5 L 147.58874131977387 -0.5 L 134.89788628488694 -0.5 Z"/><text text-anchor="middle" pointer-events="none" font-size="8px" fill="#000000" x="86.29437065988694" y="3" font-family="sans-serif">0.0030303030303030303</text></g><g class="relationship" transform="translate(383.3628648369794 297.4028466963967) rotate(193.27871554709054)"><path class="outline" fill="#A5ABB6" stroke="none" d="M 25 0.5 L 89.69895061422298 0.5 L 89.69895061422298 -0.5 L 25 -0.5 Z M 186.90598186422298 0.5 L 251.60493247844596 0.5 L 251.60493247844596 3.5 L 258.60493247844596 0 L 251.60493247844596 -3.5 L 251.60493247844596 -0.5 L 186.90598186422298 -0.5 Z"/><text text-anchor="middle" pointer-events="none" font-size="8px" fill="#000000" x="138.30246623922298" y="3" transform="rotate(180 138.30246623922298 0)" font-family="sans-serif">0.0025252525252525255</text></g><g class="relationship" transform="translate(534.4027519396282 480.9867258519709) rotate(199.87946070318804)"><path class="outline" fill="#A5ABB6" stroke="none" d="M 25 0.5 L 31.962863782746425 0.5 L 31.962863782746425 -0.5 L 25 -0.5 Z M 129.1698950327464 0.5 L 136.13275881549285 0.5 L 136.13275881549285 3.5 L 143.13275881549285 0 L 136.13275881549285 -3.5 L 136.13275881549285 -0.5 L 129.1698950327464 -0.5 Z"/><text text-anchor="middle" pointer-events="none" font-size="8px" fill="#000000" x="80.56637940774642" y="3" transform="rotate(180 80.56637940774642 0)" font-family="sans-serif">0.0058997050147492625</text></g><g class="relationship" transform="translate(383.3628648369794 297.4028466963967) rotate(228.95573804600463)"><path class="outline" fill="#A5ABB6" stroke="none" d="M 25 0.5 L 70.540081848733 0.5 L 70.540081848733 -0.5 L 25 -0.5 Z M 167.747113098733 0.5 L 213.287194947466 0.5 L 213.287194947466 3.5 L 220.287194947466 0 L 213.287194947466 -3.5 L 213.287194947466 -0.5 L 167.747113098733 -0.5 Z"/><text text-anchor="middle" pointer-events="none" font-size="8px" fill="#000000" x="119.143597473733" y="3" transform="rotate(180 119.143597473733 0)" font-family="sans-serif">0.0017676767676767678</text></g><g class="relationship" transform="translate(383.3628648369794 297.4028466963967) rotate(216.48577904532107)"><path class="outline" fill="#A5ABB6" stroke="none" d="M 25 0.5 L 98.89175642923647 0.5 L 98.89175642923647 -0.5 L 25 -0.5 Z M 196.09878767923647 0.5 L 269.99054410847293 0.5 L 269.99054410847293 3.5 L 276.99054410847293 0 L 269.99054410847293 -3.5 L 269.99054410847293 -0.5 L 196.09878767923647 -0.5 Z"/><text text-anchor="middle" pointer-events="none" font-size="8px" fill="#000000" x="147.49527205423647" y="3" transform="rotate(180 147.49527205423647 0)" font-family="sans-serif">0.0015151515151515152</text></g><g class="relationship" transform="translate(383.3628648369794 297.4028466963967) rotate(242.88250940100102)"><path class="outline" fill="#A5ABB6" stroke="none" d="M 25 0.5 L 56.84033559915484 0.5 L 56.84033559915484 -0.5 L 25 -0.5 Z M 149.59814809915486 0.5 L 181.43848369830968 0.5 L 181.43848369830968 3.5 L 188.43848369830968 0 L 181.43848369830968 -3.5 L 181.43848369830968 -0.5 L 149.59814809915486 -0.5 Z"/><text text-anchor="middle" pointer-events="none" font-size="8px" fill="#000000" x="103.21924184915484" y="3" transform="rotate(180 103.21924184915484 0)" font-family="sans-serif">0.001514386673397274</text></g><g class="relationship" transform="translate(383.3628648369794 297.4028466963967) rotate(266.6186922642656)"><path class="outline" fill="#A5ABB6" stroke="none" d="M 25 0.5 L 40.63475733792117 0.5 L 40.63475733792117 -0.5 L 25 -0.5 Z M 137.84178858792117 0.5 L 153.47654592584234 0.5 L 153.47654592584234 3.5 L 160.47654592584234 0 L 153.47654592584234 -3.5 L 153.47654592584234 -0.5 L 137.84178858792117 -0.5 Z"/><text text-anchor="middle" pointer-events="none" font-size="8px" fill="#000000" x="89.23827296292117" y="3" transform="rotate(180 89.23827296292117 0)" font-family="sans-serif">0.0012623074981065387</text></g><g class="relationship" transform="translate(383.3628648369794 297.4028466963967) rotate(532.2904868950309)"><path class="outline" fill="#A5ABB6" stroke="none" d="M 25 0.5 L 32.64219600545606 0.5 L 32.64219600545606 -0.5 L 25 -0.5 Z M 120.95078975545606 0.5 L 128.59298576091211 0.5 L 128.59298576091211 3.5 L 135.59298576091211 0 L 128.59298576091211 -3.5 L 128.59298576091211 -0.5 L 120.95078975545606 -0.5 Z"/><text text-anchor="middle" pointer-events="none" font-size="8px" fill="#000000" x="76.79649288045606" y="3" transform="rotate(180 76.79649288045606 0)" font-family="sans-serif">0.00101010101010101</text></g><g class="relationship" transform="translate(383.3628648369794 297.4028466963967) rotate(203.59262831550427)"><path class="outline" fill="#A5ABB6" stroke="none" d="M 25 0.5 L 67.905463621625 0.5 L 67.905463621625 -0.5 L 25 -0.5 Z M 156.21405737162502 0.5 L 199.11952099325 0.5 L 199.11952099325 3.5 L 206.11952099325 0 L 199.11952099325 -3.5 L 199.11952099325 -0.5 L 156.21405737162502 -0.5 Z"/><text text-anchor="middle" pointer-events="none" font-size="8px" fill="#000000" x="112.059760496625" y="3" transform="rotate(180 112.059760496625 0)" font-family="sans-serif">0.00101010101010101</text></g><g class="relationship" transform="translate(383.3628648369794 297.4028466963967) rotate(512.3490817611469)"><path class="outline" fill="#A5ABB6" stroke="none" d="M 25 0.5 L 47.01239124304864 0.5 L 47.01239124304864 -0.5 L 25 -0.5 Z M 144.21942249304863 0.5 L 166.23181373609728 0.5 L 166.23181373609728 3.5 L 173.23181373609728 0 L 166.23181373609728 -3.5 L 166.23181373609728 -0.5 L 144.21942249304863 -0.5 Z"/><text text-anchor="middle" pointer-events="none" font-size="8px" fill="#000000" x="95.61590686804864" y="3" transform="rotate(180 95.61590686804864 0)" font-family="sans-serif">0.0010093363613424174</text></g><g class="relationship" transform="translate(383.3628648369794 297.4028466963967) rotate(497.40182531913473)"><path class="outline" fill="#A5ABB6" stroke="none" d="M 25 0.5 L 78.79759122107725 0.5 L 78.79759122107725 -0.5 L 25 -0.5 Z M 176.00462247107725 0.5 L 229.8022136921545 0.5 L 229.8022136921545 3.5 L 236.8022136921545 0 L 229.8022136921545 -3.5 L 229.8022136921545 -0.5 L 176.00462247107725 -0.5 Z"/><text text-anchor="middle" pointer-events="none" font-size="8px" fill="#000000" x="127.40110684607725" y="3" transform="rotate(180 127.40110684607725 0)" font-family="sans-serif">0.0007575757575757576</text></g><g class="relationship" transform="translate(70.26598680199567 356.98094300516897) rotate(235.48228691274625)"><path class="outline" fill="#A5ABB6" stroke="none" d="M 25 0.5 L 73.9954346891345 0.5 L 73.9954346891345 -0.5 L 25 -0.5 Z M 91.1165284391345 0.5 L 140.111963128269 0.5 L 140.111963128269 3.5 L 147.111963128269 0 L 140.111963128269 -3.5 L 140.111963128269 -0.5 L 91.1165284391345 -0.5 Z"/><text text-anchor="middle" pointer-events="none" font-size="8px" fill="#000000" x="82.5559815641345" y="3" transform="rotate(180 82.5559815641345 0)" font-family="sans-serif">1.0</text></g></g><g class="layer nodes"><g class="node" transform="translate(383.3628648369794,297.4028466963967)"><circle class="outline" cx="0" cy="0" r="25" fill="#FFC454" stroke="#d7a013" stroke-width="2px"/><text text-anchor="middle" pointer-events="none" font-family="sans-serif" dy="1.5625" font-size="25" fill="#2A2C34"/><text text-anchor="middle" pointer-events="none" x="0" y="5" font-size="10px" fill="#2A2C34" font-family="sans-serif"> 119</text></g><g class="node" transform="translate(263.95083978699574,503.22311027394)"><circle class="outline" cx="0" cy="0" r="25" fill="#FFC454" stroke="#d7a013" stroke-width="2px"/><text text-anchor="middle" pointer-events="none" font-family="sans-serif" dy="1.5625" font-size="25" fill="#2A2C34"/><text text-anchor="middle" pointer-events="none" x="0" y="5" font-size="10px" fill="#2A2C34" font-family="sans-serif"> 34</text></g><g class="node" transform="translate(534.4027519396282,480.9867258519709)"><circle class="outline" cx="0" cy="0" r="25" fill="#FFC454" stroke="#d7a013" stroke-width="2px"/><text text-anchor="middle" pointer-events="none" font-family="sans-serif" dy="1.5625" font-size="25" fill="#2A2C34"/><text text-anchor="middle" pointer-events="none" x="0" y="5" font-size="10px" fill="#2A2C34" font-family="sans-serif"> 157</text></g><g class="node" transform="translate(554.5832413894459,378.1820506519012)"><circle class="outline" cx="0" cy="0" r="25" fill="#FFC454" stroke="#d7a013" stroke-width="2px"/><text text-anchor="middle" pointer-events="none" font-family="sans-serif" dy="1.5625" font-size="25" fill="#2A2C34"/><text text-anchor="middle" pointer-events="none" x="0" y="5" font-size="10px" fill="#2A2C34" font-family="sans-serif"> 91</text></g><g class="node" transform="translate(564.3271385646965,222.83164664934398)"><circle class="outline" cx="0" cy="0" r="25" fill="#FFC454" stroke="#d7a013" stroke-width="2px"/><text text-anchor="middle" pointer-events="none" font-family="sans-serif" dy="1.5625" font-size="25" fill="#2A2C34"/><text text-anchor="middle" pointer-events="none" x="0" y="5" font-size="10px" fill="#2A2C34" font-family="sans-serif"> 22</text></g><g class="node" transform="translate(376.2890098814862,423.8144497097703)"><circle class="outline" cx="0" cy="0" r="25" fill="#FFC454" stroke="#d7a013" stroke-width="2px"/><text text-anchor="middle" pointer-events="none" font-family="sans-serif" dy="1.5625" font-size="25" fill="#2A2C34"/><text text-anchor="middle" pointer-events="none" x="0" y="5" font-size="10px" fill="#2A2C34" font-family="sans-serif"> 144</text></g><g class="node" transform="translate(631.0299959735016,296.5820569842237)"><circle class="outline" cx="0" cy="0" r="25" fill="#FFC454" stroke="#d7a013" stroke-width="2px"/><text text-anchor="middle" pointer-events="none" font-family="sans-serif" dy="1.5625" font-size="25" fill="#2A2C34"/><text text-anchor="middle" pointer-events="none" x="0" y="5" font-size="10px" fill="#2A2C34" font-family="sans-serif"> 1747</text></g><g class="node" transform="translate(453.5394717965022,146.19378988595196)"><circle class="outline" cx="0" cy="0" r="25" fill="#FFC454" stroke="#d7a013" stroke-width="2px"/><text text-anchor="middle" pointer-events="none" font-family="sans-serif" dy="1.5625" font-size="25" fill="#2A2C34"/><text text-anchor="middle" pointer-events="none" x="0" y="5" font-size="10px" fill="#2A2C34" font-family="sans-serif"> 81</text></g><g class="node" transform="translate(518.3484646349988,178.9503082854804)"><circle class="outline" cx="0" cy="0" r="25" fill="#FFC454" stroke="#d7a013" stroke-width="2px"/><text text-anchor="middle" pointer-events="none" font-family="sans-serif" dy="1.5625" font-size="25" fill="#2A2C34"/><text text-anchor="middle" pointer-events="none" x="0" y="5" font-size="10px" fill="#2A2C34" font-family="sans-serif"> 3361</text></g><g class="node" transform="translate(107.34031857239077,232.26213991701863)"><circle class="outline" cx="0" cy="0" r="25" fill="#FFC454" stroke="#d7a013" stroke-width="2px"/><text text-anchor="middle" pointer-events="none" font-family="sans-serif" dy="1.5625" font-size="25" fill="#2A2C34"/><text text-anchor="middle" pointer-events="none" x="0" y="5" font-size="10px" fill="#2A2C34" font-family="sans-serif"> 209</text></g><g class="node" transform="translate(222.2970251520744,112.40662162195721)"><circle class="outline" cx="0" cy="0" r="25" fill="#FFC454" stroke="#d7a013" stroke-width="2px"/><text text-anchor="middle" pointer-events="none" font-family="sans-serif" dy="1.5625" font-size="25" fill="#2A2C34"/><text text-anchor="middle" pointer-events="none" x="0" y="5" font-size="10px" fill="#2A2C34" font-family="sans-serif"> 307</text></g><g class="node" transform="translate(140.56111676723611,117.83224814193278)"><circle class="outline" cx="0" cy="0" r="25" fill="#FFC454" stroke="#d7a013" stroke-width="2px"/><text text-anchor="middle" pointer-events="none" font-family="sans-serif" dy="1.5625" font-size="25" fill="#2A2C34"/><text text-anchor="middle" pointer-events="none" x="0" y="5" font-size="10px" fill="#2A2C34" font-family="sans-serif"> 3319</text></g><g class="node" transform="translate(286.0740523579236,107.42686587290223)"><circle class="outline" cx="0" cy="0" r="25" fill="#FFC454" stroke="#d7a013" stroke-width="2px"/><text text-anchor="middle" pointer-events="none" font-family="sans-serif" dy="1.5625" font-size="25" fill="#2A2C34"/><text text-anchor="middle" pointer-events="none" x="0" y="5" font-size="10px" fill="#2A2C34" font-family="sans-serif"> 2044</text></g><g class="node" transform="translate(372.42332774770415,112.2491926226694)"><circle class="outline" cx="0" cy="0" r="25" fill="#FFC454" stroke="#d7a013" stroke-width="2px"/><text text-anchor="middle" pointer-events="none" font-family="sans-serif" dy="1.5625" font-size="25" fill="#2A2C34"/><text text-anchor="middle" pointer-events="none" x="0" y="5" font-size="10px" fill="#2A2C34" font-family="sans-serif"> 48</text></g><g class="node" transform="translate(224.22148876476444,318.9465115992486)"><circle class="outline" cx="0" cy="0" r="25" fill="#FFC454" stroke="#d7a013" stroke-width="2px"/><text text-anchor="middle" pointer-events="none" font-family="sans-serif" dy="1.5625" font-size="25" fill="#2A2C34"/><text text-anchor="middle" pointer-events="none" x="0" y="5" font-size="10px" fill="#2A2C34" font-family="sans-serif"> 160</text></g><g class="node" transform="translate(171.56164674828955,204.9016196759048)"><circle class="outline" cx="0" cy="0" r="25" fill="#FFC454" stroke="#d7a013" stroke-width="2px"/><text text-anchor="middle" pointer-events="none" font-family="sans-serif" dy="1.5625" font-size="25" fill="#2A2C34"/><text text-anchor="middle" pointer-events="none" x="0" y="5" font-size="10px" fill="#2A2C34" font-family="sans-serif"> 651</text></g><g class="node" transform="translate(207.77080873256764,389.39894340776743)"><circle class="outline" cx="0" cy="0" r="25" fill="#FFC454" stroke="#d7a013" stroke-width="2px"/><text text-anchor="middle" pointer-events="none" font-family="sans-serif" dy="1.5625" font-size="25" fill="#2A2C34"/><text text-anchor="middle" pointer-events="none" x="0" y="5" font-size="10px" fill="#2A2C34" font-family="sans-serif"> 75</text></g><g class="node" transform="translate(190.64537258422956,474.6043344833897)"><circle class="outline" cx="0" cy="0" r="25" fill="#FFC454" stroke="#d7a013" stroke-width="2px"/><text text-anchor="middle" pointer-events="none" font-family="sans-serif" dy="1.5625" font-size="25" fill="#2A2C34"/><text text-anchor="middle" pointer-events="none" x="0" y="5" font-size="10px" fill="#2A2C34" font-family="sans-serif"> 1885</text></g><g class="node" transform="translate(70.26598680199567,356.98094300516897)"><circle class="outline" cx="0" cy="0" r="25" fill="#FFC454" stroke="#d7a013" stroke-width="2px"/><text text-anchor="middle" pointer-events="none" font-family="sans-serif" dy="1.5625" font-size="25" fill="#2A2C34"/><text text-anchor="middle" pointer-events="none" x="0" y="5" font-size="10px" fill="#2A2C34" font-family="sans-serif"> 498</text></g><g class="node" transform="translate(-27.26314859108311,215.16911133606902)"><circle class="outline" cx="0" cy="0" r="25" fill="#FFC454" stroke="#d7a013" stroke-width="2px"/><text text-anchor="middle" pointer-events="none" font-family="sans-serif" dy="1.5625" font-size="25" fill="#2A2C34"/><text text-anchor="middle" pointer-events="none" x="0" y="5" font-size="10px" fill="#2A2C34" font-family="sans-serif"> 107</text></g></g></svg>