<svg xmlns="http://www.w3.org/2000/svg" width="663.8812866210938" height="433.32720947265625" viewBox="-163.08497619628906 -49.9322509765625 663.8812866210938 433.32720947265625"><title>Neo4j Graph Visualization</title><desc>Created using Neo4j (http://www.neo4j.com/)</desc><g class="layer relationships"><g class="relationship" transform="translate(235.6143505230703 166.31126174571978) rotate(462.9473943001854)"><path class="outline" fill="#A5ABB6" stroke="none" d="M 25 0.5 L 83.32130049037026 0.5 L 83.32130049037026 -0.5 L 25 -0.5 Z M 102.66895674037026 0.5 L 160.99025723074053 0.5 L 160.99025723074053 3.5 L 167.99025723074053 0 L 160.99025723074053 -3.5 L 160.99025723074053 -0.5 L 102.66895674037026 -0.5 Z"/><text text-anchor="middle" pointer-events="none" font-size="8px" fill="#000000" x="92.99512861537026" y="3" transform="rotate(180 92.99512861537026 0)" font-family="sans-serif">228</text></g><g class="relationship" transform="translate(235.6143505230703 166.31126174571978) rotate(395.72375714923226)"><path class="outline" fill="#A5ABB6" stroke="none" d="M 25 0.5 L 121.25321983072004 0.5 L 121.25321983072004 -0.5 L 25 -0.5 Z M 140.60087608072004 0.5 L 236.85409591144008 0.5 L 236.85409591144008 3.5 L 243.85409591144008 0 L 236.85409591144008 -3.5 L 236.85409591144008 -0.5 L 140.60087608072004 -0.5 Z"/><text text-anchor="middle" pointer-events="none" font-size="8px" fill="#000000" x="130.92704795572004" y="3" font-family="sans-serif">187</text></g><g class="relationship" transform="translate(235.6143505230703 166.31126174571978) rotate(382.5153958563383)"><path class="outline" fill="#A5ABB6" stroke="none" d="M 25 0.5 L 83.05413677384878 0.5 L 83.05413677384878 -0.5 L 25 -0.5 Z M 97.95257427384878 0.5 L 156.00671104769756 0.5 L 156.00671104769756 3.5 L 163.00671104769756 0 L 156.00671104769756 -3.5 L 156.00671104769756 -0.5 L 97.95257427384878 -0.5 Z"/><text text-anchor="middle" pointer-events="none" font-size="8px" fill="#000000" x="90.50335552384878" y="3" font-family="sans-serif">46</text></g><g class="relationship" transform="translate(235.6143505230703 166.31126174571978) rotate(328.4855662935171)"><path class="outline" fill="#A5ABB6" stroke="none" d="M 25 0.5 L 97.8288232525498 0.5 L 97.8288232525498 -0.5 L 25 -0.5 Z M 112.7272607525498 0.5 L 185.5560840050996 0.5 L 185.5560840050996 3.5 L 192.5560840050996 0 L 185.5560840050996 -3.5 L 185.5560840050996 -0.5 L 112.7272607525498 -0.5 Z"/><text text-anchor="middle" pointer-events="none" font-size="8px" fill="#000000" x="105.2780420025498" y="3" font-family="sans-serif">36</text></g><g class="relationship" transform="translate(235.6143505230703 166.31126174571978) rotate(429.5236725646138)"><path class="outline" fill="#A5ABB6" stroke="none" d="M 25 0.5 L 47.68286646996508 0.5 L 47.68286646996508 -0.5 L 25 -0.5 Z M 62.58130396996508 0.5 L 85.26417043993015 0.5 L 85.26417043993015 3.5 L 92.26417043993015 0 L 85.26417043993015 -3.5 L 85.26417043993015 -0.5 L 62.58130396996508 -0.5 Z"/><text text-anchor="middle" pointer-events="none" font-size="8px" fill="#000000" x="55.13208521996508" y="3" font-family="sans-serif">36</text></g><g class="relationship" transform="translate(235.6143505230703 166.31126174571978) rotate(345.7330069273811)"><path class="outline" fill="#A5ABB6" stroke="none" d="M 25 0.5 L 108.3810975293009 0.5 L 108.3810975293009 -0.5 L 25 -0.5 Z M 123.2795350293009 0.5 L 206.6606325586018 0.5 L 206.6606325586018 3.5 L 213.6606325586018 0 L 206.6606325586018 -3.5 L 206.6606325586018 -0.5 L 123.2795350293009 -0.5 Z"/><text text-anchor="middle" pointer-events="none" font-size="8px" fill="#000000" x="115.8303162793009" y="3" font-family="sans-serif">28</text></g><g class="relationship" transform="translate(235.6143505230703 166.31126174571978) rotate(284.80623170664313)"><path class="outline" fill="#A5ABB6" stroke="none" d="M 25 0.5 L 74.00687848761966 0.5 L 74.00687848761966 -0.5 L 25 -0.5 Z M 88.90531598761966 0.5 L 137.91219447523932 0.5 L 137.91219447523932 3.5 L 144.91219447523932 0 L 137.91219447523932 -3.5 L 137.91219447523932 -0.5 L 88.90531598761966 -0.5 Z"/><text text-anchor="middle" pointer-events="none" font-size="8px" fill="#000000" x="81.45609723761966" y="3" font-family="sans-serif">21</text></g><g class="relationship" transform="translate(453.8812622988191 323.2892223396685) rotate(533.2166658513577)"><path class="outline" fill="#A5ABB6" stroke="none" d="M 25 0.5 L 120.7263244276152 0.5 L 120.7263244276152 -0.5 L 25 -0.5 Z M 135.6247619276152 0.5 L 231.3510863552304 0.5 L 231.3510863552304 3.5 L 238.3510863552304 0 L 231.3510863552304 -3.5 L 231.3510863552304 -0.5 L 135.6247619276152 -0.5 Z"/><text text-anchor="middle" pointer-events="none" font-size="8px" fill="#000000" x="128.1755431776152" y="3" transform="rotate(180 128.1755431776152 0)" font-family="sans-serif">20</text></g><g class="relationship" transform="translate(235.6143505230703 166.31126174571978) rotate(259.0570585013826)"><path class="outline" fill="#A5ABB6" stroke="none" d="M 25 0.5 L 84.40641725983966 0.5 L 84.40641725983966 -0.5 L 25 -0.5 Z M 99.30485475983966 0.5 L 158.7112720196793 0.5 L 158.7112720196793 3.5 L 165.7112720196793 0 L 158.7112720196793 -3.5 L 158.7112720196793 -0.5 L 99.30485475983966 -0.5 Z"/><text text-anchor="middle" pointer-events="none" font-size="8px" fill="#000000" x="91.85563600983966" y="3" transform="rotate(180 91.85563600983966 0)" font-family="sans-serif">12</text></g><g class="relationship" transform="translate(235.6143505230703 166.31126174571978) rotate(535.7854183099568)"><path class="outline" fill="#A5ABB6" stroke="none" d="M 25 0.5 L 92.78252122150582 0.5 L 92.78252122150582 -0.5 L 25 -0.5 Z M 107.68095872150582 0.5 L 175.46347994301163 0.5 L 175.46347994301163 3.5 L 182.46347994301163 0 L 175.46347994301163 -3.5 L 175.46347994301163 -0.5 L 107.68095872150582 -0.5 Z"/><text text-anchor="middle" pointer-events="none" font-size="8px" fill="#000000" x="100.23173997150582" y="3" transform="rotate(180 100.23173997150582 0)" font-family="sans-serif">10</text></g><g class="relationship" transform="translate(453.8812622988191 323.2892223396685) rotate(194.88838574997004)"><path class="outline" fill="#A5ABB6" stroke="none" d="M 25 0.5 L 82.97673051222415 0.5 L 82.97673051222415 -0.5 L 25 -0.5 Z M 93.42594926222415 0.5 L 151.4026797744483 0.5 L 151.4026797744483 3.5 L 158.4026797744483 0 L 151.4026797744483 -3.5 L 151.4026797744483 -0.5 L 93.42594926222415 -0.5 Z"/><text text-anchor="middle" pointer-events="none" font-size="8px" fill="#000000" x="88.20133988722415" y="3" transform="rotate(180 88.20133988722415 0)" font-family="sans-serif">8</text></g><g class="relationship" transform="translate(235.6143505230703 166.31126174571978) rotate(308.0129431646043)"><path class="outline" fill="#A5ABB6" stroke="none" d="M 25 0.5 L 87.01010358857081 0.5 L 87.01010358857081 -0.5 L 25 -0.5 Z M 97.45932233857081 0.5 L 159.46942592714163 0.5 L 159.46942592714163 3.5 L 166.46942592714163 0 L 159.46942592714163 -3.5 L 159.46942592714163 -0.5 L 97.45932233857081 -0.5 Z"/><text text-anchor="middle" pointer-events="none" font-size="8px" fill="#000000" x="92.23471296357081" y="3" font-family="sans-serif">7</text></g><g class="relationship" transform="translate(235.6143505230703 166.31126174571978) rotate(236.77518966257185)"><path class="outline" fill="#A5ABB6" stroke="none" d="M 25 0.5 L 99.15563936199294 0.5 L 99.15563936199294 -0.5 L 25 -0.5 Z M 109.60485811199294 0.5 L 183.76049747398588 0.5 L 183.76049747398588 3.5 L 190.76049747398588 0 L 183.76049747398588 -3.5 L 183.76049747398588 -0.5 L 109.60485811199294 -0.5 Z"/><text text-anchor="middle" pointer-events="none" font-size="8px" fill="#000000" x="104.38024873699294" y="3" transform="rotate(180 104.38024873699294 0)" font-family="sans-serif">6</text></g><g class="relationship" transform="translate(235.6143505230703 166.31126174571978) rotate(365.706549967593)"><path class="outline" fill="#A5ABB6" stroke="none" d="M 25 0.5 L 109.95455452786317 0.5 L 109.95455452786317 -0.5 L 25 -0.5 Z M 120.40377327786317 0.5 L 205.35832780572633 0.5 L 205.35832780572633 3.5 L 212.35832780572633 0 L 205.35832780572633 -3.5 L 205.35832780572633 -0.5 L 120.40377327786317 -0.5 Z"/><text text-anchor="middle" pointer-events="none" font-size="8px" fill="#000000" x="115.17916390286317" y="3" font-family="sans-serif">6</text></g><g class="relationship" transform="translate(235.6143505230703 166.31126174571978) rotate(217.67508588450903)"><path class="outline" fill="#A5ABB6" stroke="none" d="M 25 0.5 L 113.72098023012353 0.5 L 113.72098023012353 -0.5 L 25 -0.5 Z M 124.17019898012353 0.5 L 212.89117921024706 0.5 L 212.89117921024706 3.5 L 219.89117921024706 0 L 212.89117921024706 -3.5 L 212.89117921024706 -0.5 L 124.17019898012353 -0.5 Z"/><text text-anchor="middle" pointer-events="none" font-size="8px" fill="#000000" x="118.94558960512353" y="3" transform="rotate(180 118.94558960512353 0)" font-family="sans-serif">5</text></g><g class="relationship" transform="translate(235.6143505230703 166.31126174571978) rotate(482.72350200158564)"><path class="outline" fill="#A5ABB6" stroke="none" d="M 25 0.5 L 60.45678575663183 0.5 L 60.45678575663183 -0.5 L 25 -0.5 Z M 70.90600450663183 0.5 L 106.36279026326366 0.5 L 106.36279026326366 3.5 L 113.36279026326366 0 L 106.36279026326366 -3.5 L 106.36279026326366 -0.5 L 70.90600450663183 -0.5 Z"/><text text-anchor="middle" pointer-events="none" font-size="8px" fill="#000000" x="65.68139513163183" y="3" transform="rotate(180 65.68139513163183 0)" font-family="sans-serif">4</text></g><g class="relationship" transform="translate(235.6143505230703 166.31126174571978) rotate(192.14673080089585)"><path class="outline" fill="#A5ABB6" stroke="none" d="M 25 0.5 L 121.15128967913179 0.5 L 121.15128967913179 -0.5 L 25 -0.5 Z M 131.6005084291318 0.5 L 227.75179810826359 0.5 L 227.75179810826359 3.5 L 234.75179810826359 0 L 227.75179810826359 -3.5 L 227.75179810826359 -0.5 L 131.6005084291318 -0.5 Z"/><text text-anchor="middle" pointer-events="none" font-size="8px" fill="#000000" x="126.37589905413179" y="3" transform="rotate(180 126.37589905413179 0)" font-family="sans-serif">4</text></g><g class="relationship" transform="translate(235.6143505230703 166.31126174571978) rotate(505.8085326606106)"><path class="outline" fill="#A5ABB6" stroke="none" d="M 25 0.5 L 86.30439949565552 0.5 L 86.30439949565552 -0.5 L 25 -0.5 Z M 96.75361824565552 0.5 L 158.05801774131103 0.5 L 158.05801774131103 3.5 L 165.05801774131103 0 L 158.05801774131103 -3.5 L 158.05801774131103 -0.5 L 96.75361824565552 -0.5 Z"/><text text-anchor="middle" pointer-events="none" font-size="8px" fill="#000000" x="91.52900887065552" y="3" transform="rotate(180 91.52900887065552 0)" font-family="sans-serif">4</text></g><g class="relationship" transform="translate(235.6143505230703 166.31126174571978) rotate(523.0198671382047)"><path class="outline" fill="#A5ABB6" stroke="none" d="M 25 0.5 L 130.84405966737495 0.5 L 130.84405966737495 -0.5 L 25 -0.5 Z M 141.29327841737495 0.5 L 247.1373380847499 0.5 L 247.1373380847499 3.5 L 254.1373380847499 0 L 247.1373380847499 -3.5 L 247.1373380847499 -0.5 L 141.29327841737495 -0.5 Z"/><text text-anchor="middle" pointer-events="none" font-size="8px" fill="#000000" x="136.06866904237495" y="3" transform="rotate(180 136.06866904237495 0)" font-family="sans-serif">3</text></g><g class="relationship" transform="translate(-30.457611648193563 38.01507384892275) rotate(489.6395670192349)"><path class="outline" fill="#A5ABB6" stroke="none" d="M 25 0.5 L 72.4936630431766 0.5 L 72.4936630431766 -0.5 L 25 -0.5 Z M 82.9428817931766 0.5 L 130.4365448363532 0.5 L 130.4365448363532 3.5 L 137.4365448363532 0 L 130.4365448363532 -3.5 L 130.4365448363532 -0.5 L 82.9428817931766 -0.5 Z"/><text text-anchor="middle" pointer-events="none" font-size="8px" fill="#000000" x="77.7182724181766" y="3" transform="rotate(180 77.7182724181766 0)" font-family="sans-serif">3</text></g></g><g class="layer nodes"><g class="node" transform="translate(235.6143505230703,166.31126174571978)"><circle class="outline" cx="0" cy="0" r="25" fill="#FFC454" stroke="#d7a013" stroke-width="2px"/><text text-anchor="middle" pointer-events="none" font-family="sans-serif" dy="1.5625" font-size="25" fill="#2A2C34"/><text text-anchor="middle" pointer-events="none" x="0" y="5" font-size="10px" fill="#2A2C34" font-family="sans-serif"> 119</text></g><g class="node" transform="translate(192.3736581099954,354.3949715815938)"><circle class="outline" cx="0" cy="0" r="25" fill="#FFC454" stroke="#d7a013" stroke-width="2px"/><text text-anchor="middle" pointer-events="none" font-family="sans-serif" dy="1.5625" font-size="25" fill="#2A2C34"/><text text-anchor="middle" pointer-events="none" x="0" y="5" font-size="10px" fill="#2A2C34" font-family="sans-serif"> 34</text></g><g class="node" transform="translate(453.8812622988191,323.2892223396685)"><circle class="outline" cx="0" cy="0" r="25" fill="#FFC454" stroke="#d7a013" stroke-width="2px"/><text text-anchor="middle" pointer-events="none" font-family="sans-serif" dy="1.5625" font-size="25" fill="#2A2C34"/><text text-anchor="middle" pointer-events="none" x="0" y="5" font-size="10px" fill="#2A2C34" font-family="sans-serif"> 157</text></g><g class="node" transform="translate(409.2905637877641,238.30498609033918)"><circle class="outline" cx="0" cy="0" r="25" fill="#FFC454" stroke="#d7a013" stroke-width="2px"/><text text-anchor="middle" pointer-events="none" font-family="sans-serif" dy="1.5625" font-size="25" fill="#2A2C34"/><text text-anchor="middle" pointer-events="none" x="0" y="5" font-size="10px" fill="#2A2C34" font-family="sans-serif"> 91</text></g><g class="node" transform="translate(421.0827639113124,52.591794094476796)"><circle class="outline" cx="0" cy="0" r="25" fill="#FFC454" stroke="#d7a013" stroke-width="2px"/><text text-anchor="middle" pointer-events="none" font-family="sans-serif" dy="1.5625" font-size="25" fill="#2A2C34"/><text text-anchor="middle" pointer-events="none" x="0" y="5" font-size="10px" fill="#2A2C34" font-family="sans-serif"> 22</text></g><g class="node" transform="translate(276.6357438996615,276.16630693895587)"><circle class="outline" cx="0" cy="0" r="25" fill="#FFC454" stroke="#d7a013" stroke-width="2px"/><text text-anchor="middle" pointer-events="none" font-family="sans-serif" dy="1.5625" font-size="25" fill="#2A2C34"/><text text-anchor="middle" pointer-events="none" x="0" y="5" font-size="10px" fill="#2A2C34" font-family="sans-serif"> 144</text></g><g class="node" transform="translate(466.91417884285596,107.4955584641163)"><circle class="outline" cx="0" cy="0" r="25" fill="#FFC454" stroke="#d7a013" stroke-width="2px"/><text text-anchor="middle" pointer-events="none" font-family="sans-serif" dy="1.5625" font-size="25" fill="#2A2C34"/><text text-anchor="middle" pointer-events="none" x="0" y="5" font-size="10px" fill="#2A2C34" font-family="sans-serif"> 1747</text></g><g class="node" transform="translate(279.03556674874136,2.0408998027476457)"><circle class="outline" cx="0" cy="0" r="25" fill="#FFC454" stroke="#d7a013" stroke-width="2px"/><text text-anchor="middle" pointer-events="none" font-family="sans-serif" dy="1.5625" font-size="25" fill="#2A2C34"/><text text-anchor="middle" pointer-events="none" x="0" y="5" font-size="10px" fill="#2A2C34" font-family="sans-serif"> 81</text></g><g class="node" transform="translate(199.41137440532898,-20.9322529499363)"><circle class="outline" cx="0" cy="0" r="25" fill="#FFC454" stroke="#d7a013" stroke-width="2px"/><text text-anchor="middle" pointer-events="none" font-family="sans-serif" dy="1.5625" font-size="25" fill="#2A2C34"/><text text-anchor="middle" pointer-events="none" x="0" y="5" font-size="10px" fill="#2A2C34" font-family="sans-serif"> 3361</text></g><g class="node" transform="translate(28.711892095281712,181.55816984544958)"><circle class="outline" cx="0" cy="0" r="25" fill="#FFC454" stroke="#d7a013" stroke-width="2px"/><text text-anchor="middle" pointer-events="none" font-family="sans-serif" dy="1.5625" font-size="25" fill="#2A2C34"/><text text-anchor="middle" pointer-events="none" x="0" y="5" font-size="10px" fill="#2A2C34" font-family="sans-serif"> 209</text></g><g class="node" transform="translate(353.5287806719464,15.457928247467223)"><circle class="outline" cx="0" cy="0" r="25" fill="#FFC454" stroke="#d7a013" stroke-width="2px"/><text text-anchor="middle" pointer-events="none" font-family="sans-serif" dy="1.5625" font-size="25" fill="#2A2C34"/><text text-anchor="middle" pointer-events="none" x="0" y="5" font-size="10px" fill="#2A2C34" font-family="sans-serif"> 307</text></g><g class="node" transform="translate(117.39367000050169,-14.1782475533047)"><circle class="outline" cx="0" cy="0" r="25" fill="#FFC454" stroke="#d7a013" stroke-width="2px"/><text text-anchor="middle" pointer-events="none" font-family="sans-serif" dy="1.5625" font-size="25" fill="#2A2C34"/><text text-anchor="middle" pointer-events="none" x="0" y="5" font-size="10px" fill="#2A2C34" font-family="sans-serif"> 3319</text></g><g class="node" transform="translate(471.79638015293693,189.91263159256224)"><circle class="outline" cx="0" cy="0" r="25" fill="#FFC454" stroke="#d7a013" stroke-width="2px"/><text text-anchor="middle" pointer-events="none" font-family="sans-serif" dy="1.5625" font-size="25" fill="#2A2C34"/><text text-anchor="middle" pointer-events="none" x="0" y="5" font-size="10px" fill="#2A2C34" font-family="sans-serif"> 2044</text></g><g class="node" transform="translate(41.78558524757895,16.637952813352626)"><circle class="outline" cx="0" cy="0" r="25" fill="#FFC454" stroke="#d7a013" stroke-width="2px"/><text text-anchor="middle" pointer-events="none" font-family="sans-serif" dy="1.5625" font-size="25" fill="#2A2C34"/><text text-anchor="middle" pointer-events="none" x="0" y="5" font-size="10px" fill="#2A2C34" font-family="sans-serif"> 48</text></g><g class="node" transform="translate(160.81743900004682,282.71437062195594)"><circle class="outline" cx="0" cy="0" r="25" fill="#FFC454" stroke="#d7a013" stroke-width="2px"/><text text-anchor="middle" pointer-events="none" font-family="sans-serif" dy="1.5625" font-size="25" fill="#2A2C34"/><text text-anchor="middle" pointer-events="none" x="0" y="5" font-size="10px" fill="#2A2C34" font-family="sans-serif"> 160</text></g><g class="node" transform="translate(-18.322110128973925,111.6553327719212)"><circle class="outline" cx="0" cy="0" r="25" fill="#FFC454" stroke="#d7a013" stroke-width="2px"/><text text-anchor="middle" pointer-events="none" font-family="sans-serif" dy="1.5625" font-size="25" fill="#2A2C34"/><text text-anchor="middle" pointer-events="none" x="0" y="5" font-size="10px" fill="#2A2C34" font-family="sans-serif"> 651</text></g><g class="node" transform="translate(78.40514859132723,273.11630346071064)"><circle class="outline" cx="0" cy="0" r="25" fill="#FFC454" stroke="#d7a013" stroke-width="2px"/><text text-anchor="middle" pointer-events="none" font-family="sans-serif" dy="1.5625" font-size="25" fill="#2A2C34"/><text text-anchor="middle" pointer-events="none" x="0" y="5" font-size="10px" fill="#2A2C34" font-family="sans-serif"> 75</text></g><g class="node" transform="translate(-31.3542960714243,247.83055546532842)"><circle class="outline" cx="0" cy="0" r="25" fill="#FFC454" stroke="#d7a013" stroke-width="2px"/><text text-anchor="middle" pointer-events="none" font-family="sans-serif" dy="1.5625" font-size="25" fill="#2A2C34"/><text text-anchor="middle" pointer-events="none" x="0" y="5" font-size="10px" fill="#2A2C34" font-family="sans-serif"> 1885</text></g><g class="node" transform="translate(-30.457611648193563,38.01507384892275)"><circle class="outline" cx="0" cy="0" r="25" fill="#FFC454" stroke="#d7a013" stroke-width="2px"/><text text-anchor="middle" pointer-events="none" font-family="sans-serif" dy="1.5625" font-size="25" fill="#2A2C34"/><text text-anchor="middle" pointer-events="none" x="0" y="5" font-size="10px" fill="#2A2C34" font-family="sans-serif"> 498</text></g><g class="node" transform="translate(-134.08496944083328,163.1030501507593)"><circle class="outline" cx="0" cy="0" r="25" fill="#FFC454" stroke="#d7a013" stroke-width="2px"/><text text-anchor="middle" pointer-events="none" font-family="sans-serif" dy="1.5625" font-size="25" fill="#2A2C34"/><text text-anchor="middle" pointer-events="none" x="0" y="5" font-size="10px" fill="#2A2C34" font-family="sans-serif"> 107</text></g></g></svg>