<svg xmlns="http://www.w3.org/2000/svg" xmlns:xlink="http://www.w3.org/1999/xlink" width="1022" height="561" viewbox="0 0 1022 561"><path transform="translate(385.03923493407353 458.18376618407353) scale(1) translate(0 0) rotate(0)" d="M 58.695178092152055 -5.989663490593892 L 95.96898050729241 -9.793341079425122 A 40 40 0 0 1 100.0297693144747 -10 L 118 -10 L 226 -10 A 10 10 0 0 1 236 -1.7763568394002505e-15 L 236 0 L 236 1.7763568394002505e-15 A 10 10 0 0 1 226 10 L 118 10 L 100.0297693144747 10 A 40 40 0 0 0 95.96898050729241 9.793341079425122 L 83.42887907965451 8.513662064369711 L 83.42887907965451 8.513662064369711" fill="none" stroke="#000000" stroke-width="5"></path><polygon transform="translate(385.03923493407353 458.18376618407353) scale(1) translate(0 0) rotate(0) rotate(185.8266894420084) translate(-59 0)" points="-24.8621506177483,0 -27.62461179749811,9.20820393249937 0,0 -27.62461179749811,-9.20820393249937" fill="#000000" stroke="none" stroke-width="5"></polygon><rect transform="translate(385.03923493407353 458.18376618407353) scale(1) translate(226 0) rotate(270) translate(0 -25) translate(-102.79296875 0)" x="0" y="0" width="205.5859375" height="50" rx="5" ry="5" fill="#ffffff" stroke="none"></rect><text xml:space="preserve" transform="translate(385.03923493407353 458.18376618407353) scale(1) translate(226 0) rotate(270) translate(0 -25) translate(-102.79296875 0)" x="5" y="36.5" font-family="sans-serif" font-size="40" font-weight="normal" text-anchor="left" fill="#000000">FOLLOWS</text><path transform="translate(385.03923493407353 458.18376618407353) scale(1) translate(0 0) rotate(-43.06607208661705)" d="M 59 0 L 460.92037479950477 0" fill="none" stroke="#d33115" stroke-width="5"></path><polygon transform="translate(385.03923493407353 458.18376618407353) scale(1) translate(0 0) rotate(-43.06607208661705) translate(485.78252541725305 0) rotate(0)" points="-24.8621506177483,0 -27.62461179749811,9.20820393249937 0,0 -27.62461179749811,-9.20820393249937" fill="undefined" stroke="none" stroke-width="5"></polygon><rect transform="translate(385.03923493407353 458.18376618407353) scale(1) translate(189.91826969093302 -177.51154855534446) rotate(-43.06607208661705) translate(0 -25) translate(-159.443359375 0)" x="0" y="0" width="318.88671875" height="50" rx="5" ry="5" fill="#ffffff" stroke="none"></rect><text xml:space="preserve" transform="translate(385.03923493407353 458.18376618407353) scale(1) translate(189.91826969093302 -177.51154855534446) rotate(-43.06607208661705) translate(0 -25) translate(-159.443359375 0)" x="5" y="36.5" font-family="sans-serif" font-size="40" font-weight="normal" text-anchor="left" fill="#d33115">IN_COMMUNITY</text><circle transform="translate(385.03923493407353 458.18376618407353) scale(1)" cx="0" cy="0" r="52" fill="#ffffff" stroke="#000000" strokewidth="4"></circle><circle transform="translate(385.03923493407353 458.18376618407353) scale(1)" cx="0" cy="0" r="52" fill="#ffffff" stroke="#000000" strokewidth="4"></circle><rect transform="translate(385.03923493407353 458.18376618407353) scale(1) translate(0 0) scale(0.6728971128309529) translate(0 -27) translate(-69.2265625 0)" x="0" y="0" width="138.453125" height="54" rx="27" ry="27" fill="#ffffff" stroke="#000000"></rect><text xml:space="preserve" transform="translate(385.03923493407353 458.18376618407353) scale(1) translate(0 0) scale(0.6728971128309529) translate(0 -27) translate(-69.2265625 0)" x="27" y="38.5" font-family="sans-serif" font-size="40" font-weight="normal" text-anchor="undefined" fill="#000000">User</text><rect transform="translate(385.03923493407353 458.18376618407353) scale(1) translate(0 0) translate(-38.18376618407356 -278.1837661840736) translate(-346.85546875 0)" x="0" y="0" width="346.85546875" height="240" rx="0" ry="0" fill="white" stroke="none"></rect><text xml:space="preserve" transform="translate(385.03923493407353 458.18376618407353) scale(1) translate(0 0) translate(-38.18376618407356 -278.1837661840736) translate(-346.85546875 0)" x="200.09765625" y="35.5" font-family="sans-serif" font-size="40" font-weight="normal" text-anchor="end" fill="#000000">id:</text><text xml:space="preserve" transform="translate(385.03923493407353 458.18376618407353) scale(1) translate(0 0) translate(-38.18376618407356 -278.1837661840736) translate(-346.85546875 0)" x="211.2109375" y="35.5" font-family="sans-serif" font-size="40" font-weight="normal" text-anchor="start" fill="#000000">Integer</text><text xml:space="preserve" transform="translate(385.03923493407353 458.18376618407353) scale(1) translate(0 0) translate(-38.18376618407356 -278.1837661840736) translate(-346.85546875 0)" x="200.09765625" y="83.5" font-family="sans-serif" font-size="40" font-weight="normal" text-anchor="end" fill="#000000">followers:</text><text xml:space="preserve" transform="translate(385.03923493407353 458.18376618407353) scale(1) translate(0 0) translate(-38.18376618407356 -278.1837661840736) translate(-346.85546875 0)" x="211.2109375" y="83.5" font-family="sans-serif" font-size="40" font-weight="normal" text-anchor="start" fill="#000000">Integer</text><text xml:space="preserve" transform="translate(385.03923493407353 458.18376618407353) scale(1) translate(0 0) translate(-38.18376618407356 -278.1837661840736) translate(-346.85546875 0)" x="200.09765625" y="131.5" font-family="sans-serif" font-size="40" font-weight="normal" text-anchor="end" fill="#000000">following:</text><text xml:space="preserve" transform="translate(385.03923493407353 458.18376618407353) scale(1) translate(0 0) translate(-38.18376618407356 -278.1837661840736) translate(-346.85546875 0)" x="211.2109375" y="131.5" font-family="sans-serif" font-size="40" font-weight="normal" text-anchor="start" fill="#000000">Integer</text><text xml:space="preserve" transform="translate(385.03923493407353 458.18376618407353) scale(1) translate(0 0) translate(-38.18376618407356 -278.1837661840736) translate(-346.85546875 0)" x="200.09765625" y="179.5" font-family="sans-serif" font-size="40" font-weight="normal" text-anchor="end" fill="#000000">username:</text><text xml:space="preserve" transform="translate(385.03923493407353 458.18376618407353) scale(1) translate(0 0) translate(-38.18376618407356 -278.1837661840736) translate(-346.85546875 0)" x="211.2109375" y="179.5" font-family="sans-serif" font-size="40" font-weight="normal" text-anchor="start" fill="#000000">String</text><text xml:space="preserve" transform="translate(385.03923493407353 458.18376618407353) scale(1) translate(0 0) translate(-38.18376618407356 -278.1837661840736) translate(-346.85546875 0)" x="200.09765625" y="227.5" font-family="sans-serif" font-size="40" font-weight="normal" text-anchor="end" fill="#000000">bio:</text><text xml:space="preserve" transform="translate(385.03923493407353 458.18376618407353) scale(1) translate(0 0) translate(-38.18376618407356 -278.1837661840736) translate(-346.85546875 0)" x="211.2109375" y="227.5" font-family="sans-serif" font-size="40" font-weight="normal" text-anchor="start" fill="#000000">String</text><circle transform="translate(385.03923493407353 458.18376618407353) scale(1)" cx="398" cy="-372" r="52" fill="#ffffff" stroke="#d33115" strokewidth="4"></circle><rect transform="translate(385.03923493407353 458.18376618407353) scale(1) translate(398 -372) scale(0.3818349758862996) translate(0 -27) translate(-128.1328125 0)" x="0" y="0" width="256.265625" height="54" rx="27" ry="27" fill="#ffffff" stroke="#d33115"></rect><text xml:space="preserve" transform="translate(385.03923493407353 458.18376618407353) scale(1) translate(398 -372) scale(0.3818349758862996) translate(0 -27) translate(-128.1328125 0)" x="27" y="38.5" font-family="sans-serif" font-size="40" font-weight="normal" text-anchor="undefined" fill="#d33115">Community</text><rect transform="translate(385.03923493407353 458.18376618407353) scale(1) translate(398 -372) translate(38.18376618407357 -86.18376618407356) translate(0 0)" x="0" y="0" width="200.1171875" height="48" rx="0" ry="0" fill="white" stroke="none"></rect><text xml:space="preserve" transform="translate(385.03923493407353 458.18376618407353) scale(1) translate(398 -372) translate(38.18376618407357 -86.18376618407356) translate(0 0)" x="53.359375" y="35.5" font-family="sans-serif" font-size="40" font-weight="normal" text-anchor="end" fill="#d33115">id:</text><text xml:space="preserve" transform="translate(385.03923493407353 458.18376618407353) scale(1) translate(398 -372) translate(38.18376618407357 -86.18376618407356) translate(0 0)" x="64.47265625" y="35.5" font-family="sans-serif" font-size="40" font-weight="normal" text-anchor="start" fill="#d33115">Integer</text></svg>