<svg xmlns="http://www.w3.org/2000/svg" width="1012.8992309570312" height="721.3458251953125" viewBox="-540.1272583007812 -371.56158447265625 1012.8992309570312 721.3458251953125"><title>Neo4j Graph Visualization</title><desc>Created using Neo4j (http://www.neo4j.com/)</desc><g class="layer relationships"><g class="relationship" transform="translate(236.75263280134214 35.56809306537639) rotate(329.1929977398278)"><path class="outline" fill="#A5ABB6" stroke="none" d="M 32.5 0.5 L 55.25528346594291 0.5 L 55.25528346594291 -0.5 L 32.5 -0.5 Z M 100.37247096594291 0.5 L 123.12775443188582 0.5 L 123.12775443188582 3.5 L 130.12775443188582 0 L 123.12775443188582 -3.5 L 123.12775443188582 -0.5 L 100.37247096594291 -0.5 Z"/><text text-anchor="middle" pointer-events="none" font-size="8px" fill="#000000" x="77.81387721594291" y="3" font-family="sans-serif">FOLLOWS</text></g><g class="relationship" transform="translate(236.75263280134214 35.56809306537639) rotate(374.47977850861446)"><path class="outline" fill="#A5ABB6" stroke="none" d="M 32.5 0.5 L 76.97383701177306 0.5 L 76.97383701177306 -0.5 L 32.5 -0.5 Z M 122.09102451177306 0.5 L 166.5648615235461 0.5 L 166.5648615235461 3.5 L 173.5648615235461 0 L 166.5648615235461 -3.5 L 166.5648615235461 -0.5 L 122.09102451177306 -0.5 Z"/><text text-anchor="middle" pointer-events="none" font-size="8px" fill="#000000" x="99.53243076177306" y="3" font-family="sans-serif">FOLLOWS</text></g><g class="relationship" transform="translate(236.75263280134214 35.56809306537639) rotate(353.3161645371348)"><path class="outline" fill="#A5ABB6" stroke="none" d="M 32.5 0.5 L 65.44505479502702 0.5 L 65.44505479502702 -0.5 L 32.5 -0.5 Z M 110.56224229502702 0.5 L 143.50729709005404 0.5 L 143.50729709005404 3.5 L 150.50729709005404 0 L 143.50729709005404 -3.5 L 143.50729709005404 -0.5 L 110.56224229502702 -0.5 Z"/><text text-anchor="middle" pointer-events="none" font-size="8px" fill="#000000" x="88.00364854502702" y="3" font-family="sans-serif">FOLLOWS</text></g><g class="relationship" transform="translate(236.75263280134214 35.56809306537639) rotate(373.4604318670078)"><path class="outline" fill="#A5ABB6" stroke="none" d="M 32.5 0.5 L 39.56892524117288 0.5 L 39.56892524117288 -0.5 L 32.5 -0.5 Z M 84.68611274117288 0.5 L 91.75503798234575 0.5 L 91.75503798234575 3.5 L 98.75503798234575 0 L 91.75503798234575 -3.5 L 91.75503798234575 -0.5 L 84.68611274117288 -0.5 Z"/><text text-anchor="middle" pointer-events="none" font-size="8px" fill="#000000" x="62.12751899117288" y="3" font-family="sans-serif">FOLLOWS</text></g><g class="relationship" transform="translate(236.75263280134214 35.56809306537639) rotate(416.9524247496931)"><path class="outline" fill="#A5ABB6" stroke="none" d="M 32.5 0.5 L 77.8686504975873 0.5 L 77.8686504975873 -0.5 L 32.5 -0.5 Z M 122.9858379975873 0.5 L 168.3544884951746 0.5 L 168.3544884951746 3.5 L 175.3544884951746 0 L 168.3544884951746 -3.5 L 168.3544884951746 -0.5 L 122.9858379975873 -0.5 Z"/><text text-anchor="middle" pointer-events="none" font-size="8px" fill="#000000" x="100.4272442475873" y="3" font-family="sans-serif">FOLLOWS</text></g><g class="relationship" transform="translate(236.75263280134214 35.56809306537639) rotate(412.4894774856915)"><path class="outline" fill="#A5ABB6" stroke="none" d="M 32.5 0.5 L 40.99234102629529 0.5 L 40.99234102629529 -0.5 L 32.5 -0.5 Z M 86.10952852629529 0.5 L 94.60186955259059 0.5 L 94.60186955259059 3.5 L 101.60186955259059 0 L 94.60186955259059 -3.5 L 94.60186955259059 -0.5 L 86.10952852629529 -0.5 Z"/><text text-anchor="middle" pointer-events="none" font-size="8px" fill="#000000" x="63.55093477629529" y="3" font-family="sans-serif">FOLLOWS</text></g><g class="relationship" transform="translate(236.75263280134214 35.56809306537639) rotate(291.0783577538665)"><path class="outline" fill="#A5ABB6" stroke="none" d="M 32.5 0.5 L 58.18263094531744 0.5 L 58.18263094531744 -0.5 L 32.5 -0.5 Z M 103.29981844531744 0.5 L 128.98244939063488 0.5 L 128.98244939063488 3.5 L 135.98244939063488 0 L 128.98244939063488 -3.5 L 128.98244939063488 -0.5 L 103.29981844531744 -0.5 Z"/><text text-anchor="middle" pointer-events="none" font-size="8px" fill="#000000" x="80.74122469531744" y="3" font-family="sans-serif">FOLLOWS</text></g><g class="relationship" transform="translate(236.75263280134214 35.56809306537639) rotate(395.8097064280298)"><path class="outline" fill="#A5ABB6" stroke="none" d="M 32.5 0.5 L 70.30315532783872 0.5 L 70.30315532783872 -0.5 L 32.5 -0.5 Z M 115.42034282783872 0.5 L 153.22349815567745 0.5 L 153.22349815567745 3.5 L 160.22349815567745 0 L 153.22349815567745 -3.5 L 153.22349815567745 -0.5 L 115.42034282783872 -0.5 Z"/><text text-anchor="middle" pointer-events="none" font-size="8px" fill="#000000" x="92.86174907783872" y="3" font-family="sans-serif">FOLLOWS</text></g><g class="relationship" transform="translate(236.75263280134214 35.56809306537639) rotate(243.34284610135052)"><path class="outline" fill="#A5ABB6" stroke="none" d="M 32.5 0.5 L 43.04606113605628 0.5 L 43.04606113605628 -0.5 L 32.5 -0.5 Z M 88.16324863605628 0.5 L 98.70930977211256 0.5 L 98.70930977211256 3.5 L 105.70930977211256 0 L 98.70930977211256 -3.5 L 98.70930977211256 -0.5 L 88.16324863605628 -0.5 Z"/><text text-anchor="middle" pointer-events="none" font-size="8px" fill="#000000" x="65.60465488605628" y="3" transform="rotate(180 65.60465488605628 0)" font-family="sans-serif">FOLLOWS</text></g><g class="relationship" transform="translate(236.75263280134214 35.56809306537639) rotate(437.2572528646519)"><path class="outline" fill="#A5ABB6" stroke="none" d="M 32.5 0.5 L 61.23859011986778 0.5 L 61.23859011986778 -0.5 L 32.5 -0.5 Z M 106.35577761986778 0.5 L 135.09436773973556 0.5 L 135.09436773973556 3.5 L 142.09436773973556 0 L 135.09436773973556 -3.5 L 135.09436773973556 -0.5 L 106.35577761986778 -0.5 Z"/><text text-anchor="middle" pointer-events="none" font-size="8px" fill="#000000" x="83.79718386986778" y="3" font-family="sans-serif">FOLLOWS</text></g><g class="relationship" transform="translate(151.75377583511815 -200.66346844331667) rotate(510.164480957995)"><path class="outline" fill="#A5ABB6" stroke="none" d="M 32.5 0.5 L 126.07918115517191 0.5 L 126.07918115517191 -0.5 L 32.5 -0.5 Z M 171.1963686551719 0.5 L 264.7755498103438 0.5 L 264.7755498103438 3.5 L 271.7755498103438 0 L 264.7755498103438 -3.5 L 264.7755498103438 -0.5 L 171.1963686551719 -0.5 Z"/><text text-anchor="middle" pointer-events="none" font-size="8px" fill="#000000" x="148.6377749051719" y="3" transform="rotate(180 148.6377749051719 0)" font-family="sans-serif">FOLLOWS</text></g><g class="relationship" transform="translate(151.75377583511815 -200.66346844331667) rotate(358.69899388693625)"><path class="outline" fill="#A5ABB6" stroke="none" d="M 32.5 0.5 L 70.11328505035806 0.5 L 70.11328505035806 -0.5 L 32.5 -0.5 Z M 115.23047255035806 0.5 L 152.84375760071612 0.5 L 152.84375760071612 3.5 L 159.84375760071612 0 L 152.84375760071612 -3.5 L 152.84375760071612 -0.5 L 115.23047255035806 -0.5 Z"/><text text-anchor="middle" pointer-events="none" font-size="8px" fill="#000000" x="92.67187880035806" y="3" font-family="sans-serif">FOLLOWS</text></g><g class="relationship" transform="translate(-53.65826381127087 -178.1299037447002) rotate(377.69520008822155)"><path class="outline" fill="#A5ABB6" stroke="none" d="M 32.5 0.5 L 56.90565482475391 0.5 L 56.90565482475391 -0.5 L 32.5 -0.5 Z M 102.02284232475391 0.5 L 126.42849714950782 0.5 L 126.42849714950782 3.5 L 133.42849714950782 0 L 126.42849714950782 -3.5 L 126.42849714950782 -0.5 L 102.02284232475391 -0.5 Z"/><text text-anchor="middle" pointer-events="none" font-size="8px" fill="#000000" x="79.46424857475391" y="3" font-family="sans-serif">FOLLOWS</text></g><g class="relationship" transform="translate(-53.65826381127087 -178.1299037447002) rotate(315.64815470902766)"><path class="outline" fill="#A5ABB6" stroke="none" d="M 32.5 0.5 L 51.166440048919426 0.5 L 51.166440048919426 -0.5 L 32.5 -0.5 Z M 96.28362754891943 0.5 L 114.95006759783885 0.5 L 114.95006759783885 3.5 L 121.95006759783885 0 L 114.95006759783885 -3.5 L 114.95006759783885 -0.5 L 96.28362754891943 -0.5 Z"/><text text-anchor="middle" pointer-events="none" font-size="8px" fill="#000000" x="73.72503379891943" y="3" font-family="sans-serif">FOLLOWS</text></g><g class="relationship" transform="translate(-53.65826381127087 -178.1299037447002) rotate(339.0307529920632)"><path class="outline" fill="#A5ABB6" stroke="none" d="M 32.5 0.5 L 118.750490909799 0.5 L 118.750490909799 -0.5 L 32.5 -0.5 Z M 163.867678409799 0.5 L 250.118169319598 0.5 L 250.118169319598 3.5 L 257.118169319598 0 L 250.118169319598 -3.5 L 250.118169319598 -0.5 L 163.867678409799 -0.5 Z"/><text text-anchor="middle" pointer-events="none" font-size="8px" fill="#000000" x="141.309084659799" y="3" font-family="sans-serif">FOLLOWS</text></g><g class="relationship" transform="translate(-53.65826381127087 -178.1299037447002) rotate(262.02292810691694)"><path class="outline" fill="#A5ABB6" stroke="none" d="M 32.5 0.5 L 49.07686370513801 0.5 L 49.07686370513801 -0.5 L 32.5 -0.5 Z M 94.19405120513801 0.5 L 110.77091491027602 0.5 L 110.77091491027602 3.5 L 117.77091491027602 0 L 110.77091491027602 -3.5 L 110.77091491027602 -0.5 L 94.19405120513801 -0.5 Z"/><text text-anchor="middle" pointer-events="none" font-size="8px" fill="#000000" x="71.63545745513801" y="3" transform="rotate(180 71.63545745513801 0)" font-family="sans-serif">FOLLOWS</text></g><g class="relationship" transform="translate(-53.65826381127087 -178.1299037447002) rotate(409.6692594142359)"><path class="outline" fill="#A5ABB6" stroke="none" d="M 32.5 0.5 L 65.3151416560012 0.5 L 65.3151416560012 -0.5 L 32.5 -0.5 Z M 110.4323291560012 0.5 L 143.2474708120024 0.5 L 143.2474708120024 3.5 L 150.2474708120024 0 L 143.2474708120024 -3.5 L 143.2474708120024 -0.5 L 110.4323291560012 -0.5 Z"/><text text-anchor="middle" pointer-events="none" font-size="8px" fill="#000000" x="87.8737354060012" y="3" font-family="sans-serif">FOLLOWS</text></g><g class="relationship" transform="translate(-53.65826381127087 -178.1299037447002) rotate(288.8838490481271)"><path class="outline" fill="#A5ABB6" stroke="none" d="M 32.5 0.5 L 56.87079328974416 0.5 L 56.87079328974416 -0.5 L 32.5 -0.5 Z M 101.98798078974416 0.5 L 126.35877407948831 0.5 L 126.35877407948831 3.5 L 133.3587740794883 0 L 126.35877407948831 -3.5 L 126.35877407948831 -0.5 L 101.98798078974416 -0.5 Z"/><text text-anchor="middle" pointer-events="none" font-size="8px" fill="#000000" x="79.42938703974416" y="3" font-family="sans-serif">FOLLOWS</text></g><g class="relationship" transform="translate(-53.65826381127087 -178.1299037447002) rotate(492.0558453305698)"><path class="outline" fill="#A5ABB6" stroke="none" d="M 32.5 0.5 L 79.06879095800609 0.5 L 79.06879095800609 -0.5 L 32.5 -0.5 Z M 124.18597845800609 0.5 L 170.75476941601218 0.5 L 170.75476941601218 3.5 L 177.75476941601218 0 L 170.75476941601218 -3.5 L 170.75476941601218 -0.5 L 124.18597845800609 -0.5 Z"/><text text-anchor="middle" pointer-events="none" font-size="8px" fill="#000000" x="101.62738470800609" y="3" transform="rotate(180 101.62738470800609 0)" font-family="sans-serif">FOLLOWS</text></g><g class="relationship" transform="translate(-53.65826381127087 -178.1299037447002) rotate(225.2747279239934)"><path class="outline" fill="#A5ABB6" stroke="none" d="M 32.5 0.5 L 69.13016622893728 0.5 L 69.13016622893728 -0.5 L 32.5 -0.5 Z M 114.24735372893728 0.5 L 150.87751995787457 0.5 L 150.87751995787457 3.5 L 157.87751995787457 0 L 150.87751995787457 -3.5 L 150.87751995787457 -0.5 L 114.24735372893728 -0.5 Z"/><text text-anchor="middle" pointer-events="none" font-size="8px" fill="#000000" x="91.68875997893728" y="3" transform="rotate(180 91.68875997893728 0)" font-family="sans-serif">FOLLOWS</text></g><g class="relationship" transform="translate(-53.65826381127087 -178.1299037447002) rotate(526.6035232744994)"><path class="outline" fill="#A5ABB6" stroke="none" d="M 32.5 0.5 L 53.28233534579434 0.5 L 53.28233534579434 -0.5 L 32.5 -0.5 Z M 98.39952284579434 0.5 L 119.18185819158867 0.5 L 119.18185819158867 3.5 L 126.18185819158867 0 L 119.18185819158867 -3.5 L 119.18185819158867 -0.5 L 98.39952284579434 -0.5 Z"/><text text-anchor="middle" pointer-events="none" font-size="8px" fill="#000000" x="75.84092909579434" y="3" transform="rotate(180 75.84092909579434 0)" font-family="sans-serif">FOLLOWS</text></g><g class="relationship" transform="translate(-53.65826381127087 -178.1299037447002) rotate(197.0863030944132)"><path class="outline" fill="#A5ABB6" stroke="none" d="M 32.5 0.5 L 65.0909138307122 0.5 L 65.0909138307122 -0.5 L 32.5 -0.5 Z M 110.2081013307122 0.5 L 142.7990151614244 0.5 L 142.7990151614244 3.5 L 149.7990151614244 0 L 142.7990151614244 -3.5 L 142.7990151614244 -0.5 L 110.2081013307122 -0.5 Z"/><text text-anchor="middle" pointer-events="none" font-size="8px" fill="#000000" x="87.6495075807122" y="3" transform="rotate(180 87.6495075807122 0)" font-family="sans-serif">FOLLOWS</text></g><g class="relationship" transform="translate(-364.2117576964272 30.56027007022567) rotate(421.1428507334347)"><path class="outline" fill="#A5ABB6" stroke="none" d="M 32.5 0.5 L 44.65728646914519 0.5 L 44.65728646914519 -0.5 L 32.5 -0.5 Z M 89.77447396914519 0.5 L 101.93176043829038 0.5 L 101.93176043829038 3.5 L 108.93176043829038 0 L 101.93176043829038 -3.5 L 101.93176043829038 -0.5 L 89.77447396914519 -0.5 Z"/><text text-anchor="middle" pointer-events="none" font-size="8px" fill="#000000" x="67.21588021914519" y="3" font-family="sans-serif">FOLLOWS</text></g><g class="relationship" transform="translate(-364.2117576964272 30.56027007022567) rotate(219.96195445568105)"><path class="outline" fill="#A5ABB6" stroke="none" d="M 32.5 0.5 L 44.5408716624936 0.5 L 44.5408716624936 -0.5 L 32.5 -0.5 Z M 89.6580591624936 0.5 L 101.6989308249872 0.5 L 101.6989308249872 3.5 L 108.6989308249872 0 L 101.6989308249872 -3.5 L 101.6989308249872 -0.5 L 89.6580591624936 -0.5 Z"/><text text-anchor="middle" pointer-events="none" font-size="8px" fill="#000000" x="67.0994654124936" y="3" transform="rotate(180 67.0994654124936 0)" font-family="sans-serif">FOLLOWS</text></g><g class="relationship" transform="translate(-364.2117576964272 30.56027007022567) rotate(462.11476380906373)"><path class="outline" fill="#A5ABB6" stroke="none" d="M 32.5 0.5 L 34.57855293751035 0.5 L 34.57855293751035 -0.5 L 32.5 -0.5 Z M 74.80902168751035 0.5 L 76.8875746250207 0.5 L 76.8875746250207 3.5 L 83.8875746250207 0 L 76.8875746250207 -3.5 L 76.8875746250207 -0.5 L 74.80902168751035 -0.5 Z"/><text text-anchor="middle" pointer-events="none" font-size="8px" fill="#000000" x="54.69378731251035" y="3" transform="rotate(180 54.69378731251035 0)" font-family="sans-serif">FOLLO…</text></g><g class="relationship" transform="translate(-364.2117576964272 30.56027007022567) rotate(519.076774107549)"><path class="outline" fill="#A5ABB6" stroke="none" d="M 32.5 0.5 L 47.38994980231669 0.5 L 47.38994980231669 -0.5 L 32.5 -0.5 Z M 92.50713730231669 0.5 L 107.39708710463339 0.5 L 107.39708710463339 3.5 L 114.39708710463339 0 L 107.39708710463339 -3.5 L 107.39708710463339 -0.5 L 92.50713730231669 -0.5 Z"/><text text-anchor="middle" pointer-events="none" font-size="8px" fill="#000000" x="69.94854355231669" y="3" transform="rotate(180 69.94854355231669 0)" font-family="sans-serif">FOLLOWS</text></g><g class="relationship" transform="translate(-364.2117576964272 30.56027007022567) rotate(444.9845780296052)"><path class="outline" fill="#A5ABB6" stroke="none" d="M 32.5 0.5 L 62.870944316551984 0.5 L 62.870944316551984 -0.5 L 32.5 -0.5 Z M 107.98813181655198 0.5 L 138.35907613310397 0.5 L 138.35907613310397 3.5 L 145.35907613310397 0 L 138.35907613310397 -3.5 L 138.35907613310397 -0.5 L 107.98813181655198 -0.5 Z"/><text text-anchor="middle" pointer-events="none" font-size="8px" fill="#000000" x="85.42953806655198" y="3" font-family="sans-serif">FOLLOWS</text></g><g class="relationship" transform="translate(-364.2117576964272 30.56027007022567) rotate(250.806810785042)"><path class="outline" fill="#A5ABB6" stroke="none" d="M 32.5 0.5 L 44.54182610138709 0.5 L 44.54182610138709 -0.5 L 32.5 -0.5 Z M 89.65901360138709 0.5 L 101.70083970277418 0.5 L 101.70083970277418 3.5 L 108.70083970277418 0 L 101.70083970277418 -3.5 L 101.70083970277418 -0.5 L 89.65901360138709 -0.5 Z"/><text text-anchor="middle" pointer-events="none" font-size="8px" fill="#000000" x="67.10041985138709" y="3" transform="rotate(180 67.10041985138709 0)" font-family="sans-serif">FOLLOWS</text></g><g class="relationship" transform="translate(-364.2117576964272 30.56027007022567) rotate(308.00778958774276)"><path class="outline" fill="#A5ABB6" stroke="none" d="M 32.5 0.5 L 43.17921792487381 0.5 L 43.17921792487381 -0.5 L 32.5 -0.5 Z M 88.29640542487381 0.5 L 98.97562334974762 0.5 L 98.97562334974762 3.5 L 105.97562334974762 0 L 98.97562334974762 -3.5 L 98.97562334974762 -0.5 L 88.29640542487381 -0.5 Z"/><text text-anchor="middle" pointer-events="none" font-size="8px" fill="#000000" x="65.73781167487381" y="3" font-family="sans-serif">FOLLOWS</text></g><g class="relationship" transform="translate(-364.2117576964272 30.56027007022567) rotate(189.16214829106525)"><path class="outline" fill="#A5ABB6" stroke="none" d="M 32.5 0.5 L 44.55000807841104 0.5 L 44.55000807841104 -0.5 L 32.5 -0.5 Z M 89.66719557841104 0.5 L 101.71720365682208 0.5 L 101.71720365682208 3.5 L 108.71720365682208 0 L 101.71720365682208 -3.5 L 101.71720365682208 -0.5 L 89.66719557841104 -0.5 Z"/><text text-anchor="middle" pointer-events="none" font-size="8px" fill="#000000" x="67.10860182841104" y="3" transform="rotate(180 67.10860182841104 0)" font-family="sans-serif">FOLLOWS</text></g><g class="relationship" transform="translate(-364.2117576964272 30.56027007022567) rotate(490.9174750325762)"><path class="outline" fill="#A5ABB6" stroke="none" d="M 32.5 0.5 L 52.958759808170626 0.5 L 52.958759808170626 -0.5 L 32.5 -0.5 Z M 98.07594730817063 0.5 L 118.53470711634125 0.5 L 118.53470711634125 3.5 L 125.53470711634125 0 L 118.53470711634125 -3.5 L 118.53470711634125 -0.5 L 98.07594730817063 -0.5 Z"/><text text-anchor="middle" pointer-events="none" font-size="8px" fill="#000000" x="75.51735355817063" y="3" transform="rotate(180 75.51735355817063 0)" font-family="sans-serif">FOLLOWS</text></g><g class="relationship" transform="translate(-364.2117576964272 30.56027007022567) rotate(468.2515040836181)"><path class="outline" fill="#A5ABB6" stroke="none" d="M 32.5 0.5 L 68.7243595429893 0.5 L 68.7243595429893 -0.5 L 32.5 -0.5 Z M 113.8415470429893 0.5 L 150.0659065859786 0.5 L 150.0659065859786 3.5 L 157.0659065859786 0 L 150.0659065859786 -3.5 L 150.0659065859786 -0.5 L 113.8415470429893 -0.5 Z"/><text text-anchor="middle" pointer-events="none" font-size="8px" fill="#000000" x="91.2829532929893" y="3" transform="rotate(180 91.2829532929893 0)" font-family="sans-serif">FOLLOWS</text></g><g class="relationship" transform="translate(-228.5125787874503 264.33332783266457) rotate(293.5018255158503)"><path class="outline" fill="#A5ABB6" stroke="none" d="M 32.5 0.5 L 58.918967727120716 0.5 L 58.918967727120716 -0.5 L 32.5 -0.5 Z M 104.03615522712072 0.5 L 130.45512295424143 0.5 L 130.45512295424143 3.5 L 137.45512295424143 0 L 130.45512295424143 -3.5 L 130.45512295424143 -0.5 L 104.03615522712072 -0.5 Z"/><text text-anchor="middle" pointer-events="none" font-size="8px" fill="#000000" x="81.47756147712072" y="3" font-family="sans-serif">FOLLOWS</text></g><g class="relationship" transform="translate(-228.5125787874503 264.33332783266457) rotate(380.35707188750746)"><path class="outline" fill="#A5ABB6" stroke="none" d="M 32.5 0.5 L 44.29957522543104 0.5 L 44.29957522543104 -0.5 L 32.5 -0.5 Z M 89.41676272543104 0.5 L 101.21633795086208 0.5 L 101.21633795086208 3.5 L 108.21633795086208 0 L 101.21633795086208 -3.5 L 101.21633795086208 -0.5 L 89.41676272543104 -0.5 Z"/><text text-anchor="middle" pointer-events="none" font-size="8px" fill="#000000" x="66.85816897543104" y="3" font-family="sans-serif">FOLLOWS</text></g><g class="relationship" transform="translate(-5.513474539301114 21.80986197311364) rotate(481.9236357041904)"><path class="outline" fill="#A5ABB6" stroke="none" d="M 32.5 0.5 L 60.670931289334874 0.5 L 60.670931289334874 -0.5 L 32.5 -0.5 Z M 105.78811878933487 0.5 L 133.95905007866975 0.5 L 133.95905007866975 3.5 L 140.95905007866975 0 L 133.95905007866975 -3.5 L 133.95905007866975 -0.5 L 105.78811878933487 -0.5 Z"/><text text-anchor="middle" pointer-events="none" font-size="8px" fill="#000000" x="83.22952503933487" y="3" transform="rotate(180 83.22952503933487 0)" font-family="sans-serif">FOLLOWS</text></g><g class="relationship" transform="translate(-5.513474539301114 21.80986197311364) rotate(416.27110262204485)"><path class="outline" fill="#A5ABB6" stroke="none" d="M 32.5 0.5 L 122.71854026767949 0.5 L 122.71854026767949 -0.5 L 32.5 -0.5 Z M 167.8357277676795 0.5 L 258.054268035359 0.5 L 258.054268035359 3.5 L 265.054268035359 0 L 258.054268035359 -3.5 L 258.054268035359 -0.5 L 167.8357277676795 -0.5 Z"/><text text-anchor="middle" pointer-events="none" font-size="8px" fill="#000000" x="145.2771340176795" y="3" font-family="sans-serif">FOLLOWS</text></g><g class="relationship" transform="translate(-5.513474539301114 21.80986197311364) rotate(252.96765738139084)"><path class="outline" fill="#A5ABB6" stroke="none" d="M 32.5 0.5 L 32.86907675632172 0.5 L 32.86907675632172 -0.5 L 32.5 -0.5 Z M 77.98626425632172 0.5 L 78.35534101264344 0.5 L 78.35534101264344 3.5 L 85.35534101264344 0 L 78.35534101264344 -3.5 L 78.35534101264344 -0.5 L 77.98626425632172 -0.5 Z"/><text text-anchor="middle" pointer-events="none" font-size="8px" fill="#000000" x="55.42767050632172" y="3" transform="rotate(180 55.42767050632172 0)" font-family="sans-serif">FOLLOWS</text></g><g class="relationship" transform="translate(-5.513474539301114 21.80986197311364) rotate(413.5187375896911)"><path class="outline" fill="#A5ABB6" stroke="none" d="M 32.5 0.5 L 51.008909172434144 0.5 L 51.008909172434144 -0.5 L 32.5 -0.5 Z M 96.12609667243414 0.5 L 114.63500584486829 0.5 L 114.63500584486829 3.5 L 121.63500584486829 0 L 114.63500584486829 -3.5 L 114.63500584486829 -0.5 L 96.12609667243414 -0.5 Z"/><text text-anchor="middle" pointer-events="none" font-size="8px" fill="#000000" x="73.56750292243414" y="3" font-family="sans-serif">FOLLOWS</text></g><g class="relationship" transform="translate(-5.513474539301114 21.80986197311364) rotate(537.5425974224618)"><path class="outline" fill="#A5ABB6" stroke="none" d="M 32.5 0.5 L 35.273645939061105 0.5 L 35.273645939061105 -0.5 L 32.5 -0.5 Z M 80.39083343906111 0.5 L 83.16447937812221 0.5 L 83.16447937812221 3.5 L 90.16447937812221 0 L 83.16447937812221 -3.5 L 83.16447937812221 -0.5 L 80.39083343906111 -0.5 Z"/><text text-anchor="middle" pointer-events="none" font-size="8px" fill="#000000" x="57.832239689061105" y="3" transform="rotate(180 57.832239689061105 0)" font-family="sans-serif">FOLLOWS</text></g><g class="relationship" transform="translate(-5.513474539301114 21.80986197311364) rotate(450.3751177115857)"><path class="outline" fill="#A5ABB6" stroke="none" d="M 32.5 0.5 L 97.00101719417506 0.5 L 97.00101719417506 -0.5 L 32.5 -0.5 Z M 142.11820469417506 0.5 L 206.61922188835013 0.5 L 206.61922188835013 3.5 L 213.61922188835013 0 L 206.61922188835013 -3.5 L 206.61922188835013 -0.5 L 142.11820469417506 -0.5 Z"/><text text-anchor="middle" pointer-events="none" font-size="8px" fill="#000000" x="119.55961094417506" y="3" transform="rotate(180 119.55961094417506 0)" font-family="sans-serif">FOLLOWS</text></g><g class="relationship" transform="translate(-5.513474539301114 21.80986197311364) rotate(353.5072723664873)"><path class="outline" fill="#A5ABB6" stroke="none" d="M 32.5 0.5 L 52.79029164884365 0.5 L 52.79029164884365 -0.5 L 32.5 -0.5 Z M 97.90747914884365 0.5 L 118.1977707976873 0.5 L 118.1977707976873 3.5 L 125.1977707976873 0 L 118.1977707976873 -3.5 L 118.1977707976873 -0.5 L 97.90747914884365 -0.5 Z"/><text text-anchor="middle" pointer-events="none" font-size="8px" fill="#000000" x="75.34888539884365" y="3" font-family="sans-serif">FOLLOWS</text></g><g class="relationship" transform="translate(-5.513474539301114 21.80986197311364) rotate(440.85902472211745)"><path class="outline" fill="#A5ABB6" stroke="none" d="M 32.5 0.5 L 54.71583847422569 0.5 L 54.71583847422569 -0.5 L 32.5 -0.5 Z M 99.83302597422569 0.5 L 122.04886444845138 0.5 L 122.04886444845138 3.5 L 129.04886444845138 0 L 122.04886444845138 -3.5 L 122.04886444845138 -0.5 L 99.83302597422569 -0.5 Z"/><text text-anchor="middle" pointer-events="none" font-size="8px" fill="#000000" x="77.27443222422569" y="3" font-family="sans-serif">FOLLOWS</text></g><g class="relationship" transform="translate(-5.513474539301114 21.80986197311364) rotate(391.44340926054326)"><path class="outline" fill="#A5ABB6" stroke="none" d="M 32.5 0.5 L 82.27248343444252 0.5 L 82.27248343444252 -0.5 L 32.5 -0.5 Z M 127.38967093444252 0.5 L 177.16215436888504 0.5 L 177.16215436888504 3.5 L 184.16215436888504 0 L 177.16215436888504 -3.5 L 177.16215436888504 -0.5 L 127.38967093444252 -0.5 Z"/><text text-anchor="middle" pointer-events="none" font-size="8px" fill="#000000" x="104.83107718444252" y="3" font-family="sans-serif">FOLLOWS</text></g></g><g class="layer nodes"><g class="node" transform="translate(236.75263280134214,35.56809306537639)"><circle class="outline" cx="0" cy="0" r="32.5" fill="#4C8EDA" stroke="#2870c2" stroke-width="2px"/><text text-anchor="middle" pointer-events="none" font-family="sans-serif" dy="2.03125" font-size="32.5" fill="#FFFFFF"/><text text-anchor="middle" pointer-events="none" x="0" y="5" font-size="10px" fill="#FFFFFF" font-family="sans-serif"> webmink</text></g><g class="node" transform="translate(151.75377583511815,-200.66346844331667)"><circle class="outline" cx="0" cy="0" r="32.5" fill="#4C8EDA" stroke="#2870c2" stroke-width="2px"/><text text-anchor="middle" pointer-events="none" font-family="sans-serif" dy="2.03125" font-size="32.5" fill="#FFFFFF"/><text text-anchor="middle" pointer-events="none" x="0" y="5" font-size="10px" fill="#FFFFFF" font-family="sans-serif"> flablog</text></g><g class="node" transform="translate(-53.65826381127087,-178.1299037447002)"><circle class="outline" cx="0" cy="0" r="32.5" fill="#4C8EDA" stroke="#2870c2" stroke-width="2px"/><text text-anchor="middle" pointer-events="none" font-family="sans-serif" dy="2.03125" font-size="32.5" fill="#FFFFFF"/><text text-anchor="middle" pointer-events="none" x="0" y="5" font-size="10px" fill="#FFFFFF" font-family="sans-serif"> didierdaglin…</text></g><g class="node" transform="translate(-364.2117576964272,30.56027007022567)"><circle class="outline" cx="0" cy="0" r="32.5" fill="#4C8EDA" stroke="#2870c2" stroke-width="2px"/><text text-anchor="middle" pointer-events="none" font-family="sans-serif" dy="2.03125" font-size="32.5" fill="#FFFFFF"/><text text-anchor="middle" pointer-events="none" x="0" y="5" font-size="10px" fill="#FFFFFF" font-family="sans-serif"> shobeirf</text></g><g class="node" transform="translate(-228.5125787874503,264.33332783266457)"><circle class="outline" cx="0" cy="0" r="32.5" fill="#4C8EDA" stroke="#2870c2" stroke-width="2px"/><text text-anchor="middle" pointer-events="none" font-family="sans-serif" dy="2.03125" font-size="32.5" fill="#FFFFFF"/><text text-anchor="middle" pointer-events="none" x="0" y="5" font-size="10px" fill="#FFFFFF" font-family="sans-serif"> LitteraCaroli…</text></g><g class="node" transform="translate(-5.513474539301114,21.80986197311364)"><circle class="outline" cx="0" cy="0" r="32.5" fill="#4C8EDA" stroke="#2870c2" stroke-width="2px"/><text text-anchor="middle" pointer-events="none" font-family="sans-serif" dy="2.03125" font-size="32.5" fill="#FFFFFF"/><text text-anchor="middle" pointer-events="none" x="0" y="5" font-size="10px" fill="#FFFFFF" font-family="sans-serif"> mvriel</text></g><g class="node" transform="translate(376.43317401755377,-47.72135955081002)"><circle class="outline" cx="0" cy="0" r="32.5" fill="#4C8EDA" stroke="#2870c2" stroke-width="2px"/><text text-anchor="middle" pointer-events="none" font-family="sans-serif" dy="2.03125" font-size="32.5" fill="#FFFFFF"/><text text-anchor="middle" pointer-events="none" x="0" y="5" font-size="10px" fill="#FFFFFF" font-family="sans-serif"> nmcl</text></g><g class="node" transform="translate(436.27203916184374,87.09220043533736)"><circle class="outline" cx="0" cy="0" r="32.5" fill="#4C8EDA" stroke="#2870c2" stroke-width="2px"/><text text-anchor="middle" pointer-events="none" font-family="sans-serif" dy="2.03125" font-size="32.5" fill="#FFFFFF"/><text text-anchor="middle" pointer-events="none" x="0" y="5" font-size="10px" fill="#FFFFFF" font-family="sans-serif"> redmonk</text></g><g class="node" transform="translate(418.51612549523037,14.267775886373041)"><circle class="outline" cx="0" cy="0" r="32.5" fill="#4C8EDA" stroke="#2870c2" stroke-width="2px"/><text text-anchor="middle" pointer-events="none" font-family="sans-serif" dy="2.03125" font-size="32.5" fill="#FFFFFF"/><text text-anchor="middle" pointer-events="none" x="0" y="5" font-size="10px" fill="#FFFFFF" font-family="sans-serif"> tmarble</text></g><g class="node" transform="translate(364.40221361411324,66.12082639761441)"><circle class="outline" cx="0" cy="0" r="32.5" fill="#4C8EDA" stroke="#2870c2" stroke-width="2px"/><text text-anchor="middle" pointer-events="none" font-family="sans-serif" dy="2.03125" font-size="32.5" fill="#FFFFFF"/><text text-anchor="middle" pointer-events="none" x="0" y="5" font-size="10px" fill="#FFFFFF" font-family="sans-serif"> TheRegister</text></g><g class="node" transform="translate(350.1030086920781,209.79547516422883)"><circle class="outline" cx="0" cy="0" r="32.5" fill="#4C8EDA" stroke="#2870c2" stroke-width="2px"/><text text-anchor="middle" pointer-events="none" font-family="sans-serif" dy="2.03125" font-size="32.5" fill="#FFFFFF"/><text text-anchor="middle" pointer-events="none" x="0" y="5" font-size="10px" fill="#FFFFFF" font-family="sans-serif"> h_ingo</text></g><g class="node" transform="translate(318.40821598823334,141.9432647545855)"><circle class="outline" cx="0" cy="0" r="32.5" fill="#4C8EDA" stroke="#2870c2" stroke-width="2px"/><text text-anchor="middle" pointer-events="none" font-family="sans-serif" dy="2.03125" font-size="32.5" fill="#FFFFFF"/><text text-anchor="middle" pointer-events="none" x="0" y="5" font-size="10px" fill="#FFFFFF" font-family="sans-serif"> editingwhiz</text></g><g class="node" transform="translate(297.34639874405093,-121.64110285378118)"><circle class="outline" cx="0" cy="0" r="32.5" fill="#4C8EDA" stroke="#2870c2" stroke-width="2px"/><text text-anchor="middle" pointer-events="none" font-family="sans-serif" dy="2.03125" font-size="32.5" fill="#FFFFFF"/><text text-anchor="middle" pointer-events="none" x="0" y="5" font-size="10px" fill="#FFFFFF" font-family="sans-serif"> PeterZaitsev</text></g><g class="node" transform="translate(393.04458862837987,148.32966136380284)"><circle class="outline" cx="0" cy="0" r="32.5" fill="#4C8EDA" stroke="#2870c2" stroke-width="2px"/><text text-anchor="middle" pointer-events="none" font-family="sans-serif" dy="2.03125" font-size="32.5" fill="#FFFFFF"/><text text-anchor="middle" pointer-events="none" x="0" y="5" font-size="10px" fill="#FFFFFF" font-family="sans-serif"> newsycomb…</text></g><g class="node" transform="translate(174.74491471746342,-87.95055413298792)"><circle class="outline" cx="0" cy="0" r="32.5" fill="#4C8EDA" stroke="#2870c2" stroke-width="2px"/><text text-anchor="middle" pointer-events="none" font-family="sans-serif" dy="2.03125" font-size="32.5" fill="#FFFFFF"/><text text-anchor="middle" pointer-events="none" x="0" y="5" font-size="10px" fill="#FFFFFF" font-family="sans-serif"> myfear</text></g><g class="node" transform="translate(275.26360532104087,205.86224517291362)"><circle class="outline" cx="0" cy="0" r="32.5" fill="#4C8EDA" stroke="#2870c2" stroke-width="2px"/><text text-anchor="middle" pointer-events="none" font-family="sans-serif" dy="2.03125" font-size="32.5" fill="#FFFFFF"/><text text-anchor="middle" pointer-events="none" x="0" y="5" font-size="10px" fill="#FFFFFF" font-family="sans-serif"> WardCunni…</text></g><g class="node" transform="translate(-112.19224076714056,-49.28278760131764)"><circle class="outline" cx="0" cy="0" r="32.5" fill="#4C8EDA" stroke="#2870c2" stroke-width="2px"/><text text-anchor="middle" pointer-events="none" font-family="sans-serif" dy="2.03125" font-size="32.5" fill="#FFFFFF"/><text text-anchor="middle" pointer-events="none" x="0" y="5" font-size="10px" fill="#FFFFFF" font-family="sans-serif"> olesovhcom</text></g><g class="node" transform="translate(344.04794928845786,-205.0306121162384)"><circle class="outline" cx="0" cy="0" r="32.5" fill="#4C8EDA" stroke="#2870c2" stroke-width="2px"/><text text-anchor="middle" pointer-events="none" font-family="sans-serif" dy="2.03125" font-size="32.5" fill="#FFFFFF"/><text text-anchor="middle" pointer-events="none" x="0" y="5" font-size="10px" fill="#FFFFFF" font-family="sans-serif"> neo4j</text></g><g class="node" transform="translate(104.4196497337154,-127.69539754549103)"><circle class="outline" cx="0" cy="0" r="32.5" fill="#4C8EDA" stroke="#2870c2" stroke-width="2px"/><text text-anchor="middle" pointer-events="none" font-family="sans-serif" dy="2.03125" font-size="32.5" fill="#FFFFFF"/><text text-anchor="middle" pointer-events="none" x="0" y="5" font-size="10px" fill="#FFFFFF" font-family="sans-serif"> att_it_ude</text></g><g class="node" transform="translate(56.78287334920478,-286.1001709652549)"><circle class="outline" cx="0" cy="0" r="32.5" fill="#4C8EDA" stroke="#2870c2" stroke-width="2px"/><text text-anchor="middle" pointer-events="none" font-family="sans-serif" dy="2.03125" font-size="32.5" fill="#FFFFFF"/><text text-anchor="middle" pointer-events="none" x="0" y="5" font-size="10px" fill="#FFFFFF" font-family="sans-serif"> agir</text></g><g class="node" transform="translate(216.7792595483599,-281.7746332737241)"><circle class="outline" cx="0" cy="0" r="32.5" fill="#4C8EDA" stroke="#2870c2" stroke-width="2px"/><text text-anchor="middle" pointer-events="none" font-family="sans-serif" dy="2.03125" font-size="32.5" fill="#FFFFFF"/><text text-anchor="middle" pointer-events="none" x="0" y="5" font-size="10px" fill="#FFFFFF" font-family="sans-serif"> ipfconline1</text></g><g class="node" transform="translate(-74.51238251518161,-326.9467495688696)"><circle class="outline" cx="0" cy="0" r="32.5" fill="#4C8EDA" stroke="#2870c2" stroke-width="2px"/><text text-anchor="middle" pointer-events="none" font-family="sans-serif" dy="2.03125" font-size="32.5" fill="#FFFFFF"/><text text-anchor="middle" pointer-events="none" x="0" y="5" font-size="10px" fill="#FFFFFF" font-family="sans-serif"> xLontrax</text></g><g class="node" transform="translate(64.61569399865063,-38.81763223870334)"><circle class="outline" cx="0" cy="0" r="32.5" fill="#4C8EDA" stroke="#2870c2" stroke-width="2px"/><text text-anchor="middle" pointer-events="none" font-family="sans-serif" dy="2.03125" font-size="32.5" fill="#FFFFFF"/><text text-anchor="middle" pointer-events="none" x="0" y="5" font-size="10px" fill="#FFFFFF" font-family="sans-serif"> douglasalder</text></g><g class="node" transform="translate(0.022047157323625284,-335.061599566372)"><circle class="outline" cx="0" cy="0" r="32.5" fill="#4C8EDA" stroke="#2870c2" stroke-width="2px"/><text text-anchor="middle" pointer-events="none" font-family="sans-serif" dy="2.03125" font-size="32.5" fill="#FFFFFF"/><text text-anchor="middle" pointer-events="none" x="0" y="5" font-size="10px" fill="#FFFFFF" font-family="sans-serif"> tcolles73</text></g><g class="node" transform="translate(-194.49839257335617,-22.017360390683677)"><circle class="outline" cx="0" cy="0" r="32.5" fill="#4C8EDA" stroke="#2870c2" stroke-width="2px"/><text text-anchor="middle" pointer-events="none" font-family="sans-serif" dy="2.03125" font-size="32.5" fill="#FFFFFF"/><text text-anchor="middle" pointer-events="none" x="0" y="5" font-size="10px" fill="#FFFFFF" font-family="sans-serif"> JorisAarts</text></g><g class="node" transform="translate(-187.6284770340504,-313.39106622068186)"><circle class="outline" cx="0" cy="0" r="32.5" fill="#4C8EDA" stroke="#2870c2" stroke-width="2px"/><text text-anchor="middle" pointer-events="none" font-family="sans-serif" dy="2.03125" font-size="32.5" fill="#FFFFFF"/><text text-anchor="middle" pointer-events="none" x="0" y="5" font-size="10px" fill="#FFFFFF" font-family="sans-serif"> FileMaker</text></g><g class="node" transform="translate(-208.02240882323832,-141.36520799103255)"><circle class="outline" cx="0" cy="0" r="32.5" fill="#4C8EDA" stroke="#2870c2" stroke-width="2px"/><text text-anchor="middle" pointer-events="none" font-family="sans-serif" dy="2.03125" font-size="32.5" fill="#FFFFFF"/><text text-anchor="middle" pointer-events="none" x="0" y="5" font-size="10px" fill="#FFFFFF" font-family="sans-serif"> hedmanjoh…</text></g><g class="node" transform="translate(-227.9111983150133,-231.6915107562499)"><circle class="outline" cx="0" cy="0" r="32.5" fill="#4C8EDA" stroke="#2870c2" stroke-width="2px"/><text text-anchor="middle" pointer-events="none" font-family="sans-serif" dy="2.03125" font-size="32.5" fill="#FFFFFF"/><text text-anchor="middle" pointer-events="none" x="0" y="5" font-size="10px" fill="#FFFFFF" font-family="sans-serif"> ChrisSpalton</text></g><g class="node" transform="translate(-295.9529007132465,154.42984383240363)"><circle class="outline" cx="0" cy="0" r="32.5" fill="#4C8EDA" stroke="#2870c2" stroke-width="2px"/><text text-anchor="middle" pointer-events="none" font-family="sans-serif" dy="2.03125" font-size="32.5" fill="#FFFFFF"/><text text-anchor="middle" pointer-events="none" x="0" y="5" font-size="10px" fill="#FFFFFF" font-family="sans-serif"> rudyagovic</text></g><g class="node" transform="translate(-472.43665724822654,-60.12880966445054)"><circle class="outline" cx="0" cy="0" r="32.5" fill="#4C8EDA" stroke="#2870c2" stroke-width="2px"/><text text-anchor="middle" pointer-events="none" font-family="sans-serif" dy="2.03125" font-size="32.5" fill="#FFFFFF"/><text text-anchor="middle" pointer-events="none" x="0" y="5" font-size="10px" fill="#FFFFFF" font-family="sans-serif"> fennell_p</text></g><g class="node" transform="translate(-388.63807713924837,144.35579918087228)"><circle class="outline" cx="0" cy="0" r="32.5" fill="#4C8EDA" stroke="#2870c2" stroke-width="2px"/><text text-anchor="middle" pointer-events="none" font-family="sans-serif" dy="2.03125" font-size="32.5" fill="#FFFFFF"/><text text-anchor="middle" pointer-events="none" x="0" y="5" font-size="10px" fill="#FFFFFF" font-family="sans-serif"> PiratePeel</text></g><g class="node" transform="translate(-501.42241963157704,83.01966819052693)"><circle class="outline" cx="0" cy="0" r="32.5" fill="#4C8EDA" stroke="#2870c2" stroke-width="2px"/><text text-anchor="middle" pointer-events="none" font-family="sans-serif" dy="2.03125" font-size="32.5" fill="#FFFFFF"/><text text-anchor="middle" pointer-events="none" x="0" y="5" font-size="10px" fill="#FFFFFF" font-family="sans-serif"> Linkurious</text></g><g class="node" transform="translate(-348.6626272571416,207.73835987114705)"><circle class="outline" cx="0" cy="0" r="32.5" fill="#4C8EDA" stroke="#2870c2" stroke-width="2px"/><text text-anchor="middle" pointer-events="none" font-family="sans-serif" dy="2.03125" font-size="32.5" fill="#FFFFFF"/><text text-anchor="middle" pointer-events="none" x="0" y="5" font-size="10px" fill="#FFFFFF" font-family="sans-serif"> CamSeman…</text></g><g class="node" transform="translate(-410.63215302838734,-102.79198536624253)"><circle class="outline" cx="0" cy="0" r="32.5" fill="#4C8EDA" stroke="#2870c2" stroke-width="2px"/><text text-anchor="middle" pointer-events="none" font-family="sans-serif" dy="2.03125" font-size="32.5" fill="#FFFFFF"/><text text-anchor="middle" pointer-events="none" x="0" y="5" font-size="10px" fill="#FFFFFF" font-family="sans-serif"> rbukralia</text></g><g class="node" transform="translate(-278.94281658270955,-78.5484186005054)"><circle class="outline" cx="0" cy="0" r="32.5" fill="#4C8EDA" stroke="#2870c2" stroke-width="2px"/><text text-anchor="middle" pointer-events="none" font-family="sans-serif" dy="2.03125" font-size="32.5" fill="#FFFFFF"/><text text-anchor="middle" pointer-events="none" x="0" y="5" font-size="10px" fill="#FFFFFF" font-family="sans-serif"> peteaven</text></g><g class="node" transform="translate(-503.62726610110957,8.074393949507234)"><circle class="outline" cx="0" cy="0" r="32.5" fill="#4C8EDA" stroke="#2870c2" stroke-width="2px"/><text text-anchor="middle" pointer-events="none" font-family="sans-serif" dy="2.03125" font-size="32.5" fill="#FFFFFF"/><text text-anchor="middle" pointer-events="none" x="0" y="5" font-size="10px" fill="#FFFFFF" font-family="sans-serif"> Prof_David…</text></g><g class="node" transform="translate(-467.71995782042836,149.9797875723387)"><circle class="outline" cx="0" cy="0" r="32.5" fill="#4C8EDA" stroke="#2870c2" stroke-width="2px"/><text text-anchor="middle" pointer-events="none" font-family="sans-serif" dy="2.03125" font-size="32.5" fill="#FFFFFF"/><text text-anchor="middle" pointer-events="none" x="0" y="5" font-size="10px" fill="#FFFFFF" font-family="sans-serif"> permutans</text></g><g class="node" transform="translate(-423.5816645826774,210.58928744265359)"><circle class="outline" cx="0" cy="0" r="32.5" fill="#4C8EDA" stroke="#2870c2" stroke-width="2px"/><text text-anchor="middle" pointer-events="none" font-family="sans-serif" dy="2.03125" font-size="32.5" fill="#FFFFFF"/><text text-anchor="middle" pointer-events="none" x="0" y="5" font-size="10px" fill="#FFFFFF" font-family="sans-serif"> Octavian_ai</text></g><g class="node" transform="translate(-160.73816591847591,108.47642943334085)"><circle class="outline" cx="0" cy="0" r="32.5" fill="#4C8EDA" stroke="#2870c2" stroke-width="2px"/><text text-anchor="middle" pointer-events="none" font-family="sans-serif" dy="2.03125" font-size="32.5" fill="#FFFFFF"/><text text-anchor="middle" pointer-events="none" x="0" y="5" font-size="10px" fill="#FFFFFF" font-family="sans-serif"> ariciula</text></g><g class="node" transform="translate(-96.5849767143082,313.28427856430915)"><circle class="outline" cx="0" cy="0" r="32.5" fill="#4C8EDA" stroke="#2870c2" stroke-width="2px"/><text text-anchor="middle" pointer-events="none" font-family="sans-serif" dy="2.03125" font-size="32.5" fill="#FFFFFF"/><text text-anchor="middle" pointer-events="none" x="0" y="5" font-size="10px" fill="#FFFFFF" font-family="sans-serif"> ZfdG_MWW</text></g><g class="node" transform="translate(-97.23662687794523,169.03385926722444)"><circle class="outline" cx="0" cy="0" r="32.5" fill="#4C8EDA" stroke="#2870c2" stroke-width="2px"/><text text-anchor="middle" pointer-events="none" font-family="sans-serif" dy="2.03125" font-size="32.5" fill="#FFFFFF"/><text text-anchor="middle" pointer-events="none" x="0" y="5" font-size="10px" fill="#FFFFFF" font-family="sans-serif"> phpcodemo…</text></g><g class="node" transform="translate(159.7076856259668,269.27806328330445)"><circle class="outline" cx="0" cy="0" r="32.5" fill="#4C8EDA" stroke="#2870c2" stroke-width="2px"/><text text-anchor="middle" pointer-events="none" font-family="sans-serif" dy="2.03125" font-size="32.5" fill="#FFFFFF"/><text text-anchor="middle" pointer-events="none" x="0" y="5" font-size="10px" fill="#FFFFFF" font-family="sans-serif"> kellabyte</text></g><g class="node" transform="translate(-40.034656662974015,-90.8762924114898)"><circle class="outline" cx="0" cy="0" r="32.5" fill="#4C8EDA" stroke="#2870c2" stroke-width="2px"/><text text-anchor="middle" pointer-events="none" font-family="sans-serif" dy="2.03125" font-size="32.5" fill="#FFFFFF"/><text text-anchor="middle" pointer-events="none" x="0" y="5" font-size="10px" fill="#FFFFFF" font-family="sans-serif"> ziniman</text></g><g class="node" transform="translate(86.12901411621729,145.7423205940123)"><circle class="outline" cx="0" cy="0" r="32.5" fill="#4C8EDA" stroke="#2870c2" stroke-width="2px"/><text text-anchor="middle" pointer-events="none" font-family="sans-serif" dy="2.03125" font-size="32.5" fill="#FFFFFF"/><text text-anchor="middle" pointer-events="none" x="0" y="5" font-size="10px" fill="#FFFFFF" font-family="sans-serif"> lsmith</text></g><g class="node" transform="translate(-128.06514859207118,27.06929996299182)"><circle class="outline" cx="0" cy="0" r="32.5" fill="#4C8EDA" stroke="#2870c2" stroke-width="2px"/><text text-anchor="middle" pointer-events="none" font-family="sans-serif" dy="2.03125" font-size="32.5" fill="#FFFFFF"/><text text-anchor="middle" pointer-events="none" x="0" y="5" font-size="10px" fill="#FFFFFF" font-family="sans-serif"> cfowlerMSFT</text></g><g class="node" transform="translate(-7.124815209101289,267.923809087398)"><circle class="outline" cx="0" cy="0" r="32.5" fill="#4C8EDA" stroke="#2870c2" stroke-width="2px"/><text text-anchor="middle" pointer-events="none" font-family="sans-serif" dy="2.03125" font-size="32.5" fill="#FFFFFF"/><text text-anchor="middle" pointer-events="none" x="0" y="5" font-size="10px" fill="#FFFFFF" font-family="sans-serif"> shochdoerfer</text></g><g class="node" transform="translate(151.17285684885042,3.9778550562723183)"><circle class="outline" cx="0" cy="0" r="32.5" fill="#4C8EDA" stroke="#2870c2" stroke-width="2px"/><text text-anchor="middle" pointer-events="none" font-family="sans-serif" dy="2.03125" font-size="32.5" fill="#FFFFFF"/><text text-anchor="middle" pointer-events="none" x="0" y="5" font-size="10px" fill="#FFFFFF" font-family="sans-serif"> blongden</text></g><g class="node" transform="translate(20.150853212063673,181.30712804891397)"><circle class="outline" cx="0" cy="0" r="32.5" fill="#4C8EDA" stroke="#2870c2" stroke-width="2px"/><text text-anchor="middle" pointer-events="none" font-family="sans-serif" dy="2.03125" font-size="32.5" fill="#FFFFFF"/><text text-anchor="middle" pointer-events="none" x="0" y="5" font-size="10px" fill="#FFFFFF" font-family="sans-serif"> andigutmans</text></g><g class="node" transform="translate(179.33310288310093,134.8330098278363)"><circle class="outline" cx="0" cy="0" r="32.5" fill="#4C8EDA" stroke="#2870c2" stroke-width="2px"/><text text-anchor="middle" pointer-events="none" font-family="sans-serif" dy="2.03125" font-size="32.5" fill="#FFFFFF"/><text text-anchor="middle" pointer-events="none" x="0" y="5" font-size="10px" fill="#FFFFFF" font-family="sans-serif"> michellesan…</text></g></g></svg>