<svg xmlns="http://www.w3.org/2000/svg" width="769.48193359375" height="507.373779296875" viewBox="-281.845458984375 -193.7574920654297 769.48193359375 507.373779296875"><title>Neo4j Graph Visualization</title><desc>Created using Neo4j (http://www.neo4j.com/)</desc><g class="layer relationships"><g class="relationship" transform="translate(-12.673032356085258 54.447742305534796) rotate(375.151736201954)"><path class="outline" fill="#A5ABB6" stroke="none" d="M 40 0.5 L 204.5358017665046 0.5 L 204.5358017665046 -0.5 L 40 -0.5 Z M 261.2076767665046 0.5 L 425.7434785330092 0.5 L 425.7434785330092 3.5 L 432.7434785330092 0 L 425.7434785330092 -3.5 L 425.7434785330092 -0.5 L 261.2076767665046 -0.5 Z"/><text text-anchor="middle" pointer-events="none" font-size="8px" fill="#000000" x="232.8717392665046" y="3" font-family="sans-serif">MEMBER_OF</text></g><g class="relationship" transform="translate(-12.673032356085258 54.447742305534796) rotate(337.5835471606115)"><path class="outline" fill="#A5ABB6" stroke="none" d="M 40 0.5 L 210.14782046966536 0.5 L 210.14782046966536 -0.5 L 40 -0.5 Z M 266.81969546966536 0.5 L 436.9675159393307 0.5 L 436.9675159393307 3.5 L 443.9675159393307 0 L 436.9675159393307 -3.5 L 436.9675159393307 -0.5 L 266.81969546966536 -0.5 Z"/><text text-anchor="middle" pointer-events="none" font-size="8px" fill="#000000" x="238.48375796966536" y="3" font-family="sans-serif">MEMBER_OF</text></g><g class="relationship" transform="translate(-12.673032356085258 54.447742305534796) rotate(530.6799895823458)"><path class="outline" fill="#A5ABB6" stroke="none" d="M 40 0.5 L 82.25638857455394 0.5 L 82.25638857455394 -0.5 L 40 -0.5 Z M 138.92826357455394 0.5 L 181.18465214910788 0.5 L 181.18465214910788 3.5 L 188.18465214910788 0 L 181.18465214910788 -3.5 L 181.18465214910788 -0.5 L 138.92826357455394 -0.5 Z"/><text text-anchor="middle" pointer-events="none" font-size="8px" fill="#000000" x="110.59232607455394" y="3" transform="rotate(180 110.59232607455394 0)" font-family="sans-serif">MEMBER_OF</text></g><g class="relationship" transform="translate(-12.673032356085258 54.447742305534796) rotate(449.84993689904024)"><path class="outline" fill="#A5ABB6" stroke="none" d="M 40 0.5 L 69.524082497167 0.5 L 69.524082497167 -0.5 L 40 -0.5 Z M 138.645176247167 0.5 L 168.169258744334 0.5 L 168.169258744334 3.5 L 175.169258744334 0 L 168.169258744334 -3.5 L 168.169258744334 -0.5 L 138.645176247167 -0.5 Z"/><text text-anchor="middle" pointer-events="none" font-size="8px" fill="#000000" x="104.084629372167" y="3" font-family="sans-serif">INTERESTED_IN</text></g><g class="relationship" transform="translate(-237.84546830597787 91.4018972113214) rotate(398.29043633014976)"><path class="outline" fill="#A5ABB6" stroke="none" d="M 40 0.5 L 114.70328932764323 0.5 L 114.70328932764323 -0.5 L 40 -0.5 Z M 165.90250807764323 0.5 L 240.60579740528647 0.5 L 240.60579740528647 3.5 L 247.60579740528647 0 L 240.60579740528647 -3.5 L 240.60579740528647 -0.5 L 165.90250807764323 -0.5 Z"/><text text-anchor="middle" pointer-events="none" font-size="8px" fill="#000000" x="140.30289870264323" y="3" font-family="sans-serif">HAS_TOPIC</text></g><g class="relationship" transform="translate(434.7242374735979 -130.10642165028614) rotate(498.185236380851)"><path class="outline" fill="#A5ABB6" stroke="none" d="M 40 0.5 L 270.66638249153726 0.5 L 270.66638249153726 -0.5 L 40 -0.5 Z M 321.86560124153726 0.5 L 552.5319837330745 0.5 L 552.5319837330745 3.5 L 559.5319837330745 0 L 552.5319837330745 -3.5 L 552.5319837330745 -0.5 L 321.86560124153726 -0.5 Z"/><text text-anchor="middle" pointer-events="none" font-size="8px" fill="#000000" x="296.26599186653726" y="3" transform="rotate(180 296.26599186653726 0)" font-family="sans-serif">HAS_TOPIC</text></g><g class="relationship" transform="translate(443.6364695115799 178.0116326650285) rotate(528.6350230534147)"><path class="outline" fill="#A5ABB6" stroke="none" d="M 40 0.5 L 203.3309085541581 0.5 L 203.3309085541581 -0.5 L 40 -0.5 Z M 254.5301273041581 0.5 L 417.8610358583162 0.5 L 417.8610358583162 3.5 L 424.8610358583162 0 L 417.8610358583162 -3.5 L 417.8610358583162 -0.5 L 254.5301273041581 -0.5 Z"/><text text-anchor="middle" pointer-events="none" font-size="8px" fill="#000000" x="228.9305179291581" y="3" transform="rotate(180 228.9305179291581 0)" font-family="sans-serif">HAS_TOPIC</text></g><g class="relationship selected" transform="translate(-12.673032356085258 54.447742305534796) rotate(270.0374793031536)"><path class="outline" fill="#A5ABB6" stroke="none" d="M 40 0.5 L 64.04209068676427 0.5 L 64.04209068676427 -0.5 L 40 -0.5 Z M 133.16318443676425 0.5 L 157.20527512352854 0.5 L 157.20527512352854 3.5 L 164.20527512352854 0 L 157.20527512352854 -3.5 L 157.20527512352854 -0.5 L 133.16318443676425 -0.5 Z"/><text text-anchor="middle" pointer-events="none" font-size="8px" fill="#000000" x="98.60263756176427" y="3" font-family="sans-serif">INTERESTED_IN</text></g><g class="relationship" transform="translate(-237.84546830597787 91.4018972113214) rotate(313.0534851475991)"><path class="outline" fill="#A5ABB6" stroke="none" d="M 40 0.5 L 135.91603356657242 0.5 L 135.91603356657242 -0.5 L 40 -0.5 Z M 187.11525231657242 0.5 L 283.03128588314485 0.5 L 283.03128588314485 3.5 L 290.03128588314485 0 L 283.03128588314485 -3.5 L 283.03128588314485 -0.5 L 187.11525231657242 -0.5 Z"/><text text-anchor="middle" pointer-events="none" font-size="8px" fill="#000000" x="161.51564294157242" y="3" font-family="sans-serif">HAS_TOPIC</text></g><g class="relationship" transform="translate(434.7242374735979 -130.10642165028614) rotate(182.51574093406919)"><path class="outline" fill="#A5ABB6" stroke="none" d="M 40 0.5 L 194.74798065244357 0.5 L 194.74798065244357 -0.5 L 40 -0.5 Z M 245.94719940244357 0.5 L 400.69518005488715 0.5 L 400.69518005488715 3.5 L 407.69518005488715 0 L 400.69518005488715 -3.5 L 400.69518005488715 -0.5 L 245.94719940244357 -0.5 Z"/><text text-anchor="middle" pointer-events="none" font-size="8px" fill="#000000" x="220.34759002744357" y="3" transform="rotate(180 220.34759002744357 0)" font-family="sans-serif">HAS_TOPIC</text></g><g class="relationship" transform="translate(443.6364695115799 178.0116326650285) rotate(215.69780223097746)"><path class="outline" fill="#A5ABB6" stroke="none" d="M 40 0.5 L 251.76026248081132 0.5 L 251.76026248081132 -0.5 L 40 -0.5 Z M 302.9594812308113 0.5 L 514.7197437116226 0.5 L 514.7197437116226 3.5 L 521.7197437116226 0 L 514.7197437116226 -3.5 L 514.7197437116226 -0.5 L 302.9594812308113 -0.5 Z"/><text text-anchor="middle" pointer-events="none" font-size="8px" fill="#000000" x="277.3598718558113" y="3" transform="rotate(180 277.3598718558113 0)" font-family="sans-serif">HAS_TOPIC</text></g></g><g class="layer nodes"><g class="node" transform="translate(-12.673032356085258,54.447742305534796)"><circle class="outline" cx="0" cy="0" r="40" fill="#FF756E" stroke="#E06760" stroke-width="2px"/><text text-anchor="middle" pointer-events="none" font-family="sans-serif" dy="2.5" font-size="40" fill="#FFFFFF"/><text text-anchor="middle" pointer-events="none" y="5" font-size="10px" fill="#FFFFFF" font-family="sans-serif"> Mark</text></g><g class="node" transform="translate(443.6364695115799,178.0116326650285)"><circle class="outline" cx="0" cy="0" r="40" fill="#6DCE9E" stroke="#60B58B" stroke-width="2px"/><text text-anchor="middle" pointer-events="none" font-family="sans-serif" dy="2.5" font-size="40" fill="#FFFFFF"/><text text-anchor="middle" pointer-events="none" font-family="sans-serif" dy="2.5" font-size="40" fill="#FFFFFF"/><text text-anchor="middle" pointer-events="none" y="0" font-size="10px" fill="#FFFFFF" font-family="sans-serif"> Neo4j London</text><text text-anchor="middle" pointer-events="none" y="10" font-size="10px" fill="#FFFFFF" font-family="sans-serif"> Meetup</text></g><g class="node" transform="translate(434.7242374735979,-130.10642165028614)"><circle class="outline" cx="0" cy="0" r="40" fill="#6DCE9E" stroke="#60B58B" stroke-width="2px"/><text text-anchor="middle" pointer-events="none" font-family="sans-serif" dy="2.5" font-size="40" fill="#FFFFFF"/><text text-anchor="middle" pointer-events="none" y="5" font-size="10px" fill="#FFFFFF" font-family="sans-serif"> Big Data Meetup</text></g><g class="node" transform="translate(-237.84546830597787,91.4018972113214)"><circle class="outline" cx="0" cy="0" r="40" fill="#6DCE9E" stroke="#60B58B" stroke-width="2px"/><text text-anchor="middle" pointer-events="none" font-family="sans-serif" dy="2.5" font-size="40" fill="#FFFFFF"/><text text-anchor="middle" pointer-events="none" font-family="sans-serif" dy="2.5" font-size="40" fill="#FFFFFF"/><text text-anchor="middle" pointer-events="none" y="0" font-size="10px" fill="#FFFFFF" font-family="sans-serif"> Data Science</text><text text-anchor="middle" pointer-events="none" y="10" font-size="10px" fill="#FFFFFF" font-family="sans-serif"> Meetup</text></g><g class="node" transform="translate(-12.109484228150194,269.6162630563492)"><circle class="outline" cx="0" cy="0" r="40" fill="#68BDF6" stroke="#5CA8DB" stroke-width="2px"/><text text-anchor="middle" pointer-events="none" font-family="sans-serif" dy="2.5" font-size="40" fill="#FFFFFF"/><text text-anchor="middle" pointer-events="none" y="5" font-size="10px" fill="#FFFFFF" font-family="sans-serif"> Data Science</text></g><g class="node" transform="translate(-12.539454090266219,-149.75748912873303)"><circle class="outline" cx="0" cy="0" r="40" fill="#68BDF6" stroke="#5CA8DB" stroke-width="2px"/><text text-anchor="middle" pointer-events="none" font-family="sans-serif" dy="2.5" font-size="40" fill="#FFFFFF"/><text text-anchor="middle" pointer-events="none" y="5" font-size="10px" fill="#FFFFFF" font-family="sans-serif"> Databases</text></g></g></svg>