<svg xmlns="http://www.w3.org/2000/svg" width="611.934326171875" height="477.7686767578125" viewBox="-242.5690460205078 -219.7546844482422 611.934326171875 477.7686767578125"><title>Neo4j Graph Visualization</title><desc>Created using Neo4j (http://www.neo4j.com/)</desc><g class="layer relationships"><g class="relationship" transform="translate(151.99062259156418 44.44764702881157) rotate(370.0167415318188)"><path class="outline" fill="#A5ABB6" stroke="none" d="M 40 0.5 L 56.19323029737379 0.5 L 56.19323029737379 -0.5 L 40 -0.5 Z M 112.86510529737379 0.5 L 129.05833559474758 0.5 L 129.05833559474758 3.5 L 136.05833559474758 0 L 129.05833559474758 -3.5 L 129.05833559474758 -0.5 L 112.86510529737379 -0.5 Z"/><text text-anchor="middle" pointer-events="none" font-size="8px" fill="#000000" x="84.52916779737379" y="3" font-family="sans-serif">MEMBER_OF</text></g><g class="relationship" transform="translate(151.99062259156418 44.44764702881157) rotate(204.3739017944364)"><path class="outline" fill="#A5ABB6" stroke="none" d="M 40 0.5 L 56.86601932756015 0.5 L 56.86601932756015 -0.5 L 40 -0.5 Z M 113.53789432756015 0.5 L 130.4039136551203 0.5 L 130.4039136551203 3.5 L 137.4039136551203 0 L 130.4039136551203 -3.5 L 130.4039136551203 -0.5 L 113.53789432756015 -0.5 Z"/><text text-anchor="middle" pointer-events="none" font-size="8px" fill="#000000" x="85.20195682756015" y="3" transform="rotate(180 85.20195682756015 0)" font-family="sans-serif">MEMBER_OF</text></g><g class="relationship" transform="translate(-198.56904664902254 -52.7806220730121) rotate(407.88670402606)"><path class="outline" fill="#A5ABB6" stroke="none" d="M 40 0.5 L 150.72468329018417 0.5 L 150.72468329018417 -0.5 L 40 -0.5 Z M 201.92390204018417 0.5 L 312.64858533036835 0.5 L 312.64858533036835 3.5 L 319.64858533036835 0 L 312.64858533036835 -3.5 L 312.64858533036835 -0.5 L 201.92390204018417 -0.5 Z"/><text text-anchor="middle" pointer-events="none" font-size="8px" fill="#000000" x="176.32429266518417" y="3" font-family="sans-serif">HAS_TOPIC</text></g><g class="relationship" transform="translate(-9.601588076871224 -28.765097978061235) rotate(437.86274904009304)"><path class="outline" fill="#A5ABB6" stroke="none" d="M 40 0.5 L 95.06542146815947 0.5 L 95.06542146815947 -0.5 L 40 -0.5 Z M 146.26464021815946 0.5 L 201.33006168631894 0.5 L 201.33006168631894 3.5 L 208.33006168631894 0 L 201.33006168631894 -3.5 L 201.33006168631894 -0.5 L 146.26464021815946 -0.5 Z"/><text text-anchor="middle" pointer-events="none" font-size="8px" fill="#000000" x="120.66503084315947" y="3" font-family="sans-serif">HAS_TOPIC</text></g><g class="relationship" transform="translate(325.36529602413873 75.07051666150417) rotate(513.8308359575872)"><path class="outline" fill="#A5ABB6" stroke="none" d="M 40 0.5 L 128.4244828538396 0.5 L 128.4244828538396 -0.5 L 40 -0.5 Z M 179.6237016038396 0.5 L 268.0481844576792 0.5 L 268.0481844576792 3.5 L 275.0481844576792 0 L 268.0481844576792 -3.5 L 268.0481844576792 -0.5 L 179.6237016038396 -0.5 Z"/><text text-anchor="middle" pointer-events="none" font-size="8px" fill="#000000" x="154.0240922288396" y="3" transform="rotate(180 154.0240922288396 0)" font-family="sans-serif">HAS_TOPIC</text></g><g class="relationship" transform="translate(-198.56904664902254 -52.7806220730121) rotate(342.4314869100316)"><path class="outline" fill="#A5ABB6" stroke="none" d="M 40 0.5 L 174.6037043391407 0.5 L 174.6037043391407 -0.5 L 40 -0.5 Z M 225.8029230891407 0.5 L 360.4066274282814 0.5 L 360.4066274282814 3.5 L 367.4066274282814 0 L 360.4066274282814 -3.5 L 360.4066274282814 -0.5 L 225.8029230891407 -0.5 Z"/><text text-anchor="middle" pointer-events="none" font-size="8px" fill="#000000" x="200.2033137141407" y="3" font-family="sans-serif">HAS_TOPIC</text></g><g class="relationship" transform="translate(-9.601588076871224 -28.765097978061235) rotate(323.60885752316733)"><path class="outline" fill="#A5ABB6" stroke="none" d="M 40 0.5 L 94.77614323032866 0.5 L 94.77614323032866 -0.5 L 40 -0.5 Z M 145.97536198032867 0.5 L 200.7515052106573 0.5 L 200.7515052106573 3.5 L 207.7515052106573 0 L 200.7515052106573 -3.5 L 200.7515052106573 -0.5 L 145.97536198032867 -0.5 Z"/><text text-anchor="middle" pointer-events="none" font-size="8px" fill="#000000" x="120.37575260532866" y="3" font-family="sans-serif">HAS_TOPIC</text></g><g class="relationship" transform="translate(325.36529602413873 75.07051666150417) rotate(241.61594127153614)"><path class="outline" fill="#A5ABB6" stroke="none" d="M 40 0.5 L 113.45020938562357 0.5 L 113.45020938562357 -0.5 L 40 -0.5 Z M 164.64942813562357 0.5 L 238.09963752124713 0.5 L 238.09963752124713 3.5 L 245.09963752124713 0 L 238.09963752124713 -3.5 L 238.09963752124713 -0.5 L 164.64942813562357 -0.5 Z"/><text text-anchor="middle" pointer-events="none" font-size="8px" fill="#000000" x="139.04981876062357" y="3" transform="rotate(180 139.04981876062357 0)" font-family="sans-serif">HAS_TOPIC</text></g></g><g class="layer nodes"><g class="node" transform="translate(151.99062259156418,44.44764702881157)"><circle class="outline" cx="0" cy="0" r="40" fill="#FF756E" stroke="#E06760" stroke-width="2px"/><text text-anchor="middle" pointer-events="none" font-family="sans-serif" dy="2.5" font-size="40" fill="#FFFFFF"/><text text-anchor="middle" pointer-events="none" y="5" font-size="10px" fill="#FFFFFF" font-family="sans-serif"> Mark</text></g><g class="node" transform="translate(325.36529602413873,75.07051666150417)"><circle class="outline" cx="0" cy="0" r="40" fill="#6DCE9E" stroke="#60B58B" stroke-width="2px"/><text text-anchor="middle" pointer-events="none" font-family="sans-serif" dy="2.5" font-size="40" fill="#FFFFFF"/><text text-anchor="middle" pointer-events="none" font-family="sans-serif" dy="2.5" font-size="40" fill="#FFFFFF"/><text text-anchor="middle" pointer-events="none" y="0" font-size="10px" fill="#FFFFFF" font-family="sans-serif"> Neo4j London</text><text text-anchor="middle" pointer-events="none" y="10" font-size="10px" fill="#FFFFFF" font-family="sans-serif"> Meetup</text></g><g class="node" transform="translate(-9.601588076871224,-28.765097978061235)"><circle class="outline" cx="0" cy="0" r="40" fill="#6DCE9E" stroke="#60B58B" stroke-width="2px"/><text text-anchor="middle" pointer-events="none" font-family="sans-serif" dy="2.5" font-size="40" fill="#FFFFFF"/><text text-anchor="middle" pointer-events="none" y="5" font-size="10px" fill="#FFFFFF" font-family="sans-serif"> Big Data Meetup</text></g><g class="node" transform="translate(-198.56904664902254,-52.7806220730121)"><circle class="outline" cx="0" cy="0" r="40" fill="#6DCE9E" stroke="#60B58B" stroke-width="2px"/><text text-anchor="middle" pointer-events="none" font-family="sans-serif" dy="2.5" font-size="40" fill="#FFFFFF"/><text text-anchor="middle" pointer-events="none" font-family="sans-serif" dy="2.5" font-size="40" fill="#FFFFFF"/><text text-anchor="middle" pointer-events="none" y="0" font-size="10px" fill="#FFFFFF" font-family="sans-serif"> Data Science</text><text text-anchor="middle" pointer-events="none" y="10" font-size="10px" fill="#FFFFFF" font-family="sans-serif"> Meetup</text></g><g class="node" transform="translate(42.6108568815809,214.0139788152069)"><circle class="outline" cx="0" cy="0" r="40" fill="#68BDF6" stroke="#5CA8DB" stroke-width="2px"/><text text-anchor="middle" pointer-events="none" font-family="sans-serif" dy="2.5" font-size="40" fill="#FFFFFF"/><text text-anchor="middle" pointer-events="none" y="5" font-size="10px" fill="#FFFFFF" font-family="sans-serif"> Data Science</text></g><g class="node" transform="translate(189.83478768954961,-175.7546906548945)"><circle class="outline" cx="0" cy="0" r="40" fill="#68BDF6" stroke="#5CA8DB" stroke-width="2px"/><text text-anchor="middle" pointer-events="none" font-family="sans-serif" dy="2.5" font-size="40" fill="#FFFFFF"/><text text-anchor="middle" pointer-events="none" y="5" font-size="10px" fill="#FFFFFF" font-family="sans-serif"> Databases</text></g></g></svg>