<svg xmlns="http://www.w3.org/2000/svg" class="graphdiagram" viewBox="-925.9677429199219 -822.3332423808793 1920 984"><g class="layer relationships"><g class="related-pair"><g class="relationship" transform="translate(-1,3) rotate(0)"><path class="relationship" d="M 81.25481808282396 4 L 535.1203609316044 4 L 535.1203609316044 16 L 567.1203609316044 0 L 535.1203609316044 -16 L 535.1203609316044 -4 L 81.25481808282396 -4 Z" fill="rgb(0, 0, 0)" stroke="rgb(51, 51, 51)" stroke-width="0px"/><text class="type" text-anchor="middle" baseline-shift="30%" alignment-baseline="alphabetic" x="308.18758950721417" y="0" font-size="50px" font-family="&quot;Gill Sans&quot;, &quot;Gill Sans MT&quot;, Calibri, sans-serif">DISTANCE_EFFORT</text></g></g><g class="related-pair"><g class="relationship" transform="translate(716.5670166015625,3) rotate(-90)"><path class="relationship" d="M 150.44665566995806 4 L 396.1310001932833 4 L 396.1310001932833 16 L 428.1310001932833 0 L 396.1310001932833 -16 L 396.1310001932833 -4 L 150.44665566995806 -4 Z" fill="rgb(0, 0, 0)" stroke="rgb(51, 51, 51)" stroke-width="0px"/><text class="type" text-anchor="middle" baseline-shift="30%" alignment-baseline="alphabetic" x="273.2888279316207" y="0" font-size="50px" font-family="&quot;Gill Sans&quot;, &quot;Gill Sans MT&quot;, Calibri, sans-serif">DISTANCE</text></g></g><g class="related-pair"><g class="relationship" transform="translate(-1,3) rotate(180)"><path class="relationship" d="M 81.25481808282396 4 L 523.1499315679439 4 L 523.1499315679439 16 L 555.1499315679439 0 L 523.1499315679439 -16 L 523.1499315679439 -4 L 81.25481808282396 -4 Z" fill="rgb(0, 0, 0)" stroke="rgb(51, 51, 51)" stroke-width="0px"/><text class="type" text-anchor="middle" baseline-shift="30%" alignment-baseline="alphabetic" transform="rotate(180)" x="-302.2023748253839" y="0" font-size="50px" font-family="&quot;Gill Sans&quot;, &quot;Gill Sans MT&quot;, Calibri, sans-serif">SEGMENT_EFFORT</text></g></g><g class="related-pair"><g class="relationship" transform="translate(-704.7750854492188,3) rotate(-90)"><path class="relationship" d="M 148.62515388127485 4 L 398.1493235541239 4 L 398.1493235541239 16 L 430.1493235541239 0 L 398.1493235541239 -16 L 398.1493235541239 -4 L 148.62515388127485 -4 Z" fill="rgb(0, 0, 0)" stroke="rgb(51, 51, 51)" stroke-width="0px"/><text class="type" text-anchor="middle" baseline-shift="30%" alignment-baseline="alphabetic" x="273.38723871769935" y="0" font-size="50px" font-family="&quot;Gill Sans&quot;, &quot;Gill Sans MT&quot;, Calibri, sans-serif">SEGMENT</text></g></g></g><g class="layer nodes"><circle class="node node-id-0" r="66.25481808282396" fill="rgb(255, 255, 255)" stroke="rgb(0, 0, 0)" stroke-width="8px" cx="-1" cy="3"/><g class="caption"><text class="caption node" text-anchor="middle" alignment-baseline="central" x="-1" y="3" fill="rgb(51, 51, 51)" font-size="50px" font-family="&quot;Gill Sans&quot;, &quot;Gill Sans MT&quot;, Calibri, sans-serif">Run</text></g><circle class="node node-id-1" r="135.44665566995806" fill="rgb(255, 255, 255)" stroke="rgb(0, 0, 0)" stroke-width="8px" cx="716.5670166015625" cy="3"/><g class="caption"><text class="caption node" text-anchor="middle" alignment-baseline="central" x="716.5670166015625" y="-22" fill="rgb(51, 51, 51)" font-size="50px" font-family="&quot;Gill Sans&quot;, &quot;Gill Sans MT&quot;, Calibri, sans-serif">Distance</text><text class="caption node" text-anchor="middle" alignment-baseline="central" x="716.5670166015625" y="28" fill="rgb(51, 51, 51)" font-size="50px" font-family="&quot;Gill Sans&quot;, &quot;Gill Sans MT&quot;, Calibri, sans-serif">Effort</text></g><circle class="node node-id-2" r="110.74107011921669" fill="rgb(255, 255, 255)" stroke="rgb(0, 0, 0)" stroke-width="8px" cx="716.5670166015625" cy="-550.8720703125"/><g class="caption"><text class="caption node" text-anchor="middle" alignment-baseline="central" x="716.5670166015625" y="-550.8720703125" fill="rgb(51, 51, 51)" font-size="50px" font-family="&quot;Gill Sans&quot;, &quot;Gill Sans MT&quot;, Calibri, sans-serif">Distance</text></g><circle class="node node-id-3" r="133.62515388127485" fill="rgb(255, 255, 255)" stroke="rgb(0, 0, 0)" stroke-width="8px" cx="-704.7750854492188" cy="3"/><g class="caption"><text class="caption node" text-anchor="middle" alignment-baseline="central" x="-704.7750854492188" y="-22" fill="rgb(51, 51, 51)" font-size="50px" font-family="&quot;Gill Sans&quot;, &quot;Gill Sans MT&quot;, Calibri, sans-serif">Segment</text><text class="caption node" text-anchor="middle" alignment-baseline="central" x="-704.7750854492188" y="28" fill="rgb(51, 51, 51)" font-size="50px" font-family="&quot;Gill Sans&quot;, &quot;Gill Sans MT&quot;, Calibri, sans-serif">Effort</text></g><circle class="node node-id-4" r="108.72274675837612" fill="rgb(255, 255, 255)" stroke="rgb(0, 0, 0)" stroke-width="8px" cx="-704.7750854492188" cy="-550.8720703125"/><g class="caption"><text class="caption node" text-anchor="middle" alignment-baseline="central" x="-704.7750854492188" y="-550.8720703125" fill="rgb(51, 51, 51)" font-size="50px" font-family="&quot;Gill Sans&quot;, &quot;Gill Sans MT&quot;, Calibri, sans-serif">Segment</text></g></g><g class="layer properties"><g class="speech-bubble node-speech-bubble" transform="translate(-1,-63.25481808282396) "><path class="speech-bubble-outline" transform="scale(1,-1) " d="M 0 0 L -10 20 L -233.75244140625 20 A 10 10 0 0 0 -243.75244140625 30 L -243.75244140625 180 A 10 10 0 0 0 -233.75244140625 190 L 233.75244140625 190 A 10 10 0 0 0 243.75244140625 180 L 243.75244140625 30 A 10 10 0 0 0 233.75244140625 20 L 10 20 Z" fill="rgb(255, 255, 255)" stroke="rgb(0, 0, 0)" stroke-width="3px"/><text class="speech-bubble-content property-key" x="44.20166015625" y="-155" alignment-baseline="central" text-anchor="end" font-size="50px" font-family="&quot;Gill Sans&quot;, &quot;Gill Sans MT&quot;, Calibri, sans-serif" xml:space="preserve">id: </text><text class="speech-bubble-content property-key" x="44.20166015625" y="-105" alignment-baseline="central" text-anchor="end" font-size="50px" font-family="&quot;Gill Sans&quot;, &quot;Gill Sans MT&quot;, Calibri, sans-serif" xml:space="preserve">start: </text><text class="speech-bubble-content property-key" x="44.20166015625" y="-55" alignment-baseline="central" text-anchor="end" font-size="50px" font-family="&quot;Gill Sans&quot;, &quot;Gill Sans MT&quot;, Calibri, sans-serif" xml:space="preserve">elapsedTime: </text><text class="speech-bubble-content property-value" x="44.20166015625" y="-155" alignment-baseline="central" font-size="50px" font-family="&quot;Gill Sans&quot;, &quot;Gill Sans MT&quot;, Calibri, sans-serif">int</text><text class="speech-bubble-content property-value" x="44.20166015625" y="-105" alignment-baseline="central" font-size="50px" font-family="&quot;Gill Sans&quot;, &quot;Gill Sans MT&quot;, Calibri, sans-serif">Datetime</text><text class="speech-bubble-content property-value" x="44.20166015625" y="-55" alignment-baseline="central" font-size="50px" font-family="&quot;Gill Sans&quot;, &quot;Gill Sans MT&quot;, Calibri, sans-serif">Duration</text></g><g class="speech-bubble node-speech-bubble" transform="translate(716.5670166015625,-661.6131404317167) "><path class="speech-bubble-outline" transform="scale(1,-1) " d="M 0 0 L -10 20 L -153.01513671875 20 A 10 10 0 0 0 -163.01513671875 30 L -163.01513671875 130 A 10 10 0 0 0 -153.01513671875 140 L 153.01513671875 140 A 10 10 0 0 0 163.01513671875 130 L 163.01513671875 30 A 10 10 0 0 0 153.01513671875 20 L 10 20 Z" fill="rgb(255, 255, 255)" stroke="rgb(0, 0, 0)" stroke-width="3px"/><text class="speech-bubble-content property-key" x="36.36474609375" y="-105" alignment-baseline="central" text-anchor="end" font-size="50px" font-family="&quot;Gill Sans&quot;, &quot;Gill Sans MT&quot;, Calibri, sans-serif" xml:space="preserve">name: </text><text class="speech-bubble-content property-key" x="36.36474609375" y="-55" alignment-baseline="central" text-anchor="end" font-size="50px" font-family="&quot;Gill Sans&quot;, &quot;Gill Sans MT&quot;, Calibri, sans-serif" xml:space="preserve">distance: </text><text class="speech-bubble-content property-value" x="36.36474609375" y="-105" alignment-baseline="central" font-size="50px" font-family="&quot;Gill Sans&quot;, &quot;Gill Sans MT&quot;, Calibri, sans-serif">String</text><text class="speech-bubble-content property-value" x="36.36474609375" y="-55" alignment-baseline="central" font-size="50px" font-family="&quot;Gill Sans&quot;, &quot;Gill Sans MT&quot;, Calibri, sans-serif">Float</text></g><g class="speech-bubble node-speech-bubble" transform="translate(-704.7750854492188,-659.5948170708762) "><path class="speech-bubble-outline" transform="scale(1,-1) " d="M 0 0 L -10 20 L -153.01513671875 20 A 10 10 0 0 0 -163.01513671875 30 L -163.01513671875 130 A 10 10 0 0 0 -153.01513671875 140 L 153.01513671875 140 A 10 10 0 0 0 163.01513671875 130 L 163.01513671875 30 A 10 10 0 0 0 153.01513671875 20 L 10 20 Z" fill="rgb(255, 255, 255)" stroke="rgb(0, 0, 0)" stroke-width="3px"/><text class="speech-bubble-content property-key" x="36.36474609375" y="-105" alignment-baseline="central" text-anchor="end" font-size="50px" font-family="&quot;Gill Sans&quot;, &quot;Gill Sans MT&quot;, Calibri, sans-serif" xml:space="preserve">name: </text><text class="speech-bubble-content property-key" x="36.36474609375" y="-55" alignment-baseline="central" text-anchor="end" font-size="50px" font-family="&quot;Gill Sans&quot;, &quot;Gill Sans MT&quot;, Calibri, sans-serif" xml:space="preserve">distance: </text><text class="speech-bubble-content property-value" x="36.36474609375" y="-105" alignment-baseline="central" font-size="50px" font-family="&quot;Gill Sans&quot;, &quot;Gill Sans MT&quot;, Calibri, sans-serif">String</text><text class="speech-bubble-content property-value" x="36.36474609375" y="-55" alignment-baseline="central" font-size="50px" font-family="&quot;Gill Sans&quot;, &quot;Gill Sans MT&quot;, Calibri, sans-serif">Float</text></g></g><g class="layer overlay"><circle class="node overlay" r="70.25481808282396" stroke="none" fill="rgba(255, 255, 255, 0)" cx="-1" cy="3"/><circle class="node ring" r="75.25481808282396" fill="none" stroke="rgba(255, 255, 255, 0)" stroke-width="10px" cx="-1" cy="3"/><circle class="node overlay" r="139.44665566995806" stroke="none" fill="rgba(255, 255, 255, 0)" cx="716.5670166015625" cy="3"/><circle class="node ring" r="144.44665566995806" fill="none" stroke="rgba(255, 255, 255, 0)" stroke-width="10px" cx="716.5670166015625" cy="3"/><path class="relationship overlay" fill="rgba(255, 255, 255, 0)" stroke="rgba(255, 255, 255, 0)" stroke-width="10px" transform="translate(-1,3) rotate(0)" d="M 81.25481808282396 4 L 535.1203609316044 4 L 535.1203609316044 16 L 567.1203609316044 0 L 535.1203609316044 -16 L 535.1203609316044 -4 L 81.25481808282396 -4 Z"/><circle class="node overlay" r="114.74107011921669" stroke="none" fill="rgba(255, 255, 255, 0)" cx="716.5670166015625" cy="-550.8720703125"/><circle class="node ring" r="119.74107011921669" fill="none" stroke="rgba(255, 255, 255, 0)" stroke-width="10px" cx="716.5670166015625" cy="-550.8720703125"/><path class="relationship overlay" fill="rgba(255, 255, 255, 0)" stroke="rgba(255, 255, 255, 0)" stroke-width="10px" transform="translate(716.5670166015625,3) rotate(-90)" d="M 150.44665566995806 4 L 396.1310001932833 4 L 396.1310001932833 16 L 428.1310001932833 0 L 396.1310001932833 -16 L 396.1310001932833 -4 L 150.44665566995806 -4 Z"/><circle class="node overlay" r="137.62515388127485" stroke="none" fill="rgba(255, 255, 255, 0)" cx="-704.7750854492188" cy="3"/><circle class="node ring" r="142.62515388127485" fill="none" stroke="rgba(255, 255, 255, 0)" stroke-width="10px" cx="-704.7750854492188" cy="3"/><path class="relationship overlay" fill="rgba(255, 255, 255, 0)" stroke="rgba(255, 255, 255, 0)" stroke-width="10px" transform="translate(-1,3) rotate(180)" d="M 81.25481808282396 4 L 523.1499315679439 4 L 523.1499315679439 16 L 555.1499315679439 0 L 523.1499315679439 -16 L 523.1499315679439 -4 L 81.25481808282396 -4 Z"/><circle class="node overlay" r="112.72274675837612" stroke="none" fill="rgba(255, 255, 255, 0)" cx="-704.7750854492188" cy="-550.8720703125"/><circle class="node ring" r="117.72274675837612" fill="none" stroke="rgba(255, 255, 255, 0)" stroke-width="10px" cx="-704.7750854492188" cy="-550.8720703125"/><path class="relationship overlay" fill="rgba(255, 255, 255, 0)" stroke="rgba(255, 255, 255, 0)" stroke-width="10px" transform="translate(-704.7750854492188,3) rotate(-90)" d="M 148.62515388127485 4 L 398.1493235541239 4 L 398.1493235541239 16 L 430.1493235541239 0 L 398.1493235541239 -16 L 398.1493235541239 -4 L 148.62515388127485 -4 Z"/></g></svg>