<svg xmlns="http://www.w3.org/2000/svg" width="430.5540466308594" height="159.6832275390625" viewBox="-79.22195434570312 -13.765417098999023 430.5540466308594 159.6832275390625"><title>Neo4j Graph Visualization</title><desc>Created using Neo4j (http://www.neo4j.com/)</desc><g class="layer relationships"><g class="relationship" transform="translate(129.66218100766565 100.25454612871076) rotate(539.4220513842313)"><path class="outline" fill="#A5ABB6" stroke="none" d="M 40 0.5 L 55.790014394667935 0.5 L 55.790014394667935 -0.5 L 40 -0.5 Z M 102.10251439466793 0.5 L 117.89252878933587 0.5 L 117.89252878933587 3.5 L 124.89252878933587 0 L 117.89252878933587 -3.5 L 117.89252878933587 -0.5 L 102.10251439466793 -0.5 Z"/><text text-anchor="middle" pointer-events="none" font-size="8px" fill="#000000" x="78.94626439466793" y="3" transform="rotate(180 78.94626439466793 0)" font-family="sans-serif">AT_PLACE</text></g><g class="relationship" transform="translate(129.66218100766565 100.25454612871076) rotate(539.7159294129087)"><path class="outline" fill="#A5ABB6" stroke="none" d="M 10.835724717245366 38.50762352901147 L 21.188486521346196 77.14465658057419 A 21.935935394489817 21.935935394489817 0 1 1 -21.188486521346196 77.14465658057419 L -12.647458032963009 45.26910431303495 L -8.783754727806736 46.30438049344503 L -10.352761804100831 38.63703305156273 L -15.545235511830214 44.49264717772739 L -11.68153220667394 45.52792335813747 L -20.22256069505713 77.40347562567672 A 20.935935394489817 20.935935394489817 0 1 0 20.22256069505713 77.40347562567672 L 9.869798890956297 38.76644257411399 Z"/><text text-anchor="middle" pointer-events="none" font-size="8px" fill="#000000" x="0" y="113.75802982729645" transform="rotate(180 0 110.75802982729645)" font-family="sans-serif">NEXT</text></g><g class="relationship" transform="translate(129.66218100766565 100.25454612871076) rotate(360.0098074415861)"><path class="outline" fill="#A5ABB6" stroke="none" d="M 40 0.5 L 66.18262462845213 0.5 L 66.18262462845213 -0.5 L 40 -0.5 Z M 104.48731212845213 0.5 L 130.66993675690426 0.5 L 130.66993675690426 3.5 L 137.66993675690426 0 L 130.66993675690426 -3.5 L 130.66993675690426 -0.5 L 104.48731212845213 -0.5 Z"/><text text-anchor="middle" pointer-events="none" font-size="8px" fill="#000000" x="85.33496837845213" y="3" font-family="sans-serif">ON_DAY</text></g></g><g class="layer nodes"><g class="node" transform="translate(129.66218100766565,100.25454612871076)"><circle class="outline" cx="0" cy="0" r="40" fill="#4C8EDA" stroke="#2870c2" stroke-width="2px"/><text text-anchor="middle" pointer-events="none" font-family="sans-serif" dy="2.5" font-size="40" fill="#FFFFFF"/><text text-anchor="middle" pointer-events="none" y="5" font-size="10px" fill="#FFFFFF" font-family="sans-serif"> Visit</text></g><g class="node" transform="translate(307.3321151617139,100.28495827307202)"><circle class="outline" cx="0" cy="0" r="40" fill="#569480" stroke="#447666" stroke-width="2px"/><text text-anchor="middle" pointer-events="none" font-family="sans-serif" dy="2.5" font-size="40" fill="#FFFFFF"/><text text-anchor="middle" pointer-events="none" y="5" font-size="10px" fill="#FFFFFF" font-family="sans-serif"> Day</text></g><g class="node" transform="translate(-35.221958969097585,101.91780638047655)"><circle class="outline" cx="0" cy="0" r="40" fill="#FFC454" stroke="#d7a013" stroke-width="2px"/><text text-anchor="middle" pointer-events="none" font-family="sans-serif" dy="2.5" font-size="40" fill="#604A0E"/><text text-anchor="middle" pointer-events="none" y="5" font-size="10px" fill="#604A0E" font-family="sans-serif"> Place</text></g></g></svg>