<svg xmlns="http://www.w3.org/2000/svg" width="986.3330078125" height="602.9481811523438" viewBox="-452.0306091308594 -404.5670471191406 986.3330078125 602.9481811523438"><title>Neo4j Graph Visualization</title><desc>Created using Neo4j (http://www.neo4j.com/)</desc><g class="layer relationships"><g class="relationship" transform="translate(425.53611781200084 -27.36914449569669) rotate(181.17707596180952)"><path class="outline" fill="#A5ABB6" stroke="none" d="M 40 0.5 L 121.81500196024683 0.5 L 121.81500196024683 -0.5 L 40 -0.5 Z M 160.11968946024683 0.5 L 241.93469142049366 0.5 L 241.93469142049366 3.5 L 248.93469142049366 0 L 241.93469142049366 -3.5 L 241.93469142049366 -0.5 L 160.11968946024683 -0.5 Z"/><text text-anchor="middle" pointer-events="none" font-size="8px" fill="#000000" x="140.96734571024683" y="3" transform="rotate(180 140.96734571024683 0)" font-family="sans-serif">ON_DAY</text></g><g class="relationship" transform="translate(425.53611781200084 -27.36914449569669) rotate(425.7714978040715)"><path class="outline" fill="#A5ABB6" stroke="none" d="M 40 0.5 L 52.25454431876895 0.5 L 52.25454431876895 -0.5 L 40 -0.5 Z M 98.56704431876895 0.5 L 110.8215886375379 0.5 L 110.8215886375379 3.5 L 117.8215886375379 0 L 110.8215886375379 -3.5 L 110.8215886375379 -0.5 L 98.56704431876895 -0.5 Z"/><text text-anchor="middle" pointer-events="none" font-size="8px" fill="#000000" x="75.41079431876895" y="3" font-family="sans-serif">AT_PLACE</text></g><g class="relationship" transform="translate(441.7250414393625 -253.6160190064407) rotate(454.0927805633424)"><path class="outline" fill="#A5ABB6" stroke="none" d="M 40 0.5 L 96.24469530707619 0.5 L 96.24469530707619 -0.5 L 40 -0.5 Z M 123.58063280707619 0.5 L 179.82532811415237 0.5 L 179.82532811415237 3.5 L 186.82532811415237 0 L 179.82532811415237 -3.5 L 179.82532811415237 -0.5 L 123.58063280707619 -0.5 Z"/><text text-anchor="middle" pointer-events="none" font-size="8px" fill="#000000" x="109.91266405707619" y="3" transform="rotate(180 109.91266405707619 0)" font-family="sans-serif">NEXT</text></g><g class="relationship" transform="translate(441.7250414393625 -253.6160190064407) rotate(504.1637740151067)"><path class="outline" fill="#A5ABB6" stroke="none" d="M 40 0.5 L 165.49677063943085 0.5 L 165.49677063943085 -0.5 L 40 -0.5 Z M 203.80145813943085 0.5 L 329.2982287788617 0.5 L 329.2982287788617 3.5 L 336.2982287788617 0 L 329.2982287788617 -3.5 L 329.2982287788617 -0.5 L 203.80145813943085 -0.5 Z"/><text text-anchor="middle" pointer-events="none" font-size="8px" fill="#000000" x="184.64911438943085" y="3" transform="rotate(180 184.64911438943085 0)" font-family="sans-serif">ON_DAY</text></g><g class="relationship" transform="translate(441.7250414393625 -253.6160190064407) rotate(193.36589948114693)"><path class="outline" fill="#A5ABB6" stroke="none" d="M 40 0.5 L 204.67025740241667 0.5 L 204.67025740241667 -0.5 L 40 -0.5 Z M 250.98275740241667 0.5 L 415.65301480483333 0.5 L 415.65301480483333 3.5 L 422.65301480483333 0 L 415.65301480483333 -3.5 L 415.65301480483333 -0.5 L 250.98275740241667 -0.5 Z"/><text text-anchor="middle" pointer-events="none" font-size="8px" fill="#000000" x="227.82650740241667" y="3" transform="rotate(180 227.82650740241667 0)" font-family="sans-serif">AT_PLACE</text></g><g class="relationship" transform="translate(27.422397115954624 -261.53441998863565) rotate(361.0949380409268)"><path class="outline" fill="#A5ABB6" stroke="none" d="M 40 0.5 L 190.02118526601205 0.5 L 190.02118526601205 -0.5 L 40 -0.5 Z M 217.35712276601205 0.5 L 367.3783080320241 0.5 L 367.3783080320241 3.5 L 374.3783080320241 0 L 367.3783080320241 -3.5 L 367.3783080320241 -0.5 L 217.35712276601205 -0.5 Z"/><text text-anchor="middle" pointer-events="none" font-size="8px" fill="#000000" x="203.68915401601205" y="3" font-family="sans-serif">NEXT</text></g><g class="relationship" transform="translate(27.422397115954624 -261.53441998863565) rotate(424.42234665110254)"><path class="outline" fill="#A5ABB6" stroke="none" d="M 40 0.5 L 103.86074578495533 0.5 L 103.86074578495533 -0.5 L 40 -0.5 Z M 142.16543328495533 0.5 L 206.02617906991065 0.5 L 206.02617906991065 3.5 L 213.02617906991065 0 L 206.02617906991065 -3.5 L 206.02617906991065 -0.5 L 142.16543328495533 -0.5 Z"/><text text-anchor="middle" pointer-events="none" font-size="8px" fill="#000000" x="123.01308953495533" y="3" font-family="sans-serif">ON_DAY</text></g><g class="relationship" transform="translate(27.422397115954624 -261.53441998863565) rotate(391.3390282063714)"><path class="outline" fill="#A5ABB6" stroke="none" d="M 40 0.5 L 70.4648501466809 0.5 L 70.4648501466809 -0.5 L 40 -0.5 Z M 116.7773501466809 0.5 L 147.2422002933618 0.5 L 147.2422002933618 3.5 L 154.2422002933618 0 L 147.2422002933618 -3.5 L 147.2422002933618 -0.5 L 116.7773501466809 -0.5 Z"/><text text-anchor="middle" pointer-events="none" font-size="8px" fill="#000000" x="93.6211001466809" y="3" font-family="sans-serif">AT_PLACE</text></g><g class="relationship" transform="translate(-248.7436462077834 -104.73171931607581) rotate(330.4127766380837)"><path class="outline" fill="#A5ABB6" stroke="none" d="M 40 0.5 L 141.6202317115717 0.5 L 141.6202317115717 -0.5 L 40 -0.5 Z M 168.9561692115717 0.5 L 270.5764009231434 0.5 L 270.5764009231434 3.5 L 277.5764009231434 0 L 270.5764009231434 -3.5 L 270.5764009231434 -0.5 L 168.9561692115717 -0.5 Z"/><text text-anchor="middle" pointer-events="none" font-size="8px" fill="#000000" x="155.2882004615717" y="3" font-family="sans-serif">NEXT</text></g><g class="relationship" transform="translate(-248.7436462077834 -104.73171931607581) rotate(370.4994787293765)"><path class="outline" fill="#A5ABB6" stroke="none" d="M 40 0.5 L 173.33213090381125 0.5 L 173.33213090381125 -0.5 L 40 -0.5 Z M 211.63681840381125 0.5 L 344.9689493076225 0.5 L 344.9689493076225 3.5 L 351.9689493076225 0 L 344.9689493076225 -3.5 L 344.9689493076225 -0.5 L 211.63681840381125 -0.5 Z"/><text text-anchor="middle" pointer-events="none" font-size="8px" fill="#000000" x="192.48447465381125" y="3" font-family="sans-serif">ON_DAY</text></g><g class="relationship" transform="translate(-248.7436462077834 -104.73171931607581) rotate(313.21212878668535)"><path class="outline" fill="#A5ABB6" stroke="none" d="M 40 0.5 L 148.8562143590404 0.5 L 148.8562143590404 -0.5 L 40 -0.5 Z M 195.1687143590404 0.5 L 304.0249287180808 0.5 L 304.0249287180808 3.5 L 311.0249287180808 0 L 304.0249287180808 -3.5 L 304.0249287180808 -0.5 L 195.1687143590404 -0.5 Z"/><text text-anchor="middle" pointer-events="none" font-size="8px" fill="#000000" x="172.0124643590404" y="3" font-family="sans-serif">AT_PLACE</text></g><g class="relationship" transform="translate(-205.06384888470427 67.55960260598572) rotate(255.7739400927485)"><path class="outline" fill="#A5ABB6" stroke="none" d="M 40 0.5 L 71.70303932326973 0.5 L 71.70303932326973 -0.5 L 40 -0.5 Z M 99.03897682326973 0.5 L 130.74201614653947 0.5 L 130.74201614653947 3.5 L 137.74201614653947 0 L 130.74201614653947 -3.5 L 130.74201614653947 -0.5 L 99.03897682326973 -0.5 Z"/><text text-anchor="middle" pointer-events="none" font-size="8px" fill="#000000" x="85.37100807326973" y="3" transform="rotate(180 85.37100807326973 0)" font-family="sans-serif">NEXT</text></g><g class="relationship" transform="translate(-205.06384888470427 67.55960260598572) rotate(343.55547037818747)"><path class="outline" fill="#A5ABB6" stroke="none" d="M 40 0.5 L 155.49815852271075 0.5 L 155.49815852271075 -0.5 L 40 -0.5 Z M 193.80284602271075 0.5 L 309.3010045454215 0.5 L 309.3010045454215 3.5 L 316.3010045454215 0 L 309.3010045454215 -3.5 L 309.3010045454215 -0.5 L 193.80284602271075 -0.5 Z"/><text text-anchor="middle" pointer-events="none" font-size="8px" fill="#000000" x="174.65050227271075" y="3" font-family="sans-serif">ON_DAY</text></g><g class="relationship" transform="translate(-205.06384888470427 67.55960260598572) rotate(205.70190930405403)"><path class="outline" fill="#A5ABB6" stroke="none" d="M 40 0.5 L 85.97009568433911 0.5 L 85.97009568433911 -0.5 L 40 -0.5 Z M 132.28259568433913 0.5 L 178.25269136867823 0.5 L 178.25269136867823 3.5 L 185.25269136867823 0 L 178.25269136867823 -3.5 L 178.25269136867823 -0.5 L 132.28259568433913 -0.5 Z"/><text text-anchor="middle" pointer-events="none" font-size="8px" fill="#000000" x="109.12634568433911" y="3" transform="rotate(180 109.12634568433911 0)" font-family="sans-serif">AT_PLACE</text></g><g class="relationship" transform="translate(33.571846668201324 154.38112058629895) rotate(199.9926275931312)"><path class="outline" fill="#A5ABB6" stroke="none" d="M 40 0.5 L 109.80148739637492 0.5 L 109.80148739637492 -0.5 L 40 -0.5 Z M 137.1374248963749 0.5 L 206.93891229274985 0.5 L 206.93891229274985 3.5 L 213.93891229274985 0 L 206.93891229274985 -3.5 L 206.93891229274985 -0.5 L 137.1374248963749 -0.5 Z"/><text text-anchor="middle" pointer-events="none" font-size="8px" fill="#000000" x="123.46945614637492" y="3" transform="rotate(180 123.46945614637492 0)" font-family="sans-serif">NEXT</text></g><g class="relationship" transform="translate(33.571846668201324 154.38112058629895) rotate(298.77877434388796)"><path class="outline" fill="#A5ABB6" stroke="none" d="M 40 0.5 L 84.41489626203482 0.5 L 84.41489626203482 -0.5 L 40 -0.5 Z M 122.71958376203482 0.5 L 167.13448002406963 0.5 L 167.13448002406963 3.5 L 174.13448002406963 0 L 167.13448002406963 -3.5 L 167.13448002406963 -0.5 L 122.71958376203482 -0.5 Z"/><text text-anchor="middle" pointer-events="none" font-size="8px" fill="#000000" x="103.56724001203482" y="3" font-family="sans-serif">ON_DAY</text></g><g class="relationship" transform="translate(33.571846668201324 154.38112058629895) rotate(355.26509589324473)"><path class="outline" fill="#A5ABB6" stroke="none" d="M 40 0.5 L 202.49105310826653 0.5 L 202.49105310826653 -0.5 L 40 -0.5 Z M 248.80355310826653 0.5 L 411.29460621653305 0.5 L 411.29460621653305 3.5 L 418.29460621653305 0 L 411.29460621653305 -3.5 L 411.29460621653305 -0.5 L 248.80355310826653 -0.5 Z"/><text text-anchor="middle" pointer-events="none" font-size="8px" fill="#000000" x="225.64730310826653" y="3" font-family="sans-serif">AT_PLACE</text></g><g class="relationship" transform="translate(283.75911614283405 52.98322279503418) rotate(517.9378780411912)"><path class="outline" fill="#A5ABB6" stroke="none" d="M 40 0.5 L 117.80906955991057 0.5 L 117.80906955991057 -0.5 L 40 -0.5 Z M 145.14500705991057 0.5 L 222.95407661982114 0.5 L 222.95407661982114 3.5 L 229.95407661982114 0 L 222.95407661982114 -3.5 L 222.95407661982114 -0.5 L 145.14500705991057 -0.5 Z"/><text text-anchor="middle" pointer-events="none" font-size="8px" fill="#000000" x="131.47703830991057" y="3" transform="rotate(180 131.47703830991057 0)" font-family="sans-serif">NEXT</text></g><g class="relationship" transform="translate(283.75911614283405 52.98322279503418) rotate(210.3961309423113)"><path class="outline" fill="#A5ABB6" stroke="none" d="M 40 0.5 L 62.616387385052306 0.5 L 62.616387385052306 -0.5 L 40 -0.5 Z M 100.9210748850523 0.5 L 123.53746227010461 0.5 L 123.53746227010461 3.5 L 130.5374622701046 0 L 123.53746227010461 -3.5 L 123.53746227010461 -0.5 L 100.9210748850523 -0.5 Z"/><text text-anchor="middle" pointer-events="none" font-size="8px" fill="#000000" x="81.7687311350523" y="3" transform="rotate(180 81.7687311350523 0)" font-family="sans-serif">ON_DAY</text></g><g class="relationship" transform="translate(283.75911614283405 52.98322279503418) rotate(377.10675576761605)"><path class="outline" fill="#A5ABB6" stroke="none" d="M 40 0.5 L 81.39580667598193 0.5 L 81.39580667598193 -0.5 L 40 -0.5 Z M 127.70830667598193 0.5 L 169.10411335196386 0.5 L 169.10411335196386 3.5 L 176.10411335196386 0 L 169.10411335196386 -3.5 L 169.10411335196386 -0.5 L 127.70830667598193 -0.5 Z"/><text text-anchor="middle" pointer-events="none" font-size="8px" fill="#000000" x="104.55205667598193" y="3" font-family="sans-serif">AT_PLACE</text></g></g><g class="layer nodes"><g class="node" transform="translate(136.66239666393346,-33.304558240712595)"><circle class="outline" cx="0" cy="0" r="40" fill="#569480" stroke="#447666" stroke-width="2px"/><text text-anchor="middle" pointer-events="none" font-family="sans-serif" dy="2.5" font-size="40" fill="#FFFFFF"/><text text-anchor="middle" pointer-events="none" y="5" font-size="10px" fill="#FFFFFF" font-family="sans-serif"> 2018-05-09</text></g><g class="node" transform="translate(441.7250414393625,-253.6160190064407)"><circle class="outline" cx="0" cy="0" r="40" fill="#4C8EDA" stroke="#2870c2" stroke-width="2px"/><text text-anchor="middle" pointer-events="none" font-family="sans-serif" dy="2.5" font-size="40" fill="#FFFFFF"/><text text-anchor="middle" pointer-events="none" y="5" font-size="10px" fill="#FFFFFF" font-family="sans-serif"> "2018-05-09T1…</text></g><g class="node" transform="translate(490.3024243000352,116.55090061260023)"><circle class="outline" cx="0" cy="0" r="40" fill="#FFC454" stroke="#d7a013" stroke-width="2px"/><text text-anchor="middle" pointer-events="none" font-family="sans-serif" dy="2.5" font-size="40" fill="#604A0E"/><text text-anchor="middle" pointer-events="none" y="5" font-size="10px" fill="#604A0E" font-family="sans-serif"> Home</text></g><g class="node" transform="translate(425.53611781200084,-27.36914449569669)"><circle class="outline" cx="0" cy="0" r="40" fill="#4C8EDA" stroke="#2870c2" stroke-width="2px"/><text text-anchor="middle" pointer-events="none" font-family="sans-serif" dy="2.5" font-size="40" fill="#FFFFFF"/><text text-anchor="middle" pointer-events="none" y="5" font-size="10px" fill="#FFFFFF" font-family="sans-serif"> "2018-05-09T2…</text></g><g class="node" transform="translate(-8.396384688670466,-360.56700707325143)"><circle class="outline" cx="0" cy="0" r="40" fill="#FFC454" stroke="#d7a013" stroke-width="2px"/><text text-anchor="middle" pointer-events="none" font-family="sans-serif" dy="2.5" font-size="40" fill="#604A0E"/><text text-anchor="middle" pointer-events="none" y="5" font-size="10px" fill="#604A0E" font-family="sans-serif"> Neo4j</text></g><g class="node" transform="translate(27.422397115954624,-261.53441998863565)"><circle class="outline" cx="0" cy="0" r="40" fill="#4C8EDA" stroke="#2870c2" stroke-width="2px"/><text text-anchor="middle" pointer-events="none" font-family="sans-serif" dy="2.5" font-size="40" fill="#FFFFFF"/><text text-anchor="middle" pointer-events="none" y="5" font-size="10px" fill="#FFFFFF" font-family="sans-serif"> "2018-05-09T1…</text></g><g class="node" transform="translate(193.32558317879946,-160.50885278407316)"><circle class="outline" cx="0" cy="0" r="40" fill="#FFC454" stroke="#d7a013" stroke-width="2px"/><text text-anchor="middle" pointer-events="none" font-family="sans-serif" dy="2.5" font-size="40" fill="#604A0E"/><text text-anchor="middle" pointer-events="none" y="5" font-size="10px" fill="#604A0E" font-family="sans-serif"> Nando's</text></g><g class="node" transform="translate(-248.7436462077834,-104.73171931607581)"><circle class="outline" cx="0" cy="0" r="40" fill="#4C8EDA" stroke="#2870c2" stroke-width="2px"/><text text-anchor="middle" pointer-events="none" font-family="sans-serif" dy="2.5" font-size="40" fill="#FFFFFF"/><text text-anchor="middle" pointer-events="none" y="5" font-size="10px" fill="#FFFFFF" font-family="sans-serif"> "2018-05-09T0…</text></g><g class="node" transform="translate(-205.06384888470427,67.55960260598572)"><circle class="outline" cx="0" cy="0" r="40" fill="#4C8EDA" stroke="#2870c2" stroke-width="2px"/><text text-anchor="middle" pointer-events="none" font-family="sans-serif" dy="2.5" font-size="40" fill="#FFFFFF"/><text text-anchor="middle" pointer-events="none" y="5" font-size="10px" fill="#FFFFFF" font-family="sans-serif"> "2018-05-09T0…</text></g><g class="node" transform="translate(-408.03061780607885,-30.13003698005403)"><circle class="outline" cx="0" cy="0" r="40" fill="#FFC454" stroke="#d7a013" stroke-width="2px"/><text text-anchor="middle" pointer-events="none" font-family="sans-serif" dy="2.5" font-size="40" fill="#604A0E"/><text text-anchor="middle" pointer-events="none" y="5" font-size="10px" fill="#604A0E" font-family="sans-serif"> Sutton Station</text></g><g class="node" transform="translate(33.571846668201324,154.38112058629895)"><circle class="outline" cx="0" cy="0" r="40" fill="#4C8EDA" stroke="#2870c2" stroke-width="2px"/><text text-anchor="middle" pointer-events="none" font-family="sans-serif" dy="2.5" font-size="40" fill="#FFFFFF"/><text text-anchor="middle" pointer-events="none" y="5" font-size="10px" fill="#FFFFFF" font-family="sans-serif"> "2018-05-09T0…</text></g><g class="node" transform="translate(283.75911614283405,52.98322279503418)"><circle class="outline" cx="0" cy="0" r="40" fill="#4C8EDA" stroke="#2870c2" stroke-width="2px"/><text text-anchor="middle" pointer-events="none" font-family="sans-serif" dy="2.5" font-size="40" fill="#FFFFFF"/><text text-anchor="middle" pointer-events="none" y="5" font-size="10px" fill="#FFFFFF" font-family="sans-serif"> "2018-05-08T1…</text></g></g></svg>