<svg xmlns="http://www.w3.org/2000/svg" width="896.8140869140625" height="507.47833251953125" viewBox="-399.5024108886719 -181.08226013183594 896.8140869140625 507.47833251953125"><title>Neo4j Graph Visualization</title><desc>Created using Neo4j (http://www.neo4j.com/)</desc><g class="layer relationships"><g class="relationship" transform="translate(-82.3548323525917 273.57110314125396) rotate(311.98826197199116)"><path class="outline" fill="#A5ABB6" stroke="none" d="M 40 0.5 L 105.04973192305853 0.5 L 105.04973192305853 -0.5 L 40 -0.5 Z M 143.35441942305852 0.5 L 208.40415134611706 0.5 L 208.40415134611706 3.5 L 215.40415134611706 0 L 208.40415134611706 -3.5 L 208.40415134611706 -0.5 L 143.35441942305852 -0.5 Z"/><text text-anchor="middle" pointer-events="none" font-size="8px" fill="#000000" x="124.20207567305853" y="3" font-family="sans-serif">ON_DAY</text></g><g class="relationship" transform="translate(-82.3548323525917 273.57110314125396) rotate(223.50599511869643)"><path class="outline" fill="#A5ABB6" stroke="none" d="M 40 0.5 L 161.64286806257198 0.5 L 161.64286806257198 -0.5 L 40 -0.5 Z M 207.95536806257198 0.5 L 329.59823612514396 0.5 L 329.59823612514396 3.5 L 336.59823612514396 0 L 329.59823612514396 -3.5 L 329.59823612514396 -0.5 L 207.95536806257198 -0.5 Z"/><text text-anchor="middle" pointer-events="none" font-size="8px" fill="#000000" x="184.79911806257198" y="3" transform="rotate(180 184.79911806257198 0)" font-family="sans-serif">AT_PLACE</text></g><g class="relationship" transform="translate(453.31168390253885 156.55306828671246) rotate(191.2884731759034)"><path class="outline" fill="#A5ABB6" stroke="none" d="M 40 0.5 L 163.34936907301193 0.5 L 163.34936907301193 -0.5 L 40 -0.5 Z M 201.65405657301193 0.5 L 325.00342564602386 0.5 L 325.00342564602386 3.5 L 332.00342564602386 0 L 325.00342564602386 -3.5 L 325.00342564602386 -0.5 L 201.65405657301193 -0.5 Z"/><text text-anchor="middle" pointer-events="none" font-size="8px" fill="#000000" x="182.50171282301193" y="3" transform="rotate(180 182.50171282301193 0)" font-family="sans-serif">ON_DAY</text></g><g class="relationship" transform="translate(453.31168390253885 156.55306828671246) rotate(264.50715144002385)"><path class="outline" fill="#A5ABB6" stroke="none" d="M 40 0.5 L 90.44176449724006 0.5 L 90.44176449724006 -0.5 L 40 -0.5 Z M 136.75426449724006 0.5 L 187.19602899448012 0.5 L 187.19602899448012 3.5 L 194.19602899448012 0 L 187.19602899448012 -3.5 L 187.19602899448012 -0.5 L 136.75426449724006 -0.5 Z"/><text text-anchor="middle" pointer-events="none" font-size="8px" fill="#000000" x="113.59801449724006" y="3" transform="rotate(180 113.59801449724006 0)" font-family="sans-serif">AT_PLACE</text></g><g class="relationship" transform="translate(208.52269317922116 -55.02917939576537) rotate(490.8568960854185)"><path class="outline" fill="#A5ABB6" stroke="none" d="M 40 0.5 L 69.08016655850463 0.5 L 69.08016655850463 -0.5 L 40 -0.5 Z M 107.38485405850463 0.5 L 136.46502061700926 0.5 L 136.46502061700926 3.5 L 143.46502061700926 0 L 136.46502061700926 -3.5 L 136.46502061700926 -0.5 L 107.38485405850463 -0.5 Z"/><text text-anchor="middle" pointer-events="none" font-size="8px" fill="#000000" x="88.23251030850463" y="3" transform="rotate(180 88.23251030850463 0)" font-family="sans-serif">ON_DAY</text></g><g class="relationship" transform="translate(208.52269317922116 -55.02917939576537) rotate(391.2037025933231)"><path class="outline" fill="#A5ABB6" stroke="none" d="M 40 0.5 L 58.458077759146704 0.5 L 58.458077759146704 -0.5 L 40 -0.5 Z M 104.7705777591467 0.5 L 123.22865551829341 0.5 L 123.22865551829341 3.5 L 130.2286555182934 0 L 123.22865551829341 -3.5 L 123.22865551829341 -0.5 L 104.7705777591467 -0.5 Z"/><text text-anchor="middle" pointer-events="none" font-size="8px" fill="#000000" x="81.6143277591467" y="3" font-family="sans-serif">AT_PLACE</text></g><g class="relationship" transform="translate(24.94928448620459 -137.08225263099428) rotate(433.9430160653315)"><path class="outline" fill="#A5ABB6" stroke="none" d="M 40 0.5 L 92.23789698940439 0.5 L 92.23789698940439 -0.5 L 40 -0.5 Z M 130.5425844894044 0.5 L 182.78048147880878 0.5 L 182.78048147880878 3.5 L 189.78048147880878 0 L 182.78048147880878 -3.5 L 182.78048147880878 -0.5 L 130.5425844894044 -0.5 Z"/><text text-anchor="middle" pointer-events="none" font-size="8px" fill="#000000" x="111.39024073940439" y="3" font-family="sans-serif">ON_DAY</text></g><g class="relationship" transform="translate(24.94928448620459 -137.08225263099428) rotate(368.47871396936546)"><path class="outline" fill="#A5ABB6" stroke="none" d="M 40 0.5 L 178.5590084022858 0.5 L 178.5590084022858 -0.5 L 40 -0.5 Z M 224.8715084022858 0.5 L 363.4305168045716 0.5 L 363.4305168045716 3.5 L 370.4305168045716 0 L 363.4305168045716 -3.5 L 363.4305168045716 -0.5 L 224.8715084022858 -0.5 Z"/><text text-anchor="middle" pointer-events="none" font-size="8px" fill="#000000" x="201.7152584022858" y="3" font-family="sans-serif">AT_PLACE</text></g><g class="relationship" transform="translate(318.28471331724495 282.3960511437952) rotate(220.84593731127927)"><path class="outline" fill="#A5ABB6" stroke="none" d="M 40 0.5 L 129.22374987721363 0.5 L 129.22374987721363 -0.5 L 40 -0.5 Z M 167.52843737721363 0.5 L 256.75218725442727 0.5 L 256.75218725442727 3.5 L 263.75218725442727 0 L 256.75218725442727 -3.5 L 256.75218725442727 -0.5 L 167.52843737721363 -0.5 Z"/><text text-anchor="middle" pointer-events="none" font-size="8px" fill="#000000" x="148.37609362721363" y="3" transform="rotate(180 148.37609362721363 0)" font-family="sans-serif">ON_DAY</text></g><g class="relationship" transform="translate(318.28471331724495 282.3960511437952) rotate(191.34844897338218)"><path class="outline" fill="#A5ABB6" stroke="none" d="M 40 0.5 L 89.24094040098244 0.5 L 89.24094040098244 -0.5 L 40 -0.5 Z M 135.55344040098242 0.5 L 184.79438080196488 0.5 L 184.79438080196488 3.5 L 191.79438080196488 0 L 184.79438080196488 -3.5 L 184.79438080196488 -0.5 L 135.55344040098242 -0.5 Z"/><text text-anchor="middle" pointer-events="none" font-size="8px" fill="#000000" x="112.39719040098244" y="3" transform="rotate(180 112.39719040098244 0)" font-family="sans-serif">AT_PLACE</text></g><g class="relationship" transform="translate(-121.6204051888711 106.75935947110162) rotate(353.74648077147026)"><path class="outline" fill="#A5ABB6" stroke="none" d="M 40 0.5 L 83.03926820460377 0.5 L 83.03926820460377 -0.5 L 40 -0.5 Z M 121.34395570460377 0.5 L 164.38322390920754 0.5 L 164.38322390920754 3.5 L 171.38322390920754 0 L 164.38322390920754 -3.5 L 164.38322390920754 -0.5 L 121.34395570460377 -0.5 Z"/><text text-anchor="middle" pointer-events="none" font-size="8px" fill="#000000" x="102.19161195460377" y="3" font-family="sans-serif">ON_DAY</text></g><g class="relationship" transform="translate(-121.6204051888711 106.75935947110162) rotate(201.56812428937195)"><path class="outline" fill="#A5ABB6" stroke="none" d="M 40 0.5 L 99.08931556701194 0.5 L 99.08931556701194 -0.5 L 40 -0.5 Z M 145.40181556701194 0.5 L 204.49113113402387 0.5 L 204.49113113402387 3.5 L 211.49113113402387 0 L 204.49113113402387 -3.5 L 204.49113113402387 -0.5 L 145.40181556701194 -0.5 Z"/><text text-anchor="middle" pointer-events="none" font-size="8px" fill="#000000" x="122.24556556701194" y="3" transform="rotate(180 122.24556556701194 0)" font-family="sans-serif">AT_PLACE</text></g><g class="relationship" transform="translate(-146.96129629873997 -45.29677331531188) rotate(388.7218163037503)"><path class="outline" fill="#A5ABB6" stroke="none" d="M 40 0.5 L 111.59861346252237 0.5 L 111.59861346252237 -0.5 L 40 -0.5 Z M 149.90330096252237 0.5 L 221.50191442504473 0.5 L 221.50191442504473 3.5 L 228.50191442504473 0 L 221.50191442504473 -3.5 L 221.50191442504473 -0.5 L 149.90330096252237 -0.5 Z"/><text text-anchor="middle" pointer-events="none" font-size="8px" fill="#000000" x="130.75095721252237" y="3" font-family="sans-serif">ON_DAY</text></g><g class="relationship" transform="translate(-146.96129629873997 -45.29677331531188) rotate(524.0487623853944)"><path class="outline" fill="#A5ABB6" stroke="none" d="M 40 0.5 L 81.78992815888073 0.5 L 81.78992815888073 -0.5 L 40 -0.5 Z M 128.10242815888074 0.5 L 169.89235631776145 0.5 L 169.89235631776145 3.5 L 176.89235631776145 0 L 169.89235631776145 -3.5 L 169.89235631776145 -0.5 L 128.10242815888074 -0.5 Z"/><text text-anchor="middle" pointer-events="none" font-size="8px" fill="#000000" x="104.94617815888073" y="3" transform="rotate(180 104.94617815888073 0)" font-family="sans-serif">AT_PLACE</text></g></g><g class="layer nodes"><g class="node" transform="translate(88.50501445087866,83.73382209476162)"><circle class="outline" cx="0" cy="0" r="40" fill="#569480" stroke="#447666" stroke-width="2px"/><text text-anchor="middle" pointer-events="none" font-family="sans-serif" dy="2.5" font-size="40" fill="#FFFFFF"/><text text-anchor="middle" pointer-events="none" y="5" font-size="10px" fill="#FFFFFF" font-family="sans-serif"> 2018-05-09</text></g><g class="node" transform="translate(-355.5024147674171,14.309402009934018)"><circle class="outline" cx="0" cy="0" r="40" fill="#FFC454" stroke="#d7a013" stroke-width="2px"/><text text-anchor="middle" pointer-events="none" font-family="sans-serif" dy="2.5" font-size="40" fill="#604A0E"/><text text-anchor="middle" pointer-events="none" y="5" font-size="10px" fill="#604A0E" font-family="sans-serif"> Home</text></g><g class="node" transform="translate(-82.3548323525917,273.57110314125396)"><circle class="outline" cx="0" cy="0" r="40" fill="#4C8EDA" stroke="#2870c2" stroke-width="2px"/><text text-anchor="middle" pointer-events="none" font-family="sans-serif" dy="2.5" font-size="40" fill="#FFFFFF"/><text text-anchor="middle" pointer-events="none" y="5" font-size="10px" fill="#FFFFFF" font-family="sans-serif"> "2018-05-09T2…</text></g><g class="node" transform="translate(430.8940863177432,-76.56756854175353)"><circle class="outline" cx="0" cy="0" r="40" fill="#FFC454" stroke="#d7a013" stroke-width="2px"/><text text-anchor="middle" pointer-events="none" font-family="sans-serif" dy="2.5" font-size="40" fill="#604A0E"/><text text-anchor="middle" pointer-events="none" y="5" font-size="10px" fill="#604A0E" font-family="sans-serif"> Neo4j</text></g><g class="node" transform="translate(453.31168390253885,156.55306828671246)"><circle class="outline" cx="0" cy="0" r="40" fill="#4C8EDA" stroke="#2870c2" stroke-width="2px"/><text text-anchor="middle" pointer-events="none" font-family="sans-serif" dy="2.5" font-size="40" fill="#FFFFFF"/><text text-anchor="middle" pointer-events="none" y="5" font-size="10px" fill="#FFFFFF" font-family="sans-serif"> "2018-05-09T1…</text></g><g class="node" transform="translate(354.12450225703424,33.16327126093125)"><circle class="outline" cx="0" cy="0" r="40" fill="#FFC454" stroke="#d7a013" stroke-width="2px"/><text text-anchor="middle" pointer-events="none" font-family="sans-serif" dy="2.5" font-size="40" fill="#604A0E"/><text text-anchor="middle" pointer-events="none" y="5" font-size="10px" fill="#604A0E" font-family="sans-serif"> Nando's</text></g><g class="node" transform="translate(208.52269317922116,-55.02917939576537)"><circle class="outline" cx="0" cy="0" r="40" fill="#4C8EDA" stroke="#2870c2" stroke-width="2px"/><text text-anchor="middle" pointer-events="none" font-family="sans-serif" dy="2.5" font-size="40" fill="#FFFFFF"/><text text-anchor="middle" pointer-events="none" y="5" font-size="10px" fill="#FFFFFF" font-family="sans-serif"> "2018-05-09T1…</text></g><g class="node" transform="translate(24.94928448620459,-137.08225263099428)"><circle class="outline" cx="0" cy="0" r="40" fill="#4C8EDA" stroke="#2870c2" stroke-width="2px"/><text text-anchor="middle" pointer-events="none" font-family="sans-serif" dy="2.5" font-size="40" fill="#FFFFFF"/><text text-anchor="middle" pointer-events="none" y="5" font-size="10px" fill="#FFFFFF" font-family="sans-serif"> "2018-05-09T0…</text></g><g class="node" transform="translate(91.02223321355055,236.78464787132168)"><circle class="outline" cx="0" cy="0" r="40" fill="#FFC454" stroke="#d7a013" stroke-width="2px"/><text text-anchor="middle" pointer-events="none" font-family="sans-serif" dy="2.5" font-size="40" fill="#604A0E"/><text text-anchor="middle" pointer-events="none" y="5" font-size="10px" fill="#604A0E" font-family="sans-serif"> Train Station</text></g><g class="node" transform="translate(318.28471331724495,282.3960511437952)"><circle class="outline" cx="0" cy="0" r="40" fill="#4C8EDA" stroke="#2870c2" stroke-width="2px"/><text text-anchor="middle" pointer-events="none" font-family="sans-serif" dy="2.5" font-size="40" fill="#FFFFFF"/><text text-anchor="middle" pointer-events="none" y="5" font-size="10px" fill="#FFFFFF" font-family="sans-serif"> "2018-05-09T0…</text></g><g class="node" transform="translate(-121.6204051888711,106.75935947110162)"><circle class="outline" cx="0" cy="0" r="40" fill="#4C8EDA" stroke="#2870c2" stroke-width="2px"/><text text-anchor="middle" pointer-events="none" font-family="sans-serif" dy="2.5" font-size="40" fill="#FFFFFF"/><text text-anchor="middle" pointer-events="none" y="5" font-size="10px" fill="#FFFFFF" font-family="sans-serif"> "2018-05-09T0…</text></g><g class="node" transform="translate(-146.96129629873997,-45.29677331531188)"><circle class="outline" cx="0" cy="0" r="40" fill="#4C8EDA" stroke="#2870c2" stroke-width="2px"/><text text-anchor="middle" pointer-events="none" font-family="sans-serif" dy="2.5" font-size="40" fill="#FFFFFF"/><text text-anchor="middle" pointer-events="none" y="5" font-size="10px" fill="#FFFFFF" font-family="sans-serif"> "2018-05-08T1…</text></g></g></svg>