<svg class="main-svg" xmlns="http://www.w3.org/2000/svg" xmlns:xlink="http://www.w3.org/1999/xlink" width="1000" height="600" style="" viewBox="0 0 1000 600"><rect x="0" y="0" width="1000" height="600" style="fill: rgb(255, 255, 255); fill-opacity: 1;"/><defs id="defs-794f5f"><g class="clips"><clipPath id="clip794f5fxyplot" class="plotclip"><rect width="840" height="372"/></clipPath><clipPath class="axesclip" id="clip794f5fx"><rect x="80" y="0" width="840" height="600"/></clipPath><clipPath class="axesclip" id="clip794f5fy"><rect x="0" y="100" width="1000" height="372"/></clipPath><clipPath class="axesclip" id="clip794f5fxy"><rect x="80" y="100" width="840" height="372"/></clipPath></g><g class="gradients"/><g class="patterns"/></defs><g class="bglayer"><rect class="bg" x="80" y="100" width="840" height="372" style="fill: rgb(229, 236, 246); fill-opacity: 1; stroke-width: 0;"/></g><g class="layer-below"><g class="imagelayer"/><g class="shapelayer"/></g><g class="cartesianlayer"><g class="subplot xy"><g class="layer-subplot"><g class="shapelayer"/><g class="imagelayer"/></g><g class="minor-gridlayer"><g class="x"/><g class="y"/></g><g class="gridlayer"><g class="x"><path class="xgrid crisp" transform="translate(94.08,0)" d="M0,100v372" style="stroke: rgb(255, 255, 255); stroke-opacity: 1; stroke-width: 1px;"/><path class="xgrid crisp" transform="translate(108.16,0)" d="M0,100v372" style="stroke: rgb(255, 255, 255); stroke-opacity: 1; stroke-width: 1px;"/><path class="xgrid crisp" transform="translate(122.24000000000001,0)" d="M0,100v372" style="stroke: rgb(255, 255, 255); stroke-opacity: 1; stroke-width: 1px;"/><path class="xgrid crisp" transform="translate(136.32,0)" d="M0,100v372" style="stroke: rgb(255, 255, 255); stroke-opacity: 1; stroke-width: 1px;"/><path class="xgrid crisp" transform="translate(150.39,0)" d="M0,100v372" style="stroke: rgb(255, 255, 255); stroke-opacity: 1; stroke-width: 1px;"/><path class="xgrid crisp" transform="translate(164.47,0)" d="M0,100v372" style="stroke: rgb(255, 255, 255); stroke-opacity: 1; stroke-width: 1px;"/><path class="xgrid crisp" transform="translate(178.55,0)" d="M0,100v372" style="stroke: rgb(255, 255, 255); stroke-opacity: 1; stroke-width: 1px;"/><path class="xgrid crisp" transform="translate(192.63,0)" d="M0,100v372" style="stroke: rgb(255, 255, 255); stroke-opacity: 1; stroke-width: 1px;"/><path class="xgrid crisp" transform="translate(206.70999999999998,0)" d="M0,100v372" style="stroke: rgb(255, 255, 255); stroke-opacity: 1; stroke-width: 1px;"/><path class="xgrid crisp" transform="translate(220.79,0)" d="M0,100v372" style="stroke: rgb(255, 255, 255); stroke-opacity: 1; stroke-width: 1px;"/><path class="xgrid crisp" transform="translate(234.87,0)" d="M0,100v372" style="stroke: rgb(255, 255, 255); stroke-opacity: 1; stroke-width: 1px;"/><path class="xgrid crisp" transform="translate(248.95,0)" d="M0,100v372" style="stroke: rgb(255, 255, 255); stroke-opacity: 1; stroke-width: 1px;"/><path class="xgrid crisp" transform="translate(263.03,0)" d="M0,100v372" style="stroke: rgb(255, 255, 255); stroke-opacity: 1; stroke-width: 1px;"/><path class="xgrid crisp" transform="translate(277.1,0)" d="M0,100v372" style="stroke: rgb(255, 255, 255); stroke-opacity: 1; stroke-width: 1px;"/><path class="xgrid crisp" transform="translate(291.18,0)" d="M0,100v372" style="stroke: rgb(255, 255, 255); stroke-opacity: 1; stroke-width: 1px;"/><path class="xgrid crisp" transform="translate(305.26,0)" d="M0,100v372" style="stroke: rgb(255, 255, 255); stroke-opacity: 1; stroke-width: 1px;"/><path class="xgrid crisp" transform="translate(319.34000000000003,0)" d="M0,100v372" style="stroke: rgb(255, 255, 255); stroke-opacity: 1; stroke-width: 1px;"/><path class="xgrid crisp" transform="translate(333.41999999999996,0)" d="M0,100v372" style="stroke: rgb(255, 255, 255); stroke-opacity: 1; stroke-width: 1px;"/><path class="xgrid crisp" transform="translate(347.5,0)" d="M0,100v372" style="stroke: rgb(255, 255, 255); stroke-opacity: 1; stroke-width: 1px;"/><path class="xgrid crisp" transform="translate(361.58,0)" d="M0,100v372" style="stroke: rgb(255, 255, 255); stroke-opacity: 1; stroke-width: 1px;"/><path class="xgrid crisp" transform="translate(375.66,0)" d="M0,100v372" style="stroke: rgb(255, 255, 255); stroke-opacity: 1; stroke-width: 1px;"/><path class="xgrid crisp" transform="translate(389.74,0)" d="M0,100v372" style="stroke: rgb(255, 255, 255); stroke-opacity: 1; stroke-width: 1px;"/><path class="xgrid crisp" transform="translate(403.81,0)" d="M0,100v372" style="stroke: rgb(255, 255, 255); stroke-opacity: 1; stroke-width: 1px;"/><path class="xgrid crisp" transform="translate(417.89,0)" d="M0,100v372" style="stroke: rgb(255, 255, 255); stroke-opacity: 1; stroke-width: 1px;"/><path class="xgrid crisp" transform="translate(431.97,0)" d="M0,100v372" style="stroke: rgb(255, 255, 255); stroke-opacity: 1; stroke-width: 1px;"/><path class="xgrid crisp" transform="translate(446.05,0)" d="M0,100v372" style="stroke: rgb(255, 255, 255); stroke-opacity: 1; stroke-width: 1px;"/><path class="xgrid crisp" transform="translate(460.13,0)" d="M0,100v372" style="stroke: rgb(255, 255, 255); stroke-opacity: 1; stroke-width: 1px;"/><path class="xgrid crisp" transform="translate(474.21,0)" d="M0,100v372" style="stroke: rgb(255, 255, 255); stroke-opacity: 1; stroke-width: 1px;"/><path class="xgrid crisp" transform="translate(488.29,0)" d="M0,100v372" style="stroke: rgb(255, 255, 255); stroke-opacity: 1; stroke-width: 1px;"/><path class="xgrid crisp" transform="translate(502.37,0)" d="M0,100v372" style="stroke: rgb(255, 255, 255); stroke-opacity: 1; stroke-width: 1px;"/><path class="xgrid crisp" transform="translate(516.45,0)" d="M0,100v372" style="stroke: rgb(255, 255, 255); stroke-opacity: 1; stroke-width: 1px;"/><path class="xgrid crisp" transform="translate(530.52,0)" d="M0,100v372" style="stroke: rgb(255, 255, 255); stroke-opacity: 1; stroke-width: 1px;"/><path class="xgrid crisp" transform="translate(544.6,0)" d="M0,100v372" style="stroke: rgb(255, 255, 255); stroke-opacity: 1; stroke-width: 1px;"/><path class="xgrid crisp" transform="translate(558.6800000000001,0)" d="M0,100v372" style="stroke: rgb(255, 255, 255); stroke-opacity: 1; stroke-width: 1px;"/><path class="xgrid crisp" transform="translate(572.76,0)" d="M0,100v372" style="stroke: rgb(255, 255, 255); stroke-opacity: 1; stroke-width: 1px;"/><path class="xgrid crisp" transform="translate(586.8399999999999,0)" d="M0,100v372" style="stroke: rgb(255, 255, 255); stroke-opacity: 1; stroke-width: 1px;"/><path class="xgrid crisp" transform="translate(600.92,0)" d="M0,100v372" style="stroke: rgb(255, 255, 255); stroke-opacity: 1; stroke-width: 1px;"/><path class="xgrid crisp" transform="translate(615,0)" d="M0,100v372" style="stroke: rgb(255, 255, 255); stroke-opacity: 1; stroke-width: 1px;"/><path class="xgrid crisp" transform="translate(629.08,0)" d="M0,100v372" style="stroke: rgb(255, 255, 255); stroke-opacity: 1; stroke-width: 1px;"/><path class="xgrid crisp" transform="translate(643.15,0)" d="M0,100v372" style="stroke: rgb(255, 255, 255); stroke-opacity: 1; stroke-width: 1px;"/><path class="xgrid crisp" transform="translate(657.23,0)" d="M0,100v372" style="stroke: rgb(255, 255, 255); stroke-opacity: 1; stroke-width: 1px;"/><path class="xgrid crisp" transform="translate(671.31,0)" d="M0,100v372" style="stroke: rgb(255, 255, 255); stroke-opacity: 1; stroke-width: 1px;"/><path class="xgrid crisp" transform="translate(685.39,0)" d="M0,100v372" style="stroke: rgb(255, 255, 255); stroke-opacity: 1; stroke-width: 1px;"/><path class="xgrid crisp" transform="translate(699.47,0)" d="M0,100v372" style="stroke: rgb(255, 255, 255); stroke-opacity: 1; stroke-width: 1px;"/><path class="xgrid crisp" transform="translate(713.55,0)" d="M0,100v372" style="stroke: rgb(255, 255, 255); stroke-opacity: 1; stroke-width: 1px;"/><path class="xgrid crisp" transform="translate(727.63,0)" d="M0,100v372" style="stroke: rgb(255, 255, 255); stroke-opacity: 1; stroke-width: 1px;"/><path class="xgrid crisp" transform="translate(741.71,0)" d="M0,100v372" style="stroke: rgb(255, 255, 255); stroke-opacity: 1; stroke-width: 1px;"/><path class="xgrid crisp" transform="translate(755.79,0)" d="M0,100v372" style="stroke: rgb(255, 255, 255); stroke-opacity: 1; stroke-width: 1px;"/><path class="xgrid crisp" transform="translate(769.86,0)" d="M0,100v372" style="stroke: rgb(255, 255, 255); stroke-opacity: 1; stroke-width: 1px;"/><path class="xgrid crisp" transform="translate(783.94,0)" d="M0,100v372" style="stroke: rgb(255, 255, 255); stroke-opacity: 1; stroke-width: 1px;"/><path class="xgrid crisp" transform="translate(798.02,0)" d="M0,100v372" style="stroke: rgb(255, 255, 255); stroke-opacity: 1; stroke-width: 1px;"/><path class="xgrid crisp" transform="translate(812.1,0)" d="M0,100v372" style="stroke: rgb(255, 255, 255); stroke-opacity: 1; stroke-width: 1px;"/><path class="xgrid crisp" transform="translate(826.18,0)" d="M0,100v372" style="stroke: rgb(255, 255, 255); stroke-opacity: 1; stroke-width: 1px;"/><path class="xgrid crisp" transform="translate(840.26,0)" d="M0,100v372" style="stroke: rgb(255, 255, 255); stroke-opacity: 1; stroke-width: 1px;"/><path class="xgrid crisp" transform="translate(854.34,0)" d="M0,100v372" style="stroke: rgb(255, 255, 255); stroke-opacity: 1; stroke-width: 1px;"/><path class="xgrid crisp" transform="translate(868.42,0)" d="M0,100v372" style="stroke: rgb(255, 255, 255); stroke-opacity: 1; stroke-width: 1px;"/><path class="xgrid crisp" transform="translate(882.5,0)" d="M0,100v372" style="stroke: rgb(255, 255, 255); stroke-opacity: 1; stroke-width: 1px;"/><path class="xgrid crisp" transform="translate(896.57,0)" d="M0,100v372" style="stroke: rgb(255, 255, 255); stroke-opacity: 1; stroke-width: 1px;"/><path class="xgrid crisp" transform="translate(910.65,0)" d="M0,100v372" style="stroke: rgb(255, 255, 255); stroke-opacity: 1; stroke-width: 1px;"/></g><g class="y"><path class="ygrid crisp" transform="translate(0,412.22)" d="M80,0h840" style="stroke: rgb(255, 255, 255); stroke-opacity: 1; stroke-width: 1px;"/><path class="ygrid crisp" transform="translate(0,371.04)" d="M80,0h840" style="stroke: rgb(255, 255, 255); stroke-opacity: 1; stroke-width: 1px;"/><path class="ygrid crisp" transform="translate(0,329.86)" d="M80,0h840" style="stroke: rgb(255, 255, 255); stroke-opacity: 1; stroke-width: 1px;"/><path class="ygrid crisp" transform="translate(0,288.69)" d="M80,0h840" style="stroke: rgb(255, 255, 255); stroke-opacity: 1; stroke-width: 1px;"/><path class="ygrid crisp" transform="translate(0,247.51)" d="M80,0h840" style="stroke: rgb(255, 255, 255); stroke-opacity: 1; stroke-width: 1px;"/><path class="ygrid crisp" transform="translate(0,206.32999999999998)" d="M80,0h840" style="stroke: rgb(255, 255, 255); stroke-opacity: 1; stroke-width: 1px;"/><path class="ygrid crisp" transform="translate(0,165.15)" d="M80,0h840" style="stroke: rgb(255, 255, 255); stroke-opacity: 1; stroke-width: 1px;"/><path class="ygrid crisp" transform="translate(0,123.97)" d="M80,0h840" style="stroke: rgb(255, 255, 255); stroke-opacity: 1; stroke-width: 1px;"/></g></g><g class="zerolinelayer"><path class="yzl zl crisp" transform="translate(0,453.4)" d="M80,0h840" style="stroke: rgb(255, 255, 255); stroke-opacity: 1; stroke-width: 2px;"/></g><path class="xlines-below"/><path class="ylines-below"/><g class="overlines-below"/><g class="xaxislayer-below"/><g class="yaxislayer-below"/><g class="overaxes-below"/><g class="plot" transform="translate(80,100)" clip-path="url(#clip794f5fxyplot)"><g class="scatterlayer mlayer"><g class="trace scatter traced3acbf" style="stroke-miterlimit: 2; opacity: 1;"><g class="fills"/><g class="errorbars"/><g class="lines"><path class="js-line" d="M0,353.4L17.98,353.4L18.1,351.68L18.57,351.13L18.93,353.4L19.05,350.99L19.88,353.4L19.99,353.4L20.23,353.4L20.35,346.06L21.06,353.4L21.18,351.6L21.3,351.21L21.77,350.86L22.12,353.38L22.24,353.4L22.95,346.83L23.07,352.96L23.19,353.25L23.31,347.38L24.14,353.4L24.25,351.51L24.73,348.69L25.08,353.4L25.2,353.4L25.79,350.84L25.91,353.4L26.03,353.4L26.26,351.48L26.74,353.4L26.86,353.4L26.97,351.2L27.57,353.4L27.68,353.4L28.39,347.51L28.51,353.01L28.75,353.4L28.87,351.44L29.58,350.82L29.7,353.4L29.81,352.6L30.05,350.95L30.64,353.4L30.76,353.4L31.71,353.4L31.83,349.67L32.65,353.4L32.77,353.4L33.36,353.4L33.48,350.8L34.19,353.4L34.31,351.29L34.66,350.89L35.02,353.4L35.14,351.07L35.49,353.4L35.61,347.4L35.85,353.36L35.97,350.98L36.44,350.89L36.68,353.4L36.79,349.44L37.27,349.04L37.62,353.4L37.74,351.07L38.45,353.4L38.57,351.11L38.92,350.49L39.28,353.4L39.4,351.06L40.23,353.4L40.34,351.49L40.7,351.36L41.05,353.4L41.17,350.84L41.88,353.4L42,351.07L42.47,350.92L42.83,353.4L42.95,351.36L43.3,351.12L43.66,353.4L43.77,350.96L44.13,350.92L44.48,353.4L44.6,351.28L45.31,353.4L45.43,351.06L45.79,350.85L45.9,353.4L46.14,353.3L46.26,347.05L47.09,353.39L47.21,350.89L48.03,353.4L48.15,353.4L49.45,353.4L49.57,351.54L50.4,353.4L50.52,353.4L50.75,353.4L50.87,334.56L51.7,353.39L51.82,353.4L53,353.4L53.12,350.6L53.95,353.4L54.07,353.4L59.98,353.4L60.1,310.39L60.93,353.4L61.05,353.4L67.67,353.4L67.79,351.67L68.15,351.13L68.38,353.4L68.5,350.99L69.21,353.4L69.33,351.63L69.68,353.4L69.8,345.62L70.63,353.4L70.75,353.4L70.87,349.14L71.46,353.4L71.58,353.4L72.17,351.46L72.29,353.3L72.41,353.38L72.88,346.91L73.12,353.16L73.23,353.4L73.35,350.71L73.94,353.14L74.06,353.4L74.65,351.12L74.77,353.4L74.89,353.4L75.13,351.06L75.6,353.4L75.72,353.4L75.95,351.55L76.43,353.4L76.55,353.4L77.14,350.84L77.26,353.4L77.37,353.4L77.97,350.68L78.08,353.14L78.2,353.4L78.91,351.13L79.03,353.4L79.27,347.86L79.74,353.4L79.86,353.4L80.57,350.94L80.69,353.13L81.4,353.4L81.52,350.67L82.34,353.4L82.46,353.4L83.76,353.4L83.88,331.58L84.71,353.39L84.83,353.4L85.06,351.45L85.54,353.4L85.66,353.4L92.4,353.4L92.52,351.45L92.87,351.13L93.35,353.4L93.46,351.12L93.7,347.71L94.06,353.39L94.29,353.3L94.41,353.4L95.12,350.79L95.24,353.39L95.83,350.83L95.95,353.4L96.07,353.4L96.78,351.42L96.9,353.4L97.61,351.05L97.72,353.4L97.96,350.84L98.43,351.62L98.55,353.4L99.14,351.2L99.26,352.9L99.38,353.06L99.5,353.4L99.62,351.26L99.97,353.4L100.09,347.69L100.33,353.3L100.45,351.16L100.8,350.82L101.15,353.4L101.27,350.96L102.1,353.4L102.22,353.4L102.69,353.4L102.81,352.47L103.76,353.4L103.88,353.4L104.59,353.4L104.7,322.72L105.53,353.27L105.65,353.4L106.24,353.4L106.36,349.57L107.19,353.4L107.31,353.4L114.17,353.4L114.29,270.01L115.12,353.4L115.23,353.4L121.74,353.4L121.86,351.45L122.21,351.07L122.57,353.4L122.69,351.13L123.04,353.4L123.16,346.84L123.4,353.26L123.52,351.25L123.87,353.4L124.34,353.26L124.46,351.01L124.82,350.8L125.17,353.4L125.29,351.07L126,353.4L126.12,351.43L126.47,351.3L126.83,353.4L126.95,351.17L127.54,353.4L127.77,353.26L127.89,353.26L128.96,353.4L129.08,353.4L130.14,353.4L130.26,350.97L130.97,353.4L131.09,351.29L131.56,350.84L131.8,353.4L131.92,350.85L132.63,353.4L132.74,351.48L133.1,353.4L133.22,351.28L133.34,348.44L134.16,353.4L134.28,353.4L134.75,350.54L134.99,353.4L135.11,353.4L135.23,353.26L135.35,351.45L135.7,350.92L136.17,353.4L136.29,353.4L136.53,351.13L137.12,351.28L137.24,353.4L137.71,351.13L137.95,353.4L138.07,353.4L138.3,349.83L138.78,353.28L138.9,353.28L139.49,351.15L139.61,353.28L139.72,353.28L139.84,350.84L140.43,353.27L140.55,353.28L140.67,351.01L141.03,353.4L141.26,353.4L141.38,353.4L141.97,350.81L142.09,353.4L142.21,353.4L142.92,350.91L143.04,353.4L143.63,351.42L143.75,353.4L143.86,353.4L144.57,350.96L144.69,353.4L147.89,353.4L148.01,350.99L148.83,353.4L148.95,353.35L149.19,350.42L149.31,353.4L149.66,353.4L149.78,353.4L150.37,347.62L150.49,352.94L150.61,353.35L150.96,353.4L151.32,350.1L151.44,353.4L151.67,353.4L151.79,350.54L152.38,353.4L152.62,353.36L152.74,353.28L153.92,353.4L154.04,353.4L155.1,353.4L155.22,331.42L155.93,353.38L156.05,351.28L156.17,353.03L157,353.4L157.12,353.4L159.48,353.4L159.6,350.92L160.43,353.4L160.55,353.4L164.69,353.4L164.81,310.8L165.63,353.4L165.75,353.4L172.38,353.4L172.5,351.27L172.73,351.02L173.32,353.4L173.44,353.4L173.92,348.42L174.15,353.4L174.27,353.4L174.86,351.01L174.98,353.38L175.1,353.4L175.81,350.85L175.93,353.4L176.16,351.62L176.64,353.4L176.75,353.4L179.48,353.4L179.59,351.21L180.3,353.4L180.42,351.17L180.78,350.78L181.13,353.4L181.25,350.88L181.61,353.4L181.72,346.67L181.96,353.21L182.08,351.23L182.79,353.4L182.91,350.93L183.62,353.4L183.74,351.05L184.33,353.4L184.45,351.18L184.56,351.56L185.04,351.1L185.27,353.4L185.39,351.04L186.1,353.4L186.22,351.56L186.57,351.44L186.93,353.4L187.05,350.93L187.76,353.4L187.88,351.12L188.7,353.4L188.82,353.4L191.54,353.25L191.66,351.4L192.37,351.13L192.49,353.4L192.61,353.4L192.85,350.28L193.32,353.4L193.44,353.39L193.67,353.4L193.79,350.43L194.03,347.75L194.62,353.4L194.74,353.4L194.97,349.69L195.45,353.4L195.57,353.4L198.64,353.32L198.76,350.61L198.88,321.17L199,353.12L199.47,352.86L199.59,353.21L200.54,353.4L200.65,353.4L202.07,353.4L202.19,351.37L203.02,353.4L203.14,353.4L208.34,353.4L208.46,303.43L209.29,353.4L209.41,353.4L216.03,353.4L216.15,351.27L216.51,351.02L216.86,353.4L216.98,351.06L217.57,353.4L217.69,348.18L218.52,353.4L218.64,350.99L218.99,350.9L219.35,353.4L219.46,350.61L220.17,353.4L220.29,351.51L220.65,351.2L221,353.4L221.12,351.06L221.95,353.4L222.07,353.4L224.32,353.4L224.43,350.8L225.14,353.4L225.26,351.19L225.62,350.79L225.97,353.4L226.09,350.83L226.45,347.27L226.8,353.4L226.92,351.24L227.63,353.4L227.75,350.8L228.46,353.4L228.57,351.05L229.28,353.4L229.4,351.54L229.76,350.88L229.88,353.4L230.11,353.31L230.23,351.05L230.94,353.4L231.06,351.55L231.53,351.44L231.77,353.4L231.89,350.91L232.6,353.4L232.72,351.12L233.54,353.4L233.66,353.4L236.38,353.4L236.5,351.28L237.21,353.4L237.33,350.78L237.68,349.5L238.04,353.4L238.16,350.42L238.87,353.4L238.99,351.12L239.34,353.4L239.46,347.25L239.7,353.26L239.81,350.39L240.52,353.4L240.64,350.38L241.12,353.4L241.35,353.39L241.47,351.11L241.94,350.42L242.18,353.4L242.3,350.56L242.77,350.46L243.01,353.4L243.13,350.96L243.84,353.4L243.95,350.57L244.66,353.4L244.78,349.2L245.49,353.4L245.61,350.92L246.08,350.49L246.44,353.4L246.56,350.61L246.91,350.56L247.27,353.4L247.39,351.26L247.74,350.99L247.98,353.4L248.1,350.42L248.92,353.4L249.04,350.49L249.75,353.4L249.87,348.44L250.23,348.21L250.58,353.4L250.7,350.61L251.05,350.45L251.41,353.4L251.53,351.06L251.88,347.74L252.24,353.4L252.35,350.63L252.83,350.55L253.06,353.4L253.18,350.42L253.89,353.4L254.01,350.94L254.6,350.46L254.72,353.4L254.84,347.9L255.55,353.38L255.67,350.92L256.38,353.4L256.5,350.48L257.21,353.4L257.32,350.49L258.03,353.4L258.15,350.94L258.63,350.56L258.86,353.4L258.98,350.39L259.69,353.4L259.81,350.99L260.16,350.92L260.52,353.4L260.64,350.63L260.99,353.4L261.11,348.98L261.35,353.28L261.46,348.89L262.17,353.4L262.29,350.92L262.77,350.42L263,353.4L263.12,350.56L263.95,353.4L264.07,353.4L266.91,353.4L267.03,350.92L267.62,353.4L267.85,353.35L267.97,353.4L268.09,350.69L268.68,353.26L268.8,353.4L269.51,346.76L269.63,351.34L269.75,353.1L270.1,353.26L270.34,350.26L270.46,353.17L270.57,353.26L270.81,350.59L271.28,353.26L271.4,353.26L273.06,353.26L273.18,351.93L274.01,353.26L274.12,350.71L274.24,293.94L274.36,352.97L274.83,352.73L274.95,352.92L276.02,353.4L276.14,353.4L276.61,353.4L276.73,350.46L277.55,353.4L277.67,353.4L282.64,353.4L282.76,351.08L283.23,350.7L283.47,353.4L283.59,350.63L283.71,353.4L284.06,347.48L284.3,353.28L284.42,350.91L284.89,350.74L285.25,353.4L285.36,350.53L286.19,353.4L286.31,353.4L286.55,350.92L287.02,351.06L287.14,353.4L287.37,348.79L287.85,353.4L287.97,353.4L288.2,350.49L288.68,351.05L288.79,353.4L289.5,350.41L289.62,353.4L290.33,350.55L290.45,353.4L290.69,351L291.16,353.4L291.28,353.4L294,353.4L294.12,351.41L294.83,353.4L294.95,351.48L295.3,350.83L295.77,353.4L295.89,353.4L296.13,353.4L296.25,351.13L296.84,353.4L296.96,346.81L297.79,353.4L297.9,351.08L298.02,351.21L298.14,352.77L298.26,350.82L298.38,353.4L298.85,353.35L298.97,353.4L299.32,351L299.68,353.4L299.8,353.4L299.92,350.84L300.51,353.4L300.63,353.4L301.1,346.46L301.45,350.57L301.57,350.92L302.28,353.4L302.4,350.91L303.11,353.4L303.23,351.29L303.46,351.04L303.82,353.4L303.94,353.26L304.06,350.92L304.88,353.4L305,353.4L305.24,350.52L305.71,353.4L305.83,353.4L306.3,350.99L306.54,353.4L306.66,353.4L307.13,351.28L307.37,353.4L307.49,353.4L307.96,350.92L308.2,353.4L308.32,353.4L308.43,350.85L309.03,353.39L309.14,353.4L309.74,350.84L309.85,353.4L309.97,353.4L310.56,351.05L310.68,353.4L310.8,353.4L311.04,351.26L311.51,353.4L311.63,353.4L312.22,349.77L312.34,352.64L312.46,353.39L312.57,350.84L312.69,353.4L313.17,353.4L313.28,353.4L313.88,350.91L313.99,353.4L314.11,353.4L314.23,350.91L314.94,351.41L315.06,353.4L315.3,353.4L315.41,351.34L315.89,350.4L316.24,353.4L316.36,353.4L316.6,351.13L317.07,353.4L317.19,353.4L317.43,353.4L317.54,351.46L317.78,350.84L318.25,353.4L318.37,351.06L318.85,350.96L319.08,353.4L319.2,351.27L319.55,351.06L319.91,353.4L320.03,350.97L320.38,350.95L320.86,353.4L320.97,350.98L321.8,353.4L321.92,353.4L322.75,353.4L322.87,352.55L323.93,353.4L324.05,353.4L324.64,353.4L324.76,351.56L325.59,353.4L325.71,353.4L325.94,353.4L326.06,351.1L326.3,351.02L326.89,353.4L327.01,353.4L327.25,347.7L327.72,351.15L327.84,353.35L328.07,350.32L328.31,353.4L328.55,350.88L328.66,353.4L329.85,353.4L329.97,351.72L330.79,353.4L330.91,353.4L331.74,353.4L331.86,350.85L331.98,353.4L332.1,146.73L332.92,353.22L333.04,353.33L333.4,353.4L333.52,342.96L334.34,353.4L334.46,353.4L341.32,353.4L341.44,228.18L342.27,353.4L342.39,353.4L348.9,353.4L349.01,351.45L349.49,351.07L349.72,353.4L349.84,351.13L350.2,353.4L350.32,346.81L350.55,353.26L350.67,351.26L350.91,353.4L351.14,351.05L351.5,353.26L351.62,351.13L352.33,351L352.45,353.4L352.56,353.4L353.27,351.56L353.39,353.4L354.1,351.06L354.22,353.4L354.46,353.4L354.57,351.16L355.17,353.4L355.28,353.26L355.4,351.49L355.76,351.06L356.23,353.4L356.35,353.4L356.59,351.12L357.06,351.62L357.18,353.4L360.25,353.4L360.37,351.39L361.08,353.4L361.2,351.23L361.55,350.85L361.79,353.4L361.91,353.01L362.03,350.84L362.86,353.4L362.97,353.4L363.21,346.76L363.68,350.71L363.8,353.4L364.04,350.54L364.51,353.4L364.63,353.4L365.22,348.8L365.46,351.27L365.58,352.91L365.93,353.28L366.17,350.73L366.29,353.13L366.41,353.28L366.52,350.91L367.12,353.14L367.23,353.34L367.47,353.4L367.83,351.13L367.94,353.4L368.06,353.4L368.18,351.09L368.77,353.4L368.89,353.26L369.01,348.73L369.25,353.4L369.6,353.4L369.72,353.4L369.84,350.95L370.43,353.4L370.55,353.4L370.66,351.12L371.26,353.4L371.37,353.4L371.85,351.07L372.08,353.17L372.2,353.4L372.68,350.54L372.91,353.4L373.03,353.4L373.15,351.49L373.74,353.4L373.86,353.4L374.33,351.12L374.57,353.4L374.69,353.4L374.81,350.92L375.52,351.28L375.63,353.4L375.87,353.4L375.99,351.19L376.34,350.98L376.7,353.4L376.82,351.06L377.53,353.4L377.65,351.41L378.12,351.13L378.35,353.4L378.47,345.52L379.18,353.4L379.3,351.27L379.42,353.4L379.66,348.68L380.13,349.26L380.25,353.24L380.48,353.4L380.6,350.84L380.96,350.81L381.31,353.4L381.43,351.05L382.14,353.4L382.26,350.85L382.73,350.7L382.97,353.4L383.09,350.84L383.8,353.4L383.92,350.07L384.63,353.4L384.74,350.95L385.1,350.52L385.57,353.4L385.69,353.3L385.81,353.4L385.93,351.01L386.4,350.92L386.64,353.4L386.75,346.65L387.46,353.4L387.58,351.27L387.7,353.4L387.94,353.4L388.06,351.48L388.41,351.12L388.77,353.4L388.88,351.2L389.36,351.12L389.59,353.4L389.71,351.29L390.54,353.4L390.66,353.3L391.84,353.4L391.96,353.4L393.03,353.4L393.14,351.41L393.74,353.4L393.85,352.87L393.97,350.45L394.68,353.4L394.8,350.39L395.63,353.4L395.75,350.42L396.57,353.4L396.69,350.42L397.28,353.4L397.4,352.87L397.52,350.49L398.23,353.4L398.35,350.89L399.18,353.4L399.3,350.39L400.01,353.4L400.12,350.46L400.6,350.21L400.83,353.4L400.95,352.55L401.07,350.63L401.78,350.47L401.9,353.4L402.02,353.4L402.25,350.42L402.73,350.56L402.85,353.4L403.08,350.75L403.55,350.92L403.67,353.4L403.91,347.91L404.5,350.63L404.62,353.15L404.74,353.26L404.86,350.32L405.68,353.4L405.8,353.4L406.04,350.49L406.63,350.63L406.75,353.4L406.87,350.48L407.46,353.4L407.58,353.4L408.17,350.31L408.29,353.26L408.41,353.3L408.64,353.4L409,347.53L409.12,353.25L409.23,353.16L409.35,348.5L409.59,353.4L409.94,353.4L410.06,353.4L410.18,350.41L410.77,353.4L410.89,353.4L411.13,350.28L411.6,350.81L411.72,352.95L412.07,353.4L412.31,350.56L412.43,353.4L412.55,353.4L413.14,350.45L413.26,353.39L413.37,353.4L413.97,350.93L414.08,353.4L414.2,353.4L415.03,353.4L415.15,352.08L415.98,353.4L416.1,353.4L417.28,353.4L417.4,350.92L418.23,353.4L418.34,353.4L418.94,353.26L419.05,350.75L419.76,353.4L419.88,350.84L420.71,353.4L420.83,353.4L420.95,350.84L421.66,351.27L421.77,353.4L422.48,353.26L422.6,351.17L423.43,353.4L423.55,350.84L424.26,353.4L424.38,350.93L425.21,353.4L425.32,353.4L425.68,348.95L426.03,353.26L426.15,353.3L426.39,353.4L426.63,350.46L426.86,353.4L426.98,353.4L427.1,350.84L427.81,351.29L427.93,353.4L428.16,353.4L428.28,350.89L428.99,353.4L429.11,351.14L429.46,351L429.82,353.4L429.94,351.47L430.41,351.05L430.65,353.4L430.77,349.8L431.59,353.4L431.71,353.26L431.95,353.4L432.07,351.27L432.3,350.85L432.78,353.4L432.9,349.58L433.61,353.4L433.72,351.6L434.32,351.06L434.55,353.4L434.67,353.4L435.14,345.39L435.26,352.05L435.62,351.46L435.97,353.4L436.09,351.19L436.33,353.4L436.45,347.66L436.8,353.24L436.92,348.9L437.51,353.4L437.75,353.3L437.86,353.4L438.46,350.81L438.57,353.4L438.69,353.4L438.93,350.94L439.4,351.05L439.52,353.4L439.99,350.17L440.23,351.26L440.35,353.24L440.47,353.4L440.59,349L441.3,353.4L441.41,350.39L441.77,353.4L441.89,349.44L442.12,353.28L442.24,349.46L443.07,353.4L443.19,353.4L443.43,353.4L443.54,349.69L444.37,353.4L444.49,353.4L445.91,353.4L446.03,351.14L446.74,353.4L446.86,351.27L447.57,353.4L447.68,350.84L448.51,353.4L448.63,350.85L449.46,353.4L449.58,350.85L450.29,353.4L450.41,351.27L451.23,353.4L451.35,351.25L452.18,353.4L452.3,350.83L453.01,353.4L453.13,351.11L453.6,351L453.95,353.4L454.07,351.47L455.14,353.4L455.26,353.4L457.39,353.4L457.5,351.62L458.21,351.56L458.33,353.4L458.45,353.4L459.04,348.88L459.16,352.94L459.28,353.4L459.87,347.1L459.99,352.71L460.11,353.26L460.23,353.4L460.34,351.16L460.82,353.4L460.94,350.73L461.05,353.37L461.17,349.78L462.24,353.4L462.35,353.4L462.83,351.13L463.06,353.4L463.18,353.4L463.3,351.03L463.89,353.4L464.01,353.4L464.84,348.87L464.96,352.4L465.31,351.28L465.67,353.4L465.79,351.17L466.5,353.4L466.61,351.7L467.09,350.85L467.32,353.4L467.44,351.13L468.27,353.4L468.39,349.48L468.86,348.02L469.1,353.4L469.22,353.25L469.34,353.4L471.82,353.4L471.94,351.04L472.17,350.63L472.77,353.4L472.88,351.29L473.36,350.83L473.59,353.4L473.71,351.09L474.19,351L474.54,353.4L474.66,347.48L475.37,353.4L475.49,347.21L476.32,353.4L476.43,353.4L478.92,353.4L479.04,351.54L479.27,350.53L479.75,353.4L479.86,310.14L479.98,353.19L480.69,352.86L480.81,353.1L481.64,353.4L481.76,353.4L482.47,353.4L482.59,345.09L483.41,353.4L483.53,353.4L486.02,353.4L486.14,351.87L487.08,353.4L487.2,353.4L487.79,353.4L487.91,351.46L488.38,351.07L488.74,353.4L488.86,351.13L489.21,347.95L489.57,353.4L489.68,348.98L490.39,353.4L490.51,351.14L490.63,353.4L491.22,351L491.34,353.4L491.46,353.4L492.05,351.56L492.17,353.4L492.29,353.4L492.88,351.05L493,353.4L493.12,353.4L493.35,349.63L493.83,353.4L493.94,353.4L494.54,351.07L494.65,353.4L494.77,353.4L495.01,351.06L495.48,351.13L495.6,353.4L495.84,351.63L496.31,353.4L496.43,353.4L496.66,353.4L496.78,351.26L497.73,353.4L497.85,353.4L499.27,353.4L499.39,351.56L500.1,351.49L500.21,353.4L500.33,351.95L500.57,350.73L500.69,353.4L500.81,353.4L500.92,350.84L501.52,353.4L501.63,353.4L502.23,347.2L502.34,352.66L502.46,353.38L502.58,350.66L503.17,353.28L503.29,353.4L504,349.95L504.12,353.29L504.35,353.4L504.59,350.99L504.83,353.4L504.95,353.4L505.18,350.84L505.66,353.4L505.77,353.4L506.37,346.34L506.48,352.96L506.6,353.25L506.96,353.4L507.43,350.12L507.55,351.86L507.67,350.8L507.79,353.4L508.14,351.28L508.26,353.4L508.97,351.19L509.09,353.4L509.68,351.08L509.8,353.4L509.92,353.4L510.51,351.27L510.63,353.4L510.74,353.4L510.98,349.24L511.45,353.4L511.57,353.4L511.69,351.19L512.28,353.4L512.4,353.4L512.87,351.1L513.11,353.4L513.23,353.4L513.7,350.85L513.94,353.4L514.06,353.4L514.53,349.98L514.77,353.38L514.88,353.4L515,350.91L515.59,353.4L515.71,353.4L515.83,351.12L516.54,351.34L516.66,353.4L517.01,353.4L517.13,350.84L517.96,353.4L518.08,351.2L518.2,349.85L518.43,353.4L518.67,351.41L518.79,353.4L519.5,350.95L519.62,353.4L519.85,350.84L520.33,351.62L520.45,353.4L520.68,353.4L520.8,351.49L521.39,353.4L521.51,350.84L521.63,350.5L522.57,353.4L522.69,353.4L523.17,350.91L523.52,351.13L523.64,353.4L523.88,353.4L523.99,351.05L524.7,353.4L524.82,351.59L525.18,348.03L525.53,353.4L525.65,351.08L526.01,351.05L526.36,353.4L526.48,351.59L526.95,351.27L527.19,353.4L527.31,351.05L527.66,350.85L528.02,353.4L528.14,351.2L528.49,353.4L528.73,351.01L528.85,351.22L528.96,351.54L529.44,351L529.79,353.4L529.91,346.06L530.62,353.4L530.74,351.06L530.86,353.4L532.16,353.4L532.28,349.66L533.22,353.4L533.34,353.4L534.05,353.4L534.17,351.12L534.88,353.4L535,350.86L535.71,353.4L535.83,351.13L535.94,348.38L536.18,353.4L536.42,353.4L536.54,353.4L536.77,350.42L537.25,353.4L537.36,353.4L537.6,353.4L537.72,350.42L538.55,353.4L538.66,350.92L539.26,353.4L539.37,351.34L539.49,351.36L539.61,350.88L539.73,353.4L539.85,353.4L540.44,353.4L540.56,350.39L541.27,353.4L541.39,350.42L542.21,353.4L542.33,350.36L543.16,353.39L543.28,350.94L543.63,350.84L543.99,353.4L544.11,350.36L544.34,353.4L544.46,347.5L544.82,353.19L544.94,350.02L545.65,353.4L545.76,350.51L546.24,350.22L546.35,353.4L546.47,348.18L546.59,348.47L546.71,353.38L546.95,353.4L547.06,350.42L547.77,353.4L547.89,350.91L548.25,350.51L548.72,353.4L548.84,353.4L549.08,350.56L549.55,350.99L549.67,353.4L550.38,350.49L550.5,353.4L550.73,350.51L551.21,350.56L551.32,353.4L551.92,351.06L552.03,353.4L552.15,353.4L552.39,353.4L552.51,350.63L553.22,350.42L553.34,353.4L553.45,353.4L553.69,348.84L554.16,350.99L554.28,353.4L554.52,350.42L554.99,350.49L555.11,353.4L555.35,350.66L555.82,353.4L555.94,353.4L556.17,353.4L556.29,351.03L556.53,350.46L556.88,353.4L557,350.64L557.12,351.03L557.24,351.13L557.36,350.53L557.48,353.4L557.71,353.4L557.83,345.88L558.54,353.4L558.66,350.4L558.78,353.4L559.01,353.4L559.13,350.56L559.49,349.08L559.84,353.4L559.96,350.76L560.55,353.4L560.67,347.03L561.5,353.4L561.62,350.7L562.33,353.4L562.45,350.91L562.8,350.66L563.27,353.4L563.39,348.49L563.86,353.4L564.1,350.78L564.22,347.33L565.17,353.4L565.28,350.41L565.99,353.4L566.11,351.06L566.82,353.4L566.94,350.56L567.65,353.4L567.77,346.06L568.72,353.4L568.83,353.4L569.07,350.51L569.54,353.4L569.66,353.4L571.2,353.4L571.32,348.83L572.26,353.4L572.38,353.4L572.5,350.92L573.21,351.27L573.33,353.4L574.04,353.4L574.16,350.85L574.75,353.4L574.87,349.13L575.81,353.4L575.93,350.84L576.76,353.4L576.88,351.27L577.59,353.4L577.71,351.27L578.3,353.4L578.42,349.54L578.65,350.47L578.77,353.3L579.36,353.4L579.48,350.85L580.31,353.4L580.43,350.85L581.14,353.4L581.26,351.15L581.73,353.4L581.85,351.2L581.97,349.5L582.2,350.54L582.32,353.3L582.56,353.4L582.68,347.56L583.39,353.26L583.5,350.6L584.21,353.26L584.33,350.77L584.69,350.71L585.04,353.26L585.16,350.7L585.52,347.23L585.87,353.3L585.99,351.27L586.46,350.91L586.82,353.4L586.94,353.4L587.65,349.19L587.76,353.22L588,353.4L588.12,349.93L588.83,353.4L588.95,350.85L589.06,347.59L589.54,353.4L589.66,353.4L590.48,351.06L590.6,353.4L590.96,353.4L591.08,351.27L591.31,351.09L591.9,353.4L592.02,353.4L592.14,345.19L592.73,346.36L592.85,352.93L593.09,353.4L593.21,350.84L593.92,353.4L594.03,349.89L594.86,353.4L594.98,353.4L595.1,350.23L595.69,351.01L595.81,353.4L596.16,346.91L596.28,349.24L596.4,350.94L596.99,350.7L597.23,353.4L597.35,350.88L597.7,349.09L598.17,353.4L598.29,351.15L598.65,350.78L598.88,353.4L599,349.1L599.36,353.4L599.48,348.68L599.59,353.35L599.71,345.96L600.66,353.4L600.78,353.39L602.67,353.4L602.79,351.12L603.14,353.4L603.26,348.62L603.5,353L603.62,351.17L604.33,353.4L604.45,350.84L605.27,353.4L605.39,350.84L606.22,353.4L606.34,350.84L606.69,353.4L606.81,348.95L607.05,353L607.17,351.17L607.99,353.4L608.11,351.27L608.82,353.4L608.94,350.85L609.77,353.4L609.89,350.96L610.24,353.4L610.36,348.92L610.72,353.3L610.83,353.4L613.2,353.4L613.32,351.18L613.79,353.4L613.91,348.95L614.03,349.24L614.5,349.06L614.86,353.4L614.97,349.33L615.8,353.4L615.92,347.31L616.51,353.4L616.75,353.37L616.87,353.37L617.22,353.4L617.58,346.69L617.7,353L617.81,353.3L617.93,351.34L618.64,353.4L618.76,351.06L619.23,350.98L619.47,353.4L619.59,351.2L620.3,353.4L620.42,351.52L620.77,350.8L620.89,353.4L621.01,347.95L621.95,353.4L622.07,351.48L622.78,353.4L622.9,350.84L623.61,353.4L623.73,351.27L624.44,353.4L624.56,343.53L625.5,353.4L625.62,353.4L627.75,353.4L627.87,18.6L628.7,353.15L628.82,353.4L628.94,353.2L629.05,351.1L629.76,353.4L629.88,350.96L630.24,347.93L630.59,353.4L630.71,351.27L631.06,350.56L631.42,353.4L631.54,350.68L631.66,330.44L632.13,353.4L632.25,353.4L632.37,353.4L634.85,353.4L634.97,37.68L635.32,350.5L635.56,34.69L635.8,342.36L635.92,351.71L636.86,353.4L636.98,353.4L638.64,353.4L638.75,324.43L639.58,353.4L639.7,353.4L642.19,353.4L642.3,351.84L642.42,351.98L642.54,353.36L643.72,353.4L643.84,353.4L644.43,353.4L644.55,199.38L645.38,353.4L645.5,353.4L652.12,353.4L652.24,351.45L652.6,351.07L652.83,353.4L652.95,353.38L653.07,351.12L653.54,346.59L653.9,353.4L654.02,351.13L654.73,353.4L654.85,350.68L655.67,353.4L655.79,353.4L656.5,351.31L656.62,353.26L656.86,353.4L657.21,351.05L657.33,353.4L657.45,353.4L657.68,351.16L658.16,353.4L658.28,353.4L658.87,351.06L658.99,353.4L659.1,353.4L659.22,351.07L659.81,351.13L659.93,353.4L660.05,351.24L660.64,353.4L660.76,353.4L663.36,353.4L663.48,351.39L664.19,353.4L664.31,351.39L664.66,350.84L665.02,353.4L665.14,350.84L665.85,353.4L665.97,351.48L666.32,353.4L666.44,346.54L666.68,353.39L667.15,351.52L667.27,350.32L667.98,353.28L668.1,351.26L668.57,348.07L668.81,353.28L668.92,347.66L669.75,353.28L669.87,351.01L670.46,353.28L670.58,351.33L670.7,350.82L671.53,353.4L671.65,353.4L671.88,350.84L672.35,353.4L672.47,353.4L673.18,351.02L673.3,353.4L674.01,348.1L674.13,353.31L674.25,350.87L674.37,353.39L674.84,351.58L674.96,353.4L675.19,353.4L675.31,351.1L676.02,353.4L676.14,350.91L676.85,353.4L676.97,351.34L677.32,351.06L677.68,353.4L677.8,349.99L678.51,353.4L678.63,351.28L679.34,353.4L679.45,351.05L680.16,353.4L680.28,351.13L680.99,353.4L681.11,351.46L681.58,350.86L681.94,353.4L682.06,350.94L682.88,353.4L683,353.4L685.37,353.4L685.49,350.98L686.32,353.4L686.43,353.4L686.55,350.46L687.14,353.4L687.26,353.4L687.5,353.4L687.62,350.72L687.85,347.42L688.21,353.4L688.33,350.92L688.45,350.9L688.68,350.14L689.27,353.4L689.39,353.4L689.51,350.42L690.1,353.4L690.22,353.4L690.69,350.43L690.93,353.4L691.05,353.4L691.76,350.28L691.88,353.26L691.99,352.17L692.35,353.4L692.59,353.4L692.7,353.4L694.95,353.4L695.07,350.78L695.9,353.4L696.02,353.4L696.25,353.4L696.37,350.62L697.2,353.4L697.32,353.4L697.55,347.32L698.03,351.15L698.15,353.4L698.38,353.4L698.5,350.64L698.97,353.4L699.09,349.49L699.21,352.86L699.33,350.85L700.04,353.4L700.16,351.29L700.51,350.72L700.75,353.4L700.87,353.26L700.99,347.6L701.7,353.4L701.81,351L702.41,353.4L702.52,350.73L702.64,349.59L703.35,353.4L703.47,350.85L704.18,353.4L704.3,351.27L704.54,350.98L705.01,353.4L705.13,351.01L705.84,353.4L705.95,348.09L706.66,353.4L706.78,350.93L707.14,350.76L707.49,353.4L707.61,350.25L708.44,353.4L708.56,351.27L708.79,350.85L709.27,353.4L709.39,350.94L709.74,346.97L710.21,353.4L710.33,353.4L713.41,352.86L713.53,351.55L714.12,353.4L714.35,353.35L714.47,353.4L714.71,353.4L714.83,349.22L715.18,349.19L715.66,353.4L715.77,353.4L716.01,346.61L716.48,351.15L716.6,352.98L716.72,353.4L716.84,349.68L717.55,353.4L717.67,350.84L718.38,353.4L718.5,351.47L718.85,351.06L719.21,353.4L719.32,351.05L719.68,350.91L720.15,353.4L720.27,353.4L720.51,350.87L720.98,350.91L721.1,353.4L721.34,350.85L721.81,351.27L721.93,353.4L722.64,351.62L722.75,353.4L722.99,347.74L723.46,353.4L723.58,353.4L723.82,353.4L723.94,351.84L724.77,353.4L724.88,353.4L726.19,353.4L726.3,351.03L727.01,353.4L727.13,351.63L727.49,350.01L727.84,353.4L727.96,351.16L728.67,353.4L728.79,347.54L729.5,353.4L729.62,350.17L730.45,353.4L730.56,353.4L730.92,353.4L731.04,352.04L731.98,353.4L732.1,353.4L733.28,353.4L733.4,324.93L733.52,353.27L734.23,353.24L734.35,353.4L734.59,348.69L735.06,353.4L735.18,353.4L738.02,353.4L738.14,352.51L739.08,353.4L739.2,353.4L741.57,353.4L741.68,352.51L742.04,351.35L742.28,353.4L742.39,351.05L743.1,353.4L743.22,348.45L744.05,353.4L744.17,351.41L744.52,350.78L745,353.4L745.12,351L745.83,353.4L745.94,351.55L746.65,353.4L746.77,351.1L747.13,351.04L747.48,353.4L747.6,351.05L748.31,353.4L748.43,351.44L748.78,350.12L749.14,353.4L749.26,351.06L749.97,353.4L750.08,351.53L750.91,353.4L751.03,353.4L753.28,353.4L753.4,351.27L754.11,353.4L754.23,350.74L754.94,350.42L755.05,353.4L755.17,353.4L755.41,350.7L755.88,352.56L756,352.76L756.12,353.4L756.24,346.72L756.95,353.4L757.06,350.47L757.42,349.94L757.66,353.4L757.77,353.39L757.89,350.67L758.25,353.4L758.37,347.57L758.6,353.15L758.72,347.08L759.31,353.4L759.55,352.56L759.67,350.56L760.5,353.4L760.61,353.4L761.21,350.56L761.32,353.4L761.44,353.4L761.68,350.42L762.15,353.4L762.27,353.4L762.86,350.46L763.1,352.44L763.22,353.4L763.34,346.56L763.93,353.16L764.05,353.4L764.64,350.44L764.75,353.4L764.87,353.4L764.99,350.21L765.58,353.4L765.7,353.4L766.53,349.63L766.65,350.05L767.36,353.4L767.48,350.5L768.19,353.4L768.3,350.92L769.01,353.4L769.13,350.56L769.96,353.4L770.08,352.5L770.32,350.91L770.43,353.4L770.79,351.15L770.91,353.4L771.14,353.4L771.26,350.63L771.62,350.42L772.09,353.4L772.21,353.4L773.51,353.4L773.63,352.15L774.69,353.4L774.81,353.4L775.05,350.92L775.52,353.4L775.64,353.4L776.23,350.69L776.35,353.4L776.47,353.28L776.59,353.4L776.7,350.93L777.18,349.44L777.41,353.39L777.53,346.31L778.36,353.4L778.48,350.6L779.19,353.4L779.31,350.75L780.02,353.4L780.14,351.28L780.61,353.4L780.73,349.62L780.85,352.38L780.96,350.83L781.44,350.22L781.79,353.4L781.91,353.4L784.16,353.4L784.28,352.07L784.75,353.4L784.87,351L785.7,353.39L785.81,353.4L786.05,350.76L786.52,353.34L786.64,353.4L786.88,353.4L787,351.01L787.23,347.65L787.59,353.4L787.71,351.21L787.83,351.67L788.06,351.06L788.54,353.4L788.65,349.86L789.36,353.4L789.48,351.41L789.84,351.37L790.07,353.4L790.19,349.16L791.02,353.4L791.14,353.4L791.37,351.74L791.85,353.4L791.97,353.4L793.5,353.4L793.62,351.01L794.45,353.39L794.57,353.4L794.69,349.13L795.28,353.21L795.4,353.4L795.99,347.07L796.11,353.1L796.34,353.4L796.46,351.16L796.94,350.98L797.05,353.4L797.17,349.73L798,353.4L798.12,351.45L798.59,350.67L798.95,353.4L799.06,353.4L799.3,353.4L799.42,351.06L799.77,351.03L800.25,353.4L800.37,353.4L800.96,350.92L801.08,353.4L801.19,353.4L801.43,350.85L802.02,352.22L802.14,352.52L802.38,353.4L802.73,351.66L802.85,353.4L802.97,353.28L803.09,347.76L803.92,353.4L804.03,353.4L805.45,353.4L805.57,351.61L806.52,353.4L806.64,191.62L807.46,352.81L807.58,353.4L807.7,351.1L808.29,353.4L808.41,353.4L809.12,336.55L809.24,352.75L809.59,353.4L809.83,350.42L809.95,353.3L810.19,353.4L810.3,350.94L811.13,353.4L811.25,353.4L812.55,353.4L812.67,352.29L813.62,353.4L813.74,135.59L814.56,353.34L814.68,352.47L815.51,353.4L815.63,353.4L816.1,353.4L816.22,335.23L817.05,353.4L817.17,353.4L840,353.4" style="vector-effect: none; fill: none; stroke: rgb(99, 110, 250); stroke-opacity: 1; stroke-width: 2px; opacity: 1;"/></g><g class="points"/><g class="text"/></g></g></g><g class="overplot"/><path class="xlines-above crisp" d="M0,0" style="fill: none;"/><path class="ylines-above crisp" d="M0,0" style="fill: none;"/><g class="overlines-above"/><g class="xaxislayer-above"><g class="xtick"><text text-anchor="start" x="0" y="485" transform="translate(80,0) rotate(90,0,479)" style="font-family: 'Open Sans', verdana, arial, sans-serif; font-size: 12px; fill: rgb(42, 63, 95); fill-opacity: 1; white-space: pre; opacity: 1;">00:00:00.017</text></g><g class="xtick"><text text-anchor="start" x="0" y="485" transform="translate(94.08,0) rotate(90,0,479)" style="font-family: 'Open Sans', verdana, arial, sans-serif; font-size: 12px; fill: rgb(42, 63, 95); fill-opacity: 1; white-space: pre; opacity: 1;">00:00:02.000</text></g><g class="xtick"><text text-anchor="start" x="0" y="485" transform="translate(108.16,0) rotate(90,0,479)" style="font-family: 'Open Sans', verdana, arial, sans-serif; font-size: 12px; fill: rgb(42, 63, 95); fill-opacity: 1; white-space: pre; opacity: 1;">00:00:03.983</text></g><g class="xtick"><text text-anchor="start" x="0" y="485" transform="translate(122.24000000000001,0) rotate(90,0,479)" style="font-family: 'Open Sans', verdana, arial, sans-serif; font-size: 12px; fill: rgb(42, 63, 95); fill-opacity: 1; white-space: pre; opacity: 1;">00:00:05.967</text></g><g class="xtick"><text text-anchor="start" x="0" y="485" transform="translate(136.32,0) rotate(90,0,479)" style="font-family: 'Open Sans', verdana, arial, sans-serif; font-size: 12px; fill: rgb(42, 63, 95); fill-opacity: 1; white-space: pre; opacity: 1;">00:00:07.950</text></g><g class="xtick"><text text-anchor="start" x="0" y="485" transform="translate(150.39,0) rotate(90,0,479)" style="font-family: 'Open Sans', verdana, arial, sans-serif; font-size: 12px; fill: rgb(42, 63, 95); fill-opacity: 1; white-space: pre; opacity: 1;">00:00:09.933</text></g><g class="xtick"><text text-anchor="start" x="0" y="485" transform="translate(164.47,0) rotate(90,0,479)" style="font-family: 'Open Sans', verdana, arial, sans-serif; font-size: 12px; fill: rgb(42, 63, 95); fill-opacity: 1; white-space: pre; opacity: 1;">00:00:11.917</text></g><g class="xtick"><text text-anchor="start" x="0" y="485" transform="translate(178.55,0) rotate(90,0,479)" style="font-family: 'Open Sans', verdana, arial, sans-serif; font-size: 12px; fill: rgb(42, 63, 95); fill-opacity: 1; white-space: pre; opacity: 1;">00:00:13.900</text></g><g class="xtick"><text text-anchor="start" x="0" y="485" transform="translate(192.63,0) rotate(90,0,479)" style="font-family: 'Open Sans', verdana, arial, sans-serif; font-size: 12px; fill: rgb(42, 63, 95); fill-opacity: 1; white-space: pre; opacity: 1;">00:00:15.883</text></g><g class="xtick"><text text-anchor="start" x="0" y="485" transform="translate(206.70999999999998,0) rotate(90,0,479)" style="font-family: 'Open Sans', verdana, arial, sans-serif; font-size: 12px; fill: rgb(42, 63, 95); fill-opacity: 1; white-space: pre; opacity: 1;">00:00:17.867</text></g><g class="xtick"><text text-anchor="start" x="0" y="485" transform="translate(220.79,0) rotate(90,0,479)" style="font-family: 'Open Sans', verdana, arial, sans-serif; font-size: 12px; fill: rgb(42, 63, 95); fill-opacity: 1; white-space: pre; opacity: 1;">00:00:19.850</text></g><g class="xtick"><text text-anchor="start" x="0" y="485" transform="translate(234.87,0) rotate(90,0,479)" style="font-family: 'Open Sans', verdana, arial, sans-serif; font-size: 12px; fill: rgb(42, 63, 95); fill-opacity: 1; white-space: pre; opacity: 1;">00:00:21.833</text></g><g class="xtick"><text text-anchor="start" x="0" y="485" transform="translate(248.95,0) rotate(90,0,479)" style="font-family: 'Open Sans', verdana, arial, sans-serif; font-size: 12px; fill: rgb(42, 63, 95); fill-opacity: 1; white-space: pre; opacity: 1;">00:00:23.817</text></g><g class="xtick"><text text-anchor="start" x="0" y="485" transform="translate(263.03,0) rotate(90,0,479)" style="font-family: 'Open Sans', verdana, arial, sans-serif; font-size: 12px; fill: rgb(42, 63, 95); fill-opacity: 1; white-space: pre; opacity: 1;">00:00:25.800</text></g><g class="xtick"><text text-anchor="start" x="0" y="485" transform="translate(277.1,0) rotate(90,0,479)" style="font-family: 'Open Sans', verdana, arial, sans-serif; font-size: 12px; fill: rgb(42, 63, 95); fill-opacity: 1; white-space: pre; opacity: 1;">00:00:27.783</text></g><g class="xtick"><text text-anchor="start" x="0" y="485" transform="translate(291.18,0) rotate(90,0,479)" style="font-family: 'Open Sans', verdana, arial, sans-serif; font-size: 12px; fill: rgb(42, 63, 95); fill-opacity: 1; white-space: pre; opacity: 1;">00:00:29.767</text></g><g class="xtick"><text text-anchor="start" x="0" y="485" transform="translate(305.26,0) rotate(90,0,479)" style="font-family: 'Open Sans', verdana, arial, sans-serif; font-size: 12px; fill: rgb(42, 63, 95); fill-opacity: 1; white-space: pre; opacity: 1;">00:00:31.750</text></g><g class="xtick"><text text-anchor="start" x="0" y="485" transform="translate(319.34000000000003,0) rotate(90,0,479)" style="font-family: 'Open Sans', verdana, arial, sans-serif; font-size: 12px; fill: rgb(42, 63, 95); fill-opacity: 1; white-space: pre; opacity: 1;">00:00:33.733</text></g><g class="xtick"><text text-anchor="start" x="0" y="485" transform="translate(333.41999999999996,0) rotate(90,0,479)" style="font-family: 'Open Sans', verdana, arial, sans-serif; font-size: 12px; fill: rgb(42, 63, 95); fill-opacity: 1; white-space: pre; opacity: 1;">00:00:35.717</text></g><g class="xtick"><text text-anchor="start" x="0" y="485" transform="translate(347.5,0) rotate(90,0,479)" style="font-family: 'Open Sans', verdana, arial, sans-serif; font-size: 12px; fill: rgb(42, 63, 95); fill-opacity: 1; white-space: pre; opacity: 1;">00:00:37.700</text></g><g class="xtick"><text text-anchor="start" x="0" y="485" transform="translate(361.58,0) rotate(90,0,479)" style="font-family: 'Open Sans', verdana, arial, sans-serif; font-size: 12px; fill: rgb(42, 63, 95); fill-opacity: 1; white-space: pre; opacity: 1;">00:00:39.683</text></g><g class="xtick"><text text-anchor="start" x="0" y="485" transform="translate(375.66,0) rotate(90,0,479)" style="font-family: 'Open Sans', verdana, arial, sans-serif; font-size: 12px; fill: rgb(42, 63, 95); fill-opacity: 1; white-space: pre; opacity: 1;">00:00:41.667</text></g><g class="xtick"><text text-anchor="start" x="0" y="485" transform="translate(389.74,0) rotate(90,0,479)" style="font-family: 'Open Sans', verdana, arial, sans-serif; font-size: 12px; fill: rgb(42, 63, 95); fill-opacity: 1; white-space: pre; opacity: 1;">00:00:43.650</text></g><g class="xtick"><text text-anchor="start" x="0" y="485" transform="translate(403.81,0) rotate(90,0,479)" style="font-family: 'Open Sans', verdana, arial, sans-serif; font-size: 12px; fill: rgb(42, 63, 95); fill-opacity: 1; white-space: pre; opacity: 1;">00:00:45.633</text></g><g class="xtick"><text text-anchor="start" x="0" y="485" transform="translate(417.89,0) rotate(90,0,479)" style="font-family: 'Open Sans', verdana, arial, sans-serif; font-size: 12px; fill: rgb(42, 63, 95); fill-opacity: 1; white-space: pre; opacity: 1;">00:00:47.617</text></g><g class="xtick"><text text-anchor="start" x="0" y="485" transform="translate(431.97,0) rotate(90,0,479)" style="font-family: 'Open Sans', verdana, arial, sans-serif; font-size: 12px; fill: rgb(42, 63, 95); fill-opacity: 1; white-space: pre; opacity: 1;">00:00:49.600</text></g><g class="xtick"><text text-anchor="start" x="0" y="485" transform="translate(446.05,0) rotate(90,0,479)" style="font-family: 'Open Sans', verdana, arial, sans-serif; font-size: 12px; fill: rgb(42, 63, 95); fill-opacity: 1; white-space: pre; opacity: 1;">00:00:51.583</text></g><g class="xtick"><text text-anchor="start" x="0" y="485" transform="translate(460.13,0) rotate(90,0,479)" style="font-family: 'Open Sans', verdana, arial, sans-serif; font-size: 12px; fill: rgb(42, 63, 95); fill-opacity: 1; white-space: pre; opacity: 1;">00:00:53.567</text></g><g class="xtick"><text text-anchor="start" x="0" y="485" transform="translate(474.21,0) rotate(90,0,479)" style="font-family: 'Open Sans', verdana, arial, sans-serif; font-size: 12px; fill: rgb(42, 63, 95); fill-opacity: 1; white-space: pre; opacity: 1;">00:00:55.550</text></g><g class="xtick"><text text-anchor="start" x="0" y="485" transform="translate(488.29,0) rotate(90,0,479)" style="font-family: 'Open Sans', verdana, arial, sans-serif; font-size: 12px; fill: rgb(42, 63, 95); fill-opacity: 1; white-space: pre; opacity: 1;">00:00:57.533</text></g><g class="xtick"><text text-anchor="start" x="0" y="485" transform="translate(502.37,0) rotate(90,0,479)" style="font-family: 'Open Sans', verdana, arial, sans-serif; font-size: 12px; fill: rgb(42, 63, 95); fill-opacity: 1; white-space: pre; opacity: 1;">00:00:59.517</text></g><g class="xtick"><text text-anchor="start" x="0" y="485" transform="translate(516.45,0) rotate(90,0,479)" style="font-family: 'Open Sans', verdana, arial, sans-serif; font-size: 12px; fill: rgb(42, 63, 95); fill-opacity: 1; white-space: pre; opacity: 1;">00:01:01.500</text></g><g class="xtick"><text text-anchor="start" x="0" y="485" transform="translate(530.52,0) rotate(90,0,479)" style="font-family: 'Open Sans', verdana, arial, sans-serif; font-size: 12px; fill: rgb(42, 63, 95); fill-opacity: 1; white-space: pre; opacity: 1;">00:01:03.483</text></g><g class="xtick"><text text-anchor="start" x="0" y="485" transform="translate(544.6,0) rotate(90,0,479)" style="font-family: 'Open Sans', verdana, arial, sans-serif; font-size: 12px; fill: rgb(42, 63, 95); fill-opacity: 1; white-space: pre; opacity: 1;">00:01:05.467</text></g><g class="xtick"><text text-anchor="start" x="0" y="485" transform="translate(558.6800000000001,0) rotate(90,0,479)" style="font-family: 'Open Sans', verdana, arial, sans-serif; font-size: 12px; fill: rgb(42, 63, 95); fill-opacity: 1; white-space: pre; opacity: 1;">00:01:07.450</text></g><g class="xtick"><text text-anchor="start" x="0" y="485" transform="translate(572.76,0) rotate(90,0,479)" style="font-family: 'Open Sans', verdana, arial, sans-serif; font-size: 12px; fill: rgb(42, 63, 95); fill-opacity: 1; white-space: pre; opacity: 1;">00:01:09.433</text></g><g class="xtick"><text text-anchor="start" x="0" y="485" transform="translate(586.8399999999999,0) rotate(90,0,479)" style="font-family: 'Open Sans', verdana, arial, sans-serif; font-size: 12px; fill: rgb(42, 63, 95); fill-opacity: 1; white-space: pre; opacity: 1;">00:01:11.417</text></g><g class="xtick"><text text-anchor="start" x="0" y="485" transform="translate(600.92,0) rotate(90,0,479)" style="font-family: 'Open Sans', verdana, arial, sans-serif; font-size: 12px; fill: rgb(42, 63, 95); fill-opacity: 1; white-space: pre; opacity: 1;">00:01:13.400</text></g><g class="xtick"><text text-anchor="start" x="0" y="485" transform="translate(615,0) rotate(90,0,479)" style="font-family: 'Open Sans', verdana, arial, sans-serif; font-size: 12px; fill: rgb(42, 63, 95); fill-opacity: 1; white-space: pre; opacity: 1;">00:01:15.383</text></g><g class="xtick"><text text-anchor="start" x="0" y="485" transform="translate(629.08,0) rotate(90,0,479)" style="font-family: 'Open Sans', verdana, arial, sans-serif; font-size: 12px; fill: rgb(42, 63, 95); fill-opacity: 1; white-space: pre; opacity: 1;">00:01:17.367</text></g><g class="xtick"><text text-anchor="start" x="0" y="485" transform="translate(643.15,0) rotate(90,0,479)" style="font-family: 'Open Sans', verdana, arial, sans-serif; font-size: 12px; fill: rgb(42, 63, 95); fill-opacity: 1; white-space: pre; opacity: 1;">00:01:19.350</text></g><g class="xtick"><text text-anchor="start" x="0" y="485" transform="translate(657.23,0) rotate(90,0,479)" style="font-family: 'Open Sans', verdana, arial, sans-serif; font-size: 12px; fill: rgb(42, 63, 95); fill-opacity: 1; white-space: pre; opacity: 1;">00:01:21.333</text></g><g class="xtick"><text text-anchor="start" x="0" y="485" transform="translate(671.31,0) rotate(90,0,479)" style="font-family: 'Open Sans', verdana, arial, sans-serif; font-size: 12px; fill: rgb(42, 63, 95); fill-opacity: 1; white-space: pre; opacity: 1;">00:01:23.317</text></g><g class="xtick"><text text-anchor="start" x="0" y="485" transform="translate(685.39,0) rotate(90,0,479)" style="font-family: 'Open Sans', verdana, arial, sans-serif; font-size: 12px; fill: rgb(42, 63, 95); fill-opacity: 1; white-space: pre; opacity: 1;">00:01:25.300</text></g><g class="xtick"><text text-anchor="start" x="0" y="485" transform="translate(699.47,0) rotate(90,0,479)" style="font-family: 'Open Sans', verdana, arial, sans-serif; font-size: 12px; fill: rgb(42, 63, 95); fill-opacity: 1; white-space: pre; opacity: 1;">00:01:27.283</text></g><g class="xtick"><text text-anchor="start" x="0" y="485" transform="translate(713.55,0) rotate(90,0,479)" style="font-family: 'Open Sans', verdana, arial, sans-serif; font-size: 12px; fill: rgb(42, 63, 95); fill-opacity: 1; white-space: pre; opacity: 1;">00:01:29.267</text></g><g class="xtick"><text text-anchor="start" x="0" y="485" transform="translate(727.63,0) rotate(90,0,479)" style="font-family: 'Open Sans', verdana, arial, sans-serif; font-size: 12px; fill: rgb(42, 63, 95); fill-opacity: 1; white-space: pre; opacity: 1;">00:01:31.250</text></g><g class="xtick"><text text-anchor="start" x="0" y="485" transform="translate(741.71,0) rotate(90,0,479)" style="font-family: 'Open Sans', verdana, arial, sans-serif; font-size: 12px; fill: rgb(42, 63, 95); fill-opacity: 1; white-space: pre; opacity: 1;">00:01:33.233</text></g><g class="xtick"><text text-anchor="start" x="0" y="485" transform="translate(755.79,0) rotate(90,0,479)" style="font-family: 'Open Sans', verdana, arial, sans-serif; font-size: 12px; fill: rgb(42, 63, 95); fill-opacity: 1; white-space: pre; opacity: 1;">00:01:35.217</text></g><g class="xtick"><text text-anchor="start" x="0" y="485" transform="translate(769.86,0) rotate(90,0,479)" style="font-family: 'Open Sans', verdana, arial, sans-serif; font-size: 12px; fill: rgb(42, 63, 95); fill-opacity: 1; white-space: pre; opacity: 1;">00:01:37.200</text></g><g class="xtick"><text text-anchor="start" x="0" y="485" transform="translate(783.94,0) rotate(90,0,479)" style="font-family: 'Open Sans', verdana, arial, sans-serif; font-size: 12px; fill: rgb(42, 63, 95); fill-opacity: 1; white-space: pre; opacity: 1;">00:01:39.183</text></g><g class="xtick"><text text-anchor="start" x="0" y="485" transform="translate(798.02,0) rotate(90,0,479)" style="font-family: 'Open Sans', verdana, arial, sans-serif; font-size: 12px; fill: rgb(42, 63, 95); fill-opacity: 1; white-space: pre; opacity: 1;">00:01:41.167</text></g><g class="xtick"><text text-anchor="start" x="0" y="485" transform="translate(812.1,0) rotate(90,0,479)" style="font-family: 'Open Sans', verdana, arial, sans-serif; font-size: 12px; fill: rgb(42, 63, 95); fill-opacity: 1; white-space: pre; opacity: 1;">00:01:43.150</text></g><g class="xtick"><text text-anchor="start" x="0" y="485" transform="translate(826.18,0) rotate(90,0,479)" style="font-family: 'Open Sans', verdana, arial, sans-serif; font-size: 12px; fill: rgb(42, 63, 95); fill-opacity: 1; white-space: pre; opacity: 1;">00:01:45.133</text></g><g class="xtick"><text text-anchor="start" x="0" y="485" transform="translate(840.26,0) rotate(90,0,479)" style="font-family: 'Open Sans', verdana, arial, sans-serif; font-size: 12px; fill: rgb(42, 63, 95); fill-opacity: 1; white-space: pre; opacity: 1;">00:01:47.117</text></g><g class="xtick"><text text-anchor="start" x="0" y="485" transform="translate(854.34,0) rotate(90,0,479)" style="font-family: 'Open Sans', verdana, arial, sans-serif; font-size: 12px; fill: rgb(42, 63, 95); fill-opacity: 1; white-space: pre; opacity: 1;">00:01:49.100</text></g><g class="xtick"><text text-anchor="start" x="0" y="485" transform="translate(868.42,0) rotate(90,0,479)" style="font-family: 'Open Sans', verdana, arial, sans-serif; font-size: 12px; fill: rgb(42, 63, 95); fill-opacity: 1; white-space: pre; opacity: 1;">00:01:51.083</text></g><g class="xtick"><text text-anchor="start" x="0" y="485" transform="translate(882.5,0) rotate(90,0,479)" style="font-family: 'Open Sans', verdana, arial, sans-serif; font-size: 12px; fill: rgb(42, 63, 95); fill-opacity: 1; white-space: pre; opacity: 1;">00:01:53.067</text></g><g class="xtick"><text text-anchor="start" x="0" y="485" transform="translate(896.57,0) rotate(90,0,479)" style="font-family: 'Open Sans', verdana, arial, sans-serif; font-size: 12px; fill: rgb(42, 63, 95); fill-opacity: 1; white-space: pre; opacity: 1;">00:01:55.050</text></g><g class="xtick"><text text-anchor="start" x="0" y="485" transform="translate(910.65,0) rotate(90,0,479)" style="font-family: 'Open Sans', verdana, arial, sans-serif; font-size: 12px; fill: rgb(42, 63, 95); fill-opacity: 1; white-space: pre; opacity: 1;">00:01:57.033</text></g></g><g class="yaxislayer-above"><g class="ytick"><text text-anchor="end" x="79" y="4.199999999999999" transform="translate(0,453.4)" style="font-family: 'Open Sans', verdana, arial, sans-serif; font-size: 12px; fill: rgb(42, 63, 95); fill-opacity: 1; white-space: pre; opacity: 1;">0</text></g><g class="ytick"><text text-anchor="end" x="79" y="4.199999999999999" style="font-family: 'Open Sans', verdana, arial, sans-serif; font-size: 12px; fill: rgb(42, 63, 95); fill-opacity: 1; white-space: pre; opacity: 1;" transform="translate(0,412.22)">1</text></g><g class="ytick"><text text-anchor="end" x="79" y="4.199999999999999" style="font-family: 'Open Sans', verdana, arial, sans-serif; font-size: 12px; fill: rgb(42, 63, 95); fill-opacity: 1; white-space: pre; opacity: 1;" transform="translate(0,371.04)">2</text></g><g class="ytick"><text text-anchor="end" x="79" y="4.199999999999999" style="font-family: 'Open Sans', verdana, arial, sans-serif; font-size: 12px; fill: rgb(42, 63, 95); fill-opacity: 1; white-space: pre; opacity: 1;" transform="translate(0,329.86)">3</text></g><g class="ytick"><text text-anchor="end" x="79" y="4.199999999999999" style="font-family: 'Open Sans', verdana, arial, sans-serif; font-size: 12px; fill: rgb(42, 63, 95); fill-opacity: 1; white-space: pre; opacity: 1;" transform="translate(0,288.69)">4</text></g><g class="ytick"><text text-anchor="end" x="79" y="4.199999999999999" style="font-family: 'Open Sans', verdana, arial, sans-serif; font-size: 12px; fill: rgb(42, 63, 95); fill-opacity: 1; white-space: pre; opacity: 1;" transform="translate(0,247.51)">5</text></g><g class="ytick"><text text-anchor="end" x="79" y="4.199999999999999" style="font-family: 'Open Sans', verdana, arial, sans-serif; font-size: 12px; fill: rgb(42, 63, 95); fill-opacity: 1; white-space: pre; opacity: 1;" transform="translate(0,206.32999999999998)">6</text></g><g class="ytick"><text text-anchor="end" x="79" y="4.199999999999999" style="font-family: 'Open Sans', verdana, arial, sans-serif; font-size: 12px; fill: rgb(42, 63, 95); fill-opacity: 1; white-space: pre; opacity: 1;" transform="translate(0,165.15)">7</text></g><g class="ytick"><text text-anchor="end" x="79" y="4.199999999999999" style="font-family: 'Open Sans', verdana, arial, sans-serif; font-size: 12px; fill: rgb(42, 63, 95); fill-opacity: 1; white-space: pre; opacity: 1;" transform="translate(0,123.97)">8</text></g></g><g class="overaxes-above"/></g></g><g class="polarlayer"/><g class="smithlayer"/><g class="ternarylayer"/><g class="geolayer"/><g class="funnelarealayer"/><g class="pielayer"/><g class="iciclelayer"/><g class="treemaplayer"/><g class="sunburstlayer"/><g class="glimages"/><defs id="topdefs-794f5f"><g class="clips"/></defs><g class="layer-above"><g class="imagelayer"/><g class="shapelayer"/></g><g class="infolayer"><g class="g-gtitle"><text class="gtitle" x="50" y="50" text-anchor="start" dy="0em" style="font-family: 'Open Sans', verdana, arial, sans-serif; font-size: 17px; fill: rgb(42, 63, 95); opacity: 1; font-weight: normal; white-space: pre;">Line Chart of Content Value</text></g><g class="g-xtitle"><text class="xtitle" x="500" y="587.2375" text-anchor="middle" style="font-family: 'Open Sans', verdana, arial, sans-serif; font-size: 14px; fill: rgb(42, 63, 95); opacity: 1; font-weight: normal; white-space: pre;">Frame Number</text></g><g class="g-ytitle"><text class="ytitle" transform="rotate(-90,47.059375,286)" x="47.059375" y="286" text-anchor="middle" style="font-family: 'Open Sans', verdana, arial, sans-serif; font-size: 14px; fill: rgb(42, 63, 95); opacity: 1; font-weight: normal; white-space: pre;">Content Value</text></g></g></svg>