<svg xmlns="http://www.w3.org/2000/svg" class="graphdiagram" viewBox="-929.1349323818771 -320.4238560291927 2216.737131405387 1173.5667166263813"><g class="layer relationships"><g class="related-pair"><g class="relationship" transform="translate(21,5) rotate(0)"><path class="relationship" d="M 109.14251143256446 4 L 547.4296002928963 4 L 547.4296002928963 16 L 579.4296002928963 0 L 547.4296002928963 -16 L 547.4296002928963 -4 L 109.14251143256446 -4 Z" fill="rgb(0, 0, 0)" stroke="rgb(51, 51, 51)" stroke-width="0px"/><text class="type" text-anchor="middle" baseline-shift="30%" alignment-baseline="alphabetic" x="328.2860558627304" y="0" font-size="50px" font-family="&quot;Gill Sans&quot;, &quot;Gill Sans MT&quot;, Calibri, sans-serif">NATIONALITY</text></g></g><g class="related-pair"><g class="relationship" transform="translate(21,5) rotate(90)"><path class="relationship" d="M 109.14251143256446 4 L 439.8282399060811 4 L 439.8282399060811 16 L 471.8282399060811 0 L 439.8282399060811 -16 L 439.8282399060811 -4 L 109.14251143256446 -4 Z" fill="rgb(0, 0, 0)" stroke="rgb(51, 51, 51)" stroke-width="0px"/><text class="type" text-anchor="middle" baseline-shift="30%" alignment-baseline="alphabetic" x="274.48537566932276" y="0" font-size="50px" font-family="&quot;Gill Sans&quot;, &quot;Gill Sans MT&quot;, Calibri, sans-serif">PLAYS_FOR</text></g></g><g class="related-pair"><g class="relationship" transform="translate(21,567.9999694824219) rotate(-38.63138130816208)"><path class="relationship" d="M 91.17172957634082 4 L 744.7624898346778 4 L 744.7624898346778 16 L 776.7624898346778 0 L 744.7624898346778 -16 L 744.7624898346778 -4 L 91.17172957634082 -4 Z" fill="rgb(0, 0, 0)" stroke="rgb(51, 51, 51)" stroke-width="0px"/><text class="type" text-anchor="middle" baseline-shift="30%" alignment-baseline="alphabetic" x="417.9671097055093" y="0" font-size="50px" font-family="&quot;Gill Sans&quot;, &quot;Gill Sans MT&quot;, Calibri, sans-serif">PLAY_IN</text></g></g><g class="related-pair"><g class="relationship" transform="translate(-618.1470947265625,5) rotate(0)"><path class="relationship" d="M 106.5581501553146 4 L 498.00458329399805 4 L 498.00458329399805 16 L 530.004583293998 0 L 498.00458329399805 -16 L 498.00458329399805 -4 L 106.5581501553146 -4 Z" fill="rgb(0, 0, 0)" stroke="rgb(51, 51, 51)" stroke-width="0px"/><text class="type" text-anchor="middle" baseline-shift="30%" alignment-baseline="alphabetic" x="302.2813667246563" y="0" font-size="50px" font-family="&quot;Gill Sans&quot;, &quot;Gill Sans MT&quot;, Calibri, sans-serif">VOTED</text></g></g></g><g class="layer nodes"><circle class="node node-id-0" r="94.14251143256446" fill="rgb(255, 255, 255)" stroke="rgb(0, 0, 0)" stroke-width="8px" cx="21" cy="5"/><circle class="node node-id-1" r="110.03658623054116" fill="rgb(255, 255, 255)" stroke="rgb(0, 0, 0)" stroke-width="8px" cx="725.4661865234375" cy="5"/><circle class="node node-id-2" r="76.17172957634082" fill="rgb(255, 255, 255)" stroke="rgb(0, 0, 0)" stroke-width="8px" cx="21" cy="567.9999694824219"/><circle class="node node-id-3" r="91.5581501553146" fill="rgb(255, 255, 255)" stroke="rgb(0, 0, 0)" stroke-width="8px" cx="-618.1470947265625" cy="5"/><g class="caption"><text class="caption node" text-anchor="middle" alignment-baseline="central" x="21" y="5" fill="rgb(51, 51, 51)" font-size="50px" font-family="&quot;Gill Sans&quot;, &quot;Gill Sans MT&quot;, Calibri, sans-serif">Player</text></g><g class="caption"><text class="caption node" text-anchor="middle" alignment-baseline="central" x="725.4661865234375" y="5" fill="rgb(51, 51, 51)" font-size="50px" font-family="&quot;Gill Sans&quot;, &quot;Gill Sans MT&quot;, Calibri, sans-serif">Country</text></g><g class="caption"><text class="caption node" text-anchor="middle" alignment-baseline="central" x="21" y="567.9999694824219" fill="rgb(51, 51, 51)" font-size="50px" font-family="&quot;Gill Sans&quot;, &quot;Gill Sans MT&quot;, Calibri, sans-serif">Club</text></g><g class="caption"><text class="caption node" text-anchor="middle" alignment-baseline="central" x="-618.1470947265625" y="5" fill="rgb(51, 51, 51)" font-size="50px" font-family="&quot;Gill Sans&quot;, &quot;Gill Sans MT&quot;, Calibri, sans-serif">Judge</text></g></g><g class="layer properties"><g class="speech-bubble node-speech-bubble" transform="translate(21,-89.14251143256446) "><path class="speech-bubble-outline" transform="scale(1,-1) " d="M 0 0 L -10 20 L -141.73583984375 20 A 10 10 0 0 0 -151.73583984375 30 L -151.73583984375 80 A 10 10 0 0 0 -141.73583984375 90 L 141.73583984375 90 A 10 10 0 0 0 151.73583984375 80 L 151.73583984375 30 A 10 10 0 0 0 141.73583984375 20 L 10 20 Z" fill="rgb(255, 255, 255)" stroke="rgb(0, 0, 0)" stroke-width="3px"/><text class="speech-bubble-content property-key" x="11.12060546875" y="-55" alignment-baseline="central" text-anchor="end" font-size="50px" font-family="&quot;Gill Sans&quot;, &quot;Gill Sans MT&quot;, Calibri, sans-serif" xml:space="preserve">name: </text><text class="speech-bubble-content property-value" x="11.12060546875" y="-55" alignment-baseline="central" font-size="50px" font-family="&quot;Gill Sans&quot;, &quot;Gill Sans MT&quot;, Calibri, sans-serif">String</text></g><g class="speech-bubble node-speech-bubble" transform="translate(835.5027727539787,5) "><path class="speech-bubble-outline" transform="scale(1,1) " d="M 0 0 L 20 -10 L 20 -25 A 10 10 0 0 1 30 -35 L 313.4716796875 -35 A 10 10 0 0 1 323.4716796875 -25 L 323.4716796875 25 A 10 10 0 0 1 313.4716796875 35 L 30 35 A 10 10 0 0 1 20 25 L 20 10 Z" fill="rgb(255, 255, 255)" stroke="rgb(0, 0, 0)" stroke-width="3px"/><text class="speech-bubble-content property-key" x="182.8564453125" y="0" alignment-baseline="central" text-anchor="end" font-size="50px" font-family="&quot;Gill Sans&quot;, &quot;Gill Sans MT&quot;, Calibri, sans-serif" xml:space="preserve">name: </text><text class="speech-bubble-content property-value" x="182.8564453125" y="0" alignment-baseline="central" font-size="50px" font-family="&quot;Gill Sans&quot;, &quot;Gill Sans MT&quot;, Calibri, sans-serif">String</text></g><g class="speech-bubble node-speech-bubble" transform="translate(-32.8615465181385,621.8615160005604) "><path class="speech-bubble-outline" transform="scale(-1,1) " d="M 0 0 L 30 20 L 313.4716796875 20 A 10 10 0 0 1 323.4716796875 30 L 323.4716796875 80 A 10 10 0 0 1 313.4716796875 90 L 30 90 A 10 10 0 0 1 20 80 L 20 30 Z" fill="rgb(255, 255, 255)" stroke="rgb(0, 0, 0)" stroke-width="3px"/><text class="speech-bubble-content property-key" x="-160.615234375" y="55" alignment-baseline="central" text-anchor="end" font-size="50px" font-family="&quot;Gill Sans&quot;, &quot;Gill Sans MT&quot;, Calibri, sans-serif" xml:space="preserve">name: </text><text class="speech-bubble-content property-value" x="-160.615234375" y="55" alignment-baseline="central" font-size="50px" font-family="&quot;Gill Sans&quot;, &quot;Gill Sans MT&quot;, Calibri, sans-serif">String</text></g><g class="speech-bubble node-speech-bubble" transform="translate(-709.7052448818771,5) "><path class="speech-bubble-outline" transform="scale(-1,1) " d="M 0 0 L 20 -10 L 20 -25 A 10 10 0 0 1 30 -35 L 207.9296875 -35 A 10 10 0 0 1 217.9296875 -25 L 217.9296875 25 A 10 10 0 0 1 207.9296875 35 L 30 35 A 10 10 0 0 1 20 25 L 20 10 Z" fill="rgb(255, 255, 255)" stroke="rgb(0, 0, 0)" stroke-width="3px"/><text class="speech-bubble-content property-key" x="-141.23046875" y="0" alignment-baseline="central" text-anchor="end" font-size="50px" font-family="&quot;Gill Sans&quot;, &quot;Gill Sans MT&quot;, Calibri, sans-serif" xml:space="preserve">id: </text><text class="speech-bubble-content property-value" x="-141.23046875" y="0" alignment-baseline="central" font-size="50px" font-family="&quot;Gill Sans&quot;, &quot;Gill Sans MT&quot;, Calibri, sans-serif">Long</text></g><g class="speech-bubble relationship-speech-bubble" transform="translate(-315.8657280019062,5) "><path class="speech-bubble-outline" transform="scale(1,1) " d="M 0 0 L -10 20 L -130.6396484375 20 A 10 10 0 0 0 -140.6396484375 30 L -140.6396484375 80 A 10 10 0 0 0 -130.6396484375 90 L 130.6396484375 90 A 10 10 0 0 0 140.6396484375 80 L 140.6396484375 30 A 10 10 0 0 0 130.6396484375 20 L 10 20 Z" fill="rgb(255, 255, 255)" stroke="rgb(0, 0, 0)" stroke-width="3px"/><text class="speech-bubble-content property-key" x="19.4091796875" y="55" alignment-baseline="central" text-anchor="end" font-size="50px" font-family="&quot;Gill Sans&quot;, &quot;Gill Sans MT&quot;, Calibri, sans-serif" xml:space="preserve">score: </text><text class="speech-bubble-content property-value" x="19.4091796875" y="55" alignment-baseline="central" font-size="50px" font-family="&quot;Gill Sans&quot;, &quot;Gill Sans MT&quot;, Calibri, sans-serif">Long</text></g></g><g class="layer overlay"><circle class="node overlay" r="98.14251143256446" stroke="none" fill="rgba(255, 255, 255, 0)" cx="21" cy="5"/><circle class="node overlay" r="114.03658623054116" stroke="none" fill="rgba(255, 255, 255, 0)" cx="725.4661865234375" cy="5"/><circle class="node overlay" r="80.17172957634082" stroke="none" fill="rgba(255, 255, 255, 0)" cx="21" cy="567.9999694824219"/><circle class="node overlay" r="95.5581501553146" stroke="none" fill="rgba(255, 255, 255, 0)" cx="-618.1470947265625" cy="5"/><circle class="node ring" r="103.14251143256446" fill="none" stroke="rgba(255, 255, 255, 0)" stroke-width="10px" cx="21" cy="5"/><circle class="node ring" r="119.03658623054116" fill="none" stroke="rgba(255, 255, 255, 0)" stroke-width="10px" cx="725.4661865234375" cy="5"/><circle class="node ring" r="85.17172957634082" fill="none" stroke="rgba(255, 255, 255, 0)" stroke-width="10px" cx="21" cy="567.9999694824219"/><circle class="node ring" r="100.5581501553146" fill="none" stroke="rgba(255, 255, 255, 0)" stroke-width="10px" cx="-618.1470947265625" cy="5"/><path class="relationship overlay" fill="rgba(255, 255, 255, 0)" stroke="rgba(255, 255, 255, 0)" stroke-width="10px" transform="translate(21,5) rotate(0)" d="M 109.14251143256446 4 L 547.4296002928963 4 L 547.4296002928963 16 L 579.4296002928963 0 L 547.4296002928963 -16 L 547.4296002928963 -4 L 109.14251143256446 -4 Z"/><path class="relationship overlay" fill="rgba(255, 255, 255, 0)" stroke="rgba(255, 255, 255, 0)" stroke-width="10px" transform="translate(21,5) rotate(90)" d="M 109.14251143256446 4 L 439.8282399060811 4 L 439.8282399060811 16 L 471.8282399060811 0 L 439.8282399060811 -16 L 439.8282399060811 -4 L 109.14251143256446 -4 Z"/><path class="relationship overlay" fill="rgba(255, 255, 255, 0)" stroke="rgba(255, 255, 255, 0)" stroke-width="10px" transform="translate(21,567.9999694824219) rotate(-38.63138130816208)" d="M 91.17172957634082 4 L 744.7624898346778 4 L 744.7624898346778 16 L 776.7624898346778 0 L 744.7624898346778 -16 L 744.7624898346778 -4 L 91.17172957634082 -4 Z"/><path class="relationship overlay" fill="rgba(255, 255, 255, 0)" stroke="rgba(255, 255, 255, 0)" stroke-width="10px" transform="translate(-618.1470947265625,5) rotate(0)" d="M 106.5581501553146 4 L 498.00458329399805 4 L 498.00458329399805 16 L 530.004583293998 0 L 498.00458329399805 -16 L 498.00458329399805 -4 L 106.5581501553146 -4 Z"/></g></svg>