<svg xmlns="http://www.w3.org/2000/svg" width="1263.70703125" height="764.81005859375" viewBox="-648.8818969726562 -211.3365020751953 1263.70703125 764.81005859375"><title>Neo4j Graph Visualization</title><desc>Created using Neo4j (http://www.neo4j.com/)</desc><g class="layer relationships"><g class="relationship" transform="translate(305.96516361618467 -156.8710072517901) rotate(520.0669880693368)"><path class="outline" fill="#A5ABB6" stroke="none" d="M 40 0.5 L 278.4681967650425 0.5 L 278.4681967650425 -0.5 L 40 -0.5 Z M 372.3431967650425 0.5 L 610.811393530085 0.5 L 610.811393530085 3.5 L 617.811393530085 0 L 610.811393530085 -3.5 L 610.811393530085 -0.5 L 372.3431967650425 -0.5 Z"/><text text-anchor="middle" pointer-events="none" font-size="8px" fill="#000000" x="325.4056967650425" y="3" transform="rotate(180 325.4056967650425 0)" font-family="sans-serif">CONTAINS_ALLERGEN</text></g><g class="relationship" transform="translate(-591.8021261586518 -100.4479353942665) rotate(389.9880285241114)"><path class="outline" fill="#A5ABB6" stroke="none" d="M 40 0.5 L 118.65424597078331 0.5 L 118.65424597078331 -0.5 L 40 -0.5 Z M 212.5292459707833 0.5 L 291.1834919415666 0.5 L 291.1834919415666 3.5 L 298.1834919415666 0 L 291.1834919415666 -3.5 L 291.1834919415666 -0.5 L 212.5292459707833 -0.5 Z"/><text text-anchor="middle" pointer-events="none" font-size="8px" fill="#000000" x="165.5917459707833" y="3" font-family="sans-serif">CONTAINS_ALLERGEN</text></g><g class="relationship" transform="translate(-118.38031426209007 123.38442269712806) rotate(197.3849395869812)"><path class="outline" fill="#A5ABB6" stroke="none" d="M 40 0.5 L 51.291784922826864 0.5 L 51.291784922826864 -0.5 L 40 -0.5 Z M 145.16678492282688 0.5 L 156.45856984565373 0.5 L 156.45856984565373 3.5 L 163.45856984565373 0 L 156.45856984565373 -3.5 L 156.45856984565373 -0.5 L 145.16678492282688 -0.5 Z"/><text text-anchor="middle" pointer-events="none" font-size="8px" fill="#000000" x="98.22928492282686" y="3" transform="rotate(180 98.22928492282686 0)" font-family="sans-serif">CONTAINS_ALLERGEN</text></g><g class="relationship" transform="translate(-187.34948458672744 -148.31679664909512) rotate(478.976635199258)"><path class="outline" fill="#A5ABB6" stroke="none" d="M 40 0.5 L 75.13837038948114 0.5 L 75.13837038948114 -0.5 L 40 -0.5 Z M 169.01337038948114 0.5 L 204.15174077896228 0.5 L 204.15174077896228 3.5 L 211.15174077896228 0 L 204.15174077896228 -3.5 L 204.15174077896228 -0.5 L 169.01337038948114 -0.5 Z"/><text text-anchor="middle" pointer-events="none" font-size="8px" fill="#000000" x="122.07587038948114" y="3" transform="rotate(180 122.07587038948114 0)" font-family="sans-serif">CONTAINS_ALLERGEN</text></g><g class="relationship" transform="translate(-309.418069353438 -145.56002648236006) rotate(448.9024453394077)"><path class="outline" fill="#A5ABB6" stroke="none" d="M 40 0.5 L 58.52880231330832 0.5 L 58.52880231330832 -0.5 L 40 -0.5 Z M 152.40380231330832 0.5 L 170.93260462661664 0.5 L 170.93260462661664 3.5 L 177.93260462661664 0 L 170.93260462661664 -3.5 L 170.93260462661664 -0.5 L 152.40380231330832 -0.5 Z"/><text text-anchor="middle" pointer-events="none" font-size="8px" fill="#000000" x="105.46630231330832" y="3" font-family="sans-serif">CONTAINS_ALLERGEN</text></g><g class="relationship" transform="translate(-575.0390034750205 16.92240548613305) rotate(370.07513569021523)"><path class="outline" fill="#A5ABB6" stroke="none" d="M 40 0.5 L 90.25004914939305 0.5 L 90.25004914939305 -0.5 L 40 -0.5 Z M 184.12504914939305 0.5 L 234.3750982987861 0.5 L 234.3750982987861 3.5 L 241.3750982987861 0 L 234.3750982987861 -3.5 L 234.3750982987861 -0.5 L 184.12504914939305 -0.5 Z"/><text text-anchor="middle" pointer-events="none" font-size="8px" fill="#000000" x="137.18754914939305" y="3" font-family="sans-serif">CONTAINS_ALLERGEN</text></g><g class="relationship" transform="translate(-350.0684027173537 400.7384037658725) rotate(277.5768550468766)"><path class="outline" fill="#A5ABB6" stroke="none" d="M 40 0.5 L 122.74404306030624 0.5 L 122.74404306030624 -0.5 L 40 -0.5 Z M 216.61904306030624 0.5 L 299.3630861206125 0.5 L 299.3630861206125 3.5 L 306.3630861206125 0 L 299.3630861206125 -3.5 L 299.3630861206125 -0.5 L 216.61904306030624 -0.5 Z"/><text text-anchor="middle" pointer-events="none" font-size="8px" fill="#000000" x="169.68154306030624" y="3" font-family="sans-serif">CONTAINS_ALLERGEN</text></g><g class="relationship" transform="translate(-230.01454506246426 407.8968928656702) rotate(257.6086890470709)"><path class="outline" fill="#A5ABB6" stroke="none" d="M 40 0.5 L 128.93511972612245 0.5 L 128.93511972612245 -0.5 L 40 -0.5 Z M 222.81011972612245 0.5 L 311.7452394522449 0.5 L 311.7452394522449 3.5 L 318.7452394522449 0 L 311.7452394522449 -3.5 L 311.7452394522449 -0.5 L 222.81011972612245 -0.5 Z"/><text text-anchor="middle" pointer-events="none" font-size="8px" fill="#000000" x="175.87261972612245" y="3" transform="rotate(180 175.87261972612245 0)" font-family="sans-serif">CONTAINS_ALLERGEN</text></g><g class="relationship" transform="translate(570.8251671087808 20.605287111575265) rotate(537.1103264917452)"><path class="outline" fill="#A5ABB6" stroke="none" d="M 40 0.5 L 391.97650314488675 0.5 L 391.97650314488675 -0.5 L 40 -0.5 Z M 485.85150314488675 0.5 L 837.8280062897735 0.5 L 837.8280062897735 3.5 L 844.8280062897735 0 L 837.8280062897735 -3.5 L 837.8280062897735 -0.5 L 485.85150314488675 -0.5 Z"/><text text-anchor="middle" pointer-events="none" font-size="8px" fill="#000000" x="438.91400314488675" y="3" transform="rotate(180 438.91400314488675 0)" font-family="sans-serif">CONTAINS_ALLERGEN</text></g><g class="relationship" transform="translate(379.3027374581015 -25.25670544246259) rotate(532.5041519243861)"><path class="outline" fill="#A5ABB6" stroke="none" d="M 40 0.5 L 298.60829754402096 0.5 L 298.60829754402096 -0.5 L 40 -0.5 Z M 392.48329754402096 0.5 L 651.0915950880419 0.5 L 651.0915950880419 3.5 L 658.0915950880419 0 L 651.0915950880419 -3.5 L 651.0915950880419 -0.5 L 392.48329754402096 -0.5 Z"/><text text-anchor="middle" pointer-events="none" font-size="8px" fill="#000000" x="345.54579754402096" y="3" transform="rotate(180 345.54579754402096 0)" font-family="sans-serif">CONTAINS_ALLERGEN</text></g><g class="relationship" transform="translate(-514.5817797097991 213.29665377855025) rotate(324.6371607739389)"><path class="outline" fill="#A5ABB6" stroke="none" d="M 40 0.5 L 81.57347098385762 0.5 L 81.57347098385762 -0.5 L 40 -0.5 Z M 175.44847098385762 0.5 L 217.02194196771524 0.5 L 217.02194196771524 3.5 L 224.02194196771524 0 L 217.02194196771524 -3.5 L 217.02194196771524 -0.5 L 175.44847098385762 -0.5 Z"/><text text-anchor="middle" pointer-events="none" font-size="8px" fill="#000000" x="128.51097098385762" y="3" font-family="sans-serif">CONTAINS_ALLERGEN</text></g><g class="relationship" transform="translate(-576.3898530206191 102.87792409994805) rotate(352.00890979450674)"><path class="outline" fill="#A5ABB6" stroke="none" d="M 40 0.5 L 90.1424459851577 0.5 L 90.1424459851577 -0.5 L 40 -0.5 Z M 184.0174459851577 0.5 L 234.1598919703154 0.5 L 234.1598919703154 3.5 L 241.1598919703154 0 L 234.1598919703154 -3.5 L 234.1598919703154 -0.5 L 184.0174459851577 -0.5 Z"/><text text-anchor="middle" pointer-events="none" font-size="8px" fill="#000000" x="137.0799459851577" y="3" font-family="sans-serif">CONTAINS_ALLERGEN</text></g><g class="relationship" transform="translate(-487.2714879795153 368.9510275014493) rotate(300.8825053017395)"><path class="outline" fill="#A5ABB6" stroke="none" d="M 40 0.5 L 130.49111700745783 0.5 L 130.49111700745783 -0.5 L 40 -0.5 Z M 224.36611700745783 0.5 L 314.85723401491566 0.5 L 314.85723401491566 3.5 L 321.85723401491566 0 L 314.85723401491566 -3.5 L 314.85723401491566 -0.5 L 224.36611700745783 -0.5 Z"/><text text-anchor="middle" pointer-events="none" font-size="8px" fill="#000000" x="177.42861700745783" y="3" font-family="sans-serif">CONTAINS_ALLERGEN</text></g><g class="relationship" transform="translate(-24.43036539978735 -150.33028841419443) rotate(502.5541496514173)"><path class="outline" fill="#A5ABB6" stroke="none" d="M 40 0.5 L 130.25348352372438 0.5 L 130.25348352372438 -0.5 L 40 -0.5 Z M 224.12848352372438 0.5 L 314.38196704744877 0.5 L 314.38196704744877 3.5 L 321.38196704744877 0 L 314.38196704744877 -3.5 L 314.38196704744877 -0.5 L 224.12848352372438 -0.5 Z"/><text text-anchor="middle" pointer-events="none" font-size="8px" fill="#000000" x="177.19098352372438" y="3" transform="rotate(180 177.19098352372438 0)" font-family="sans-serif">CONTAINS_ALLERGEN</text></g><g class="relationship" transform="translate(-66.25444435822996 402.25325400194845) rotate(234.67437111728287)"><path class="outline" fill="#A5ABB6" stroke="none" d="M 40 0.5 L 160.09516770183112 0.5 L 160.09516770183112 -0.5 L 40 -0.5 Z M 253.97016770183112 0.5 L 374.06533540366223 0.5 L 374.06533540366223 3.5 L 381.06533540366223 0 L 374.06533540366223 -3.5 L 374.06533540366223 -0.5 L 253.97016770183112 -0.5 Z"/><text text-anchor="middle" pointer-events="none" font-size="8px" fill="#000000" x="207.03266770183112" y="3" transform="rotate(180 207.03266770183112 0)" font-family="sans-serif">CONTAINS_ALLERGEN</text></g><g class="relationship" transform="translate(65.41248982544737 -37.950670145090314) rotate(524.5067779941998)"><path class="outline" fill="#A5ABB6" stroke="none" d="M 40 0.5 L 145.70347713361468 0.5 L 145.70347713361468 -0.5 L 40 -0.5 Z M 239.57847713361468 0.5 L 345.28195426722937 0.5 L 345.28195426722937 3.5 L 352.28195426722937 0 L 345.28195426722937 -3.5 L 345.28195426722937 -0.5 L 239.57847713361468 -0.5 Z"/><text text-anchor="middle" pointer-events="none" font-size="8px" fill="#000000" x="192.64097713361468" y="3" transform="rotate(180 192.64097713361468 0)" font-family="sans-serif">CONTAINS_ALLERGEN</text></g><g class="relationship" transform="translate(-447.0345983267339 -135.9570344360855) rotate(414.79907691343834)"><path class="outline" fill="#A5ABB6" stroke="none" d="M 40 0.5 L 76.17521815036235 0.5 L 76.17521815036235 -0.5 L 40 -0.5 Z M 170.05021815036235 0.5 L 206.2254363007247 0.5 L 206.2254363007247 3.5 L 213.2254363007247 0 L 206.2254363007247 -3.5 L 206.2254363007247 -0.5 L 170.05021815036235 -0.5 Z"/><text text-anchor="middle" pointer-events="none" font-size="8px" fill="#000000" x="123.11271815036235" y="3" font-family="sans-serif">CONTAINS_ALLERGEN</text></g><g class="relationship" transform="translate(1.7206880752632685 327.488213372871) rotate(220.5387327809526)"><path class="outline" fill="#A5ABB6" stroke="none" d="M 40 0.5 L 155.3660548621742 0.5 L 155.3660548621742 -0.5 L 40 -0.5 Z M 249.2410548621742 0.5 L 364.6071097243484 0.5 L 364.6071097243484 3.5 L 371.6071097243484 0 L 364.6071097243484 -3.5 L 364.6071097243484 -0.5 L 249.2410548621742 -0.5 Z"/><text text-anchor="middle" pointer-events="none" font-size="8px" fill="#000000" x="202.3035548621742" y="3" transform="rotate(180 202.3035548621742 0)" font-family="sans-serif">CONTAINS_ALLERGEN</text></g><g class="relationship" transform="translate(-594.6162559531097 406.1974924262494) rotate(310.27379172262556)"><path class="outline" fill="#A5ABB6" stroke="none" d="M 40 0.5 L 177.0212695360332 0.5 L 177.0212695360332 -0.5 L 40 -0.5 Z M 270.8962695360332 0.5 L 407.9175390720664 0.5 L 407.9175390720664 3.5 L 414.9175390720664 0 L 407.9175390720664 -3.5 L 407.9175390720664 -0.5 L 270.8962695360332 -0.5 Z"/><text text-anchor="middle" pointer-events="none" font-size="8px" fill="#000000" x="223.9587695360332" y="3" font-family="sans-serif">CONTAINS_ALLERGEN</text></g><g class="relationship" transform="translate(139.67853547892267 -167.33650173343534) rotate(512.4510115423022)"><path class="outline" fill="#A5ABB6" stroke="none" d="M 40 0.5 L 204.3038888099113 0.5 L 204.3038888099113 -0.5 L 40 -0.5 Z M 298.1788888099113 0.5 L 462.4827776198226 0.5 L 462.4827776198226 3.5 L 469.4827776198226 0 L 462.4827776198226 -3.5 L 462.4827776198226 -0.5 L 298.1788888099113 -0.5 Z"/><text text-anchor="middle" pointer-events="none" font-size="8px" fill="#000000" x="251.2413888099113" y="3" transform="rotate(180 251.2413888099113 0)" font-family="sans-serif">CONTAINS_ALLERGEN</text></g><g class="relationship" transform="translate(414.58721764400343 368.67963043739246) rotate(202.5692071743738)"><path class="outline" fill="#A5ABB6" stroke="none" d="M 40 0.5 L 150.88096745139077 0.5 L 150.88096745139077 -0.5 L 40 -0.5 Z M 244.75596745139077 0.5 L 355.63693490278155 0.5 L 355.63693490278155 3.5 L 362.63693490278155 0 L 355.63693490278155 -3.5 L 355.63693490278155 -0.5 L 244.75596745139077 -0.5 Z"/><text text-anchor="middle" pointer-events="none" font-size="8px" fill="#000000" x="197.81846745139077" y="3" transform="rotate(180 197.81846745139077 0)" font-family="sans-serif">CONTAINS_ALLERGEN</text></g><g class="relationship" transform="translate(-118.38031426209007 123.38442269712806) rotate(389.1217170336553)"><path class="outline" fill="#A5ABB6" stroke="none" d="M 40 0.5 L 49.52006806414826 0.5 L 49.52006806414826 -0.5 L 40 -0.5 Z M 143.39506806414826 0.5 L 152.91513612829652 0.5 L 152.91513612829652 3.5 L 159.91513612829652 0 L 152.91513612829652 -3.5 L 152.91513612829652 -0.5 L 143.39506806414826 -0.5 Z"/><text text-anchor="middle" pointer-events="none" font-size="8px" fill="#000000" x="96.45756806414826" y="3" font-family="sans-serif">CONTAINS_ALLERGEN</text></g><g class="relationship" transform="translate(1.7206880752632685 327.488213372871) rotate(293.48270909651825)"><path class="outline" fill="#A5ABB6" stroke="none" d="M 40 0.5 L 42.13610411987619 0.5 L 42.13610411987619 -0.5 L 40 -0.5 Z M 78.8001666198762 0.5 L 80.93627073975237 0.5 L 80.93627073975237 3.5 L 87.93627073975237 0 L 80.93627073975237 -3.5 L 80.93627073975237 -0.5 L 78.8001666198762 -0.5 Z"/><text text-anchor="middle" pointer-events="none" font-size="8px" fill="#000000" x="60.46813536987619" y="3" font-family="sans-serif">CONT…</text></g><g class="relationship" transform="translate(369.68912588324025 151.1634151882405) rotate(528.3689070164237)"><path class="outline" fill="#A5ABB6" stroke="none" d="M 40 0.5 L 116.65554869913294 0.5 L 116.65554869913294 -0.5 L 40 -0.5 Z M 210.53054869913294 0.5 L 287.1860973982659 0.5 L 287.1860973982659 3.5 L 294.1860973982659 0 L 287.1860973982659 -3.5 L 287.1860973982659 -0.5 L 210.53054869913294 -0.5 Z"/><text text-anchor="middle" pointer-events="none" font-size="8px" fill="#000000" x="163.59304869913294" y="3" transform="rotate(180 163.59304869913294 0)" font-family="sans-serif">CONTAINS_ALLERGEN</text></g><g class="relationship" transform="translate(379.3027374581015 -25.25670544246259) rotate(503.6803485864889)"><path class="outline" fill="#A5ABB6" stroke="none" d="M 40 0.5 L 157.84348525085036 0.5 L 157.84348525085036 -0.5 L 40 -0.5 Z M 251.71848525085036 0.5 L 369.5619705017007 0.5 L 369.5619705017007 3.5 L 376.5619705017007 0 L 369.5619705017007 -3.5 L 369.5619705017007 -0.5 L 251.71848525085036 -0.5 Z"/><text text-anchor="middle" pointer-events="none" font-size="8px" fill="#000000" x="204.78098525085036" y="3" transform="rotate(180 204.78098525085036 0)" font-family="sans-serif">CONTAINS_ALLERGEN</text></g><g class="relationship" transform="translate(414.58721764400343 368.67963043739246) rotate(528.4008756676709)"><path class="outline" fill="#A5ABB6" stroke="none" d="M 40 0.5 L 105.36375876261084 0.5 L 105.36375876261084 -0.5 L 40 -0.5 Z M 199.23875876261084 0.5 L 264.6025175252217 0.5 L 264.6025175252217 3.5 L 271.6025175252217 0 L 264.6025175252217 -3.5 L 264.6025175252217 -0.5 L 199.23875876261084 -0.5 Z"/><text text-anchor="middle" pointer-events="none" font-size="8px" fill="#000000" x="152.30125876261084" y="3" transform="rotate(180 152.30125876261084 0)" font-family="sans-serif">CONTAINS_ALLERGEN</text></g><g class="relationship" transform="translate(414.58721764400343 368.67963043739246) rotate(284.2943994669563)"><path class="outline" fill="#A5ABB6" stroke="none" d="M 40 0.5 L 228.0737637209753 0.5 L 228.0737637209753 -0.5 L 40 -0.5 Z M 321.9487637209753 0.5 L 510.0225274419506 0.5 L 510.0225274419506 3.5 L 517.0225274419506 0 L 510.0225274419506 -3.5 L 510.0225274419506 -0.5 L 321.9487637209753 -0.5 Z"/><text text-anchor="middle" pointer-events="none" font-size="8px" fill="#000000" x="275.0112637209753" y="3" font-family="sans-serif">CONTAINS_ALLERGEN</text></g><g class="relationship" transform="translate(65.41248982544737 -37.950670145090314) rotate(453.5237783474953)"><path class="outline" fill="#A5ABB6" stroke="none" d="M 40 0.5 L 81.04253956747912 0.5 L 81.04253956747912 -0.5 L 40 -0.5 Z M 174.91753956747914 0.5 L 215.96007913495825 0.5 L 215.96007913495825 3.5 L 222.96007913495825 0 L 215.96007913495825 -3.5 L 215.96007913495825 -0.5 L 174.91753956747914 -0.5 Z"/><text text-anchor="middle" pointer-events="none" font-size="8px" fill="#000000" x="127.98003956747912" y="3" transform="rotate(180 127.98003956747912 0)" font-family="sans-serif">CONTAINS_ALLERGEN</text></g><g class="relationship" transform="translate(65.41248982544737 -37.950670145090314) rotate(443.74359694025105)"><path class="outline" fill="#A5ABB6" stroke="none" d="M 40 0.5 L 188.6008634447158 0.5 L 188.6008634447158 -0.5 L 40 -0.5 Z M 282.4758634447158 0.5 L 431.0767268894316 0.5 L 431.0767268894316 3.5 L 438.0767268894316 0 L 431.0767268894316 -3.5 L 431.0767268894316 -0.5 L 282.4758634447158 -0.5 Z"/><text text-anchor="middle" pointer-events="none" font-size="8px" fill="#000000" x="235.5383634447158" y="3" font-family="sans-serif">CONTAINS_ALLERGEN</text></g><g class="relationship" transform="translate(65.41248982544737 -37.950670145090314) rotate(345.4460586679511)"><path class="outline" fill="#A5ABB6" stroke="none" d="M 40 0.5 L 203.77661969279075 0.5 L 203.77661969279075 -0.5 L 40 -0.5 Z M 297.65161969279075 0.5 L 461.4282393855815 0.5 L 461.4282393855815 3.5 L 468.4282393855815 0 L 461.4282393855815 -3.5 L 461.4282393855815 -0.5 L 297.65161969279075 -0.5 Z"/><text text-anchor="middle" pointer-events="none" font-size="8px" fill="#000000" x="250.71411969279075" y="3" font-family="sans-serif">CONTAINS_ALLERGEN</text></g><g class="relationship" transform="translate(-350.0684027173537 400.7384037658725) rotate(335.3196518013357)"><path class="outline" fill="#A5ABB6" stroke="none" d="M 40 0.5 L 173.2976270163665 0.5 L 173.2976270163665 -0.5 L 40 -0.5 Z M 267.1726270163665 0.5 L 400.470254032733 0.5 L 400.470254032733 3.5 L 407.470254032733 0 L 400.470254032733 -3.5 L 400.470254032733 -0.5 L 267.1726270163665 -0.5 Z"/><text text-anchor="middle" pointer-events="none" font-size="8px" fill="#000000" x="220.2351270163665" y="3" font-family="sans-serif">CONTAINS_ALLERGEN</text></g><g class="relationship" transform="translate(-350.0684027173537 400.7384037658725) rotate(385.9316597920867)"><path class="outline" fill="#A5ABB6" stroke="none" d="M 40 0.5 L 86.21384529311314 0.5 L 86.21384529311314 -0.5 L 40 -0.5 Z M 180.08884529311314 0.5 L 226.30269058622628 0.5 L 226.30269058622628 3.5 L 233.30269058622628 0 L 226.30269058622628 -3.5 L 226.30269058622628 -0.5 L 180.08884529311314 -0.5 Z"/><text text-anchor="middle" pointer-events="none" font-size="8px" fill="#000000" x="133.15134529311314" y="3" font-family="sans-serif">CONTAINS_ALLERGEN</text></g><g class="relationship" transform="translate(-350.0684027173537 400.7384037658725) rotate(363.5656064898541)"><path class="outline" fill="#A5ABB6" stroke="none" d="M 40 0.5 L 187.14684021442085 0.5 L 187.14684021442085 -0.5 L 40 -0.5 Z M 281.0218402144209 0.5 L 428.1686804288417 0.5 L 428.1686804288417 3.5 L 435.1686804288417 0 L 428.1686804288417 -3.5 L 428.1686804288417 -0.5 L 281.0218402144209 -0.5 Z"/><text text-anchor="middle" pointer-events="none" font-size="8px" fill="#000000" x="234.08434021442085" y="3" font-family="sans-serif">CONTAINS_ALLERGEN</text></g><g class="relationship" transform="translate(-350.0684027173537 400.7384037658725) rotate(372.96250574664646)"><path class="outline" fill="#A5ABB6" stroke="none" d="M 40 0.5 L 152.4862707784524 0.5 L 152.4862707784524 -0.5 L 40 -0.5 Z M 246.3612707784524 0.5 L 358.8475415569048 0.5 L 358.8475415569048 3.5 L 365.8475415569048 0 L 358.8475415569048 -3.5 L 358.8475415569048 -0.5 L 246.3612707784524 -0.5 Z"/><text text-anchor="middle" pointer-events="none" font-size="8px" fill="#000000" x="199.4237707784524" y="3" font-family="sans-serif">CONTAINS_ALLERGEN</text></g><g class="relationship" transform="translate(-350.0684027173537 400.7384037658725) rotate(327.90964267854724)"><path class="outline" fill="#A5ABB6" stroke="none" d="M 40 0.5 L 484.6646235220055 0.5 L 484.6646235220055 -0.5 L 40 -0.5 Z M 578.5396235220055 0.5 L 1023.204247044011 0.5 L 1023.204247044011 3.5 L 1030.204247044011 0 L 1023.204247044011 -3.5 L 1023.204247044011 -0.5 L 578.5396235220055 -0.5 Z"/><text text-anchor="middle" pointer-events="none" font-size="8px" fill="#000000" x="531.6021235220055" y="3" font-family="sans-serif">CONTAINS_ALLERGEN</text></g><g class="relationship" transform="translate(-350.0684027173537 400.7384037658725) rotate(213.5686655414006)"><path class="outline" fill="#A5ABB6" stroke="none" d="M 40 0.5 L 110.72130702352536 0.5 L 110.72130702352536 -0.5 L 40 -0.5 Z M 204.59630702352536 0.5 L 275.3176140470507 0.5 L 275.3176140470507 3.5 L 282.3176140470507 0 L 275.3176140470507 -3.5 L 275.3176140470507 -0.5 L 204.59630702352536 -0.5 Z"/><text text-anchor="middle" pointer-events="none" font-size="8px" fill="#000000" x="157.65880702352536" y="3" transform="rotate(180 157.65880702352536 0)" font-family="sans-serif">CONTAINS_ALLERGEN</text></g><g class="relationship" transform="translate(-350.0684027173537 400.7384037658725) rotate(516.0506829126648)"><path class="outline" fill="#A5ABB6" stroke="none" d="M 40 0.5 L 72.8255149539237 0.5 L 72.8255149539237 -0.5 L 40 -0.5 Z M 166.7005149539237 0.5 L 199.5260299078474 0.5 L 199.5260299078474 3.5 L 206.5260299078474 0 L 199.5260299078474 -3.5 L 199.5260299078474 -0.5 L 166.7005149539237 -0.5 Z"/><text text-anchor="middle" pointer-events="none" font-size="8px" fill="#000000" x="119.7630149539237" y="3" transform="rotate(180 119.7630149539237 0)" font-family="sans-serif">CONTAINS_ALLERGEN</text></g><g class="relationship" transform="translate(-350.0684027173537 400.7384037658725) rotate(317.0042907704414)"><path class="outline" fill="#A5ABB6" stroke="none" d="M 40 0.5 L 170.30389093638843 0.5 L 170.30389093638843 -0.5 L 40 -0.5 Z M 264.1788909363884 0.5 L 394.48278187277685 0.5 L 394.48278187277685 3.5 L 401.48278187277685 0 L 394.48278187277685 -3.5 L 394.48278187277685 -0.5 L 264.1788909363884 -0.5 Z"/><text text-anchor="middle" pointer-events="none" font-size="8px" fill="#000000" x="217.24139093638843" y="3" font-family="sans-serif">CONTAINS_ALLERGEN</text></g><g class="relationship" transform="translate(-350.0684027173537 400.7384037658725) rotate(254.42393336608552)"><path class="outline" fill="#A5ABB6" stroke="none" d="M 40 0.5 L 42.34790361891281 0.5 L 42.34790361891281 -0.5 L 40 -0.5 Z M 74.12524736891281 0.5 L 76.47315098782562 0.5 L 76.47315098782562 3.5 L 83.47315098782562 0 L 76.47315098782562 -3.5 L 76.47315098782562 -0.5 L 74.12524736891281 -0.5 Z"/><text text-anchor="middle" pointer-events="none" font-size="8px" fill="#000000" x="58.23657549391281" y="3" transform="rotate(180 58.23657549391281 0)" font-family="sans-serif">CON…</text></g></g><g class="layer nodes"><g class="node" transform="translate(305.96516361618467,-156.8710072517901)"><circle class="outline" cx="0" cy="0" r="40" fill="#569480" stroke="#447666" stroke-width="2px"/><text text-anchor="middle" pointer-events="none" font-family="sans-serif" dy="2.5" font-size="40" fill="#FFFFFF"/><text text-anchor="middle" pointer-events="none" y="5" font-size="10px" fill="#FFFFFF" font-family="sans-serif"> best of itsu</text></g><g class="node" transform="translate(-305.38728099593857,64.8339701885502)"><circle class="outline" cx="0" cy="0" r="32.5" fill="#4C8EDA" stroke="#2870c2" stroke-width="2px"/><text text-anchor="middle" pointer-events="none" font-family="sans-serif" dy="2.03125" font-size="32.5" fill="#FFFFFF"/><text text-anchor="middle" pointer-events="none" y="5" font-size="10px" fill="#FFFFFF" font-family="sans-serif"> fish</text></g><g class="node" transform="translate(-591.8021261586518,-100.4479353942665)"><circle class="outline" cx="0" cy="0" r="40" fill="#569480" stroke="#447666" stroke-width="2px"/><text text-anchor="middle" pointer-events="none" font-family="sans-serif" dy="2.5" font-size="40" fill="#FFFFFF"/><text text-anchor="middle" pointer-events="none" font-family="sans-serif" dy="2.5" font-size="40" fill="#FFFFFF"/><text text-anchor="middle" pointer-events="none" y="0" font-size="10px" fill="#FFFFFF" font-family="sans-serif"> perfect salmon</text><text text-anchor="middle" pointer-events="none" y="10" font-size="10px" fill="#FFFFFF" font-family="sans-serif"> bento</text></g><g class="node" transform="translate(-118.38031426209007,123.38442269712806)"><circle class="outline" cx="0" cy="0" r="40" fill="#569480" stroke="#447666" stroke-width="2px"/><text text-anchor="middle" pointer-events="none" font-family="sans-serif" dy="2.5" font-size="40" fill="#FFFFFF"/><text text-anchor="middle" pointer-events="none" font-family="sans-serif" dy="2.5" font-size="40" fill="#FFFFFF"/><text text-anchor="middle" pointer-events="none" y="0" font-size="10px" fill="#FFFFFF" font-family="sans-serif"> salmon &amp; avo</text><text text-anchor="middle" pointer-events="none" y="10" font-size="10px" fill="#FFFFFF" font-family="sans-serif"> dragon roll</text></g><g class="node" transform="translate(-187.34948458672744,-148.31679664909512)"><circle class="outline" cx="0" cy="0" r="40" fill="#569480" stroke="#447666" stroke-width="2px"/><text text-anchor="middle" pointer-events="none" font-family="sans-serif" dy="2.5" font-size="40" fill="#FFFFFF"/><text text-anchor="middle" pointer-events="none" y="5" font-size="10px" fill="#FFFFFF" font-family="sans-serif"> mixed sashimi</text></g><g class="node" transform="translate(-309.418069353438,-145.56002648236006)"><circle class="outline" cx="0" cy="0" r="40" fill="#569480" stroke="#447666" stroke-width="2px"/><text text-anchor="middle" pointer-events="none" font-family="sans-serif" dy="2.5" font-size="40" fill="#FFFFFF"/><text text-anchor="middle" pointer-events="none" font-family="sans-serif" dy="2.5" font-size="40" fill="#FFFFFF"/><text text-anchor="middle" pointer-events="none" y="0" font-size="10px" fill="#FFFFFF" font-family="sans-serif"> chicken teriyaki</text><text text-anchor="middle" pointer-events="none" y="10" font-size="10px" fill="#FFFFFF" font-family="sans-serif"> ‘on a bed’</text></g><g class="node" transform="translate(-575.0390034750205,16.92240548613305)"><circle class="outline" cx="0" cy="0" r="40" fill="#569480" stroke="#447666" stroke-width="2px"/><text text-anchor="middle" pointer-events="none" font-family="sans-serif" dy="2.5" font-size="40" fill="#FFFFFF"/><text text-anchor="middle" pointer-events="none" font-family="sans-serif" dy="2.5" font-size="40" fill="#FFFFFF"/><text text-anchor="middle" pointer-events="none" y="0" font-size="10px" fill="#FFFFFF" font-family="sans-serif"> super salmon</text><text text-anchor="middle" pointer-events="none" y="10" font-size="10px" fill="#FFFFFF" font-family="sans-serif"> light</text></g><g class="node" transform="translate(-350.0684027173537,400.7384037658725)"><circle class="outline" cx="0" cy="0" r="40" fill="#569480" stroke="#447666" stroke-width="2px"/><text text-anchor="middle" pointer-events="none" font-family="sans-serif" dy="2.5" font-size="40" fill="#FFFFFF"/><text text-anchor="middle" pointer-events="none" y="5" font-size="10px" fill="#FFFFFF" font-family="sans-serif"> the sushi sharing</text></g><g class="node" transform="translate(-230.01454506246426,407.8968928656702)"><circle class="outline" cx="0" cy="0" r="40" fill="#569480" stroke="#447666" stroke-width="2px"/><text text-anchor="middle" pointer-events="none" font-family="sans-serif" dy="2.5" font-size="40" fill="#FFFFFF"/><text text-anchor="middle" pointer-events="none" font-family="sans-serif" dy="2.5" font-size="40" fill="#FFFFFF"/><text text-anchor="middle" pointer-events="none" y="0" font-size="10px" fill="#FFFFFF" font-family="sans-serif"> health &amp;</text><text text-anchor="middle" pointer-events="none" y="10" font-size="10px" fill="#FFFFFF" font-family="sans-serif"> happiness</text></g><g class="node" transform="translate(570.8251671087808,20.605287111575265)"><circle class="outline" cx="0" cy="0" r="40" fill="#569480" stroke="#447666" stroke-width="2px"/><text text-anchor="middle" pointer-events="none" font-family="sans-serif" dy="2.5" font-size="40" fill="#FFFFFF"/><text text-anchor="middle" pointer-events="none" y="5" font-size="10px" fill="#FFFFFF" font-family="sans-serif"> poke zero’salad</text></g><g class="node" transform="translate(379.3027374581015,-25.25670544246259)"><circle class="outline" cx="0" cy="0" r="40" fill="#569480" stroke="#447666" stroke-width="2px"/><text text-anchor="middle" pointer-events="none" font-family="sans-serif" dy="2.5" font-size="40" fill="#FFFFFF"/><text text-anchor="middle" pointer-events="none" font-family="sans-serif" dy="2.5" font-size="40" fill="#FFFFFF"/><text text-anchor="middle" pointer-events="none" y="0" font-size="10px" fill="#FFFFFF" font-family="sans-serif"> salmon &amp;</text><text text-anchor="middle" pointer-events="none" y="10" font-size="10px" fill="#FFFFFF" font-family="sans-serif"> avocado rolls</text></g><g class="node" transform="translate(-514.5817797097991,213.29665377855025)"><circle class="outline" cx="0" cy="0" r="40" fill="#569480" stroke="#447666" stroke-width="2px"/><text text-anchor="middle" pointer-events="none" font-family="sans-serif" dy="2.5" font-size="40" fill="#FFFFFF"/><text text-anchor="middle" pointer-events="none" y="5" font-size="10px" fill="#FFFFFF" font-family="sans-serif"> salmon sushi</text></g><g class="node" transform="translate(-576.3898530206191,102.87792409994805)"><circle class="outline" cx="0" cy="0" r="40" fill="#569480" stroke="#447666" stroke-width="2px"/><text text-anchor="middle" pointer-events="none" font-family="sans-serif" dy="2.5" font-size="40" fill="#FFFFFF"/><text text-anchor="middle" pointer-events="none" font-family="sans-serif" dy="2.5" font-size="40" fill="#FFFFFF"/><text text-anchor="middle" pointer-events="none" y="0" font-size="10px" fill="#FFFFFF" font-family="sans-serif"> crab california</text><text text-anchor="middle" pointer-events="none" y="10" font-size="10px" fill="#FFFFFF" font-family="sans-serif"> rolls</text></g><g class="node" transform="translate(-487.2714879795153,368.9510275014493)"><circle class="outline" cx="0" cy="0" r="40" fill="#569480" stroke="#447666" stroke-width="2px"/><text text-anchor="middle" pointer-events="none" font-family="sans-serif" dy="2.5" font-size="40" fill="#FFFFFF"/><text text-anchor="middle" pointer-events="none" y="5" font-size="10px" fill="#FFFFFF" font-family="sans-serif"> pandamania</text></g><g class="node" transform="translate(-24.43036539978735,-150.33028841419443)"><circle class="outline" cx="0" cy="0" r="40" fill="#569480" stroke="#447666" stroke-width="2px"/><text text-anchor="middle" pointer-events="none" font-family="sans-serif" dy="2.5" font-size="40" fill="#FFFFFF"/><text text-anchor="middle" pointer-events="none" font-family="sans-serif" dy="2.5" font-size="40" fill="#FFFFFF"/><text text-anchor="middle" pointer-events="none" y="0" font-size="10px" fill="#FFFFFF" font-family="sans-serif"> salmon teriyaki</text><text text-anchor="middle" pointer-events="none" y="10" font-size="10px" fill="#FFFFFF" font-family="sans-serif"> ‘on a bed’</text></g><g class="node" transform="translate(-66.25444435822996,402.25325400194845)"><circle class="outline" cx="0" cy="0" r="40" fill="#569480" stroke="#447666" stroke-width="2px"/><text text-anchor="middle" pointer-events="none" font-family="sans-serif" dy="2.5" font-size="40" fill="#FFFFFF"/><text text-anchor="middle" pointer-events="none" font-family="sans-serif" dy="2.5" font-size="40" fill="#FFFFFF"/><text text-anchor="middle" pointer-events="none" y="0" font-size="10px" fill="#FFFFFF" font-family="sans-serif"> salmon poke ‘on</text><text text-anchor="middle" pointer-events="none" y="10" font-size="10px" fill="#FFFFFF" font-family="sans-serif"> a bed’</text></g><g class="node" transform="translate(65.41248982544737,-37.950670145090314)"><circle class="outline" cx="0" cy="0" r="40" fill="#569480" stroke="#447666" stroke-width="2px"/><text text-anchor="middle" pointer-events="none" font-family="sans-serif" dy="2.5" font-size="40" fill="#FFFFFF"/><text text-anchor="middle" pointer-events="none" font-family="sans-serif" dy="2.5" font-size="40" fill="#FFFFFF"/><text text-anchor="middle" pointer-events="none" y="0" font-size="10px" fill="#FFFFFF" font-family="sans-serif"> spicy tuna</text><text text-anchor="middle" pointer-events="none" y="10" font-size="10px" fill="#FFFFFF" font-family="sans-serif"> dragon roll</text></g><g class="node" transform="translate(-447.0345983267339,-135.9570344360855)"><circle class="outline" cx="0" cy="0" r="40" fill="#569480" stroke="#447666" stroke-width="2px"/><text text-anchor="middle" pointer-events="none" font-family="sans-serif" dy="2.5" font-size="40" fill="#FFFFFF"/><text text-anchor="middle" pointer-events="none" y="5" font-size="10px" fill="#FFFFFF" font-family="sans-serif"> sushi festival</text></g><g class="node" transform="translate(1.7206880752632685,327.488213372871)"><circle class="outline" cx="0" cy="0" r="40" fill="#569480" stroke="#447666" stroke-width="2px"/><text text-anchor="middle" pointer-events="none" font-family="sans-serif" dy="2.5" font-size="40" fill="#FFFFFF"/><text text-anchor="middle" pointer-events="none" font-family="sans-serif" dy="2.5" font-size="40" fill="#FFFFFF"/><text text-anchor="middle" pointer-events="none" y="0" font-size="10px" fill="#FFFFFF" font-family="sans-serif"> salmon full</text><text text-anchor="middle" pointer-events="none" y="10" font-size="10px" fill="#FFFFFF" font-family="sans-serif"> house</text></g><g class="node" transform="translate(-594.6162559531097,406.1974924262494)"><circle class="outline" cx="0" cy="0" r="40" fill="#569480" stroke="#447666" stroke-width="2px"/><text text-anchor="middle" pointer-events="none" font-family="sans-serif" dy="2.5" font-size="40" fill="#FFFFFF"/><text text-anchor="middle" pointer-events="none" font-family="sans-serif" dy="2.5" font-size="40" fill="#FFFFFF"/><text text-anchor="middle" pointer-events="none" y="0" font-size="10px" fill="#FFFFFF" font-family="sans-serif"> salmon dill</text><text text-anchor="middle" pointer-events="none" y="10" font-size="10px" fill="#FFFFFF" font-family="sans-serif"> caviar</text></g><g class="node" transform="translate(139.67853547892267,-167.33650173343534)"><circle class="outline" cx="0" cy="0" r="40" fill="#569480" stroke="#447666" stroke-width="2px"/><text text-anchor="middle" pointer-events="none" font-family="sans-serif" dy="2.5" font-size="40" fill="#FFFFFF"/><text text-anchor="middle" pointer-events="none" y="5" font-size="10px" fill="#FFFFFF" font-family="sans-serif"> salmon sashimi</text></g><g class="node" transform="translate(414.58721764400343,368.67963043739246)"><circle class="outline" cx="0" cy="0" r="40" fill="#569480" stroke="#447666" stroke-width="2px"/><text text-anchor="middle" pointer-events="none" font-family="sans-serif" dy="2.5" font-size="40" fill="#FFFFFF"/><text text-anchor="middle" pointer-events="none" font-family="sans-serif" dy="2.5" font-size="40" fill="#FFFFFF"/><text text-anchor="middle" pointer-events="none" y="0" font-size="10px" fill="#FFFFFF" font-family="sans-serif"> vegetable fusion</text><text text-anchor="middle" pointer-events="none" y="10" font-size="10px" fill="#FFFFFF" font-family="sans-serif"> gyoza</text></g><g class="node" transform="translate(49.711205573393265,217.02643020801068)"><circle class="outline" cx="0" cy="0" r="32.5" fill="#4C8EDA" stroke="#2870c2" stroke-width="2px"/><text text-anchor="middle" pointer-events="none" font-family="sans-serif" dy="2.03125" font-size="32.5" fill="#FFFFFF"/><text text-anchor="middle" pointer-events="none" y="5" font-size="10px" fill="#FFFFFF" font-family="sans-serif"> soya</text></g><g class="node" transform="translate(369.68912588324025,151.1634151882405)"><circle class="outline" cx="0" cy="0" r="40" fill="#569480" stroke="#447666" stroke-width="2px"/><text text-anchor="middle" pointer-events="none" font-family="sans-serif" dy="2.5" font-size="40" fill="#FFFFFF"/><text text-anchor="middle" pointer-events="none" font-family="sans-serif" dy="2.5" font-size="40" fill="#FFFFFF"/><text text-anchor="middle" pointer-events="none" y="0" font-size="10px" fill="#FFFFFF" font-family="sans-serif"> no meat</text><text text-anchor="middle" pointer-events="none" y="10" font-size="10px" fill="#FFFFFF" font-family="sans-serif"> mondays</text></g><g class="node" transform="translate(116.69498362336924,429.82337971214235)"><circle class="outline" cx="0" cy="0" r="32.5" fill="#4C8EDA" stroke="#2870c2" stroke-width="2px"/><text text-anchor="middle" pointer-events="none" font-family="sans-serif" dy="2.03125" font-size="32.5" fill="#FFFFFF"/><text text-anchor="middle" pointer-events="none" y="5" font-size="10px" fill="#FFFFFF" font-family="sans-serif"> gluten</text></g><g class="node" transform="translate(550.266688463932,-163.82960832209946)"><circle class="outline" cx="0" cy="0" r="32.5" fill="#4C8EDA" stroke="#2870c2" stroke-width="2px"/><text text-anchor="middle" pointer-events="none" font-family="sans-serif" dy="2.03125" font-size="32.5" fill="#FFFFFF"/><text text-anchor="middle" pointer-events="none" y="5" font-size="10px" fill="#FFFFFF" font-family="sans-serif"> sesame</text></g><g class="node" transform="translate(-111.02771604065984,516.9735982467689)"><circle class="outline" cx="0" cy="0" r="32.5" fill="#4C8EDA" stroke="#2870c2" stroke-width="2px"/><text text-anchor="middle" pointer-events="none" font-family="sans-serif" dy="2.03125" font-size="32.5" fill="#FFFFFF"/><text text-anchor="middle" pointer-events="none" y="5" font-size="10px" fill="#FFFFFF" font-family="sans-serif"> mustard</text></g><g class="node" transform="translate(38.128073813893025,490.09308732054234)"><circle class="outline" cx="0" cy="0" r="32.5" fill="#4C8EDA" stroke="#2870c2" stroke-width="2px"/><text text-anchor="middle" pointer-events="none" font-family="sans-serif" dy="2.03125" font-size="32.5" fill="#FFFFFF"/><text text-anchor="middle" pointer-events="none" y="5" font-size="10px" fill="#FFFFFF" font-family="sans-serif"> celery</text></g><g class="node" transform="translate(-612.3819188546847,226.66442706071427)"><circle class="outline" cx="0" cy="0" r="32.5" fill="#4C8EDA" stroke="#2870c2" stroke-width="2px"/><text text-anchor="middle" pointer-events="none" font-family="sans-serif" dy="2.03125" font-size="32.5" fill="#FFFFFF"/><text text-anchor="middle" pointer-events="none" y="5" font-size="10px" fill="#FFFFFF" font-family="sans-serif"> dairy</text></g><g class="node" transform="translate(-568.5154609522097,497.76585205781004)"><circle class="outline" cx="0" cy="0" r="32.5" fill="#4C8EDA" stroke="#2870c2" stroke-width="2px"/><text text-anchor="middle" pointer-events="none" font-family="sans-serif" dy="2.03125" font-size="32.5" fill="#FFFFFF"/><text text-anchor="middle" pointer-events="none" y="5" font-size="10px" fill="#FFFFFF" font-family="sans-serif"> egg</text></g><g class="node" transform="translate(-32.65132460788453,104.78662815626183)"><circle class="outline" cx="0" cy="0" r="32.5" fill="#4C8EDA" stroke="#2870c2" stroke-width="2px"/><text text-anchor="middle" pointer-events="none" font-family="sans-serif" dy="2.03125" font-size="32.5" fill="#FFFFFF"/><text text-anchor="middle" pointer-events="none" y="5" font-size="10px" fill="#FFFFFF" font-family="sans-serif"> crustaceans</text></g><g class="node" transform="translate(-381.2092196592658,289.0243882161872)"><circle class="outline" cx="0" cy="0" r="32.5" fill="#4C8EDA" stroke="#2870c2" stroke-width="2px"/><text text-anchor="middle" pointer-events="none" font-family="sans-serif" dy="2.03125" font-size="32.5" fill="#FFFFFF"/><text text-anchor="middle" pointer-events="none" y="5" font-size="10px" fill="#FFFFFF" font-family="sans-serif"> mullusc</text></g></g></svg>