<svg xmlns="http://www.w3.org/2000/svg" class="graphdiagram" viewBox="-749.3769959899118 -490.5 1853 981"><g class="layer relationships"><g class="related-pair"><g class="relationship" transform="translate(0,0) rotate(0)"><path class="relationship" d="M 123.71102322982364 4 L 689.5827649336281 4 L 689.5827649336281 16 L 721.5827649336281 0 L 689.5827649336281 -16 L 689.5827649336281 -4 L 123.71102322982364 -4 Z" fill="rgb(0, 0, 0)" stroke="rgb(51, 51, 51)" stroke-width="0px"/><text class="type" text-anchor="middle" baseline-shift="30%" alignment-baseline="alphabetic" x="406.64689408172586" y="0" font-size="50px" font-family="&quot;Gill Sans&quot;, &quot;Gill Sans MT&quot;, Calibri, sans-serif">CONTAINS_ALLERGEN</text></g></g></g><g class="layer nodes"><circle class="node node-id-0" r="108.71102322982364" fill="rgb(255, 255, 255)" stroke="rgb(0, 0, 0)" stroke-width="8px" cx="0" cy="0"/><g class="caption"><text class="caption node" text-anchor="middle" alignment-baseline="central" x="0" y="0" fill="rgb(51, 51, 51)" font-size="50px" font-family="&quot;Gill Sans&quot;, &quot;Gill Sans MT&quot;, Calibri, sans-serif">Product</text></g><circle class="node node-id-1" r="114.06957881637179" fill="rgb(255, 255, 255)" stroke="rgb(0, 0, 0)" stroke-width="8px" cx="850.65234375" cy="0"/><g class="caption"><text class="caption node" text-anchor="middle" alignment-baseline="central" x="850.65234375" y="0" fill="rgb(51, 51, 51)" font-size="50px" font-family="&quot;Gill Sans&quot;, &quot;Gill Sans MT&quot;, Calibri, sans-serif">Allergen</text></g></g><g class="layer properties"><g class="speech-bubble node-speech-bubble" transform="translate(-108.71102322982364,0) "><path class="speech-bubble-outline" transform="scale(-1,1) " d="M 0 0 L 20 -10 L 20 -75 A 10 10 0 0 1 30 -85 L 430.1953125 -85 A 10 10 0 0 1 440.1953125 -75 L 440.1953125 75 A 10 10 0 0 1 430.1953125 85 L 30 85 A 10 10 0 0 1 20 75 L 20 10 Z" fill="rgb(255, 255, 255)" stroke="rgb(0, 0, 0)" stroke-width="3px"/><text class="speech-bubble-content property-key" x="-160.615234375" y="-50" alignment-baseline="central" text-anchor="end" font-size="50px" font-family="&quot;Gill Sans&quot;, &quot;Gill Sans MT&quot;, Calibri, sans-serif" xml:space="preserve">name: </text><text class="speech-bubble-content property-key" x="-160.615234375" y="0" alignment-baseline="central" text-anchor="end" font-size="50px" font-family="&quot;Gill Sans&quot;, &quot;Gill Sans MT&quot;, Calibri, sans-serif" xml:space="preserve">description: </text><text class="speech-bubble-content property-key" x="-160.615234375" y="50" alignment-baseline="central" text-anchor="end" font-size="50px" font-family="&quot;Gill Sans&quot;, &quot;Gill Sans MT&quot;, Calibri, sans-serif" xml:space="preserve">url: </text><text class="speech-bubble-content property-value" x="-160.615234375" y="-50" alignment-baseline="central" font-size="50px" font-family="&quot;Gill Sans&quot;, &quot;Gill Sans MT&quot;, Calibri, sans-serif">String</text><text class="speech-bubble-content property-value" x="-160.615234375" y="0" alignment-baseline="central" font-size="50px" font-family="&quot;Gill Sans&quot;, &quot;Gill Sans MT&quot;, Calibri, sans-serif">String</text><text class="speech-bubble-content property-value" x="-160.615234375" y="50" alignment-baseline="central" font-size="50px" font-family="&quot;Gill Sans&quot;, &quot;Gill Sans MT&quot;, Calibri, sans-serif">String</text></g><g class="speech-bubble node-speech-bubble" transform="translate(964.7219225663717,0) "><path class="speech-bubble-outline" transform="scale(1,1) " d="M 0 0 L 20 -10 L 20 -25 A 10 10 0 0 1 30 -35 L 313.4716796875 -35 A 10 10 0 0 1 323.4716796875 -25 L 323.4716796875 25 A 10 10 0 0 1 313.4716796875 35 L 30 35 A 10 10 0 0 1 20 25 L 20 10 Z" fill="rgb(255, 255, 255)" stroke="rgb(0, 0, 0)" stroke-width="3px"/><text class="speech-bubble-content property-key" x="182.8564453125" y="0" alignment-baseline="central" text-anchor="end" font-size="50px" font-family="&quot;Gill Sans&quot;, &quot;Gill Sans MT&quot;, Calibri, sans-serif" xml:space="preserve">name: </text><text class="speech-bubble-content property-value" x="182.8564453125" y="0" alignment-baseline="central" font-size="50px" font-family="&quot;Gill Sans&quot;, &quot;Gill Sans MT&quot;, Calibri, sans-serif">String</text></g></g><g class="layer overlay"><circle class="node overlay" r="112.71102322982364" stroke="none" fill="rgba(255, 255, 255, 0)" cx="0" cy="0"/><circle class="node ring" r="117.71102322982364" fill="none" stroke="rgba(255, 255, 255, 0)" stroke-width="10px" cx="0" cy="0"/><circle class="node overlay" r="118.06957881637179" stroke="none" fill="rgba(255, 255, 255, 0)" cx="850.65234375" cy="0"/><circle class="node ring" r="123.06957881637179" fill="none" stroke="rgba(255, 255, 255, 0)" stroke-width="10px" cx="850.65234375" cy="0"/><path class="relationship overlay" fill="rgba(255, 255, 255, 0)" stroke="rgba(255, 255, 255, 0)" stroke-width="10px" transform="translate(0,0) rotate(0)" d="M 123.71102322982364 4 L 689.5827649336281 4 L 689.5827649336281 16 L 721.5827649336281 0 L 689.5827649336281 -16 L 689.5827649336281 -4 L 123.71102322982364 -4 Z"/></g></svg>