<?xml version="1.0" encoding="UTF-8"?>
<!-- Created with Inkscape (http://www.inkscape.org/) -->
<svg width="300" height="278.81" version="1.1" viewBox="0 0 300 278.81" xml:space="preserve" xmlns="http://www.w3.org/2000/svg" xmlns:cc="http://creativecommons.org/ns#" xmlns:dc="http://purl.org/dc/elements/1.1/" xmlns:rdf="http://www.w3.org/1999/02/22-rdf-syntax-ns#"><metadata><rdf:RDF><cc:Work rdf:about=""><dc:format>image/svg+xml</dc:format><dc:type rdf:resource="http://purl.org/dc/dcmitype/StillImage"/><dc:title/></cc:Work></rdf:RDF></metadata><g transform="matrix(1.3333 0 0 -1.3333 -356.93 609.63)"><g transform="matrix(1.235 0 0 1.235 -59.133 -54.797)"><g fill="#d81996"><path d="m347.42 251.49c-0.294-1.697 0.643-2.396 1.913-2.396 0.898 0 1.484 0.158 1.979 0.356l0.056-0.898c-0.48-0.198-1.296-0.442-2.395-0.442-2.125 0-3.125 1.412-2.729 3.494 0.396 2.083 1.933 3.708 3.943 3.708 2.268 0 2.479-1.968 2.238-3.237-0.05-0.257-0.099-0.443-0.155-0.585zm3.852 0.899c0.164 0.784 0.057 2.025-1.355 2.025-1.284 0-2.046-1.156-2.312-2.025z"/><path d="m359.84 249.92c-0.114-0.599-0.197-1.183-0.215-1.654h-1.126l0.065 0.869h-0.043c-0.488-0.54-1.322-1.026-2.307-1.026-1.397 0-1.923 0.983-1.733 1.982 0.317 1.668 1.974 2.581 4.639 2.567l0.028 0.143c0.106 0.555 0.146 1.597-1.268 1.583-0.656 0-1.362-0.186-1.91-0.514l-0.124 0.841c0.638 0.357 1.525 0.6 2.395 0.6 2.112 0 2.351-1.441 2.09-2.81zm-0.856 1.869c-1.365 0.028-2.966-0.215-3.221-1.555-0.158-0.828 0.314-1.198 0.942-1.198 0.913 0 1.606 0.571 1.916 1.155 0.072 0.142 0.113 0.285 0.134 0.4z"/><path d="m366.06 256.82-0.315-1.654h1.798l-0.181-0.955h-1.799l-0.709-3.721c-0.163-0.857-0.012-1.342 0.687-1.342 0.343 0 0.548 0.029 0.743 0.086l-0.124-0.955c-0.259-0.086-0.661-0.172-1.145-0.172-0.586 0-1.018 0.2-1.255 0.528-0.269 0.384-0.296 0.998-0.141 1.811l0.716 3.765h-1.07l0.183 0.955h1.07l0.245 1.283z"/><path d="m375.45 258.39h1.241l-0.827-4.336h0.029c0.59 0.77 1.48 1.255 2.594 1.255 1.726 0 2.653-1.425 2.257-3.508-0.47-2.467-2.273-3.693-3.814-3.693-0.998 0-1.723 0.384-2.081 1.283h-0.028l-0.286-1.127h-1.07c0.118 0.471 0.28 1.17 0.396 1.783zm-0.161-7.359c-0.03-0.157-0.045-0.314-0.029-0.457 0.063-0.869 0.69-1.468 1.603-1.468 1.327 0 2.301 1.07 2.602 2.651 0.264 1.384-0.224 2.568-1.579 2.568-0.842 0-1.755-0.599-2.191-1.54-0.073-0.156-0.134-0.327-0.172-0.528z"/><path d="m384.37 251.49c-0.295-1.697 0.642-2.396 1.91-2.396 0.9 0 1.486 0.158 1.981 0.356l0.057-0.898c-0.481-0.198-1.296-0.442-2.395-0.442-2.125 0-3.126 1.412-2.73 3.494 0.396 2.083 1.933 3.708 3.944 3.708 2.268 0 2.478-1.968 2.237-3.237-0.049-0.257-0.098-0.443-0.154-0.585zm3.852 0.899c0.163 0.784 0.056 2.025-1.355 2.025-1.285 0-2.046-1.156-2.312-2.025z"/><path d="m396.8 249.92c-0.114-0.599-0.197-1.183-0.215-1.654h-1.126l0.065 0.869h-0.043c-0.488-0.54-1.322-1.026-2.306-1.026-1.398 0-1.925 0.983-1.734 1.982 0.318 1.668 1.975 2.581 4.639 2.567l0.028 0.143c0.106 0.555 0.146 1.597-1.268 1.583-0.656 0-1.362-0.186-1.91-0.514l-0.125 0.841c0.639 0.357 1.526 0.6 2.396 0.6 2.112 0 2.351-1.441 2.09-2.81zm-0.856 1.869c-1.365 0.028-2.966-0.215-3.221-1.555-0.158-0.828 0.314-1.198 0.942-1.198 0.913 0 1.606 0.571 1.917 1.155 0.071 0.142 0.112 0.285 0.133 0.4z"/><path d="m406.07 250.17c-0.138-0.727-0.244-1.354-0.304-1.897h-1.113l0.143 1.127h-0.028c-0.419-0.556-1.3-1.283-2.527-1.283-1.084 0-2.267 0.612-1.807 3.023l0.769 4.035h1.255l-0.725-3.807c-0.25-1.312-7e-3 -2.21 1.12-2.21 0.842 0 1.538 0.584 1.875 1.155 0.103 0.171 0.19 0.399 0.236 0.642l0.804 4.22h1.256z"/><path d="m412.36 256.82-0.315-1.654h1.798l-0.181-0.955h-1.799l-0.709-3.721c-0.163-0.857-0.012-1.342 0.687-1.342 0.343 0 0.548 0.029 0.743 0.086l-0.124-0.955c-0.259-0.086-0.661-0.172-1.145-0.172-0.586 0-1.018 0.2-1.255 0.528-0.269 0.384-0.296 0.998-0.141 1.811l0.716 3.765h-1.07l0.183 0.955h1.07l0.245 1.283z"/><path d="m415.37 248.27 1.314 6.902h1.256l-1.314-6.902zm3.082 8.841c-0.082-0.427-0.447-0.77-0.946-0.77-0.456 0-0.691 0.343-0.609 0.77 0.081 0.428 0.463 0.785 0.933 0.785 0.457 0 0.705-0.342 0.622-0.785"/><path d="m420.26 248.27 1.133 5.947h-0.957l0.183 0.955h0.956l0.061 0.327c0.185 0.97 0.582 1.854 1.259 2.411 0.557 0.456 1.221 0.642 1.806 0.642 0.457 0 0.809-0.1 1.032-0.2l-0.356-0.97c-0.17 0.086-0.398 0.157-0.769 0.157-1.07 0-1.517-0.927-1.721-1.996l-0.071-0.371h1.669l-0.181-0.955h-1.67l-1.132-5.947z"/><path d="m431.86 250.17c-0.138-0.727-0.243-1.354-0.304-1.897h-1.113l0.143 1.127h-0.028c-0.419-0.556-1.3-1.283-2.527-1.283-1.084 0-2.266 0.612-1.807 3.023l0.769 4.035h1.255l-0.725-3.807c-0.249-1.312-7e-3 -2.21 1.121-2.21 0.841 0 1.537 0.584 1.874 1.155 0.103 0.171 0.19 0.399 0.236 0.642l0.804 4.22h1.256z"/><path d="m436.94 258.39h1.256l-1.929-10.126h-1.255z"/></g><g fill="#fff"><path d="m310.92 349.81c-1.577 14.165 0.967 38.433 14.085 40.074 10.467 1.31 21.637-13.904 25.052-24.469 1.863-5.759 3.213-12.497 3.856-20.18 1.215-14.536-0.696-22.351-1.53-26.413-1.104-5.386-5.204-12.928-7.005-14.568-1.876-1.708-8.591-1.535-16.3 6.337-8.535 8.716-16.913 28.032-18.158 39.219"/><path d="m310.92 349.81 0.543 0.06c-0.264 2.372-0.412 5.035-0.412 7.829-1e-3 6.868 0.899 14.526 3.129 20.579 1.113 3.027 2.558 5.647 4.36 7.573 1.805 1.927 3.946 3.165 6.533 3.49 0.403 0.051 0.808 0.076 1.214 0.076 2.388 0 4.834-0.856 7.219-2.329 3.578-2.207 6.993-5.792 9.803-9.768 2.811-3.973 5.022-8.338 6.228-12.073 1.848-5.714 3.191-12.412 3.831-20.057 0.278-3.328 0.391-6.299 0.391-8.951-1e-3 -8.887-1.267-14.168-1.911-17.307-0.535-2.615-1.821-5.822-3.194-8.553-0.687-1.367-1.395-2.617-2.037-3.619-0.638-1-1.227-1.76-1.607-2.102-0.42-0.392-1.334-0.735-2.626-0.73-2.906-5e-3 -7.655 1.669-12.915 7.045-4.194 4.279-8.41 11.25-11.706 18.527-3.3 7.274-5.69 14.872-6.3 20.37l-1.086-0.12c0.635-5.688 3.056-13.343 6.39-20.702 3.338-7.357 7.579-14.402 11.92-18.84 5.414-5.524 10.386-7.369 13.697-7.374 1.471 4e-3 2.628 0.357 3.362 1.016 0.521 0.478 1.12 1.276 1.792 2.32 1.999 3.126 4.524 8.388 5.381 12.542 0.64 3.117 1.936 8.544 1.934 17.527 0 2.683-0.115 5.685-0.396 9.042-0.646 7.719-2.003 14.498-3.879 20.302-1.668 5.154-5.116 11.333-9.443 16.267-2.164 2.466-4.548 4.62-7.054 6.168-2.505 1.546-5.141 2.491-7.794 2.492-0.451 0-0.901-0.027-1.35-0.083-2.864-0.356-5.26-1.754-7.196-3.829-2.906-3.115-4.832-7.732-6.055-12.87-1.22-5.14-1.728-10.807-1.728-16.029 0-2.832 0.15-5.533 0.419-7.949z"/><path d="m320.39 313.46c4.071 0.199 7.823-0.726 11.676-1.835 5.643-1.623 11.109-3.639 13.264-5.416 2.227-1.828-3.636-7.902-22.516-14.865-14.242-5.251-33.209-4.365-33.544 2.557-0.115 2.368 2.82 8.137 15.556 14.61 4.725 2.403 9.556 4.661 15.564 4.949"/><path d="m320.39 313.46 0.027-0.546c0.365 0.018 0.727 0.026 1.088 0.026 3.559 1e-3 6.922-0.836 10.41-1.84 2.808-0.808 5.572-1.714 7.889-2.633 2.315-0.916 4.194-1.863 5.178-2.68h1e-3c0.181-0.159 0.24-0.283 0.248-0.519 0.013-0.384-0.305-1.116-1.14-2.015-1.241-1.354-3.551-3.089-7.076-5.031-3.525-1.945-8.267-4.107-14.39-6.365-6.043-2.229-12.979-3.345-18.92-3.344-3.946-2e-3 -7.456 0.495-9.945 1.45-1.244 0.475-2.228 1.064-2.889 1.73-0.662 0.67-1.011 1.392-1.055 2.234l-2e-3 0.109c-0.01 1.003 0.673 2.951 2.946 5.402 2.268 2.455 6.106 5.431 12.313 8.586 4.718 2.399 9.462 4.608 15.343 4.89h1e-3l-0.027 0.546-0.026 0.546c-6.135-0.294-11.053-2.601-15.786-5.007-6.292-3.199-10.234-6.237-12.621-8.819-2.381-2.587-3.227-4.699-3.237-6.144l4e-3 -0.162c0.052-1.132 0.557-2.139 1.372-2.953 1.225-1.223 3.118-2.076 5.453-2.65 2.338-0.57 5.128-0.851 8.156-0.852 6.076 2e-3 13.112 1.132 19.298 3.412 8.219 3.032 13.991 5.897 17.735 8.342 1.873 1.224 3.239 2.34 4.158 3.341 0.911 1.003 1.415 1.883 1.428 2.754 8e-3 0.53-0.238 1.038-0.647 1.364l1e-3 -1e-3c-1.171 0.96-3.103 1.91-5.47 2.852-2.365 0.939-5.156 1.852-7.991 2.668-3.509 1.009-6.979 1.882-10.712 1.883-0.378 0-0.758-9e-3 -1.142-0.028h1e-3z"/><path d="m319.32 290.15c-0.028 0.273-0.033 0.57-0.012 0.891 0.042 0.64 0.187 1.375 0.431 2.214 1.394 4.744 7.009 13.34 9.679 14.397 1.703 0.673 5.445 2.136 10.498-0.121 3.241-1.448 4.807-2.431 4.86-3.678 0.034-0.76-1.282-2.021-1.773-2.544-2.247-2.383-6.437-6.836-10.28-9.397-4.596-3.056-9.34-4.949-11.336-4.291-1.228 0.41-1.93 1.209-2.067 2.529"/><path d="m319.32 290.15 0.544 0.055c-0.014 0.141-0.022 0.291-0.022 0.45 0 0.112 4e-3 0.228 0.012 0.349v1e-3c0.038 0.586 0.174 1.285 0.41 2.098l1e-3 4e-3 -2e-3 -6e-3c0.666 2.276 2.403 5.596 4.292 8.432 0.944 1.42 1.928 2.725 2.827 3.726 0.891 1.001 1.732 1.695 2.237 1.885 1.013 0.4 2.678 1.051 4.901 1.052 1.485-1e-3 3.217-0.291 5.173-1.165 1.608-0.717 2.787-1.318 3.527-1.857 0.371-0.268 0.628-0.518 0.783-0.739 0.156-0.224 0.217-0.406 0.227-0.605v-7e-3c4e-3 -0.035-0.033-0.19-0.14-0.376-0.156-0.283-0.436-0.635-0.72-0.952-0.286-0.32-0.573-0.607-0.765-0.812v1e-3c-2.24-2.38-6.424-6.814-10.185-9.317-1.965-1.307-3.958-2.397-5.731-3.156-1.77-0.76-3.334-1.178-4.359-1.173-0.316-1e-3 -0.577 0.038-0.772 0.103l2e-3 -1e-3c-0.544 0.182-0.927 0.432-1.195 0.754-0.268 0.323-0.44 0.735-0.501 1.312v-1e-3l-0.544-0.055-0.544-0.056c0.076-0.743 0.323-1.39 0.748-1.899 0.424-0.51 1.006-0.865 1.69-1.092l4e-3 -2e-3 -2e-3 1e-3c0.34-0.112 0.712-0.158 1.114-0.158 1.295 5e-3 2.937 0.474 4.789 1.262 1.848 0.791 3.891 1.911 5.907 3.251 3.925 2.619 8.122 7.09 10.375 9.477l1e-3 1e-3c0.229 0.245 0.687 0.696 1.093 1.193 0.204 0.25 0.398 0.513 0.551 0.788 0.149 0.276 0.273 0.562 0.277 0.907l-1e-3 0.054v-1e-3c-0.017 0.425-0.171 0.833-0.426 1.19-0.383 0.537-0.967 0.991-1.751 1.463-0.786 0.47-1.781 0.954-3.006 1.501-2.094 0.936-3.99 1.26-5.619 1.259-2.435 1e-3 -4.275-0.722-5.303-1.128-0.83-0.339-1.692-1.116-2.649-2.172-2.836-3.172-6.258-8.886-7.354-12.579l-1e-3 -2e-3c-0.25-0.866-0.405-1.636-0.45-2.332v1e-3c-0.01-0.144-0.015-0.285-0.015-0.422 0-0.194 0.01-0.381 0.028-0.56v-1e-3z"/><path d="m345.64 304.49c-0.812-0.863-1.803-1.284-3.424-0.914-2.217 0.506-4.371 1.794-4.602 4.481-0.151 1.74-0.252 4.111-0.291 6.565l-0.014 1.649c-7e-3 3.857 1.169 8.402 1.622 9.993 1.966 6.922 9.589 18.041 14.058 23.763 12.641 16.178 22.755 24.121 25.315 21.657 3.305-3.183-5.867-25.173-22.831-52.058 0 0-6.674-11.781-9.833-15.136"/><path d="m345.64 304.49-0.398 0.375c-0.553-0.574-1.076-0.867-1.932-0.877-0.283 0-0.605 0.037-0.972 0.121-1.049 0.239-2.062 0.663-2.813 1.305-0.75 0.648-1.258 1.486-1.366 2.689-0.149 1.721-0.251 4.084-0.289 6.527v-3e-3l-0.015 1.649v-4e-3 0.031c-3e-3 3.745 1.155 8.251 1.601 9.811 0.953 3.364 3.332 7.857 6.029 12.193 2.698 4.339 5.713 8.539 7.935 11.383 5.547 7.1 10.605 12.605 14.727 16.32 2.06 1.856 3.888 3.265 5.412 4.199 1.519 0.937 2.749 1.378 3.508 1.37 0.416-4e-3 0.666-0.108 0.858-0.289 0.276-0.249 0.505-0.883 0.5-1.911 3e-3 -1.625-0.532-4.121-1.582-7.265-3.146-9.448-10.855-24.801-21.832-42.196l-0.014-0.022c-1e-3 -2e-3 -0.415-0.733-1.089-1.888-1.01-1.731-2.6-4.408-4.23-6.96-1.625-2.549-3.308-4.988-4.436-6.183l0.796-0.75c0.83 0.883 1.844 2.26 2.923 3.849 3.229 4.758 6.984 11.386 6.988 11.392l-0.476 0.27 0.462-0.292c7.34 11.633 13.225 22.351 17.28 31.044 2.027 4.347 3.598 8.188 4.665 11.391 1.066 3.206 1.636 5.762 1.639 7.61-6e-3 1.157-0.213 2.084-0.836 2.699-0.422 0.41-1.002 0.598-1.616 0.594-1.133-8e-3 -2.469-0.55-4.08-1.531-4.808-2.953-12.056-10.068-20.429-20.778-2.247-2.877-5.278-7.098-8.001-11.479-2.723-4.384-5.138-8.911-6.152-12.471-0.457-1.613-1.64-6.155-1.643-10.11v-0.036l0.015-1.651v-3e-3c0.038-2.464 0.14-4.842 0.292-6.603 0.123-1.483 0.807-2.632 1.746-3.427 0.939-0.799 2.112-1.272 3.28-1.54 0.434-0.099 0.837-0.148 1.215-0.148 1.157-0.01 2.059 0.495 2.728 1.22z"/><path d="m304.55 286.15c-0.046 0.449-0.052 0.935-0.016 1.459 0.07 1.055 0.312 2.264 0.73 3.643 1.833 6.053 8.682 16.83 13.763 22.139"/><path d="m304.82 286.18c-0.025 0.245-0.038 0.502-0.038 0.773 0 0.205 7e-3 0.418 0.023 0.639 0.068 1.028 0.305 2.217 0.719 3.582 1.802 5.974 8.654 16.766 13.698 22.029l-0.398 0.381c-5.119-5.357-11.965-16.118-13.828-22.25-0.423-1.394-0.669-2.622-0.742-3.705-0.016-0.231-0.024-0.457-0.024-0.676 0-0.288 0.014-0.565 0.041-0.829z"/><path d="m347.13 306.43c-0.758-1.066-1.567-2.121-2.168-2.836-0.193-0.231-0.339-0.423-0.44-0.551-3.289-4.18-9.487-9.816-15.298-13.567-7.776-5.025-17.798-8.553-21.177-7.462-2.077 0.667-3.269 1.98-3.501 4.146z"/><path d="m346.91 306.58c-0.754-1.06-1.56-2.112-2.154-2.819-0.198-0.236-0.348-0.432-0.446-0.558-3.26-4.145-9.45-9.775-15.231-13.505-3.391-2.191-7.217-4.1-10.722-5.457-3.503-1.358-6.696-2.162-8.77-2.16-0.582 0-1.073 0.064-1.451 0.186-1.004 0.322-1.771 0.792-2.317 1.428s-0.881 1.444-0.994 2.484l-0.548-0.059c0.119-1.125 0.496-2.056 1.123-2.785s1.494-1.249 2.567-1.593c0.456-0.147 0.999-0.212 1.62-0.212 2.206 2e-3 5.425 0.826 8.969 2.197 3.541 1.371 7.395 3.293 10.822 5.508 5.842 3.771 12.048 9.414 15.366 13.627 0.102 0.131 0.245 0.319 0.434 0.545 0.609 0.724 1.419 1.782 2.182 2.853z"/><path d="m346.07 305.08c-2.173-3.289-8.027-9.773-32.517-16.723-25.96-7.364-45.583-4.615-45.583 6.614 0 3.841 4.432 12.945 22.423 22.426 4.84 2.548 9.748 5.072 15.245 6.273z"/><path d="m345.84 305.23c-1.069-1.615-3.034-4.019-7.802-6.905-4.767-2.883-12.331-6.234-24.56-9.705-9.727-2.759-18.559-4.094-25.783-4.093-6.007-2e-3 -10.901 0.925-14.26 2.697-3.361 1.78-5.183 4.347-5.189 7.745-4e-3 1.819 1.069 5.014 4.399 8.919 3.328 3.907 8.905 8.535 17.877 13.263 4.838 2.547 9.724 5.057 15.175 6.247l-0.117 0.539c-5.544-1.211-10.474-3.75-15.315-6.298-9.02-4.753-14.654-9.418-18.04-13.393-3.384-3.978-4.527-7.255-4.531-9.277-6e-3 -3.614 1.999-6.407 5.483-8.233 3.485-1.834 8.454-2.76 14.518-2.761 7.291 0 16.167 1.344 25.934 4.115 12.261 3.479 19.868 6.845 24.694 9.763 4.825 2.916 6.873 5.399 7.977 7.073z"/><path d="m346.16 305.24c-1.192-1.279-2.405-1.933-5.139-1.691-3.699 0.326-7.437 1.657-8.379 5.029z"/><path d="m345.96 305.43c-1.009-1.068-1.926-1.642-3.89-1.653-0.313 0-0.653 0.016-1.022 0.048-1.826 0.161-3.653 0.572-5.12 1.343-1.469 0.773-2.57 1.886-3.019 3.486l-0.531-0.148c0.493-1.772 1.733-3.01 3.293-3.827 1.563-0.819 3.454-1.237 5.328-1.403 0.383-0.034 0.739-0.051 1.071-0.051 2.078-0.01 3.248 0.691 4.294 1.829z"/><path d="m350.77 363.87c17.752 22.988 32.145 36.739 36.819 33.904 6.033-3.659-4.92-33.71-27.776-71.305l-4.714-7.524s-7.481-12.336-8.902-13.741z"/><path d="m350.98 363.7c8.097 10.485 15.494 19.046 21.578 24.976 3.041 2.966 5.755 5.273 8.055 6.832 2.299 1.563 4.192 2.362 5.528 2.357 0.511-1e-3 0.938-0.111 1.297-0.328 0.484-0.295 0.857-0.786 1.114-1.505 0.257-0.716 0.39-1.653 0.389-2.788 5e-3 -5.091-2.664-14.098-7.677-25.637-5.011-11.543-12.359-25.639-21.695-40.996l0.235-0.143-0.233 0.146-4.714-7.525-2e-3 -2e-3c-1e-3 -2e-3 -0.467-0.77-1.19-1.948-1.085-1.767-2.746-4.451-4.267-6.822-0.761-1.186-1.487-2.294-2.087-3.168-0.598-0.872-1.084-1.523-1.316-1.75l0.388-0.393c0.396 0.396 1.118 1.422 2.026 2.784 2.709 4.071 6.917 11.009 6.918 11.011l-0.236 0.143 0.234-0.147 4.714 7.526 1e-3 2e-3c9.348 15.375 16.706 29.489 21.73 41.063 5.023 11.578 7.718 20.593 7.723 25.856 0 1.178-0.135 2.172-0.421 2.974-0.285 0.801-0.731 1.417-1.348 1.79-0.456 0.277-0.992 0.409-1.583 0.409-1.547-6e-3 -3.493-0.867-5.837-2.452-7.018-4.761-17.595-16.177-29.761-31.928z"/><path d="m330.56 319.38c-0.736 5.03-1.153 9.965-0.71 12.11 0.953 4.588 7.331 13.889 7.331 13.889 4.667 6.646 9.226 12.846 13.584 18.488"/><path d="m330.83 319.42c-0.527 3.6-0.889 7.153-0.889 9.644 0 0.98 0.057 1.796 0.176 2.37 0.458 2.221 2.282 5.696 3.99 8.581 0.855 1.445 1.68 2.748 2.291 3.689s1.006 1.517 1.007 1.519l-0.227 0.156 0.226-0.159c4.665 6.644 9.221 12.841 13.576 18.478l-0.436 0.338c-4.361-5.646-8.922-11.849-13.592-18.498l-2e-3 -3e-3c-2e-3 -3e-3 -1.599-2.332-3.317-5.24-1.719-2.912-3.56-6.381-4.056-8.749-0.132-0.638-0.187-1.48-0.188-2.482 1e-3 -2.541 0.366-6.107 0.895-9.724z"/><path d="m332.64 308.58-0.034 0.128c-0.032 0.12-0.064 0.244-0.093 0.367-0.547 2.211-1.129 5.128-1.621 8.153l-0.333 2.148z"/><path d="m332.91 308.65-0.034 0.128c-0.032 0.118-0.063 0.239-0.091 0.359v2e-3l-1e-3 2e-3c-0.544 2.2-1.125 5.112-1.616 8.13v-2e-3l-0.333 2.148-0.545-0.084 0.333-2.149v-2e-3c0.494-3.031 1.076-5.953 1.626-8.174l0.267 0.066-0.268-0.062c0.03-0.128 0.062-0.255 0.095-0.377l0.034-0.127z"/><path d="m319.03 313.4c1.454 1.518 2.764 2.591 3.766 2.975 2.267 0.871 7.62 2.977 15.377-0.782 3.397-1.642 6.224-3.462 7.618-5.26 0.649-0.837 0.858-1.815 0.921-2.486 0.173-1.856-0.738-2.853-1.558-3.616z"/><path d="m319.22 313.21c1.438 1.506 2.742 2.559 3.666 2.908 1.279 0.492 3.499 1.36 6.576 1.361 2.368 0 5.242-0.515 8.581-2.133 3.379-1.631 6.183-3.449 7.521-5.181 0.603-0.776 0.805-1.703 0.864-2.343 0.014-0.147 0.021-0.287 0.021-0.422-5e-3 -1.467-0.75-2.271-1.492-2.966l0.376-0.404c0.762 0.703 1.672 1.691 1.667 3.37 0 0.152-7e-3 0.31-0.022 0.473-0.067 0.702-0.283 1.731-0.978 2.63-1.45 1.864-4.301 3.685-7.717 5.34-3.409 1.652-6.373 2.188-8.821 2.187-3.179 1e-3 -5.491-0.904-6.774-1.397-1.081-0.419-2.396-1.51-3.866-3.041z"/><path d="m305.64 323.67c0.393 0.083 0.788 0.164 1.185 0.235 1.724 0.307 3.503 0.48 5.359 0.48 5.624 0 10.741-1.99 15.978-4.083 7.671-3.069 15.379-6.416 17.929-9.805 0.549-0.726 0.831-1.561 0.935-2.328 0.154-1.154-0.082-1.933-0.189-2.125z"/><path d="m305.7 323.4c0.392 0.083 0.784 0.164 1.176 0.233h1e-3c1.708 0.305 3.471 0.476 5.31 0.476 5.557 2e-3 10.639-1.969 15.876-4.063 3.832-1.534 7.671-3.135 10.861-4.772 3.189-1.633 5.73-3.315 6.949-4.943 0.515-0.681 0.784-1.471 0.883-2.2v1e-3c0.034-0.257 0.048-0.494 0.048-0.708 0-0.351-0.038-0.64-0.083-0.855-0.044-0.213-0.104-0.361-0.122-0.392l0.482-0.267c0.064 0.117 0.124 0.289 0.179 0.544 0.054 0.253 0.096 0.58 0.096 0.97 0 0.238-0.016 0.499-0.053 0.781l-1e-3 1e-3c-0.11 0.805-0.405 1.685-0.988 2.457-1.33 1.761-3.919 3.447-7.138 5.102-3.22 1.651-7.07 3.257-10.908 4.793-5.239 2.092-10.39 4.102-16.081 4.103-1.873 0-3.669-0.174-5.407-0.485l-0.015-2e-3 0.015 2e-3c-0.402-0.071-0.8-0.153-1.194-0.236z"/><path d="m286.32 357.55c-4.494 26.262 8.028 50.865 21.731 53.579 17.05 3.373 37.264-19.627 43.706-51.672 3.65-18.143 2.716-28.659 1.587-35.595-1.425-8.733-4.295-14.591-6.578-17.846-0.498-0.711-0.843-1.209-1.265-1.674l-0.322-0.284c-2.631-2.307-11.582-0.348-24.33 8.032-15.22 10.006-30.695 23.058-34.529 45.46"/><path d="m286.32 357.55 0.272 0.047c-0.633 3.696-0.926 7.359-0.926 10.932-1e-3 10.854 2.714 20.88 6.884 28.469 4.169 7.592 9.795 12.725 15.555 13.861 1.096 0.217 2.205 0.323 3.324 0.323 7.997 5e-3 16.518-5.444 23.785-14.664 7.266-9.215 13.27-22.179 16.273-37.115 1.95-9.696 2.588-17.204 2.588-23.145 0-5.159-0.48-9.138-1.003-12.351-1.418-8.694-4.275-14.515-6.532-17.732-0.499-0.713-0.837-1.201-1.243-1.648l0.204-0.185-0.182 0.207-0.322-0.284-5e-3 -5e-3 5e-3 5e-3c-0.59-0.521-1.6-0.829-3.006-0.828-4.13-7e-3 -11.512 2.647-20.991 8.884-15.204 9.998-30.594 22.988-34.408 45.276l-0.544-0.094c3.853-22.515 19.414-35.629 34.649-45.643 9.539-6.265 16.95-8.968 21.294-8.975 1.48 1e-3 2.623 0.314 3.37 0.965l5e-3 5e-3 0.318 0.28 0.011 0.01 0.011 0.012c0.438 0.483 0.789 0.991 1.286 1.701 2.309 3.292 5.193 9.188 6.624 17.96 0.526 3.233 1.011 7.247 1.011 12.44 0 5.981-0.643 13.527-2.6 23.254-3.019 15.015-9.051 28.051-16.38 37.348-7.329 9.292-15.96 14.868-24.218 14.873-1.154 0-2.299-0.109-3.431-0.333-6.006-1.195-11.711-6.462-15.932-14.137-4.219-7.679-6.952-17.787-6.952-28.734 0-3.603 0.296-7.298 0.934-11.026z"/></g><path d="m310.92 349.81c-1.577 14.165 0.967 38.433 14.085 40.074 10.467 1.31 21.637-13.904 25.052-24.469 1.863-5.759 3.213-12.497 3.856-20.18 1.215-14.536-0.696-22.351-1.53-26.413-1.104-5.386-5.204-12.928-7.005-14.568-1.876-1.708-8.591-1.535-16.3 6.337-8.535 8.716-16.913 28.032-18.158 39.219" fill="#fbda05"/><path d="m320.39 313.46c4.071 0.199 7.823-0.726 11.676-1.835 5.643-1.623 11.109-3.639 13.264-5.416 2.227-1.828-3.636-7.902-22.516-14.865-14.242-5.251-33.209-4.365-33.544 2.557-0.115 2.368 2.82 8.137 15.556 14.61 4.725 2.403 9.556 4.661 15.564 4.949" fill="#fbda05"/><path d="m319.32 290.15c-0.028 0.273-0.033 0.57-0.012 0.891 0.042 0.64 0.187 1.375 0.431 2.214 1.394 4.744 7.009 13.34 9.679 14.397 1.703 0.673 5.445 2.136 10.498-0.121 3.241-1.448 4.807-2.431 4.86-3.678 0.034-0.76-1.282-2.021-1.773-2.544-2.247-2.383-6.437-6.836-10.28-9.397-4.596-3.056-9.34-4.949-11.336-4.291-1.228 0.41-1.93 1.209-2.067 2.529" fill="#d81996"/><path d="m345.64 304.49c-0.812-0.863-1.803-1.284-3.424-0.914-2.217 0.506-4.371 1.794-4.602 4.481-0.151 1.74-0.252 4.111-0.291 6.565l-0.014 1.649c-7e-3 3.857 1.169 8.402 1.622 9.993 1.966 6.922 9.589 18.041 14.058 23.763 12.641 16.178 22.755 24.121 25.315 21.657 3.305-3.183-5.867-25.173-22.831-52.058 0 0-6.674-11.781-9.833-15.136" fill="#d81996"/><path d="m334.52 308.46c-2.273-1e-3 -3.981-0.668-4.998-1.07-0.586-0.227-1.432-0.942-2.339-1.957-0.911-1.014-1.901-2.327-2.851-3.756-1.9-2.855-3.645-6.182-4.326-8.506v1e-3c-0.24-0.825-0.38-1.542-0.42-2.155l-6e-3 -0.251c0-0.083 1e-3 -0.171 4e-3 -0.257 1.004 0.303 2.019 0.647 2.988 1h1e-3c3.841 1.394 8.591 3.271 12.765 5.404 4.109 2.095 7.66 4.457 9.216 6.775-0.365-0.162-0.774-0.251-1.249-0.251-0.331 0-0.693 0.043-1.094 0.134-2.217 0.506-4.372 1.794-4.602 4.481h-1e-3l-0.089 0.023c-1.085 0.277-2.087 0.385-2.999 0.385" fill="#f7c611"/><path d="m353.11 349.73c-4.469-5.735-11.993-16.758-13.914-23.544l-0.265 0.075 0.265-0.075c-0.448-1.573-1.613-6.089-1.611-9.886v-0.031 2e-3l0.015-1.649v1e-3c0.034-2.318 0.131-4.552 0.268-6.256l0.031-0.385-0.285 0.072c0.231-2.687 2.386-3.975 4.603-4.481 0.401-0.091 0.763-0.134 1.094-0.134 0.475 0 0.884 0.089 1.248 0.251 0.023 0.033 0.045 0.066 0.066 0.099l8e-3 0.029 0.058 0.082 0.128 0.127c0.068 0.057 0.134 0.109 0.207 0.152l0.037 0.063c0.012 0.091 0.039 0.102 0.047 0.124l0.032 0.039 0.043 0.043 0.048 0.08 0.07 0.032c0.857 0.849 2.277 3.066 3.592 5.693 1.381 2.748 2.675 5.967 3.218 8.621 0.643 3.133 1.916 8.45 1.917 17.361 0 2.66-0.114 5.639-0.393 8.974-0.126 1.524-0.305 3.032-0.527 4.521" fill="#f7c611"/><g fill="#fff115"><path d="m344.1 302.24c-0.441-0.443-0.945-0.908-1.527-1.394-0.057-0.061-0.115-0.122-0.173-0.184 0.639 0.519 1.21 1.045 1.7 1.578m2.342 2.819c-0.018-0.019-0.035-0.036-0.051-0.053l-2e-3 2e-3c-0.094-0.129-0.186-0.251-0.279-0.369 0.107 0.129 0.218 0.269 0.332 0.42"/><path d="m319.32 290.2c-0.09-0.026-0.18-0.052-0.27-0.077l0.02-0.337 0.293 0.086c-0.016 0.089-0.028 0.181-0.038 0.276-2e-3 0.017-3e-3 0.035-5e-3 0.052m26.437 14.015c-0.017-0.019-0.035-0.039-0.052-0.058l-0.01-0.011-0.012-0.011-0.318-0.28-5e-3 -4e-3c-0.069-0.06-0.14-0.117-0.215-0.171-0.287-0.407-0.673-0.849-1.164-1.323-0.359-0.424-0.75-0.813-0.973-1.05-0.138-0.146-0.284-0.301-0.437-0.463 0.582 0.487 1.086 0.952 1.527 1.395 0.383 0.416 0.716 0.837 0.992 1.261l0.039 0.06 0.202 0.162 0.082 0.036 0.163 0.275 0.035 0.023 0.069 0.058 0.042 0.046c7e-3 0.015 0.021 0.026 0.035 0.055"/><path d="m347.04 305.93c-0.017-0.025-0.035-0.051-0.053-0.075-0.223-0.32-0.418-0.599-0.603-0.853l1e-3 -1e-3c0.017 0.016 0.034 0.034 0.051 0.053 0.196 0.259 0.402 0.551 0.615 0.87zm0.349 0.515c-0.075-0.114-0.15-0.225-0.224-0.334-4e-3 -0.01-7e-3 -0.021-0.011-0.031 0.077 0.118 0.156 0.24 0.235 0.365"/><path d="m347.17 306.11c-0.042-0.061-0.083-0.122-0.125-0.181l0.011-6e-3c0.034 0.051 0.068 0.103 0.103 0.156 4e-3 0.01 7e-3 0.02 0.011 0.031"/><path d="m348.29 307.95c-0.989-1.441-1.915-2.68-2.651-3.461-0.021-0.022-0.041-0.043-0.061-0.064-0.104-0.234-0.247-0.483-0.432-0.746 0.075 0.054 0.147 0.111 0.215 0.171l6e-3 4e-3 0.317 0.28 0.012 0.01 0.01 0.012c0.018 0.019 0.035 0.039 0.052 0.058 6e-3 0.011 0.011 0.025 0.015 0.042 0.107 0.112 0.22 0.239 0.337 0.38 0.093 0.118 0.184 0.241 0.279 0.369 0.185 0.254 0.38 0.533 0.603 0.853 0.018 0.024 0.036 0.05 0.053 0.075 0.041 0.059 0.083 0.12 0.125 0.181 0.074 0.109 0.149 0.22 0.224 0.334 0.291 0.459 0.591 0.963 0.896 1.502m5.169 43.111-0.165-0.208c0.017-0.124 0.034-0.248 0.05-0.373 0.058 0.074 0.115 0.146 0.173 0.219z"/></g><path d="m353.29 350.85-0.225-0.282c-0.101-0.127-0.197-0.249-0.297-0.374l-1e-3 -1e-3v-1e-3c-4.482-5.744-12.11-16.848-14.107-23.857-0.454-1.6-1.631-6.134-1.633-10.037l1e-3 -0.033 0.014-1.652c0.024-1.628 0.079-3.214 0.157-4.609 0.094-0.032 0.187-0.065 0.28-0.097-0.08 1.418-0.135 3.045-0.161 4.71l-0.015 1.649c-6e-3 3.857 1.17 8.402 1.622 9.993 1.966 6.923 9.59 18.042 14.059 23.763 0.119 0.152 0.238 0.304 0.356 0.455-0.016 0.125-0.033 0.249-0.05 0.373" fill="#f9eb0d"/><path d="m345.58 304.42c-0.244-0.25-0.505-0.46-0.795-0.621-0.01-0.411-0.383-0.954-0.8-1.447 0.491 0.473 0.877 0.915 1.164 1.323 0.184 0.263 0.328 0.512 0.431 0.745m-8.374 5.582c0.025-0.457 0.053-0.893 0.084-1.304-0.99 0.223-1.914 0.312-2.763 0.312h-3e-3c-2.379 0-4.174-0.703-5.199-1.109-0.749-0.302-1.606-1.058-2.546-2.1-2.804-3.13-6.225-8.849-7.296-12.475l-1e-3 -1e-3c-0.247-0.853-0.397-1.606-0.44-2.274v-1e-3c-5e-3 -0.086-7e-3 -0.183-7e-3 -0.286 0-0.228 9e-3 -0.48 0.018-0.638l1e-3 -9e-3c0.09 0.026 0.18 0.051 0.27 0.077-0.024 0.259-0.027 0.539-7e-3 0.839 0.042 0.641 0.187 1.375 0.43 2.215 1.395 4.743 7.01 13.339 9.68 14.397 1.02 0.403 2.773 1.09 5.101 1.09 0.932 0 1.956-0.11 3.063-0.392-0.039 0.481-0.074 1.006-0.105 1.562-0.093 0.033-0.187 0.065-0.28 0.097" fill="#f9eb0d"/><path d="m334.52 308.74c-2.328 0-4.081-0.687-5.102-1.09-2.669-1.057-8.284-9.654-9.679-14.397-0.243-0.839-0.389-1.574-0.43-2.215-0.02-0.3-0.017-0.58 6e-3 -0.839 2e-3 -0.017 4e-3 -0.034 5e-3 -0.052 0.01-0.094 0.023-0.186 0.039-0.276l0.039 0.012c1.128 0.331 2.274 0.715 3.362 1.112l-1e-3 -1e-3c3.854 1.398 8.62 3.282 12.828 5.431 2.594 1.328 4.976 2.749 6.806 4.235 0.059 0.062 0.117 0.123 0.174 0.183 0.152 0.162 0.298 0.317 0.437 0.464 0.222 0.237 0.614 0.625 0.973 1.05 0.417 0.493 0.79 1.036 0.8 1.447-0.073-0.041-0.148-0.078-0.225-0.113-1.556-2.317-5.107-4.68-9.216-6.775-4.174-2.132-8.924-4.01-12.765-5.403h-1e-3c-0.969-0.354-1.984-0.697-2.988-1-3e-3 0.085-4e-3 0.173-4e-3 0.256l6e-3 0.252c0.04 0.613 0.18 1.329 0.42 2.155v-1e-3c0.681 2.323 2.426 5.651 4.326 8.506 0.95 1.428 1.94 2.741 2.851 3.756 0.907 1.015 1.753 1.73 2.339 1.956 1.017 0.403 2.725 1.07 4.998 1.071 0.912 0 1.914-0.108 2.999-0.385l0.09-0.023c-9e-3 0.095-0.017 0.192-0.025 0.292-1.106 0.282-2.13 0.392-3.062 0.392" fill="#fbda13"/><path d="m353.51 350.7c-0.058-0.073-0.115-0.146-0.172-0.219-0.119-0.151-0.238-0.303-0.357-0.455-4.469-5.721-12.092-16.84-14.058-23.763-0.453-1.591-1.629-6.136-1.622-9.993l0.015-1.649c0.026-1.665 0.081-3.292 0.161-4.71 0.031-0.557 0.066-1.081 0.105-1.563 8e-3 -0.099 0.016-0.196 0.024-0.291l0.285-0.073-0.031 0.385c-0.137 1.704-0.235 3.938-0.269 6.256v-1e-3l-0.015 1.649v-2e-3 0.031c-1e-3 3.797 1.163 8.313 1.612 9.886l-0.265 0.075 0.265-0.075c1.921 6.786 9.444 17.809 13.914 23.544 0.222-1.488 0.4-2.997 0.527-4.521 0.279-3.335 0.393-6.314 0.393-8.974-1e-3 -8.911-1.274-14.228-1.918-17.361-0.543-2.654-1.836-5.873-3.217-8.621-1.316-2.627-2.736-4.844-3.592-5.693l-0.07-0.032-0.048-0.08-0.044-0.043-0.031-0.039c-9e-3 -0.022-0.035-0.033-0.047-0.124l-0.037-0.063c-0.073-0.043-0.139-0.095-0.207-0.152l-0.128-0.127-0.058-0.082-8e-3 -0.029-0.066-0.099c0.077 0.034 0.152 0.072 0.225 0.113 0.29 0.161 0.551 0.371 0.795 0.621 0.021 0.021 0.041 0.042 0.061 0.063 0.736 0.782 1.663 2.021 2.651 3.462 0.364 0.642 0.732 1.333 1.097 2.057 1.396 2.78 2.704 6.024 3.265 8.757 0.641 3.123 1.929 8.513 1.928 17.472 0 2.675-0.114 5.67-0.394 9.02-0.146 1.752-0.359 3.483-0.628 5.186z" fill="#fbda13"/><path d="m304.82 286.18c-0.025 0.245-0.038 0.502-0.038 0.773 0 0.205 7e-3 0.418 0.023 0.639 0.068 1.028 0.305 2.217 0.719 3.582 1.802 5.974 8.654 16.766 13.698 22.029l-0.398 0.381c-5.119-5.357-11.965-16.118-13.828-22.25-0.423-1.394-0.669-2.622-0.742-3.705-0.016-0.231-0.024-0.457-0.024-0.676 0-0.288 0.014-0.565 0.041-0.829z" fill="#92c9de"/><path d="m346.91 306.58c-0.754-1.06-1.56-2.112-2.154-2.819-0.198-0.236-0.348-0.432-0.446-0.558-3.26-4.145-9.45-9.775-15.231-13.505-3.391-2.191-7.217-4.1-10.722-5.457-3.503-1.358-6.696-2.162-8.77-2.16-0.582 0-1.073 0.064-1.451 0.186-1.004 0.322-1.771 0.792-2.317 1.428s-0.881 1.444-0.994 2.484l-0.548-0.058c0.119-1.126 0.496-2.057 1.123-2.786s1.494-1.249 2.567-1.593c0.456-0.147 0.999-0.212 1.62-0.212 2.206 2e-3 5.425 0.826 8.969 2.197 3.541 1.371 7.395 3.293 10.822 5.508 5.842 3.771 12.048 9.414 15.366 13.627 0.102 0.131 0.245 0.319 0.434 0.545 0.608 0.724 1.419 1.782 2.181 2.853z" fill="#0b9fd3"/><path d="m345.84 305.23c-1.069-1.615-3.034-4.019-7.802-6.905-4.767-2.883-12.331-6.234-24.56-9.705-9.727-2.759-18.559-4.094-25.783-4.093-6.007-2e-3 -10.901 0.925-14.26 2.697-3.361 1.78-5.183 4.347-5.189 7.745-4e-3 1.819 1.069 5.014 4.399 8.919 3.328 3.907 8.905 8.535 17.877 13.263 4.838 2.547 9.724 5.057 15.175 6.247l-0.117 0.539c-5.544-1.211-10.474-3.75-15.315-6.298-9.02-4.753-14.654-9.418-18.04-13.393-3.384-3.978-4.527-7.255-4.531-9.277-6e-3 -3.614 1.999-6.407 5.483-8.233 3.486-1.834 8.454-2.76 14.518-2.761 7.291 0 16.167 1.344 25.934 4.115 12.261 3.479 19.868 6.845 24.694 9.763 4.825 2.917 6.873 5.399 7.977 7.073z" fill="#d81996"/><path d="m345.96 305.43c-1.009-1.068-1.926-1.642-3.89-1.653-0.313 0-0.653 0.016-1.022 0.048-1.826 0.161-3.653 0.572-5.12 1.343-1.469 0.773-2.57 1.886-3.019 3.486l-0.531-0.148c0.493-1.772 1.733-3.01 3.293-3.827 1.563-0.819 3.454-1.237 5.328-1.403 0.383-0.034 0.739-0.051 1.071-0.051 2.078-0.01 3.248 0.691 4.294 1.829z" fill="#c7e1eb"/><path d="m350.98 363.7c8.097 10.485 15.494 19.046 21.578 24.976 3.041 2.966 5.755 5.273 8.055 6.832 2.299 1.563 4.192 2.362 5.528 2.357 0.511-1e-3 0.938-0.111 1.297-0.328 0.484-0.295 0.857-0.786 1.114-1.505 0.257-0.716 0.39-1.653 0.389-2.788 5e-3 -5.091-2.664-14.098-7.677-25.637-5.011-11.543-12.359-25.639-21.695-40.996l0.235-0.143-0.233 0.146-4.714-7.525-2e-3 -2e-3c-1e-3 -2e-3 -0.467-0.77-1.19-1.948-1.085-1.767-2.746-4.451-4.267-6.822-0.761-1.186-1.487-2.294-2.087-3.168-0.598-0.872-1.084-1.523-1.316-1.75l0.388-0.393c0.396 0.396 1.118 1.422 2.026 2.784 2.709 4.071 6.917 11.009 6.918 11.011l-0.236 0.143 0.234-0.147 4.714 7.526 1e-3 2e-3c9.348 15.375 16.706 29.489 21.73 41.063 5.023 11.578 7.718 20.593 7.723 25.856 0 1.178-0.135 2.172-0.421 2.974-0.285 0.801-0.731 1.417-1.348 1.79-0.456 0.277-0.992 0.409-1.583 0.409-1.547-6e-3 -3.493-0.867-5.837-2.452-7.018-4.761-17.595-16.177-29.761-31.928z" fill="#0b9fd3"/><path d="m330.83 319.42c-0.527 3.6-0.889 7.153-0.889 9.644 0 0.98 0.057 1.796 0.176 2.37 0.458 2.221 2.282 5.696 3.99 8.581 0.855 1.445 1.68 2.748 2.291 3.689s1.006 1.517 1.007 1.519l-0.227 0.156 0.226-0.159c4.665 6.644 9.221 12.841 13.576 18.478l-0.436 0.338c-4.361-5.646-8.922-11.849-13.592-18.498l-2e-3 -3e-3c-2e-3 -3e-3 -1.599-2.332-3.317-5.24-1.719-2.912-3.56-6.381-4.056-8.749-0.132-0.638-0.187-1.48-0.188-2.482 1e-3 -2.541 0.366-6.107 0.895-9.724z" fill="#92c9de"/><path d="m332.91 308.65-0.034 0.128c-0.032 0.118-0.063 0.239-0.091 0.359v2e-3l-1e-3 2e-3c-0.544 2.2-1.125 5.112-1.616 8.13v-2e-3l-0.333 2.148-0.545-0.084 0.333-2.149v-2e-3c0.494-3.031 1.076-5.953 1.626-8.174l0.267 0.066-0.268-0.062c0.03-0.128 0.062-0.255 0.095-0.376l0.034-0.128z" fill="#c7e1eb"/><path d="m319.22 313.21c1.438 1.506 2.742 2.559 3.666 2.908 1.279 0.492 3.499 1.36 6.576 1.361 2.368-1e-3 5.242-0.515 8.581-2.133 3.379-1.631 6.183-3.449 7.521-5.181 0.603-0.776 0.805-1.703 0.864-2.343 0.014-0.147 0.021-0.287 0.021-0.422-5e-3 -1.467-0.75-2.271-1.492-2.966l0.376-0.404c0.762 0.703 1.672 1.691 1.667 3.37 0 0.152-7e-3 0.31-0.022 0.474-0.067 0.701-0.283 1.73-0.978 2.629-1.45 1.864-4.301 3.685-7.717 5.34-3.409 1.652-6.373 2.188-8.821 2.188-3.179 0-5.491-0.904-6.774-1.398-1.081-0.419-2.396-1.51-3.866-3.041z" fill="#c7e1eb"/><path d="m305.7 323.4c0.392 0.083 0.784 0.164 1.176 0.233h1e-3c1.708 0.305 3.471 0.476 5.31 0.477 5.557 1e-3 10.639-1.97 15.876-4.064 3.832-1.534 7.671-3.135 10.861-4.772 3.189-1.633 5.73-3.315 6.949-4.943 0.515-0.681 0.784-1.471 0.883-2.2v1e-3c0.034-0.257 0.048-0.494 0.048-0.708 0-0.351-0.038-0.64-0.083-0.855-0.044-0.213-0.104-0.361-0.122-0.392l0.482-0.267c0.064 0.117 0.124 0.289 0.179 0.544 0.054 0.253 0.096 0.58 0.096 0.97 0 0.238-0.016 0.499-0.053 0.781l-1e-3 1e-3c-0.11 0.805-0.405 1.685-0.988 2.457-1.33 1.761-3.919 3.447-7.138 5.102-3.22 1.651-7.07 3.257-10.908 4.793-5.239 2.092-10.39 4.102-16.081 4.103-1.873 0-3.669-0.174-5.407-0.485l-0.015-2e-3 0.015 2e-3c-0.402-0.071-0.8-0.153-1.194-0.236z" fill="#f075bf"/><path d="m286.32 357.55 0.272 0.047c-0.633 3.696-0.927 7.359-0.927 10.932 0 10.854 2.715 20.88 6.885 28.469 4.169 7.592 9.795 12.725 15.555 13.861 1.096 0.217 2.205 0.323 3.324 0.323 7.997 5e-3 16.518-5.444 23.785-14.664 7.266-9.215 13.27-22.179 16.273-37.115 1.95-9.696 2.588-17.203 2.588-23.145 0-5.159-0.48-9.138-1.003-12.351-1.418-8.694-4.275-14.515-6.532-17.732-0.499-0.713-0.837-1.201-1.243-1.648l0.204-0.185-0.182 0.207-0.322-0.284-5e-3 -5e-3 5e-3 5e-3c-0.59-0.521-1.6-0.829-3.006-0.828-4.13-7e-3 -11.512 2.647-20.991 8.884-15.204 9.998-30.594 22.988-34.408 45.276l-0.272-0.047-0.272-0.046c3.853-22.516 19.414-35.63 34.649-45.644 9.539-6.265 16.95-8.968 21.294-8.975 1.48 1e-3 2.623 0.314 3.37 0.965l5e-3 5e-3 0.318 0.28 0.011 0.01 0.011 0.012c0.438 0.483 0.789 0.991 1.286 1.701 2.309 3.292 5.193 9.188 6.624 17.96 0.526 3.233 1.011 7.247 1.011 12.44 0 5.981-0.643 13.527-2.6 23.254-3.019 15.015-9.051 28.051-16.38 37.348-7.329 9.292-15.96 14.868-24.218 14.873-1.154 0-2.299-0.109-3.431-0.333-6.006-1.195-11.711-6.462-15.932-14.137-4.219-7.679-6.952-17.787-6.952-28.734 0-3.603 0.296-7.298 0.934-11.025z" fill="#d81996"/><g fill="#231f20"><path d="m353.66 294.8 7.055 2.189-7.055-33.166h-6.562z"/><path d="m360.14 310.04c2.401 0 3.954-1.905 3.389-4.303-0.495-2.399-2.823-4.302-5.153-4.302-2.396 0-3.949 1.903-3.456 4.302 0.494 2.398 2.822 4.303 5.22 4.303"/><path d="m369.32 291.13h-3.386l0.984 4.797h3.388l1.765 8.255 6.981 2.33-2.254-10.585h5.572l-1.058-4.797h-5.574l-4.02-19.194c-0.706-3.46 0.704-4.235 4.659-4.447l-0.848-4.019c-7.692-0.709-11.498 2.539-10.302 8.323z"/><path d="m381.45 267 3.526 4.163c2.119-2.046 4.799-3.031 7.411-3.031 3.245 0 6.702 1.478 7.268 4.583 0.492 2.542-1.904 3.317-3.669 4.026-0.848 0.35-1.766 0.844-2.612 1.196-4.021 1.696-7.973 3.319-6.771 9.034 1.409 6.42 7.759 9.808 13.404 9.808 3.245 0 5.999-1.13 9.032-3.108l-3.457-4.303c-2.542 1.623-4.446 2.259-6.562 2.259-2.752 0-5.578-1.411-6.139-4.024-0.282-1.272 0.284-2.043 1.625-2.75 1.337-0.705 3.173-1.483 4.935-2.189 1.765-0.776 3.599-1.553 5.011-2.822 1.482-1.409 2.47-3.458 1.763-6.629-1.621-7.131-9.03-10.235-14.889-10.235-3.736 0-7.124 1.48-9.876 4.022"/><path d="m412.42 272.78 4.661 21.804 7.123 2.261-4.726-22.299c-0.845-4.162 1.623-6.565 5.715-6.49 2.327 0.07 4.727 1.055 6.49 2.044l5.503 25.825h6.563l-5.788-27.239c-5.36-3.385-10.863-5.434-16.931-5.434-4.799 0-10.02 2.897-8.61 9.528"/></g></g></g></svg>
