<svg xmlns="http://www.w3.org/2000/svg" width="501.0945739746094" height="319.7299499511719" viewBox="-161.43875122070312 -54.14028549194336 501.0945739746094 319.7299499511719"><title>Neo4j Graph Visualization</title><desc>Created using Neo4j (http://www.neo4j.com/)</desc><g class="layer relationships"><g class="relationship" transform="translate(3.5839752966815297 221.58966430979459) rotate(315.4601647487945)"><path class="outline" fill="#A5ABB6" stroke="none" d="M 40 0.5 L 78.64618143845084 0.5 L 78.64618143845084 -0.5 L 40 -0.5 Z M 129.55243143845084 0.5 L 168.19861287690168 0.5 L 168.19861287690168 3.5 L 175.19861287690168 0 L 168.19861287690168 -3.5 L 168.19861287690168 -0.5 L 129.55243143845084 -0.5 Z"/><text text-anchor="middle" pointer-events="none" font-size="8px" fill="#000000" x="104.09930643845084" y="3" font-family="sans-serif">IN_LEAGUE</text></g><g class="relationship" transform="translate(156.96957672451202 70.64828410289005) rotate(402.3631610363733)"><path class="outline" fill="#A5ABB6" stroke="none" d="M 40 0.5 L 61.41816142776061 0.5 L 61.41816142776061 -0.5 L 40 -0.5 Z M 119.27753642776061 0.5 L 140.69569785552122 0.5 L 140.69569785552122 3.5 L 147.69569785552122 0 L 140.69569785552122 -3.5 L 140.69569785552122 -0.5 L 119.27753642776061 -0.5 Z"/><text text-anchor="middle" pointer-events="none" font-size="8px" fill="#000000" x="90.34784892776061" y="3" font-family="sans-serif">IN_COUNTRY</text></g><g class="relationship" transform="translate(-117.43875827984326 117.98960696767813) rotate(324.6835124580024)"><path class="outline" fill="#A5ABB6" stroke="none" d="M 40 0.5 L 81.86815595282705 0.5 L 81.86815595282705 -0.5 L 40 -0.5 Z M 132.77440595282707 0.5 L 174.6425619056541 0.5 L 174.6425619056541 3.5 L 181.6425619056541 0 L 174.6425619056541 -3.5 L 174.6425619056541 -0.5 L 132.77440595282707 -0.5 Z"/><text text-anchor="middle" pointer-events="none" font-size="8px" fill="#000000" x="107.32128095282705" y="3" font-family="sans-serif">IN_LEAGUE</text></g></g><g class="layer nodes"><g class="node" transform="translate(3.5839752966815297,221.58966430979459)"><circle class="outline" cx="0" cy="0" r="40" fill="#FFC454" stroke="#d7a013" stroke-width="2px"/><text text-anchor="middle" pointer-events="none" font-family="sans-serif" dy="2.5" font-size="40" fill="#604A0E"/><text text-anchor="middle" pointer-events="none" y="5" font-size="10px" fill="#604A0E" font-family="sans-serif"> Man Utd</text></g><g class="node" transform="translate(156.96957672451202,70.64828410289005)"><circle class="outline" cx="0" cy="0" r="40" fill="#C990C0" stroke="#b261a5" stroke-width="2px"/><text text-anchor="middle" pointer-events="none" font-family="sans-serif" dy="2.5" font-size="40" fill="#FFFFFF"/><text text-anchor="middle" pointer-events="none" y="5" font-size="10px" fill="#FFFFFF" font-family="sans-serif"> Premier League</text></g><g class="node" transform="translate(295.6558140852119,197.12279758368084)"><circle class="outline" cx="0" cy="0" r="40" fill="#4C8EDA" stroke="#2870c2" stroke-width="2px"/><text text-anchor="middle" pointer-events="none" font-family="sans-serif" dy="2.5" font-size="40" fill="#FFFFFF"/><text text-anchor="middle" pointer-events="none" y="5" font-size="10px" fill="#FFFFFF" font-family="sans-serif"> England</text></g><g class="node" transform="translate(-117.43875827984326,117.98960696767813)"><circle class="outline" cx="0" cy="0" r="40" fill="#FFC454" stroke="#d7a013" stroke-width="2px"/><text text-anchor="middle" pointer-events="none" font-family="sans-serif" dy="2.5" font-size="40" fill="#604A0E"/><text text-anchor="middle" pointer-events="none" y="5" font-size="10px" fill="#604A0E" font-family="sans-serif"> Juventus</text></g><g class="node" transform="translate(63.41520464105734,-10.140285500501335)"><circle class="outline" cx="0" cy="0" r="40" fill="#C990C0" stroke="#b261a5" stroke-width="2px"/><text text-anchor="middle" pointer-events="none" font-family="sans-serif" dy="2.5" font-size="40" fill="#FFFFFF"/><text text-anchor="middle" pointer-events="none" y="5" font-size="10px" fill="#FFFFFF" font-family="sans-serif"> Serie A</text></g></g></svg>