<svg xmlns="http://www.w3.org/2000/svg" width="551.8588256835938" height="280.94366455078125" viewBox="-123.43720245361328 -46.44679641723633 551.8588256835938 280.94366455078125"><title>Neo4j Graph Visualization</title><desc>Created using Neo4j (http://www.neo4j.com/)</desc><g class="layer relationships"><g class="relationship" transform="translate(-2.5163033701478525 190.49685903087388) rotate(353.8596990214829)"><path class="outline" fill="#A5ABB6" stroke="none" d="M 40 0.5 L 41.34365712911419 0.5 L 41.34365712911419 -0.5 L 40 -0.5 Z M 92.24990712911419 0.5 L 93.59356425822838 0.5 L 93.59356425822838 3.5 L 100.59356425822838 0 L 93.59356425822838 -3.5 L 93.59356425822838 -0.5 L 92.24990712911419 -0.5 Z"/><text text-anchor="middle" pointer-events="none" font-size="8px" fill="#000000" x="66.79678212911419" y="3" font-family="sans-serif">IN_LEAGUE</text></g><g class="relationship" transform="translate(137.27066909143952 175.45848675007124) rotate(322.57759485342547)"><path class="outline" fill="#A5ABB6" stroke="none" d="M 40 0.5 L 41.00948230021646 0.5 L 41.00948230021646 -0.5 L 40 -0.5 Z M 91.01338855021646 0.5 L 92.02287085043292 0.5 L 92.02287085043292 3.5 L 99.02287085043292 0 L 92.02287085043292 -3.5 L 92.02287085043292 -0.5 L 91.01338855021646 -0.5 Z"/><text text-anchor="middle" pointer-events="none" font-size="8px" fill="#000000" x="66.01143542521646" y="3" font-family="sans-serif">IN_COUN…</text></g><g class="relationship" transform="translate(105.9180887075167 -2.4467952273590985) rotate(511.1925496359108)"><path class="outline" fill="#A5ABB6" stroke="none" d="M 40 0.5 L 76.81381041452312 0.5 L 76.81381041452312 -0.5 L 40 -0.5 Z M 127.72006041452312 0.5 L 164.53387082904624 0.5 L 164.53387082904624 3.5 L 171.53387082904624 0 L 164.53387082904624 -3.5 L 164.53387082904624 -0.5 L 127.72006041452312 -0.5 Z"/><text text-anchor="middle" pointer-events="none" font-size="8px" fill="#000000" x="102.26693541452312" y="3" transform="rotate(180 102.26693541452312 0)" font-family="sans-serif">IN_LEAGUE</text></g><g class="relationship" transform="translate(247.67944245997683 90.97617272665495) rotate(329.4561189051914)"><path class="outline" fill="#A5ABB6" stroke="none" d="M 40 0.5 L 40.21684334311436 0.5 L 40.21684334311436 -0.5 L 40 -0.5 Z M 111.55668709311436 0.5 L 111.77353043622873 0.5 L 111.77353043622873 3.5 L 118.77353043622873 0 L 111.77353043622873 -3.5 L 111.77353043622873 -0.5 L 111.55668709311436 -0.5 Z"/><text text-anchor="middle" pointer-events="none" font-size="8px" fill="#000000" x="75.88676521811436" y="3" font-family="sans-serif">IN_CONFEDER…</text></g></g><g class="layer nodes"><g class="node" transform="translate(-2.5163033701478525,190.49685903087388)"><circle class="outline" cx="0" cy="0" r="40" fill="#FFC454" stroke="#d7a013" stroke-width="2px"/><text text-anchor="middle" pointer-events="none" font-family="sans-serif" dy="2.5" font-size="40" fill="#604A0E"/><text text-anchor="middle" pointer-events="none" y="5" font-size="10px" fill="#604A0E" font-family="sans-serif"> Man Utd</text></g><g class="node" transform="translate(137.27066909143952,175.45848675007124)"><circle class="outline" cx="0" cy="0" r="40" fill="#C990C0" stroke="#b261a5" stroke-width="2px"/><text text-anchor="middle" pointer-events="none" font-family="sans-serif" dy="2.5" font-size="40" fill="#FFFFFF"/><text text-anchor="middle" pointer-events="none" y="5" font-size="10px" fill="#FFFFFF" font-family="sans-serif"> Premier League</text></g><g class="node" transform="translate(247.67944245997683,90.97617272665495)"><circle class="outline" cx="0" cy="0" r="40" fill="#4C8EDA" stroke="#2870c2" stroke-width="2px"/><text text-anchor="middle" pointer-events="none" font-family="sans-serif" dy="2.5" font-size="40" fill="#FFFFFF"/><text text-anchor="middle" pointer-events="none" y="5" font-size="10px" fill="#FFFFFF" font-family="sans-serif"> England</text></g><g class="node" transform="translate(105.9180887075167,-2.4467952273590985)"><circle class="outline" cx="0" cy="0" r="40" fill="#FFC454" stroke="#d7a013" stroke-width="2px"/><text text-anchor="middle" pointer-events="none" font-family="sans-serif" dy="2.5" font-size="40" fill="#604A0E"/><text text-anchor="middle" pointer-events="none" y="5" font-size="10px" fill="#604A0E" font-family="sans-serif"> Juventus</text></g><g class="node" transform="translate(-79.43720244779671,99.48452747890528)"><circle class="outline" cx="0" cy="0" r="40" fill="#C990C0" stroke="#b261a5" stroke-width="2px"/><text text-anchor="middle" pointer-events="none" font-family="sans-serif" dy="2.5" font-size="40" fill="#FFFFFF"/><text text-anchor="middle" pointer-events="none" y="5" font-size="10px" fill="#FFFFFF" font-family="sans-serif"> Serie A</text></g><g class="node" transform="translate(384.4215895021291,10.287764702413625)"><circle class="outline" cx="0" cy="0" r="40" fill="#DA7194" stroke="#cc3c6c" stroke-width="2px"/><text text-anchor="middle" pointer-events="none" font-family="sans-serif" dy="2.5" font-size="40" fill="#FFFFFF"/><text text-anchor="middle" pointer-events="none" y="5" font-size="10px" fill="#FFFFFF" font-family="sans-serif"> UEFA</text></g></g></svg>