<svg xmlns="http://www.w3.org/2000/svg" class="graphdiagram" viewBox="-924.0763623690806 -830.280316940348 1594.3879298162858 864.7340091573051"><g class="layer relationships"><g class="related-pair"><g class="relationship" transform="translate(146.99999999999997,-117.00000000000003) rotate(180)"><path class="relationship" d="M 99.78732464756284 4 L 415.9774702743126 4 L 415.9774702743126 16 L 447.9774702743126 0 L 415.9774702743126 -16 L 415.9774702743126 -4 L 99.78732464756284 -4 Z" fill="rgb(0, 0, 0)" stroke="rgb(51, 51, 51)" stroke-width="0px"/><text class="type" text-anchor="middle" baseline-shift="30%" alignment-baseline="alphabetic" transform="rotate(180)" x="-257.88239746093774" y="0" font-size="50px" font-family="&quot;Gill Sans&quot;, &quot;Gill Sans MT&quot;, Calibri, sans-serif">NEAREST_TO</text></g></g><g class="related-pair"><g class="relationship" transform="translate(-79.21426773071292,-540.2484130859377) rotate(127.22468432062777)"><path class="relationship" d="M 113.53190385441033 4 L 399.75191258396944 4 L 399.75191258396944 16 L 431.75191258396944 0 L 399.75191258396944 -16 L 399.75191258396944 -4 L 113.53190385441033 -4 Z" fill="rgb(0, 0, 0)" stroke="rgb(51, 51, 51)" stroke-width="0px"/><text class="type" text-anchor="middle" baseline-shift="30%" alignment-baseline="alphabetic" transform="rotate(180)" x="-256.6419082191899" y="0" font-size="50px" font-family="&quot;Gill Sans&quot;, &quot;Gill Sans MT&quot;, Calibri, sans-serif">CONTAINS</text></g></g><g class="related-pair"><g class="relationship" transform="translate(-79.21426773071292,-540.2484130859377) rotate(61.87676072298167)"><path class="relationship" d="M 113.53190385441033 4 L 348.1211188129656 4 L 348.1211188129656 16 L 380.1211188129656 0 L 348.1211188129656 -16 L 348.1211188129656 -4 L 113.53190385441033 -4 Z" fill="rgb(0, 0, 0)" stroke="rgb(51, 51, 51)" stroke-width="0px"/><text class="type" text-anchor="middle" baseline-shift="30%" alignment-baseline="alphabetic" x="230.82651133368796" y="0" font-size="50px" font-family="&quot;Gill Sans&quot;, &quot;Gill Sans MT&quot;, Calibri, sans-serif">CONTAINS</text></g></g></g><g class="layer nodes"><circle class="node node-id-0" r="84.78732464756284" fill="rgb(255, 255, 255)" stroke="rgb(0, 0, 0)" stroke-width="8px" cx="146.99999999999997" cy="-117.00000000000003"/><circle class="node node-id-1" r="84.78732464756284" fill="rgb(255, 255, 255)" stroke="rgb(0, 0, 0)" stroke-width="8px" cx="-400.7647949218755" cy="-117.00000000000003"/><g class="caption"><text class="caption node" text-anchor="middle" alignment-baseline="central" x="146.99999999999997" y="-117.00000000000003" fill="rgb(51, 51, 51)" font-size="50px" font-family="&quot;Gill Sans&quot;, &quot;Gill Sans MT&quot;, Calibri, sans-serif">Token</text></g><g class="caption"><text class="caption node" text-anchor="middle" alignment-baseline="central" x="-400.7647949218755" y="-117.00000000000003" fill="rgb(51, 51, 51)" font-size="50px" font-family="&quot;Gill Sans&quot;, &quot;Gill Sans MT&quot;, Calibri, sans-serif">Token</text></g><circle class="node node-id-2" r="98.53190385441033" fill="rgb(255, 255, 255)" stroke="rgb(0, 0, 0)" stroke-width="8px" cx="-79.21426773071292" cy="-540.2484130859377"/><g class="caption"><text class="caption node" text-anchor="middle" alignment-baseline="central" x="-79.21426773071292" y="-540.2484130859377" fill="rgb(51, 51, 51)" font-size="50px" font-family="&quot;Gill Sans&quot;, &quot;Gill Sans MT&quot;, Calibri, sans-serif">Cluster</text></g></g><g class="layer properties"><g class="speech-bubble node-speech-bubble" transform="translate(206.95369221695697,-57.04630778304304) "><path class="speech-bubble-outline" transform="scale(1,1) " d="M 0 0 L 30 20 L 207.9541015625 20 A 10 10 0 0 1 217.9541015625 30 L 217.9541015625 80 A 10 10 0 0 1 207.9541015625 90 L 30 90 A 10 10 0 0 1 20 80 L 20 30 Z" fill="rgb(255, 255, 255)" stroke="rgb(0, 0, 0)" stroke-width="3px"/><text class="speech-bubble-content property-key" x="91.3037109375" y="55" alignment-baseline="central" text-anchor="end" font-size="50px" font-family="&quot;Gill Sans&quot;, &quot;Gill Sans MT&quot;, Calibri, sans-serif" xml:space="preserve">id: </text><text class="speech-bubble-content property-value" x="91.3037109375" y="55" alignment-baseline="central" font-size="50px" font-family="&quot;Gill Sans&quot;, &quot;Gill Sans MT&quot;, Calibri, sans-serif">String</text></g><g class="speech-bubble node-speech-bubble" transform="translate(-460.7184871388325,-57.04630778304304) "><path class="speech-bubble-outline" transform="scale(-1,1) " d="M 0 0 L 30 20 L 207.9541015625 20 A 10 10 0 0 1 217.9541015625 30 L 217.9541015625 80 A 10 10 0 0 1 207.9541015625 90 L 30 90 A 10 10 0 0 1 20 80 L 20 30 Z" fill="rgb(255, 255, 255)" stroke="rgb(0, 0, 0)" stroke-width="3px"/><text class="speech-bubble-content property-key" x="-146.650390625" y="55" alignment-baseline="central" text-anchor="end" font-size="50px" font-family="&quot;Gill Sans&quot;, &quot;Gill Sans MT&quot;, Calibri, sans-serif" xml:space="preserve">id: </text><text class="speech-bubble-content property-value" x="-146.650390625" y="55" alignment-baseline="central" font-size="50px" font-family="&quot;Gill Sans&quot;, &quot;Gill Sans MT&quot;, Calibri, sans-serif">String</text></g><g class="speech-bubble node-speech-bubble" transform="translate(-79.21426773071292,-638.780316940348) "><path class="speech-bubble-outline" transform="scale(1,-1) " d="M 0 0 L -10 20 L -148.37646484375 20 A 10 10 0 0 0 -158.37646484375 30 L -158.37646484375 180 A 10 10 0 0 0 -148.37646484375 190 L 148.37646484375 190 A 10 10 0 0 0 158.37646484375 180 L 158.37646484375 30 A 10 10 0 0 0 148.37646484375 20 L 10 20 Z" fill="rgb(255, 255, 255)" stroke="rgb(0, 0, 0)" stroke-width="3px"/><text class="speech-bubble-content property-key" x="6.72607421875" y="-155" alignment-baseline="central" text-anchor="end" font-size="50px" font-family="&quot;Gill Sans&quot;, &quot;Gill Sans MT&quot;, Calibri, sans-serif" xml:space="preserve">id: </text><text class="speech-bubble-content property-key" x="6.72607421875" y="-105" alignment-baseline="central" text-anchor="end" font-size="50px" font-family="&quot;Gill Sans&quot;, &quot;Gill Sans MT&quot;, Calibri, sans-serif" xml:space="preserve">round: </text><text class="speech-bubble-content property-key" x="6.72607421875" y="-55" alignment-baseline="central" text-anchor="end" font-size="50px" font-family="&quot;Gill Sans&quot;, &quot;Gill Sans MT&quot;, Calibri, sans-serif" xml:space="preserve">centre: </text><text class="speech-bubble-content property-value" x="6.72607421875" y="-155" alignment-baseline="central" font-size="50px" font-family="&quot;Gill Sans&quot;, &quot;Gill Sans MT&quot;, Calibri, sans-serif">integer</text><text class="speech-bubble-content property-value" x="6.72607421875" y="-105" alignment-baseline="central" font-size="50px" font-family="&quot;Gill Sans&quot;, &quot;Gill Sans MT&quot;, Calibri, sans-serif">integer</text><text class="speech-bubble-content property-value" x="6.72607421875" y="-55" alignment-baseline="central" font-size="50px" font-family="&quot;Gill Sans&quot;, &quot;Gill Sans MT&quot;, Calibri, sans-serif">string</text></g></g><g class="layer overlay"><circle class="node overlay" r="88.78732464756284" stroke="none" fill="rgba(255, 255, 255, 0)" cx="146.99999999999997" cy="-117.00000000000003"/><circle class="node overlay" r="88.78732464756284" stroke="none" fill="rgba(255, 255, 255, 0)" cx="-400.7647949218755" cy="-117.00000000000003"/><circle class="node ring" r="93.78732464756284" fill="none" stroke="rgba(255, 255, 255, 0)" stroke-width="10px" cx="146.99999999999997" cy="-117.00000000000003"/><circle class="node ring" r="93.78732464756284" fill="none" stroke="rgba(255, 255, 255, 0)" stroke-width="10px" cx="-400.7647949218755" cy="-117.00000000000003"/><path class="relationship overlay" fill="rgba(255, 255, 255, 0)" stroke="rgba(255, 255, 255, 0)" stroke-width="10px" transform="translate(146.99999999999997,-117.00000000000003) rotate(180)" d="M 99.78732464756284 4 L 415.9774702743126 4 L 415.9774702743126 16 L 447.9774702743126 0 L 415.9774702743126 -16 L 415.9774702743126 -4 L 99.78732464756284 -4 Z"/><circle class="node overlay" r="102.53190385441033" stroke="none" fill="rgba(255, 255, 255, 0)" cx="-79.21426773071292" cy="-540.2484130859377"/><circle class="node ring" r="107.53190385441033" fill="none" stroke="rgba(255, 255, 255, 0)" stroke-width="10px" cx="-79.21426773071292" cy="-540.2484130859377"/><path class="relationship overlay" fill="rgba(255, 255, 255, 0)" stroke="rgba(255, 255, 255, 0)" stroke-width="10px" transform="translate(-79.21426773071292,-540.2484130859377) rotate(127.22468432062777)" d="M 113.53190385441033 4 L 399.75191258396944 4 L 399.75191258396944 16 L 431.75191258396944 0 L 399.75191258396944 -16 L 399.75191258396944 -4 L 113.53190385441033 -4 Z"/><path class="relationship overlay" fill="rgba(255, 255, 255, 0)" stroke="rgba(255, 255, 255, 0)" stroke-width="10px" transform="translate(-79.21426773071292,-540.2484130859377) rotate(61.87676072298167)" d="M 113.53190385441033 4 L 348.1211188129656 4 L 348.1211188129656 16 L 380.1211188129656 0 L 348.1211188129656 -16 L 348.1211188129656 -4 L 113.53190385441033 -4 Z"/></g></svg>