<svg xmlns="http://www.w3.org/2000/svg" class="graphdiagram" viewBox="-1086.8823974609377 -777.2690816118455 1920 961"><g class="layer relationships"><g class="related-pair"><g class="relationship" transform="translate(146.99999999999997,-117.00000000000003) rotate(180)"><path class="relationship" d="M 99.78732464756284 4 L 415.9774702743126 4 L 415.9774702743126 16 L 447.9774702743126 0 L 415.9774702743126 -16 L 415.9774702743126 -4 L 99.78732464756284 -4 Z" fill="rgb(0, 0, 0)" stroke="rgb(51, 51, 51)" stroke-width="0px"/><text class="type" text-anchor="middle" baseline-shift="30%" alignment-baseline="alphabetic" transform="rotate(180)" x="-257.88239746093774" y="0" font-size="50px" font-family="&quot;Gill Sans&quot;, &quot;Gill Sans MT&quot;, Calibri, sans-serif">NEAREST_TO</text></g></g><g class="related-pair"><g class="relationship" transform="translate(-400.7647949218755,-117.00000000000003) rotate(-46.293770222700296)"><path class="relationship" d="M 99.78732464756284 4 L 411.6849834560031 4 L 411.6849834560031 16 L 443.6849834560031 0 L 411.6849834560031 -16 L 411.6849834560031 -4 L 99.78732464756284 -4 Z" fill="rgb(0, 0, 0)" stroke="rgb(51, 51, 51)" stroke-width="0px"/><text class="type" text-anchor="middle" baseline-shift="30%" alignment-baseline="alphabetic" x="255.736154051783" y="0" font-size="50px" font-family="&quot;Gill Sans&quot;, &quot;Gill Sans MT&quot;, Calibri, sans-serif">NEAREST_TO</text></g></g></g><g class="layer nodes"><circle class="node node-id-0" r="84.78732464756284" fill="rgb(255, 255, 255)" stroke="rgb(0, 0, 0)" stroke-width="8px" cx="146.99999999999997" cy="-117.00000000000003"/><circle class="node node-id-1" r="84.78732464756284" fill="rgb(255, 255, 255)" stroke="rgb(0, 0, 0)" stroke-width="8px" cx="-400.7647949218755" cy="-117.00000000000003"/><g class="caption"><text class="caption node" text-anchor="middle" alignment-baseline="central" x="146.99999999999997" y="-117.00000000000003" fill="rgb(51, 51, 51)" font-size="50px" font-family="&quot;Gill Sans&quot;, &quot;Gill Sans MT&quot;, Calibri, sans-serif">Token</text></g><g class="caption"><text class="caption node" text-anchor="middle" alignment-baseline="central" x="-400.7647949218755" y="-117.00000000000003" fill="rgb(51, 51, 51)" font-size="50px" font-family="&quot;Gill Sans&quot;, &quot;Gill Sans MT&quot;, Calibri, sans-serif">Token</text></g><circle class="node node-id-2" r="84.78732464756284" fill="rgb(255, 255, 255)" stroke="rgb(0, 0, 0)" stroke-width="8px" cx="-25.246617126464763" cy="-509.87179565429693"/><g class="caption"><text class="caption node" text-anchor="middle" alignment-baseline="central" x="-25.246617126464763" y="-509.87179565429693" fill="rgb(51, 51, 51)" font-size="50px" font-family="&quot;Gill Sans&quot;, &quot;Gill Sans MT&quot;, Calibri, sans-serif">Token</text></g></g><g class="layer properties"><g class="speech-bubble node-speech-bubble" transform="translate(231.7873246475628,-117.00000000000003) "><path class="speech-bubble-outline" transform="scale(1,1) " d="M 0 0 L 20 -10 L 20 -25 A 10 10 0 0 1 30 -35 L 207.9541015625 -35 A 10 10 0 0 1 217.9541015625 -25 L 217.9541015625 25 A 10 10 0 0 1 207.9541015625 35 L 30 35 A 10 10 0 0 1 20 25 L 20 10 Z" fill="rgb(255, 255, 255)" stroke="rgb(0, 0, 0)" stroke-width="3px"/><text class="speech-bubble-content property-key" x="91.3037109375" y="0" alignment-baseline="central" text-anchor="end" font-size="50px" font-family="&quot;Gill Sans&quot;, &quot;Gill Sans MT&quot;, Calibri, sans-serif" xml:space="preserve">id: </text><text class="speech-bubble-content property-value" x="91.3037109375" y="0" alignment-baseline="central" font-size="50px" font-family="&quot;Gill Sans&quot;, &quot;Gill Sans MT&quot;, Calibri, sans-serif">String</text></g><g class="speech-bubble node-speech-bubble" transform="translate(-460.7184871388325,-57.04630778304304) "><path class="speech-bubble-outline" transform="scale(-1,1) " d="M 0 0 L 30 20 L 207.9541015625 20 A 10 10 0 0 1 217.9541015625 30 L 217.9541015625 80 A 10 10 0 0 1 207.9541015625 90 L 30 90 A 10 10 0 0 1 20 80 L 20 30 Z" fill="rgb(255, 255, 255)" stroke="rgb(0, 0, 0)" stroke-width="3px"/><text class="speech-bubble-content property-key" x="-146.650390625" y="55" alignment-baseline="central" text-anchor="end" font-size="50px" font-family="&quot;Gill Sans&quot;, &quot;Gill Sans MT&quot;, Calibri, sans-serif" xml:space="preserve">id: </text><text class="speech-bubble-content property-value" x="-146.650390625" y="55" alignment-baseline="central" font-size="50px" font-family="&quot;Gill Sans&quot;, &quot;Gill Sans MT&quot;, Calibri, sans-serif">String</text></g><g class="speech-bubble node-speech-bubble" transform="translate(34.707075090492225,-569.8254878712539) "><path class="speech-bubble-outline" transform="scale(1,-1) " d="M 0 0 L 30 20 L 207.9541015625 20 A 10 10 0 0 1 217.9541015625 30 L 217.9541015625 80 A 10 10 0 0 1 207.9541015625 90 L 30 90 A 10 10 0 0 1 20 80 L 20 30 Z" fill="rgb(255, 255, 255)" stroke="rgb(0, 0, 0)" stroke-width="3px"/><text class="speech-bubble-content property-key" x="91.3037109375" y="-55" alignment-baseline="central" text-anchor="end" font-size="50px" font-family="&quot;Gill Sans&quot;, &quot;Gill Sans MT&quot;, Calibri, sans-serif" xml:space="preserve">id: </text><text class="speech-bubble-content property-value" x="91.3037109375" y="-55" alignment-baseline="central" font-size="50px" font-family="&quot;Gill Sans&quot;, &quot;Gill Sans MT&quot;, Calibri, sans-serif">String</text></g></g><g class="layer overlay"><circle class="node overlay" r="88.78732464756284" stroke="none" fill="rgba(255, 255, 255, 0)" cx="146.99999999999997" cy="-117.00000000000003"/><circle class="node overlay" r="88.78732464756284" stroke="none" fill="rgba(255, 255, 255, 0)" cx="-400.7647949218755" cy="-117.00000000000003"/><circle class="node ring" r="93.78732464756284" fill="none" stroke="rgba(255, 255, 255, 0)" stroke-width="10px" cx="146.99999999999997" cy="-117.00000000000003"/><circle class="node ring" r="93.78732464756284" fill="none" stroke="rgba(255, 255, 255, 0)" stroke-width="10px" cx="-400.7647949218755" cy="-117.00000000000003"/><path class="relationship overlay" fill="rgba(255, 255, 255, 0)" stroke="rgba(255, 255, 255, 0)" stroke-width="10px" transform="translate(146.99999999999997,-117.00000000000003) rotate(180)" d="M 99.78732464756284 4 L 415.9774702743126 4 L 415.9774702743126 16 L 447.9774702743126 0 L 415.9774702743126 -16 L 415.9774702743126 -4 L 99.78732464756284 -4 Z"/><circle class="node overlay" r="88.78732464756284" stroke="none" fill="rgba(255, 255, 255, 0)" cx="-25.246617126464763" cy="-509.87179565429693"/><circle class="node ring" r="93.78732464756284" fill="none" stroke="rgba(255, 255, 255, 0)" stroke-width="10px" cx="-25.246617126464763" cy="-509.87179565429693"/><path class="relationship overlay" fill="rgba(255, 255, 255, 0)" stroke="rgba(255, 255, 255, 0)" stroke-width="10px" transform="translate(-400.7647949218755,-117.00000000000003) rotate(-46.293770222700296)" d="M 99.78732464756284 4 L 411.6849834560031 4 L 411.6849834560031 16 L 443.6849834560031 0 L 411.6849834560031 -16 L 411.6849834560031 -4 L 99.78732464756284 -4 Z"/></g></svg>