<svg xmlns="http://www.w3.org/2000/svg" width="602.9262084960938" height="732.0267333984375" viewBox="162.77984619140625 -450.9495544433594 602.9262084960938 732.0267333984375"><title>Neo4j Graph Visualization</title><desc>Created using Neo4j (http://www.neo4j.com/)</desc><g class="layer relationships"><g class="relationship" transform="translate(499.6598829521704 -285.658640260228) rotate(405.4926326187399)"><path class="outline" fill="#A5ABB6" stroke="none" d="M 40 0.5 L 132.09668819591366 0.5 L 132.09668819591366 -0.5 L 40 -0.5 Z M 177.65918819591366 0.5 L 269.7558763918273 0.5 L 269.7558763918273 3.5 L 276.7558763918273 0 L 269.7558763918273 -3.5 L 269.7558763918273 -0.5 L 177.65918819591366 -0.5 Z"/><text text-anchor="middle" pointer-events="none" font-size="8px" fill="#000000" x="154.87793819591366" y="3" font-family="sans-serif">CHILD_OF</text></g><g class="relationship" transform="translate(298.88900765995203 -194.77072593916074) rotate(335.6439885339296)"><path class="outline" fill="#A5ABB6" stroke="none" d="M 40 0.5 L 83.91126033445646 0.5 L 83.91126033445646 -0.5 L 40 -0.5 Z M 129.47376033445647 0.5 L 173.38502066891292 0.5 L 173.38502066891292 3.5 L 180.38502066891292 0 L 173.38502066891292 -3.5 L 173.38502066891292 -0.5 L 129.47376033445647 -0.5 Z"/><text text-anchor="middle" pointer-events="none" font-size="8px" fill="#000000" x="106.69251033445646" y="3" font-family="sans-serif">CHILD_OF</text></g><g class="relationship" transform="translate(273.3735091380553 -296.9346377323169) rotate(362.85272639697104)"><path class="outline" fill="#A5ABB6" stroke="none" d="M 40 0.5 L 87.00232238908472 0.5 L 87.00232238908472 -0.5 L 40 -0.5 Z M 132.56482238908472 0.5 L 179.56714477816945 0.5 L 179.56714477816945 3.5 L 186.56714477816945 0 L 179.56714477816945 -3.5 L 179.56714477816945 -0.5 L 132.56482238908472 -0.5 Z"/><text text-anchor="middle" pointer-events="none" font-size="8px" fill="#000000" x="109.78357238908472" y="3" font-family="sans-serif">CHILD_OF</text></g><g class="relationship" transform="translate(350.32848084846313 -406.94956199387866) rotate(399.0844184358077)"><path class="outline" fill="#A5ABB6" stroke="none" d="M 40 0.5 L 69.91042758862727 0.5 L 69.91042758862727 -0.5 L 40 -0.5 Z M 115.47292758862727 0.5 L 145.38335517725454 0.5 L 145.38335517725454 3.5 L 152.38335517725454 0 L 145.38335517725454 -3.5 L 145.38335517725454 -0.5 L 115.47292758862727 -0.5 Z"/><text text-anchor="middle" pointer-events="none" font-size="8px" fill="#000000" x="92.69167758862727" y="3" font-family="sans-serif">CHILD_OF</text></g><g class="relationship" transform="translate(372.22407355176466 -88.7508007206396) rotate(302.9103403611422)"><path class="outline" fill="#A5ABB6" stroke="none" d="M 40 0.5 L 90.99255652737938 0.5 L 90.99255652737938 -0.5 L 40 -0.5 Z M 136.55505652737938 0.5 L 187.54761305475876 0.5 L 187.54761305475876 3.5 L 194.54761305475876 0 L 187.54761305475876 -3.5 L 187.54761305475876 -0.5 L 136.55505652737938 -0.5 Z"/><text text-anchor="middle" pointer-events="none" font-size="8px" fill="#000000" x="113.77380652737938" y="3" font-family="sans-serif">CHILD_OF</text></g><g class="relationship" transform="translate(206.77985229484173 -111.9598316280099) rotate(367.98551930926084)"><path class="outline" fill="#A5ABB6" stroke="none" d="M 40 0.5 L 57.25085380292259 0.5 L 57.25085380292259 -0.5 L 40 -0.5 Z M 102.81335380292259 0.5 L 120.06420760584518 0.5 L 120.06420760584518 3.5 L 127.06420760584518 0 L 120.06420760584518 -3.5 L 120.06420760584518 -0.5 L 102.81335380292259 -0.5 Z"/><text text-anchor="middle" pointer-events="none" font-size="8px" fill="#000000" x="80.03210380292259" y="3" font-family="sans-serif">CHILD_OF</text></g><g class="relationship" transform="translate(252.87977811065713 1.1581267200832528) rotate(323.0071812054115)"><path class="outline" fill="#A5ABB6" stroke="none" d="M 40 0.5 L 48.42931834189446 0.5 L 48.42931834189446 -0.5 L 40 -0.5 Z M 93.99181834189446 0.5 L 102.42113668378892 0.5 L 102.42113668378892 3.5 L 109.42113668378892 0 L 102.42113668378892 -3.5 L 102.42113668378892 -0.5 L 93.99181834189446 -0.5 Z"/><text text-anchor="middle" pointer-events="none" font-size="8px" fill="#000000" x="71.21056834189446" y="3" font-family="sans-serif">CHILD_OF</text></g><g class="relationship" transform="translate(506.58600844161356 -124.55533451459507) rotate(376.7623637774918)"><path class="outline" fill="#A5ABB6" stroke="none" d="M 40 0.5 L 86.05190729653533 0.5 L 86.05190729653533 -0.5 L 40 -0.5 Z M 131.61440729653532 0.5 L 177.66631459307067 0.5 L 177.66631459307067 3.5 L 184.66631459307067 0 L 177.66631459307067 -3.5 L 177.66631459307067 -0.5 L 131.61440729653532 -0.5 Z"/><text text-anchor="middle" pointer-events="none" font-size="8px" fill="#000000" x="108.83315729653533" y="3" font-family="sans-serif">CHILD_OF</text></g><g class="relationship" transform="translate(499.6598829521704 -285.658640260228) rotate(447.53826567064215)"><path class="outline" fill="#A5ABB6" stroke="none" d="M 40 0.5 L 54.34481020460507 0.5 L 54.34481020460507 -0.5 L 40 -0.5 Z M 99.90731020460507 0.5 L 114.25212040921014 0.5 L 114.25212040921014 3.5 L 121.25212040921014 0 L 114.25212040921014 -3.5 L 114.25212040921014 -0.5 L 99.90731020460507 -0.5 Z"/><text text-anchor="middle" pointer-events="none" font-size="8px" fill="#000000" x="77.12606020460507" y="3" font-family="sans-serif">CHILD_OF</text></g><g class="relationship" transform="translate(513.2173382340404 -9.634380266368524) rotate(346.48107872773835)"><path class="outline" fill="#A5ABB6" stroke="none" d="M 40 0.5 L 80.93374085915212 0.5 L 80.93374085915212 -0.5 L 40 -0.5 Z M 126.49624085915212 0.5 L 167.42998171830425 0.5 L 167.42998171830425 3.5 L 174.42998171830425 0 L 167.42998171830425 -3.5 L 167.42998171830425 -0.5 L 126.49624085915212 -0.5 Z"/><text text-anchor="middle" pointer-events="none" font-size="8px" fill="#000000" x="103.71499085915212" y="3" font-family="sans-serif">CHILD_OF</text></g><g class="relationship" transform="translate(368.89357015731383 69.56336310780503) rotate(331.24419855203934)"><path class="outline" fill="#A5ABB6" stroke="none" d="M 40 0.5 L 56.031617444018465 0.5 L 56.031617444018465 -0.5 L 40 -0.5 Z M 101.59411744401847 0.5 L 117.62573488803693 0.5 L 117.62573488803693 3.5 L 124.62573488803693 0 L 117.62573488803693 -3.5 L 117.62573488803693 -0.5 L 101.59411744401847 -0.5 Z"/><text text-anchor="middle" pointer-events="none" font-size="8px" fill="#000000" x="78.81286744401847" y="3" font-family="sans-serif">CHILD_OF</text></g><g class="relationship" transform="translate(233.04265396206642 127.92079864234373) rotate(336.7531062072426)"><path class="outline" fill="#A5ABB6" stroke="none" d="M 40 0.5 L 47.64618352987438 0.5 L 47.64618352987438 -0.5 L 40 -0.5 Z M 93.20868352987438 0.5 L 100.85486705974876 0.5 L 100.85486705974876 3.5 L 107.85486705974876 0 L 100.85486705974876 -3.5 L 100.85486705974876 -0.5 L 93.20868352987438 -0.5 Z"/><text text-anchor="middle" pointer-events="none" font-size="8px" fill="#000000" x="70.42743352987438" y="3" font-family="sans-serif">CHILD_OF</text></g><g class="relationship" transform="translate(529.3902304654613 119.11920229220809) rotate(317.0729575778616)"><path class="outline" fill="#A5ABB6" stroke="none" d="M 40 0.5 L 105.04227814341894 0.5 L 105.04227814341894 -0.5 L 40 -0.5 Z M 150.60477814341894 0.5 L 215.64705628683788 0.5 L 215.64705628683788 3.5 L 222.64705628683788 0 L 215.64705628683788 -3.5 L 215.64705628683788 -0.5 L 150.60477814341894 -0.5 Z"/><text text-anchor="middle" pointer-events="none" font-size="8px" fill="#000000" x="127.82352814341894" y="3" font-family="sans-serif">CHILD_OF</text></g><g class="relationship" transform="translate(399.7396719410928 194.56833706636968) rotate(329.80306749638896)"><path class="outline" fill="#A5ABB6" stroke="none" d="M 40 0.5 L 48.72181537710691 0.5 L 48.72181537710691 -0.5 L 40 -0.5 Z M 94.2843153771069 0.5 L 103.00613075421381 0.5 L 103.00613075421381 3.5 L 110.00613075421381 0 L 103.00613075421381 -3.5 L 103.00613075421381 -0.5 L 94.2843153771069 -0.5 Z"/><text text-anchor="middle" pointer-events="none" font-size="8px" fill="#000000" x="71.5030653771069" y="3" font-family="sans-serif">CHILD_OF</text></g><g class="relationship" transform="translate(230.72181981877122 237.0771995711777) rotate(345.88261872727503)"><path class="outline" fill="#A5ABB6" stroke="none" d="M 40 0.5 L 60.8594949582221 0.5 L 60.8594949582221 -0.5 L 40 -0.5 Z M 106.4219949582221 0.5 L 127.2814899164442 0.5 L 127.2814899164442 3.5 L 134.2814899164442 0 L 127.2814899164442 -3.5 L 127.2814899164442 -0.5 L 106.4219949582221 -0.5 Z"/><text text-anchor="middle" pointer-events="none" font-size="8px" fill="#000000" x="83.6407449582221" y="3" font-family="sans-serif">CHILD_OF</text></g></g><g class="layer nodes"><g class="node" transform="translate(721.706060144292,-59.76091910501246)"><circle class="outline" cx="0" cy="0" r="40" fill="#F16667" stroke="#eb2728" stroke-width="2px"/><text text-anchor="middle" pointer-events="none" font-family="sans-serif" dy="2.5" font-size="40" fill="#FFFFFF"/><text text-anchor="middle" pointer-events="none" y="5" font-size="10px" fill="#FFFFFF" font-family="sans-serif"> Betacoronavirus</text></g><g class="node" transform="translate(499.6598829521704,-285.658640260228)"><circle class="outline" cx="0" cy="0" r="40" fill="#F16667" stroke="#eb2728" stroke-width="2px"/><text text-anchor="middle" pointer-events="none" font-family="sans-serif" dy="2.5" font-size="40" fill="#FFFFFF"/><text text-anchor="middle" pointer-events="none" font-family="sans-serif" dy="2.5" font-size="40" fill="#FFFFFF"/><text text-anchor="middle" pointer-events="none" font-family="sans-serif" dy="2.5" font-size="40" fill="#FFFFFF"/><text text-anchor="middle" pointer-events="none" y="-5" font-size="10px" fill="#FFFFFF" font-family="sans-serif"> severe acute</text><text text-anchor="middle" pointer-events="none" y="5" font-size="10px" fill="#FFFFFF" font-family="sans-serif"> respiratory</text><text text-anchor="middle" pointer-events="none" y="15" font-size="10px" fill="#FFFFFF" font-family="sans-serif"> syndrome-rela…</text></g><g class="node" transform="translate(298.88900765995203,-194.77072593916074)"><circle class="outline" cx="0" cy="0" r="40" fill="#F16667" stroke="#eb2728" stroke-width="2px"/><text text-anchor="middle" pointer-events="none" font-family="sans-serif" dy="2.5" font-size="40" fill="#FFFFFF"/><text text-anchor="middle" pointer-events="none" y="5" font-size="10px" fill="#FFFFFF" font-family="sans-serif"> SARS-CoV-2</text></g><g class="node" transform="translate(273.3735091380553,-296.9346377323169)"><circle class="outline" cx="0" cy="0" r="40" fill="#F16667" stroke="#eb2728" stroke-width="2px"/><text text-anchor="middle" pointer-events="none" font-family="sans-serif" dy="2.5" font-size="40" fill="#FFFFFF"/><text text-anchor="middle" pointer-events="none" y="5" font-size="10px" fill="#FFFFFF" font-family="sans-serif"> SHC014-CoV</text></g><g class="node" transform="translate(350.32848084846313,-406.94956199387866)"><circle class="outline" cx="0" cy="0" r="40" fill="#F16667" stroke="#eb2728" stroke-width="2px"/><text text-anchor="middle" pointer-events="none" font-family="sans-serif" dy="2.5" font-size="40" fill="#FFFFFF"/><text text-anchor="middle" pointer-events="none" font-family="sans-serif" dy="2.5" font-size="40" fill="#FFFFFF"/><text text-anchor="middle" pointer-events="none" font-family="sans-serif" dy="2.5" font-size="40" fill="#FFFFFF"/><text text-anchor="middle" pointer-events="none" font-family="sans-serif" dy="2.5" font-size="40" fill="#FFFFFF"/><text text-anchor="middle" pointer-events="none" y="-10" font-size="10px" fill="#FFFFFF" font-family="sans-serif"> severe acute</text><text text-anchor="middle" pointer-events="none" y="0" font-size="10px" fill="#FFFFFF" font-family="sans-serif"> respiratory</text><text text-anchor="middle" pointer-events="none" y="10" font-size="10px" fill="#FFFFFF" font-family="sans-serif"> syndrome</text><text text-anchor="middle" pointer-events="none" y="20" font-size="10px" fill="#FFFFFF" font-family="sans-serif"> coronavirus</text></g><g class="node" transform="translate(372.22407355176466,-88.7508007206396)"><circle class="outline" cx="0" cy="0" r="40" fill="#F16667" stroke="#eb2728" stroke-width="2px"/><text text-anchor="middle" pointer-events="none" font-family="sans-serif" dy="2.5" font-size="40" fill="#FFFFFF"/><text text-anchor="middle" pointer-events="none" font-family="sans-serif" dy="2.5" font-size="40" fill="#FFFFFF"/><text text-anchor="middle" pointer-events="none" y="0" font-size="10px" fill="#FFFFFF" font-family="sans-serif"> SARS</text><text text-anchor="middle" pointer-events="none" y="10" font-size="10px" fill="#FFFFFF" font-family="sans-serif"> coronavirus</text></g><g class="node" transform="translate(206.77985229484173,-111.9598316280099)"><circle class="outline" cx="0" cy="0" r="40" fill="#F16667" stroke="#eb2728" stroke-width="2px"/><text text-anchor="middle" pointer-events="none" font-family="sans-serif" dy="2.5" font-size="40" fill="#FFFFFF"/><text text-anchor="middle" pointer-events="none" font-family="sans-serif" dy="2.5" font-size="40" fill="#FFFFFF"/><text text-anchor="middle" pointer-events="none" y="0" font-size="10px" fill="#FFFFFF" font-family="sans-serif"> Bat SARS</text><text text-anchor="middle" pointer-events="none" y="10" font-size="10px" fill="#FFFFFF" font-family="sans-serif"> coronavirus Rp1</text></g><g class="node" transform="translate(252.87977811065713,1.1581267200832528)"><circle class="outline" cx="0" cy="0" r="40" fill="#F16667" stroke="#eb2728" stroke-width="2px"/><text text-anchor="middle" pointer-events="none" font-family="sans-serif" dy="2.5" font-size="40" fill="#FFFFFF"/><text text-anchor="middle" pointer-events="none" y="5" font-size="10px" fill="#FFFFFF" font-family="sans-serif"> SL-CoV-WIV1</text></g><g class="node" transform="translate(506.58600844161356,-124.55533451459507)"><circle class="outline" cx="0" cy="0" r="40" fill="#F16667" stroke="#eb2728" stroke-width="2px"/><text text-anchor="middle" pointer-events="none" font-family="sans-serif" dy="2.5" font-size="40" fill="#FFFFFF"/><text text-anchor="middle" pointer-events="none" y="5" font-size="10px" fill="#FFFFFF" font-family="sans-serif"> Sarbecovirus</text></g><g class="node" transform="translate(513.2173382340404,-9.634380266368524)"><circle class="outline" cx="0" cy="0" r="40" fill="#F16667" stroke="#eb2728" stroke-width="2px"/><text text-anchor="middle" pointer-events="none" font-family="sans-serif" dy="2.5" font-size="40" fill="#FFFFFF"/><text text-anchor="middle" pointer-events="none" y="5" font-size="10px" fill="#FFFFFF" font-family="sans-serif"> Merbecovirus</text></g><g class="node" transform="translate(368.89357015731383,69.56336310780503)"><circle class="outline" cx="0" cy="0" r="40" fill="#F16667" stroke="#eb2728" stroke-width="2px"/><text text-anchor="middle" pointer-events="none" font-family="sans-serif" dy="2.5" font-size="40" fill="#FFFFFF"/><text text-anchor="middle" pointer-events="none" font-family="sans-serif" dy="2.5" font-size="40" fill="#FFFFFF"/><text text-anchor="middle" pointer-events="none" font-family="sans-serif" dy="2.5" font-size="40" fill="#FFFFFF"/><text text-anchor="middle" pointer-events="none" font-family="sans-serif" dy="2.5" font-size="40" fill="#FFFFFF"/><text text-anchor="middle" pointer-events="none" y="-10" font-size="10px" fill="#FFFFFF" font-family="sans-serif"> Middle East</text><text text-anchor="middle" pointer-events="none" y="0" font-size="10px" fill="#FFFFFF" font-family="sans-serif"> respiratory</text><text text-anchor="middle" pointer-events="none" y="10" font-size="10px" fill="#FFFFFF" font-family="sans-serif"> syndrome</text><text text-anchor="middle" pointer-events="none" y="20" font-size="10px" fill="#FFFFFF" font-family="sans-serif"> coronavirus</text></g><g class="node" transform="translate(233.04265396206642,127.92079864234373)"><circle class="outline" cx="0" cy="0" r="40" fill="#F16667" stroke="#eb2728" stroke-width="2px"/><text text-anchor="middle" pointer-events="none" font-family="sans-serif" dy="2.5" font-size="40" fill="#FFFFFF"/><text text-anchor="middle" pointer-events="none" font-family="sans-serif" dy="2.5" font-size="40" fill="#FFFFFF"/><text text-anchor="middle" pointer-events="none" y="0" font-size="10px" fill="#FFFFFF" font-family="sans-serif"> London1 novel</text><text text-anchor="middle" pointer-events="none" y="10" font-size="10px" fill="#FFFFFF" font-family="sans-serif"> CoV/2012</text></g><g class="node" transform="translate(529.3902304654613,119.11920229220809)"><circle class="outline" cx="0" cy="0" r="40" fill="#F16667" stroke="#eb2728" stroke-width="2px"/><text text-anchor="middle" pointer-events="none" font-family="sans-serif" dy="2.5" font-size="40" fill="#FFFFFF"/><text text-anchor="middle" pointer-events="none" y="5" font-size="10px" fill="#FFFFFF" font-family="sans-serif"> Embecovirus</text></g><g class="node" transform="translate(399.7396719410928,194.56833706636968)"><circle class="outline" cx="0" cy="0" r="40" fill="#F16667" stroke="#eb2728" stroke-width="2px"/><text text-anchor="middle" pointer-events="none" font-family="sans-serif" dy="2.5" font-size="40" fill="#FFFFFF"/><text text-anchor="middle" pointer-events="none" font-family="sans-serif" dy="2.5" font-size="40" fill="#FFFFFF"/><text text-anchor="middle" pointer-events="none" font-family="sans-serif" dy="2.5" font-size="40" fill="#FFFFFF"/><text text-anchor="middle" pointer-events="none" y="-5" font-size="10px" fill="#FFFFFF" font-family="sans-serif"> Human</text><text text-anchor="middle" pointer-events="none" y="5" font-size="10px" fill="#FFFFFF" font-family="sans-serif"> coronavirus</text><text text-anchor="middle" pointer-events="none" y="15" font-size="10px" fill="#FFFFFF" font-family="sans-serif"> HKU1</text></g><g class="node" transform="translate(230.72181981877122,237.0771995711777)"><circle class="outline" cx="0" cy="0" r="40" fill="#F16667" stroke="#eb2728" stroke-width="2px"/><text text-anchor="middle" pointer-events="none" font-family="sans-serif" dy="2.5" font-size="40" fill="#FFFFFF"/><text text-anchor="middle" pointer-events="none" font-family="sans-serif" dy="2.5" font-size="40" fill="#FFFFFF"/><text text-anchor="middle" pointer-events="none" font-family="sans-serif" dy="2.5" font-size="40" fill="#FFFFFF"/><text text-anchor="middle" pointer-events="none" font-family="sans-serif" dy="2.5" font-size="40" fill="#FFFFFF"/><text text-anchor="middle" pointer-events="none" y="-10" font-size="10px" fill="#FFFFFF" font-family="sans-serif"> Human</text><text text-anchor="middle" pointer-events="none" y="0" font-size="10px" fill="#FFFFFF" font-family="sans-serif"> coronavirus</text><text text-anchor="middle" pointer-events="none" y="10" font-size="10px" fill="#FFFFFF" font-family="sans-serif"> HKU1 (isolate</text><text text-anchor="middle" pointer-events="none" y="20" font-size="10px" fill="#FFFFFF" font-family="sans-serif"> N1)</text></g></g></svg>