<svg xmlns="http://www.w3.org/2000/svg" width="805.1821899414062" height="1148.8682861328125" viewBox="146.00970458984375 -657.2479858398438 805.1821899414062 1148.8682861328125"><title>Neo4j Graph Visualization</title><desc>Created using Neo4j (http://www.neo4j.com/)</desc><g class="layer relationships"><g class="relationship" transform="translate(769.2927172067241 -55.03450867274577) rotate(326.90496464799816)"><path class="outline" fill="#A5ABB6" stroke="none" d="M 40 0.5 L 56.0204716555844 0.5 L 56.0204716555844 -0.5 L 40 -0.5 Z M 101.5829716555844 0.5 L 117.6034433111688 0.5 L 117.6034433111688 3.5 L 124.6034433111688 0 L 117.6034433111688 -3.5 L 117.6034433111688 -0.5 L 101.5829716555844 -0.5 Z"/><text text-anchor="middle" pointer-events="none" font-size="8px" fill="#000000" x="78.8017216555844" y="3" font-family="sans-serif">CHILD_OF</text></g><g class="relationship" transform="translate(632.7050798120334 37.291626651004684) rotate(325.9433530213481)"><path class="outline" fill="#A5ABB6" stroke="none" d="M 40 0.5 L 56.15099180028555 0.5 L 56.15099180028555 -0.5 L 40 -0.5 Z M 101.71349180028555 0.5 L 117.8644836005711 0.5 L 117.8644836005711 3.5 L 124.8644836005711 0 L 117.8644836005711 -3.5 L 117.8644836005711 -0.5 L 101.71349180028555 -0.5 Z"/><text text-anchor="middle" pointer-events="none" font-size="8px" fill="#000000" x="78.93224180028555" y="3" font-family="sans-serif">CHILD_OF</text></g><g class="relationship" transform="translate(451.7167943496694 30.83160626194092) rotate(344.87014439146446)"><path class="outline" fill="#A5ABB6" stroke="none" d="M 40 0.5 L 138.2084582437734 0.5 L 138.2084582437734 -0.5 L 40 -0.5 Z M 183.7709582437734 0.5 L 281.9794164875468 0.5 L 281.9794164875468 3.5 L 288.9794164875468 0 L 281.9794164875468 -3.5 L 281.9794164875468 -0.5 L 183.7709582437734 -0.5 Z"/><text text-anchor="middle" pointer-events="none" font-size="8px" fill="#000000" x="160.9897082437734" y="3" font-family="sans-serif">CHILD_OF</text></g><g class="relationship" transform="translate(770.6277969390569 -265.45927392889206) rotate(401.4351566035959)"><path class="outline" fill="#A5ABB6" stroke="none" d="M 40 0.5 L 64.7972855081358 0.5 L 64.7972855081358 -0.5 L 40 -0.5 Z M 110.3597855081358 0.5 L 135.1570710162716 0.5 L 135.1570710162716 3.5 L 142.1570710162716 0 L 135.1570710162716 -3.5 L 135.1570710162716 -0.5 L 110.3597855081358 -0.5 Z"/><text text-anchor="middle" pointer-events="none" font-size="8px" fill="#000000" x="87.5785355081358" y="3" font-family="sans-serif">CHILD_OF</text></g><g class="relationship" transform="translate(660.4722759079064 -383.9539356091457) rotate(407.08871858435145)"><path class="outline" fill="#A5ABB6" stroke="none" d="M 40 0.5 L 54.612544045591065 0.5 L 54.612544045591065 -0.5 L 40 -0.5 Z M 100.17504404559106 0.5 L 114.78758809118213 0.5 L 114.78758809118213 3.5 L 121.78758809118213 0 L 114.78758809118213 -3.5 L 114.78758809118213 -0.5 L 100.17504404559106 -0.5 Z"/><text text-anchor="middle" pointer-events="none" font-size="8px" fill="#000000" x="77.39379404559106" y="3" font-family="sans-serif">CHILD_OF</text></g><g class="relationship" transform="translate(769.6593798223017 -165.036525337718) rotate(368.324423919653)"><path class="outline" fill="#A5ABB6" stroke="none" d="M 40 0.5 L 43.21723018213906 0.5 L 43.21723018213906 -0.5 L 40 -0.5 Z M 88.77973018213906 0.5 L 91.99696036427812 0.5 L 91.99696036427812 3.5 L 98.99696036427812 0 L 91.99696036427812 -3.5 L 91.99696036427812 -0.5 L 88.77973018213906 -0.5 Z"/><text text-anchor="middle" pointer-events="none" font-size="8px" fill="#000000" x="65.99848018213906" y="3" font-family="sans-serif">CHILD_OF</text></g><g class="relationship" transform="translate(533.2564906355343 -152.05046960115772) rotate(356.8557949884945)"><path class="outline" fill="#A5ABB6" stroke="none" d="M 40 0.5 L 92.09839738442594 0.5 L 92.09839738442594 -0.5 L 40 -0.5 Z M 137.66089738442594 0.5 L 189.75929476885187 0.5 L 189.75929476885187 3.5 L 196.75929476885187 0 L 189.75929476885187 -3.5 L 189.75929476885187 -0.5 L 137.66089738442594 -0.5 Z"/><text text-anchor="middle" pointer-events="none" font-size="8px" fill="#000000" x="114.87964738442594" y="3" font-family="sans-serif">CHILD_OF</text></g><g class="relationship" transform="translate(656.5550188937254 -287.9788023504297) rotate(407.38658360833847)"><path class="outline" fill="#A5ABB6" stroke="none" d="M 40 0.5 L 57.24629027584554 0.5 L 57.24629027584554 -0.5 L 40 -0.5 Z M 102.80879027584554 0.5 L 120.05508055169108 0.5 L 120.05508055169108 3.5 L 127.05508055169108 0 L 120.05508055169108 -3.5 L 120.05508055169108 -0.5 L 102.80879027584554 -0.5 Z"/><text text-anchor="middle" pointer-events="none" font-size="8px" fill="#000000" x="80.02754027584554" y="3" font-family="sans-serif">CHILD_OF</text></g><g class="relationship" transform="translate(443.74446326526623 -321.7554970661106) rotate(369.01859798545684)"><path class="outline" fill="#A5ABB6" stroke="none" d="M 40 0.5 L 81.45592753497378 0.5 L 81.45592753497378 -0.5 L 40 -0.5 Z M 127.01842753497378 0.5 L 168.47435506994756 0.5 L 168.47435506994756 3.5 L 175.47435506994756 0 L 168.47435506994756 -3.5 L 168.47435506994756 -0.5 L 127.01842753497378 -0.5 Z"/><text text-anchor="middle" pointer-events="none" font-size="8px" fill="#000000" x="104.23717753497378" y="3" font-family="sans-serif">CHILD_OF</text></g><g class="relationship" transform="translate(521.7884330257269 -254.29406198509417) rotate(379.80378649783387)"><path class="outline" fill="#A5ABB6" stroke="none" d="M 40 0.5 L 105.44470996441638 0.5 L 105.44470996441638 -0.5 L 40 -0.5 Z M 151.00720996441638 0.5 L 216.45191992883275 0.5 L 216.45191992883275 3.5 L 223.45191992883275 0 L 216.45191992883275 -3.5 L 216.45191992883275 -0.5 L 151.00720996441638 -0.5 Z"/><text text-anchor="middle" pointer-events="none" font-size="8px" fill="#000000" x="128.22595996441638" y="3" font-family="sans-serif">CHILD_OF</text></g><g class="relationship" transform="translate(623.0542396438619 -90.11574075380148) rotate(332.931245217785)"><path class="outline" fill="#A5ABB6" stroke="none" d="M 40 0.5 L 56.03853967631295 0.5 L 56.03853967631295 -0.5 L 40 -0.5 Z M 101.60103967631295 0.5 L 117.6395793526259 0.5 L 117.6395793526259 3.5 L 124.6395793526259 0 L 117.6395793526259 -3.5 L 117.6395793526259 -0.5 L 101.60103967631295 -0.5 Z"/><text text-anchor="middle" pointer-events="none" font-size="8px" fill="#000000" x="78.81978967631295" y="3" font-family="sans-serif">CHILD_OF</text></g><g class="relationship" transform="translate(774.9516889098529 -373.37435006633496) rotate(419.93648847179566)"><path class="outline" fill="#A5ABB6" stroke="none" d="M 40 0.5 L 105.70562457133889 0.5 L 105.70562457133889 -0.5 L 40 -0.5 Z M 151.2681245713389 0.5 L 216.97374914267778 0.5 L 216.97374914267778 3.5 L 223.97374914267778 0 L 216.97374914267778 -3.5 L 216.97374914267778 -0.5 L 151.2681245713389 -0.5 Z"/><text text-anchor="middle" pointer-events="none" font-size="8px" fill="#000000" x="128.4868745713389" y="3" font-family="sans-serif">CHILD_OF</text></g><g class="relationship" transform="translate(660.7692395620536 -477.2800407522801) rotate(402.30210152907114)"><path class="outline" fill="#A5ABB6" stroke="none" d="M 40 0.5 L 50.91011009940826 0.5 L 50.91011009940826 -0.5 L 40 -0.5 Z M 96.47261009940826 0.5 L 107.38272019881651 0.5 L 107.38272019881651 3.5 L 114.38272019881651 0 L 107.38272019881651 -3.5 L 107.38272019881651 -0.5 L 96.47261009940826 -0.5 Z"/><text text-anchor="middle" pointer-events="none" font-size="8px" fill="#000000" x="73.69136009940826" y="3" font-family="sans-serif">CHILD_OF</text></g><g class="relationship" transform="translate(380.0799022719709 -513.8313827482783) rotate(367.4193026476334)"><path class="outline" fill="#A5ABB6" stroke="none" d="M 40 0.5 L 115.24834467020867 0.5 L 115.24834467020867 -0.5 L 40 -0.5 Z M 160.81084467020867 0.5 L 236.05918934041733 0.5 L 236.05918934041733 3.5 L 243.05918934041733 0 L 236.05918934041733 -3.5 L 236.05918934041733 -0.5 L 160.81084467020867 -0.5 Z"/><text text-anchor="middle" pointer-events="none" font-size="8px" fill="#000000" x="138.02959467020867" y="3" font-family="sans-serif">CHILD_OF</text></g><g class="relationship" transform="translate(190.00969717403947 -455.47413202740427) rotate(342.9319441748796)"><path class="outline" fill="#A5ABB6" stroke="none" d="M 40 0.5 L 73.13234511866158 0.5 L 73.13234511866158 -0.5 L 40 -0.5 Z M 118.69484511866158 0.5 L 151.82719023732315 0.5 L 151.82719023732315 3.5 L 158.82719023732315 0 L 151.82719023732315 -3.5 L 151.82719023732315 -0.5 L 118.69484511866158 -0.5 Z"/><text text-anchor="middle" pointer-events="none" font-size="8px" fill="#000000" x="95.91359511866158" y="3" font-family="sans-serif">CHILD_OF</text></g><g class="relationship" transform="translate(213.40443193260214 -567.0832520433653) rotate(377.71838673050894)"><path class="outline" fill="#A5ABB6" stroke="none" d="M 40 0.5 L 61.20656914682584 0.5 L 61.20656914682584 -0.5 L 40 -0.5 Z M 106.76906914682584 0.5 L 127.97563829365168 0.5 L 127.97563829365168 3.5 L 134.97563829365168 0 L 127.97563829365168 -3.5 L 127.97563829365168 -0.5 L 106.76906914682584 -0.5 Z"/><text text-anchor="middle" pointer-events="none" font-size="8px" fill="#000000" x="83.98781914682584" y="3" font-family="sans-serif">CHILD_OF</text></g><g class="relationship" transform="translate(447.04403881254143 -581.6707563252342) rotate(386.0324692349031)"><path class="outline" fill="#A5ABB6" stroke="none" d="M 40 0.5 L 92.64717693533437 0.5 L 92.64717693533437 -0.5 L 40 -0.5 Z M 138.20967693533436 0.5 L 190.85685387066874 0.5 L 190.85685387066874 3.5 L 197.85685387066874 0 L 190.85685387066874 -3.5 L 190.85685387066874 -0.5 L 138.20967693533436 -0.5 Z"/><text text-anchor="middle" pointer-events="none" font-size="8px" fill="#000000" x="115.42842693533437" y="3" font-family="sans-serif">CHILD_OF</text></g><g class="relationship" transform="translate(574.0952568551028 -613.2479969389068) rotate(417.48416411806795)"><path class="outline" fill="#A5ABB6" stroke="none" d="M 40 0.5 L 54.34080713676197 0.5 L 54.34080713676197 -0.5 L 40 -0.5 Z M 99.90330713676197 0.5 L 114.24411427352393 0.5 L 114.24411427352393 3.5 L 121.24411427352393 0 L 114.24411427352393 -3.5 L 114.24411427352393 -0.5 L 99.90330713676197 -0.5 Z"/><text text-anchor="middle" pointer-events="none" font-size="8px" fill="#000000" x="77.12205713676197" y="3" font-family="sans-serif">CHILD_OF</text></g><g class="relationship" transform="translate(456.103297330256 -423.9903202818993) rotate(345.40570588356456)"><path class="outline" fill="#A5ABB6" stroke="none" d="M 40 0.5 L 79.46365793584441 0.5 L 79.46365793584441 -0.5 L 40 -0.5 Z M 125.02615793584441 0.5 L 164.48981587168882 0.5 L 164.48981587168882 3.5 L 171.48981587168882 0 L 164.48981587168882 -3.5 L 164.48981587168882 -0.5 L 125.02615793584441 -0.5 Z"/><text text-anchor="middle" pointer-events="none" font-size="8px" fill="#000000" x="102.24490793584441" y="3" font-family="sans-serif">CHILD_OF</text></g><g class="relationship" transform="translate(773.6959304381888 44.8815523310829) rotate(305.12146224440636)"><path class="outline" fill="#A5ABB6" stroke="none" d="M 40 0.5 L 89.73930473694749 0.5 L 89.73930473694749 -0.5 L 40 -0.5 Z M 135.30180473694747 0.5 L 185.04110947389498 0.5 L 185.04110947389498 3.5 L 192.04110947389498 0 L 185.04110947389498 -3.5 L 185.04110947389498 -0.5 L 135.30180473694747 -0.5 Z"/><text text-anchor="middle" pointer-events="none" font-size="8px" fill="#000000" x="112.52055473694749" y="3" font-family="sans-serif">CHILD_OF</text></g><g class="relationship" transform="translate(647.4403111577387 277.5799565137674) rotate(298.483014643886)"><path class="outline" fill="#A5ABB6" stroke="none" d="M 40 0.5 L 106.09041304486959 0.5 L 106.09041304486959 -0.5 L 40 -0.5 Z M 151.6529130448696 0.5 L 217.74332608973918 0.5 L 217.74332608973918 3.5 L 224.74332608973918 0 L 217.74332608973918 -3.5 L 217.74332608973918 -0.5 L 151.6529130448696 -0.5 Z"/><text text-anchor="middle" pointer-events="none" font-size="8px" fill="#000000" x="128.8716630448696" y="3" font-family="sans-serif">CHILD_OF</text></g><g class="relationship" transform="translate(634.78852810703 172.22448497570872) rotate(317.4870545258808)"><path class="outline" fill="#A5ABB6" stroke="none" d="M 40 0.5 L 67.94121138384965 0.5 L 67.94121138384965 -0.5 L 40 -0.5 Z M 113.50371138384965 0.5 L 141.4449227676993 0.5 L 141.4449227676993 3.5 L 148.4449227676993 0 L 141.4449227676993 -3.5 L 141.4449227676993 -0.5 L 113.50371138384965 -0.5 Z"/><text text-anchor="middle" pointer-events="none" font-size="8px" fill="#000000" x="90.72246138384965" y="3" font-family="sans-serif">CHILD_OF</text></g><g class="relationship" transform="translate(430.10732714139624 146.16395294574522) rotate(343.57563680158114)"><path class="outline" fill="#A5ABB6" stroke="none" d="M 40 0.5 L 152.8215507805222 0.5 L 152.8215507805222 -0.5 L 40 -0.5 Z M 198.3840507805222 0.5 L 311.2056015610444 0.5 L 311.2056015610444 3.5 L 318.2056015610444 0 L 311.2056015610444 -3.5 L 311.2056015610444 -0.5 L 198.3840507805222 -0.5 Z"/><text text-anchor="middle" pointer-events="none" font-size="8px" fill="#000000" x="175.6028007805222" y="3" font-family="sans-serif">CHILD_OF</text></g><g class="relationship" transform="translate(734.5909507447185 345.6619548782594) rotate(277.40757288929666)"><path class="outline" fill="#A5ABB6" stroke="none" d="M 40 0.5 L 125.37465162706187 0.5 L 125.37465162706187 -0.5 L 40 -0.5 Z M 170.93715162706187 0.5 L 256.31180325412373 0.5 L 256.31180325412373 3.5 L 263.31180325412373 0 L 256.31180325412373 -3.5 L 256.31180325412373 -0.5 L 170.93715162706187 -0.5 Z"/><text text-anchor="middle" pointer-events="none" font-size="8px" fill="#000000" x="148.15590162706187" y="3" font-family="sans-serif">CHILD_OF</text></g><g class="relationship" transform="translate(587.7062205607446 447.6202824627335) rotate(325.2340013861599)"><path class="outline" fill="#A5ABB6" stroke="none" d="M 40 0.5 L 63.12040619976197 0.5 L 63.12040619976197 -0.5 L 40 -0.5 Z M 108.68290619976197 0.5 L 131.80331239952395 0.5 L 131.80331239952395 3.5 L 138.80331239952395 0 L 131.80331239952395 -3.5 L 131.80331239952395 -0.5 L 108.68290619976197 -0.5 Z"/><text text-anchor="middle" pointer-events="none" font-size="8px" fill="#000000" x="85.90165619976197" y="3" font-family="sans-serif">CHILD_OF</text></g></g><g class="layer nodes"><g class="node" transform="translate(907.1918909132028,-144.91282330404923)"><circle class="outline" cx="0" cy="0" r="40" fill="#F16667" stroke="#eb2728" stroke-width="2px"/><text text-anchor="middle" pointer-events="none" font-family="sans-serif" dy="2.5" font-size="40" fill="#FFFFFF"/><text text-anchor="middle" pointer-events="none" y="5" font-size="10px" fill="#FFFFFF" font-family="sans-serif"> Betacoronavirus</text></g><g class="node" transform="translate(769.2927172067241,-55.03450867274577)"><circle class="outline" cx="0" cy="0" r="40" fill="#F16667" stroke="#eb2728" stroke-width="2px"/><text text-anchor="middle" pointer-events="none" font-family="sans-serif" dy="2.5" font-size="40" fill="#FFFFFF"/><text text-anchor="middle" pointer-events="none" y="5" font-size="10px" fill="#FFFFFF" font-family="sans-serif"> Nobecovirus</text></g><g class="node" transform="translate(632.7050798120334,37.291626651004684)"><circle class="outline" cx="0" cy="0" r="40" fill="#F16667" stroke="#eb2728" stroke-width="2px"/><text text-anchor="middle" pointer-events="none" font-family="sans-serif" dy="2.5" font-size="40" fill="#FFFFFF"/><text text-anchor="middle" pointer-events="none" font-family="sans-serif" dy="2.5" font-size="40" fill="#FFFFFF"/><text text-anchor="middle" pointer-events="none" font-family="sans-serif" dy="2.5" font-size="40" fill="#FFFFFF"/><text text-anchor="middle" pointer-events="none" y="-5" font-size="10px" fill="#FFFFFF" font-family="sans-serif"> Rousettus bat</text><text text-anchor="middle" pointer-events="none" y="5" font-size="10px" fill="#FFFFFF" font-family="sans-serif"> coronavirus</text><text text-anchor="middle" pointer-events="none" y="15" font-size="10px" fill="#FFFFFF" font-family="sans-serif"> GCCDC1</text></g><g class="node" transform="translate(451.7167943496694,30.83160626194092)"><circle class="outline" cx="0" cy="0" r="40" fill="#F16667" stroke="#eb2728" stroke-width="2px"/><text text-anchor="middle" pointer-events="none" font-family="sans-serif" dy="2.5" font-size="40" fill="#FFFFFF"/><text text-anchor="middle" pointer-events="none" font-family="sans-serif" dy="2.5" font-size="40" fill="#FFFFFF"/><text text-anchor="middle" pointer-events="none" font-family="sans-serif" dy="2.5" font-size="40" fill="#FFFFFF"/><text text-anchor="middle" pointer-events="none" y="-5" font-size="10px" fill="#FFFFFF" font-family="sans-serif"> Rousettus bat</text><text text-anchor="middle" pointer-events="none" y="5" font-size="10px" fill="#FFFFFF" font-family="sans-serif"> coronavirus</text><text text-anchor="middle" pointer-events="none" y="15" font-size="10px" fill="#FFFFFF" font-family="sans-serif"> HKU9</text></g><g class="node" transform="translate(770.6277969390569,-265.45927392889206)"><circle class="outline" cx="0" cy="0" r="40" fill="#F16667" stroke="#eb2728" stroke-width="2px"/><text text-anchor="middle" pointer-events="none" font-family="sans-serif" dy="2.5" font-size="40" fill="#FFFFFF"/><text text-anchor="middle" pointer-events="none" y="5" font-size="10px" fill="#FFFFFF" font-family="sans-serif"> Hibecovirus</text></g><g class="node" transform="translate(660.4722759079064,-383.9539356091457)"><circle class="outline" cx="0" cy="0" r="40" fill="#F16667" stroke="#eb2728" stroke-width="2px"/><text text-anchor="middle" pointer-events="none" font-family="sans-serif" dy="2.5" font-size="40" fill="#FFFFFF"/><text text-anchor="middle" pointer-events="none" font-family="sans-serif" dy="2.5" font-size="40" fill="#FFFFFF"/><text text-anchor="middle" pointer-events="none" y="0" font-size="10px" fill="#FFFFFF" font-family="sans-serif"> Bat</text><text text-anchor="middle" pointer-events="none" y="10" font-size="10px" fill="#FFFFFF" font-family="sans-serif"> Hp-betacorona…</text></g><g class="node" transform="translate(769.6593798223017,-165.036525337718)"><circle class="outline" cx="0" cy="0" r="40" fill="#F16667" stroke="#eb2728" stroke-width="2px"/><text text-anchor="middle" pointer-events="none" font-family="sans-serif" dy="2.5" font-size="40" fill="#FFFFFF"/><text text-anchor="middle" pointer-events="none" y="5" font-size="10px" fill="#FFFFFF" font-family="sans-serif"> Embecovirus</text></g><g class="node" transform="translate(533.2564906355343,-152.05046960115772)"><circle class="outline" cx="0" cy="0" r="40" fill="#F16667" stroke="#eb2728" stroke-width="2px"/><text text-anchor="middle" pointer-events="none" font-family="sans-serif" dy="2.5" font-size="40" fill="#FFFFFF"/><text text-anchor="middle" pointer-events="none" font-family="sans-serif" dy="2.5" font-size="40" fill="#FFFFFF"/><text text-anchor="middle" pointer-events="none" font-family="sans-serif" dy="2.5" font-size="40" fill="#FFFFFF"/><text text-anchor="middle" pointer-events="none" y="-5" font-size="10px" fill="#FFFFFF" font-family="sans-serif"> China Rattus</text><text text-anchor="middle" pointer-events="none" y="5" font-size="10px" fill="#FFFFFF" font-family="sans-serif"> coronavirus</text><text text-anchor="middle" pointer-events="none" y="15" font-size="10px" fill="#FFFFFF" font-family="sans-serif"> HKU24</text></g><g class="node" transform="translate(656.5550188937254,-287.9788023504297)"><circle class="outline" cx="0" cy="0" r="40" fill="#F16667" stroke="#eb2728" stroke-width="2px"/><text text-anchor="middle" pointer-events="none" font-family="sans-serif" dy="2.5" font-size="40" fill="#FFFFFF"/><text text-anchor="middle" pointer-events="none" font-family="sans-serif" dy="2.5" font-size="40" fill="#FFFFFF"/><text text-anchor="middle" pointer-events="none" font-family="sans-serif" dy="2.5" font-size="40" fill="#FFFFFF"/><text text-anchor="middle" pointer-events="none" y="-5" font-size="10px" fill="#FFFFFF" font-family="sans-serif"> Human</text><text text-anchor="middle" pointer-events="none" y="5" font-size="10px" fill="#FFFFFF" font-family="sans-serif"> coronavirus</text><text text-anchor="middle" pointer-events="none" y="15" font-size="10px" fill="#FFFFFF" font-family="sans-serif"> HKU1</text></g><g class="node" transform="translate(443.74446326526623,-321.7554970661106)"><circle class="outline" cx="0" cy="0" r="40" fill="#F16667" stroke="#eb2728" stroke-width="2px"/><text text-anchor="middle" pointer-events="none" font-family="sans-serif" dy="2.5" font-size="40" fill="#FFFFFF"/><text text-anchor="middle" pointer-events="none" font-family="sans-serif" dy="2.5" font-size="40" fill="#FFFFFF"/><text text-anchor="middle" pointer-events="none" font-family="sans-serif" dy="2.5" font-size="40" fill="#FFFFFF"/><text text-anchor="middle" pointer-events="none" font-family="sans-serif" dy="2.5" font-size="40" fill="#FFFFFF"/><text text-anchor="middle" pointer-events="none" y="-10" font-size="10px" fill="#FFFFFF" font-family="sans-serif"> Human</text><text text-anchor="middle" pointer-events="none" y="0" font-size="10px" fill="#FFFFFF" font-family="sans-serif"> coronavirus</text><text text-anchor="middle" pointer-events="none" y="10" font-size="10px" fill="#FFFFFF" font-family="sans-serif"> HKU1 (isolate</text><text text-anchor="middle" pointer-events="none" y="20" font-size="10px" fill="#FFFFFF" font-family="sans-serif"> N1)</text></g><g class="node" transform="translate(521.7884330257269,-254.29406198509417)"><circle class="outline" cx="0" cy="0" r="40" fill="#F16667" stroke="#eb2728" stroke-width="2px"/><text text-anchor="middle" pointer-events="none" font-family="sans-serif" dy="2.5" font-size="40" fill="#FFFFFF"/><text text-anchor="middle" pointer-events="none" font-family="sans-serif" dy="2.5" font-size="40" fill="#FFFFFF"/><text text-anchor="middle" pointer-events="none" y="0" font-size="10px" fill="#FFFFFF" font-family="sans-serif"> Betacoronavirus</text><text text-anchor="middle" pointer-events="none" y="10" font-size="10px" fill="#FFFFFF" font-family="sans-serif"> 1</text></g><g class="node" transform="translate(623.0542396438619,-90.11574075380148)"><circle class="outline" cx="0" cy="0" r="40" fill="#F16667" stroke="#eb2728" stroke-width="2px"/><text text-anchor="middle" pointer-events="none" font-family="sans-serif" dy="2.5" font-size="40" fill="#FFFFFF"/><text text-anchor="middle" pointer-events="none" font-family="sans-serif" dy="2.5" font-size="40" fill="#FFFFFF"/><text text-anchor="middle" pointer-events="none" y="0" font-size="10px" fill="#FFFFFF" font-family="sans-serif"> Murine</text><text text-anchor="middle" pointer-events="none" y="10" font-size="10px" fill="#FFFFFF" font-family="sans-serif"> coronavirus</text></g><g class="node" transform="translate(774.9516889098529,-373.37435006633496)"><circle class="outline" cx="0" cy="0" r="40" fill="#F16667" stroke="#eb2728" stroke-width="2px"/><text text-anchor="middle" pointer-events="none" font-family="sans-serif" dy="2.5" font-size="40" fill="#FFFFFF"/><text text-anchor="middle" pointer-events="none" y="5" font-size="10px" fill="#FFFFFF" font-family="sans-serif"> Sarbecovirus</text></g><g class="node" transform="translate(660.7692395620536,-477.2800407522801)"><circle class="outline" cx="0" cy="0" r="40" fill="#F16667" stroke="#eb2728" stroke-width="2px"/><text text-anchor="middle" pointer-events="none" font-family="sans-serif" dy="2.5" font-size="40" fill="#FFFFFF"/><text text-anchor="middle" pointer-events="none" font-family="sans-serif" dy="2.5" font-size="40" fill="#FFFFFF"/><text text-anchor="middle" pointer-events="none" font-family="sans-serif" dy="2.5" font-size="40" fill="#FFFFFF"/><text text-anchor="middle" pointer-events="none" y="-5" font-size="10px" fill="#FFFFFF" font-family="sans-serif"> severe acute</text><text text-anchor="middle" pointer-events="none" y="5" font-size="10px" fill="#FFFFFF" font-family="sans-serif"> respiratory</text><text text-anchor="middle" pointer-events="none" y="15" font-size="10px" fill="#FFFFFF" font-family="sans-serif"> syndrome-rela…</text></g><g class="node" transform="translate(380.0799022719709,-513.8313827482783)"><circle class="outline" cx="0" cy="0" r="40" fill="#F16667" stroke="#eb2728" stroke-width="2px"/><text text-anchor="middle" pointer-events="none" font-family="sans-serif" dy="2.5" font-size="40" fill="#FFFFFF"/><text text-anchor="middle" pointer-events="none" font-family="sans-serif" dy="2.5" font-size="40" fill="#FFFFFF"/><text text-anchor="middle" pointer-events="none" y="0" font-size="10px" fill="#FFFFFF" font-family="sans-serif"> SARS</text><text text-anchor="middle" pointer-events="none" y="10" font-size="10px" fill="#FFFFFF" font-family="sans-serif"> coronavirus</text></g><g class="node" transform="translate(190.00969717403947,-455.47413202740427)"><circle class="outline" cx="0" cy="0" r="40" fill="#F16667" stroke="#eb2728" stroke-width="2px"/><text text-anchor="middle" pointer-events="none" font-family="sans-serif" dy="2.5" font-size="40" fill="#FFFFFF"/><text text-anchor="middle" pointer-events="none" font-family="sans-serif" dy="2.5" font-size="40" fill="#FFFFFF"/><text text-anchor="middle" pointer-events="none" y="0" font-size="10px" fill="#FFFFFF" font-family="sans-serif"> Bat SARS</text><text text-anchor="middle" pointer-events="none" y="10" font-size="10px" fill="#FFFFFF" font-family="sans-serif"> coronavirus Rp1</text></g><g class="node" transform="translate(213.40443193260214,-567.0832520433653)"><circle class="outline" cx="0" cy="0" r="40" fill="#F16667" stroke="#eb2728" stroke-width="2px"/><text text-anchor="middle" pointer-events="none" font-family="sans-serif" dy="2.5" font-size="40" fill="#FFFFFF"/><text text-anchor="middle" pointer-events="none" y="5" font-size="10px" fill="#FFFFFF" font-family="sans-serif"> SL-CoV-WIV1</text></g><g class="node" transform="translate(447.04403881254143,-581.6707563252342)"><circle class="outline" cx="0" cy="0" r="40" fill="#F16667" stroke="#eb2728" stroke-width="2px"/><text text-anchor="middle" pointer-events="none" font-family="sans-serif" dy="2.5" font-size="40" fill="#FFFFFF"/><text text-anchor="middle" pointer-events="none" font-family="sans-serif" dy="2.5" font-size="40" fill="#FFFFFF"/><text text-anchor="middle" pointer-events="none" font-family="sans-serif" dy="2.5" font-size="40" fill="#FFFFFF"/><text text-anchor="middle" pointer-events="none" font-family="sans-serif" dy="2.5" font-size="40" fill="#FFFFFF"/><text text-anchor="middle" pointer-events="none" y="-10" font-size="10px" fill="#FFFFFF" font-family="sans-serif"> severe acute</text><text text-anchor="middle" pointer-events="none" y="0" font-size="10px" fill="#FFFFFF" font-family="sans-serif"> respiratory</text><text text-anchor="middle" pointer-events="none" y="10" font-size="10px" fill="#FFFFFF" font-family="sans-serif"> syndrome</text><text text-anchor="middle" pointer-events="none" y="20" font-size="10px" fill="#FFFFFF" font-family="sans-serif"> coronavirus</text></g><g class="node" transform="translate(574.0952568551028,-613.2479969389068)"><circle class="outline" cx="0" cy="0" r="40" fill="#F16667" stroke="#eb2728" stroke-width="2px"/><text text-anchor="middle" pointer-events="none" font-family="sans-serif" dy="2.5" font-size="40" fill="#FFFFFF"/><text text-anchor="middle" pointer-events="none" y="5" font-size="10px" fill="#FFFFFF" font-family="sans-serif"> SHC014-CoV</text></g><g class="node" transform="translate(456.103297330256,-423.9903202818993)"><circle class="outline" cx="0" cy="0" r="40" fill="#F16667" stroke="#eb2728" stroke-width="2px"/><text text-anchor="middle" pointer-events="none" font-family="sans-serif" dy="2.5" font-size="40" fill="#FFFFFF"/><text text-anchor="middle" pointer-events="none" y="5" font-size="10px" fill="#FFFFFF" font-family="sans-serif"> SARS-CoV-2</text></g><g class="node" transform="translate(773.6959304381888,44.8815523310829)"><circle class="outline" cx="0" cy="0" r="40" fill="#F16667" stroke="#eb2728" stroke-width="2px"/><text text-anchor="middle" pointer-events="none" font-family="sans-serif" dy="2.5" font-size="40" fill="#FFFFFF"/><text text-anchor="middle" pointer-events="none" y="5" font-size="10px" fill="#FFFFFF" font-family="sans-serif"> Merbecovirus</text></g><g class="node" transform="translate(647.4403111577387,277.5799565137674)"><circle class="outline" cx="0" cy="0" r="40" fill="#F16667" stroke="#eb2728" stroke-width="2px"/><text text-anchor="middle" pointer-events="none" font-family="sans-serif" dy="2.5" font-size="40" fill="#FFFFFF"/><text text-anchor="middle" pointer-events="none" font-family="sans-serif" dy="2.5" font-size="40" fill="#FFFFFF"/><text text-anchor="middle" pointer-events="none" font-family="sans-serif" dy="2.5" font-size="40" fill="#FFFFFF"/><text text-anchor="middle" pointer-events="none" y="-5" font-size="10px" fill="#FFFFFF" font-family="sans-serif"> Tylonycteris bat</text><text text-anchor="middle" pointer-events="none" y="5" font-size="10px" fill="#FFFFFF" font-family="sans-serif"> coronavirus</text><text text-anchor="middle" pointer-events="none" y="15" font-size="10px" fill="#FFFFFF" font-family="sans-serif"> HKU4</text></g><g class="node" transform="translate(634.78852810703,172.22448497570872)"><circle class="outline" cx="0" cy="0" r="40" fill="#F16667" stroke="#eb2728" stroke-width="2px"/><text text-anchor="middle" pointer-events="none" font-family="sans-serif" dy="2.5" font-size="40" fill="#FFFFFF"/><text text-anchor="middle" pointer-events="none" font-family="sans-serif" dy="2.5" font-size="40" fill="#FFFFFF"/><text text-anchor="middle" pointer-events="none" y="0" font-size="10px" fill="#FFFFFF" font-family="sans-serif"> Hedgehog</text><text text-anchor="middle" pointer-events="none" y="10" font-size="10px" fill="#FFFFFF" font-family="sans-serif"> coronavirus 1</text></g><g class="node" transform="translate(430.10732714139624,146.16395294574522)"><circle class="outline" cx="0" cy="0" r="40" fill="#F16667" stroke="#eb2728" stroke-width="2px"/><text text-anchor="middle" pointer-events="none" font-family="sans-serif" dy="2.5" font-size="40" fill="#FFFFFF"/><text text-anchor="middle" pointer-events="none" font-family="sans-serif" dy="2.5" font-size="40" fill="#FFFFFF"/><text text-anchor="middle" pointer-events="none" font-family="sans-serif" dy="2.5" font-size="40" fill="#FFFFFF"/><text text-anchor="middle" pointer-events="none" y="-5" font-size="10px" fill="#FFFFFF" font-family="sans-serif"> Pipistrellus bat</text><text text-anchor="middle" pointer-events="none" y="5" font-size="10px" fill="#FFFFFF" font-family="sans-serif"> coronavirus</text><text text-anchor="middle" pointer-events="none" y="15" font-size="10px" fill="#FFFFFF" font-family="sans-serif"> HKU5</text></g><g class="node" transform="translate(734.5909507447185,345.6619548782594)"><circle class="outline" cx="0" cy="0" r="40" fill="#F16667" stroke="#eb2728" stroke-width="2px"/><text text-anchor="middle" pointer-events="none" font-family="sans-serif" dy="2.5" font-size="40" fill="#FFFFFF"/><text text-anchor="middle" pointer-events="none" font-family="sans-serif" dy="2.5" font-size="40" fill="#FFFFFF"/><text text-anchor="middle" pointer-events="none" font-family="sans-serif" dy="2.5" font-size="40" fill="#FFFFFF"/><text text-anchor="middle" pointer-events="none" font-family="sans-serif" dy="2.5" font-size="40" fill="#FFFFFF"/><text text-anchor="middle" pointer-events="none" y="-10" font-size="10px" fill="#FFFFFF" font-family="sans-serif"> Middle East</text><text text-anchor="middle" pointer-events="none" y="0" font-size="10px" fill="#FFFFFF" font-family="sans-serif"> respiratory</text><text text-anchor="middle" pointer-events="none" y="10" font-size="10px" fill="#FFFFFF" font-family="sans-serif"> syndrome</text><text text-anchor="middle" pointer-events="none" y="20" font-size="10px" fill="#FFFFFF" font-family="sans-serif"> coronavirus</text></g><g class="node" transform="translate(587.7062205607446,447.6202824627335)"><circle class="outline" cx="0" cy="0" r="40" fill="#F16667" stroke="#eb2728" stroke-width="2px"/><text text-anchor="middle" pointer-events="none" font-family="sans-serif" dy="2.5" font-size="40" fill="#FFFFFF"/><text text-anchor="middle" pointer-events="none" font-family="sans-serif" dy="2.5" font-size="40" fill="#FFFFFF"/><text text-anchor="middle" pointer-events="none" y="0" font-size="10px" fill="#FFFFFF" font-family="sans-serif"> London1 novel</text><text text-anchor="middle" pointer-events="none" y="10" font-size="10px" fill="#FFFFFF" font-family="sans-serif"> CoV/2012</text></g></g></svg>