<svg xmlns="http://www.w3.org/2000/svg" width="783.175048828125" height="414.7322692871094" viewBox="-320.81707763671875 -264.2062072753906 783.175048828125 414.7322692871094"><title>Neo4j Graph Visualization</title><desc>Created using Neo4j (http://www.neo4j.com/)</desc><g class="layer relationships"><g class="relationship" transform="translate(228.3706630864977 63.11379800059211) rotate(530.5116641430141)"><path class="outline" fill="#A5ABB6" stroke="none" d="M 40 0.5 L 80.9939577950865 0.5 L 80.9939577950865 -0.5 L 40 -0.5 Z M 109.2166140450865 0.5 L 150.210571840173 0.5 L 150.210571840173 3.5 L 157.210571840173 0 L 150.210571840173 -3.5 L 150.210571840173 -0.5 L 109.2166140450865 -0.5 Z"/><text text-anchor="middle" pointer-events="none" font-size="8px" fill="#000000" x="95.1052859200865" y="3" transform="rotate(180 95.1052859200865 0)" font-family="sans-serif">HOST</text></g><g class="relationship" transform="translate(228.3706630864977 63.11379800059211) rotate(316.84575609564223)"><path class="outline" fill="#A5ABB6" stroke="none" d="M 40 0.5 L 112.39197268503429 0.5 L 112.39197268503429 -0.5 L 40 -0.5 Z M 140.6146289350343 0.5 L 213.00660162006858 0.5 L 213.00660162006858 3.5 L 220.00660162006858 0 L 213.00660162006858 -3.5 L 213.00660162006858 -0.5 L 140.6146289350343 -0.5 Z"/><text text-anchor="middle" pointer-events="none" font-size="8px" fill="#000000" x="126.50330081003429" y="3" font-family="sans-serif">HOST</text></g><g class="relationship" transform="translate(228.3706630864977 63.11379800059211) rotate(350.30364351449794)"><path class="outline" fill="#A5ABB6" stroke="none" d="M 40 0.5 L 78.75908268575556 0.5 L 78.75908268575556 -0.5 L 40 -0.5 Z M 106.98173893575556 0.5 L 145.74082162151112 0.5 L 145.74082162151112 3.5 L 152.74082162151112 0 L 145.74082162151112 -3.5 L 145.74082162151112 -0.5 L 106.98173893575556 -0.5 Z"/><text text-anchor="middle" pointer-events="none" font-size="8px" fill="#000000" x="92.87041081075556" y="3" font-family="sans-serif">HOST</text></g><g class="relationship" transform="translate(177.95955442944438 -89.1284202486519) rotate(487.953284826437)"><path class="outline" fill="#A5ABB6" stroke="none" d="M 40 0.5 L 99.54075402115879 0.5 L 99.54075402115879 -0.5 L 40 -0.5 Z M 127.76341027115879 0.5 L 187.30416429231758 0.5 L 187.30416429231758 3.5 L 194.30416429231758 0 L 187.30416429231758 -3.5 L 187.30416429231758 -0.5 L 127.76341027115879 -0.5 Z"/><text text-anchor="middle" pointer-events="none" font-size="8px" fill="#000000" x="113.65208214615879" y="3" transform="rotate(180 113.65208214615879 0)" font-family="sans-serif">HOST</text></g><g class="relationship" transform="translate(177.95955442944438 -89.1284202486519) rotate(325.49897743178394)"><path class="outline" fill="#A5ABB6" stroke="none" d="M 40 0.5 L 98.09571701543477 0.5 L 98.09571701543477 -0.5 L 40 -0.5 Z M 126.31837326543477 0.5 L 184.41409028086954 0.5 L 184.41409028086954 3.5 L 191.41409028086954 0 L 184.41409028086954 -3.5 L 184.41409028086954 -0.5 L 126.31837326543477 -0.5 Z"/><text text-anchor="middle" pointer-events="none" font-size="8px" fill="#000000" x="112.20704514043477" y="3" font-family="sans-serif">HOST</text></g><g class="relationship" transform="translate(177.95955442944438 -89.1284202486519) rotate(214.11008117011994)"><path class="outline" fill="#A5ABB6" stroke="none" d="M 40 0.5 L 75.49299726830903 0.5 L 75.49299726830903 -0.5 L 40 -0.5 Z M 103.71565351830903 0.5 L 139.20865078661805 0.5 L 139.20865078661805 3.5 L 146.20865078661805 0 L 139.20865078661805 -3.5 L 139.20865078661805 -0.5 L 103.71565351830903 -0.5 Z"/><text text-anchor="middle" pointer-events="none" font-size="8px" fill="#000000" x="89.60432539330903" y="3" transform="rotate(180 89.60432539330903 0)" font-family="sans-serif">HOST</text></g><g class="relationship" transform="translate(-151.27762149476604 10.16347851135992) rotate(384.7783555245392)"><path class="outline" fill="#A5ABB6" stroke="none" d="M 40 0.5 L 84.3428523220418 0.5 L 84.3428523220418 -0.5 L 40 -0.5 Z M 112.5655085720418 0.5 L 156.9083608940836 0.5 L 156.9083608940836 3.5 L 163.9083608940836 0 L 156.9083608940836 -3.5 L 156.9083608940836 -0.5 L 112.5655085720418 -0.5 Z"/><text text-anchor="middle" pointer-events="none" font-size="8px" fill="#000000" x="98.4541804470418" y="3" font-family="sans-serif">HOST</text></g><g class="relationship" transform="translate(-151.27762149476604 10.16347851135992) rotate(248.35183950369822)"><path class="outline" fill="#A5ABB6" stroke="none" d="M 40 0.5 L 74.42488347694851 0.5 L 74.42488347694851 -0.5 L 40 -0.5 Z M 102.64753972694851 0.5 L 137.07242320389702 0.5 L 137.07242320389702 3.5 L 144.07242320389702 0 L 137.07242320389702 -3.5 L 137.07242320389702 -0.5 L 102.64753972694851 -0.5 Z"/><text text-anchor="middle" pointer-events="none" font-size="8px" fill="#000000" x="88.53621160194851" y="3" transform="rotate(180 88.53621160194851 0)" font-family="sans-serif">HOST</text></g><g class="relationship" transform="translate(-151.27762149476604 10.16347851135992) rotate(502.4905878427387)"><path class="outline" fill="#A5ABB6" stroke="none" d="M 40 0.5 L 61.518149910422565 0.5 L 61.518149910422565 -0.5 L 40 -0.5 Z M 89.74080616042257 0.5 L 111.25895607084513 0.5 L 111.25895607084513 3.5 L 118.25895607084513 0 L 111.25895607084513 -3.5 L 111.25895607084513 -0.5 L 89.74080616042257 -0.5 Z"/><text text-anchor="middle" pointer-events="none" font-size="8px" fill="#000000" x="75.62947803542257" y="3" transform="rotate(180 75.62947803542257 0)" font-family="sans-serif">HOST</text></g><g class="relationship" transform="translate(-151.27762149476604 10.16347851135992) rotate(310.67430749508617)"><path class="outline" fill="#A5ABB6" stroke="none" d="M 40 0.5 L 116.68963011756097 0.5 L 116.68963011756097 -0.5 L 40 -0.5 Z M 144.91228636756097 0.5 L 221.60191648512193 0.5 L 221.60191648512193 3.5 L 228.60191648512193 0 L 221.60191648512193 -3.5 L 221.60191648512193 -0.5 L 144.91228636756097 -0.5 Z"/><text text-anchor="middle" pointer-events="none" font-size="8px" fill="#000000" x="130.80095824256097" y="3" font-family="sans-serif">HOST</text></g><g class="relationship" transform="translate(-151.27762149476604 10.16347851135992) rotate(343.2176513937974)"><path class="outline" fill="#A5ABB6" stroke="none" d="M 40 0.5 L 145.66060003215327 0.5 L 145.66060003215327 -0.5 L 40 -0.5 Z M 191.22310003215327 0.5 L 296.88370006430654 0.5 L 296.88370006430654 3.5 L 303.88370006430654 0 L 296.88370006430654 -3.5 L 296.88370006430654 -0.5 L 191.22310003215327 -0.5 Z"/><text text-anchor="middle" pointer-events="none" font-size="8px" fill="#000000" x="168.44185003215327" y="3" font-family="sans-serif">CHILD_OF</text></g></g><g class="layer nodes"><g class="node" transform="translate(33.858093362618305,95.6233329855931)"><circle class="outline" cx="0" cy="0" r="40" fill="#569480" stroke="#447666" stroke-width="2px"/><text text-anchor="middle" pointer-events="none" font-family="sans-serif" dy="2.5" font-size="40" fill="#FFFFFF"/><text text-anchor="middle" pointer-events="none" y="5" font-size="10px" fill="#FFFFFF" font-family="sans-serif"> Homo sapiens</text></g><g class="node" transform="translate(228.3706630864977,63.11379800059211)"><circle class="outline" cx="0" cy="0" r="40" fill="#F16667" stroke="#eb2728" stroke-width="2px"/><text text-anchor="middle" pointer-events="none" font-family="sans-serif" dy="2.5" font-size="40" fill="#FFFFFF"/><text text-anchor="middle" pointer-events="none" font-family="sans-serif" dy="2.5" font-size="40" fill="#FFFFFF"/><text text-anchor="middle" pointer-events="none" font-family="sans-serif" dy="2.5" font-size="40" fill="#FFFFFF"/><text text-anchor="middle" pointer-events="none" font-family="sans-serif" dy="2.5" font-size="40" fill="#FFFFFF"/><text text-anchor="middle" pointer-events="none" y="-10" font-size="10px" fill="#FFFFFF" font-family="sans-serif"> Middle East</text><text text-anchor="middle" pointer-events="none" y="0" font-size="10px" fill="#FFFFFF" font-family="sans-serif"> respiratory</text><text text-anchor="middle" pointer-events="none" y="10" font-size="10px" fill="#FFFFFF" font-family="sans-serif"> syndrome</text><text text-anchor="middle" pointer-events="none" y="20" font-size="10px" fill="#FFFFFF" font-family="sans-serif"> coronavirus</text></g><g class="node" transform="translate(418.0493973928857,-114.72154898628708)"><circle class="outline" cx="0" cy="0" r="40" fill="#569480" stroke="#447666" stroke-width="2px"/><text text-anchor="middle" pointer-events="none" font-family="sans-serif" dy="2.5" font-size="40" fill="#FFFFFF"/><text text-anchor="middle" pointer-events="none" y="5" font-size="10px" fill="#FFFFFF" font-family="sans-serif"> dromedary</text></g><g class="node" transform="translate(418.35802432407905,30.65109803099719)"><circle class="outline" cx="0" cy="0" r="40" fill="#569480" stroke="#447666" stroke-width="2px"/><text text-anchor="middle" pointer-events="none" font-family="sans-serif" dy="2.5" font-size="40" fill="#FFFFFF"/><text text-anchor="middle" pointer-events="none" y="5" font-size="10px" fill="#FFFFFF" font-family="sans-serif"> Camelus</text></g><g class="node" transform="translate(177.95955442944438,-89.1284202486519)"><circle class="outline" cx="0" cy="0" r="40" fill="#F16667" stroke="#eb2728" stroke-width="2px"/><text text-anchor="middle" pointer-events="none" font-family="sans-serif" dy="2.5" font-size="40" fill="#FFFFFF"/><text text-anchor="middle" pointer-events="none" font-family="sans-serif" dy="2.5" font-size="40" fill="#FFFFFF"/><text text-anchor="middle" pointer-events="none" font-family="sans-serif" dy="2.5" font-size="40" fill="#FFFFFF"/><text text-anchor="middle" pointer-events="none" y="-5" font-size="10px" fill="#FFFFFF" font-family="sans-serif"> severe acute</text><text text-anchor="middle" pointer-events="none" y="5" font-size="10px" fill="#FFFFFF" font-family="sans-serif"> respiratory</text><text text-anchor="middle" pointer-events="none" y="15" font-size="10px" fill="#FFFFFF" font-family="sans-serif"> syndrome-rela…</text></g><g class="node" transform="translate(368.6716273072618,-220.2062079900099)"><circle class="outline" cx="0" cy="0" r="40" fill="#569480" stroke="#447666" stroke-width="2px"/><text text-anchor="middle" pointer-events="none" font-family="sans-serif" dy="2.5" font-size="40" fill="#FFFFFF"/><text text-anchor="middle" pointer-events="none" y="5" font-size="10px" fill="#FFFFFF" font-family="sans-serif"> Viverridae</text></g><g class="node" transform="translate(23.785927541954237,-193.55137941056057)"><circle class="outline" cx="0" cy="0" r="40" fill="#569480" stroke="#447666" stroke-width="2px"/><text text-anchor="middle" pointer-events="none" font-family="sans-serif" dy="2.5" font-size="40" fill="#FFFFFF"/><text text-anchor="middle" pointer-events="none" y="5" font-size="10px" fill="#FFFFFF" font-family="sans-serif"> bat</text></g><g class="node" transform="translate(-151.27762149476604,10.16347851135992)"><circle class="outline" cx="0" cy="0" r="40" fill="#F16667" stroke="#eb2728" stroke-width="2px"/><text text-anchor="middle" pointer-events="none" font-family="sans-serif" dy="2.5" font-size="40" fill="#FFFFFF"/><text text-anchor="middle" pointer-events="none" y="5" font-size="10px" fill="#FFFFFF" font-family="sans-serif"> SARS-CoV-2</text></g><g class="node" transform="translate(-219.18303452035963,-160.92571420979974)"><circle class="outline" cx="0" cy="0" r="40" fill="#569480" stroke="#447666" stroke-width="2px"/><text text-anchor="middle" pointer-events="none" font-family="sans-serif" dy="2.5" font-size="40" fill="#FFFFFF"/><text text-anchor="middle" pointer-events="none" y="5" font-size="10px" fill="#FFFFFF" font-family="sans-serif"> Sunda pangolin</text></g><g class="node" transform="translate(-276.8170648367823,106.5260508203761)"><circle class="outline" cx="0" cy="0" r="40" fill="#569480" stroke="#447666" stroke-width="2px"/><text text-anchor="middle" pointer-events="none" font-family="sans-serif" dy="2.5" font-size="40" fill="#FFFFFF"/><text text-anchor="middle" pointer-events="none" y="5" font-size="10px" fill="#FFFFFF" font-family="sans-serif"> house cat</text></g></g></svg>