<svg xmlns="http://www.w3.org/2000/svg" width="1020.7852783203125" height="276.60882568359375" viewBox="-469.8528747558594 -335.923095703125 1020.7852783203125 276.60882568359375"><title>Neo4j Graph Visualization</title><desc>Created using Neo4j (http://www.neo4j.com/)</desc><g class="layer relationships"><g class="relationship" transform="translate(-389.91503593582524 -212.8779991556953) rotate(390.14966052433203)"><path class="outline" fill="#A5ABB6" stroke="none" d="M 40 0.5 L 43.5462754754634 0.5 L 43.5462754754634 -0.5 L 40 -0.5 Z M 89.1087754754634 0.5 L 92.6550509509268 0.5 L 92.6550509509268 3.5 L 99.6550509509268 0 L 92.6550509509268 -3.5 L 92.6550509509268 -0.5 L 89.1087754754634 -0.5 Z"/><text text-anchor="middle" pointer-events="none" font-size="8px" fill="#000000" x="66.3275254754634" y="3" font-family="sans-serif">CHILD_OF</text></g><g class="relationship" transform="translate(-269.15302074366866 -142.73479604352409) rotate(295.85519380895767)"><path class="outline" fill="#A5ABB6" stroke="none" d="M 40 0.5 L 45.34828330482037 0.5 L 45.34828330482037 -0.5 L 40 -0.5 Z M 90.91078330482037 0.5 L 96.25906660964074 0.5 L 96.25906660964074 3.5 L 103.25906660964074 0 L 96.25906660964074 -3.5 L 96.25906660964074 -0.5 L 90.91078330482037 -0.5 Z"/><text text-anchor="middle" pointer-events="none" font-size="8px" fill="#000000" x="68.12953330482037" y="3" font-family="sans-serif">CHILD_OF</text></g><g class="relationship" transform="translate(-206.67800156724593 -271.653499670155) rotate(415.08964953322055)"><path class="outline" fill="#A5ABB6" stroke="none" d="M 40 0.5 L 49.56342384640786 0.5 L 49.56342384640786 -0.5 L 40 -0.5 Z M 95.12592384640786 0.5 L 104.68934769281572 0.5 L 104.68934769281572 3.5 L 111.68934769281572 0 L 104.68934769281572 -3.5 L 104.68934769281572 -0.5 L 95.12592384640786 -0.5 Z"/><text text-anchor="middle" pointer-events="none" font-size="8px" fill="#000000" x="72.34467384640786" y="3" font-family="sans-serif">CHILD_OF</text></g><g class="relationship" transform="translate(-119.86709432975908 -147.2608769464726) rotate(360.4477904135852)"><path class="outline" fill="#A5ABB6" stroke="none" d="M 40 0.5 L 50.05242032265356 0.5 L 50.05242032265356 -0.5 L 40 -0.5 Z M 95.61492032265356 0.5 L 105.66734064530712 0.5 L 105.66734064530712 3.5 L 112.66734064530712 0 L 105.66734064530712 -3.5 L 105.66734064530712 -0.5 L 95.61492032265356 -0.5 Z"/><text text-anchor="middle" pointer-events="none" font-size="8px" fill="#000000" x="72.83367032265356" y="3" font-family="sans-serif">CHILD_OF</text></g><g class="relationship" transform="translate(32.79558382189953 -146.06773015192545) rotate(360.35615539971377)"><path class="outline" fill="#A5ABB6" stroke="none" d="M 40 0.5 L 52.36737542226214 0.5 L 52.36737542226214 -0.5 L 40 -0.5 Z M 97.92987542226214 0.5 L 110.29725084452429 0.5 L 110.29725084452429 3.5 L 117.29725084452429 0 L 110.29725084452429 -3.5 L 110.29725084452429 -0.5 L 97.92987542226214 -0.5 Z"/><text text-anchor="middle" pointer-events="none" font-size="8px" fill="#000000" x="75.14862542226214" y="3" font-family="sans-serif">CHILD_OF</text></g><g class="relationship" transform="translate(190.08979571652878 -145.0899634657129) rotate(338.4260346458144)"><path class="outline" fill="#A5ABB6" stroke="none" d="M 40 0.5 L 58.07989381395544 0.5 L 58.07989381395544 -0.5 L 40 -0.5 Z M 103.64239381395544 0.5 L 121.72228762791087 0.5 L 121.72228762791087 3.5 L 128.72228762791087 0 L 121.72228762791087 -3.5 L 121.72228762791087 -0.5 L 103.64239381395544 -0.5 Z"/><text text-anchor="middle" pointer-events="none" font-size="8px" fill="#000000" x="80.86114381395544" y="3" font-family="sans-serif">CHILD_OF</text></g><g class="relationship" transform="translate(346.9920177542685 -207.1294916877692) rotate(359.316805310227)"><path class="outline" fill="#A5ABB6" stroke="none" d="M 40 0.5 L 53.694597197287536 0.5 L 53.694597197287536 -0.5 L 40 -0.5 Z M 99.25709719728754 0.5 L 112.95169439457507 0.5 L 112.95169439457507 3.5 L 119.95169439457507 0 L 112.95169439457507 -3.5 L 112.95169439457507 -0.5 L 99.25709719728754 -0.5 Z"/><text text-anchor="middle" pointer-events="none" font-size="8px" fill="#000000" x="76.47584719728754" y="3" font-family="sans-serif">CHILD_OF</text></g><g class="relationship" transform="translate(-425.8528757445017 -103.31427821341836) rotate(345.8792847147183)"><path class="outline" fill="#A5ABB6" stroke="none" d="M 40 0.5 L 54.50987232058017 0.5 L 54.50987232058017 -0.5 L 40 -0.5 Z M 100.07237232058017 0.5 L 114.58224464116034 0.5 L 114.58224464116034 3.5 L 121.58224464116034 0 L 114.58224464116034 -3.5 L 114.58224464116034 -0.5 L 100.07237232058017 -0.5 Z"/><text text-anchor="middle" pointer-events="none" font-size="8px" fill="#000000" x="77.29112232058017" y="3" font-family="sans-serif">CHILD_OF</text></g><g class="relationship" transform="translate(190.08979571652878 -145.0899634657129) rotate(267.90655601950783)"><path class="outline" fill="#A5ABB6" stroke="none" d="M 40 0.5 L 47.184351690228 0.5 L 47.184351690228 -0.5 L 40 -0.5 Z M 92.746851690228 0.5 L 99.931203380456 0.5 L 99.931203380456 3.5 L 106.931203380456 0 L 99.931203380456 -3.5 L 99.931203380456 -0.5 L 92.746851690228 -0.5 Z"/><text text-anchor="middle" pointer-events="none" font-size="8px" fill="#000000" x="69.965601690228" y="3" transform="rotate(180 69.965601690228 0)" font-family="sans-serif">CHILD_OF</text></g><g class="relationship" transform="translate(184.72249271836284 -291.9231020460579) rotate(387.5892265286029)"><path class="outline" fill="#A5ABB6" stroke="none" d="M 40 0.5 L 65.26294030306033 0.5 L 65.26294030306033 -0.5 L 40 -0.5 Z M 110.82544030306033 0.5 L 136.08838060612067 0.5 L 136.08838060612067 3.5 L 143.08838060612067 0 L 136.08838060612067 -3.5 L 136.08838060612067 -0.5 L 110.82544030306033 -0.5 Z"/><text text-anchor="middle" pointer-events="none" font-size="8px" fill="#000000" x="88.04419030306033" y="3" font-family="sans-serif">CHILD_OF</text></g><g class="relationship" transform="translate(-269.15302074366866 -142.73479604352409) rotate(358.2634269231952)"><path class="outline" fill="#A5ABB6" stroke="none" d="M 40 0.5 L 48.39601098619188 0.5 L 48.39601098619188 -0.5 L 40 -0.5 Z M 93.95851098619188 0.5 L 102.35452197238376 0.5 L 102.35452197238376 3.5 L 109.35452197238376 0 L 102.35452197238376 -3.5 L 102.35452197238376 -0.5 L 93.95851098619188 -0.5 Z"/><text text-anchor="middle" pointer-events="none" font-size="8px" fill="#000000" x="71.17726098619188" y="3" font-family="sans-serif">CHILD_OF</text></g></g><g class="layer nodes"><g class="node" transform="translate(-389.91503593582524,-212.8779991556953)"><circle class="outline" cx="0" cy="0" r="40" fill="#F16667" stroke="#eb2728" stroke-width="2px"/><text text-anchor="middle" pointer-events="none" font-family="sans-serif" dy="2.5" font-size="40" fill="#FFFFFF"/><text text-anchor="middle" pointer-events="none" y="5" font-size="10px" fill="#FFFFFF" font-family="sans-serif"> SARS-CoV-2</text></g><g class="node" transform="translate(-269.15302074366866,-142.73479604352409)"><circle class="outline" cx="0" cy="0" r="40" fill="#F16667" stroke="#eb2728" stroke-width="2px"/><text text-anchor="middle" pointer-events="none" font-family="sans-serif" dy="2.5" font-size="40" fill="#FFFFFF"/><text text-anchor="middle" pointer-events="none" font-family="sans-serif" dy="2.5" font-size="40" fill="#FFFFFF"/><text text-anchor="middle" pointer-events="none" font-family="sans-serif" dy="2.5" font-size="40" fill="#FFFFFF"/><text text-anchor="middle" pointer-events="none" y="-5" font-size="10px" fill="#FFFFFF" font-family="sans-serif"> severe acute</text><text text-anchor="middle" pointer-events="none" y="5" font-size="10px" fill="#FFFFFF" font-family="sans-serif"> respiratory</text><text text-anchor="middle" pointer-events="none" y="15" font-size="10px" fill="#FFFFFF" font-family="sans-serif"> syndrome-rela…</text></g><g class="node" transform="translate(-206.67800156724593,-271.653499670155)"><circle class="outline" cx="0" cy="0" r="40" fill="#F16667" stroke="#eb2728" stroke-width="2px"/><text text-anchor="middle" pointer-events="none" font-family="sans-serif" dy="2.5" font-size="40" fill="#FFFFFF"/><text text-anchor="middle" pointer-events="none" y="5" font-size="10px" fill="#FFFFFF" font-family="sans-serif"> Sarbecovirus</text></g><g class="node" transform="translate(-119.86709432975908,-147.2608769464726)"><circle class="outline" cx="0" cy="0" r="40" fill="#F16667" stroke="#eb2728" stroke-width="2px"/><text text-anchor="middle" pointer-events="none" font-family="sans-serif" dy="2.5" font-size="40" fill="#FFFFFF"/><text text-anchor="middle" pointer-events="none" y="5" font-size="10px" fill="#FFFFFF" font-family="sans-serif"> Betacoronavirus</text></g><g class="node" transform="translate(32.79558382189953,-146.06773015192545)"><circle class="outline" cx="0" cy="0" r="40" fill="#F16667" stroke="#eb2728" stroke-width="2px"/><text text-anchor="middle" pointer-events="none" font-family="sans-serif" dy="2.5" font-size="40" fill="#FFFFFF"/><text text-anchor="middle" pointer-events="none" y="5" font-size="10px" fill="#FFFFFF" font-family="sans-serif"> Orthocoronaviri…</text></g><g class="node" transform="translate(190.08979571652878,-145.0899634657129)"><circle class="outline" cx="0" cy="0" r="40" fill="#F16667" stroke="#eb2728" stroke-width="2px"/><text text-anchor="middle" pointer-events="none" font-family="sans-serif" dy="2.5" font-size="40" fill="#FFFFFF"/><text text-anchor="middle" pointer-events="none" y="5" font-size="10px" fill="#FFFFFF" font-family="sans-serif"> Coronaviridae</text></g><g class="node" transform="translate(346.9920177542685,-207.1294916877692)"><circle class="outline" cx="0" cy="0" r="40" fill="#F16667" stroke="#eb2728" stroke-width="2px"/><text text-anchor="middle" pointer-events="none" font-family="sans-serif" dy="2.5" font-size="40" fill="#FFFFFF"/><text text-anchor="middle" pointer-events="none" y="5" font-size="10px" fill="#FFFFFF" font-family="sans-serif"> Nidovirales</text></g><g class="node" transform="translate(506.9323411817445,-209.03670997886906)"><circle class="outline" cx="0" cy="0" r="40" fill="#F16667" stroke="#eb2728" stroke-width="2px"/><text text-anchor="middle" pointer-events="none" font-family="sans-serif" dy="2.5" font-size="40" fill="#FFFFFF"/><text text-anchor="middle" pointer-events="none" y="5" font-size="10px" fill="#FFFFFF" font-family="sans-serif"> Riboviria</text></g><g class="node" transform="translate(-425.8528757445017,-103.31427821341836)"><circle class="outline" cx="0" cy="0" r="40" fill="#F16667" stroke="#eb2728" stroke-width="2px"/><text text-anchor="middle" pointer-events="none" font-family="sans-serif" dy="2.5" font-size="40" fill="#FFFFFF"/><text text-anchor="middle" pointer-events="none" font-family="sans-serif" dy="2.5" font-size="40" fill="#FFFFFF"/><text text-anchor="middle" pointer-events="none" font-family="sans-serif" dy="2.5" font-size="40" fill="#FFFFFF"/><text text-anchor="middle" pointer-events="none" font-family="sans-serif" dy="2.5" font-size="40" fill="#FFFFFF"/><text text-anchor="middle" pointer-events="none" y="-10" font-size="10px" fill="#FFFFFF" font-family="sans-serif"> severe acute</text><text text-anchor="middle" pointer-events="none" y="0" font-size="10px" fill="#FFFFFF" font-family="sans-serif"> respiratory</text><text text-anchor="middle" pointer-events="none" y="10" font-size="10px" fill="#FFFFFF" font-family="sans-serif"> syndrome</text><text text-anchor="middle" pointer-events="none" y="20" font-size="10px" fill="#FFFFFF" font-family="sans-serif"> coronavirus</text></g><g class="node" transform="translate(184.72249271836284,-291.9231020460579)"><circle class="outline" cx="0" cy="0" r="40" fill="#F16667" stroke="#eb2728" stroke-width="2px"/><text text-anchor="middle" pointer-events="none" font-family="sans-serif" dy="2.5" font-size="40" fill="#FFFFFF"/><text text-anchor="middle" pointer-events="none" y="5" font-size="10px" fill="#FFFFFF" font-family="sans-serif"> Cornidovirineae</text></g></g></svg>