<svg xmlns="http://www.w3.org/2000/svg" width="1271.654541015625" height="349.50836181640625" viewBox="-632.1964111328125 -117.29306030273438 1271.654541015625 349.50836181640625"><title>Neo4j Graph Visualization</title><desc>Created using Neo4j (http://www.neo4j.com/)</desc><g class="layer relationships"><g class="relationship" transform="translate(-411.947004400334 188.21531685027503) rotate(265.4534365000034)"><path class="outline" fill="#A5ABB6" stroke="none" d="M 40 0.5 L 50.46899201703869 0.5 L 50.46899201703869 -0.5 L 40 -0.5 Z M 96.03149201703869 0.5 L 106.50048403407737 0.5 L 106.50048403407737 3.5 L 113.50048403407737 0 L 106.50048403407737 -3.5 L 106.50048403407737 -0.5 L 96.03149201703869 -0.5 Z"/><text text-anchor="middle" pointer-events="none" font-size="8px" fill="#000000" x="73.25024201703869" y="3" transform="rotate(180 73.25024201703869 0)" font-family="sans-serif">CHILD_OF</text></g><g class="relationship" transform="translate(-424.1148727785784 35.197861709282165) rotate(335.61644787873877)"><path class="outline" fill="#A5ABB6" stroke="none" d="M 40 0.5 L 53.991677818977664 0.5 L 53.991677818977664 -0.5 L 40 -0.5 Z M 99.55417781897766 0.5 L 113.54585563795533 0.5 L 113.54585563795533 3.5 L 120.54585563795533 0 L 113.54585563795533 -3.5 L 113.54585563795533 -0.5 L 99.55417781897766 -0.5 Z"/><text text-anchor="middle" pointer-events="none" font-size="8px" fill="#000000" x="76.77292781897766" y="3" font-family="sans-serif">CHILD_OF</text></g><g class="relationship" transform="translate(-277.8893521723687 -31.082368268940954) rotate(392.9265084039618)"><path class="outline" fill="#A5ABB6" stroke="none" d="M 40 0.5 L 52.34068652040327 0.5 L 52.34068652040327 -0.5 L 40 -0.5 Z M 97.90318652040327 0.5 L 110.24387304080653 0.5 L 110.24387304080653 3.5 L 117.24387304080653 0 L 110.24387304080653 -3.5 L 110.24387304080653 -0.5 L 97.90318652040327 -0.5 Z"/><text text-anchor="middle" pointer-events="none" font-size="8px" fill="#000000" x="75.12193652040327" y="3" font-family="sans-serif">CHILD_OF</text></g><g class="relationship" transform="translate(-145.9038030140864 54.38955941646891) rotate(322.298201689236)"><path class="outline" fill="#A5ABB6" stroke="none" d="M 40 0.5 L 53.82043247893854 0.5 L 53.82043247893854 -0.5 L 40 -0.5 Z M 99.38293247893854 0.5 L 113.20336495787708 0.5 L 113.20336495787708 3.5 L 120.20336495787708 0 L 113.20336495787708 -3.5 L 113.20336495787708 -0.5 L 99.38293247893854 -0.5 Z"/><text text-anchor="middle" pointer-events="none" font-size="8px" fill="#000000" x="76.60168247893854" y="3" font-family="sans-serif">CHILD_OF</text></g><g class="relationship" transform="translate(-19.150205550039622 -43.583108576952355) rotate(381.35298808348074)"><path class="outline" fill="#A5ABB6" stroke="none" d="M 40 0.5 L 57.44060773133707 0.5 L 57.44060773133707 -0.5 L 40 -0.5 Z M 103.00310773133707 0.5 L 120.44371546267413 0.5 L 120.44371546267413 3.5 L 127.44371546267413 0 L 120.44371546267413 -3.5 L 120.44371546267413 -0.5 L 103.00310773133707 -0.5 Z"/><text text-anchor="middle" pointer-events="none" font-size="8px" fill="#000000" x="80.22185773133707" y="3" font-family="sans-serif">CHILD_OF</text></g><g class="relationship" transform="translate(136.79931738856033 17.385277847227073) rotate(325.9002000090294)"><path class="outline" fill="#A5ABB6" stroke="none" d="M 40 0.5 L 54.58969356105089 0.5 L 54.58969356105089 -0.5 L 40 -0.5 Z M 100.1521935610509 0.5 L 114.74188712210179 0.5 L 114.74188712210179 3.5 L 121.74188712210179 0 L 114.74188712210179 -3.5 L 114.74188712210179 -0.5 L 100.1521935610509 -0.5 Z"/><text text-anchor="middle" pointer-events="none" font-size="8px" fill="#000000" x="77.3709435610509" y="3" font-family="sans-serif">CHILD_OF</text></g><g class="relationship" transform="translate(270.7316751035916 -73.29306359499175) rotate(368.546067938911)"><path class="outline" fill="#A5ABB6" stroke="none" d="M 40 0.5 L 58.3676921656122 0.5 L 58.3676921656122 -0.5 L 40 -0.5 Z M 103.9301921656122 0.5 L 122.2978843312244 0.5 L 122.2978843312244 3.5 L 129.2978843312244 0 L 122.2978843312244 -3.5 L 122.2978843312244 -0.5 L 103.9301921656122 -0.5 Z"/><text text-anchor="middle" pointer-events="none" font-size="8px" fill="#000000" x="81.1489421656122" y="3" font-family="sans-serif">CHILD_OF</text></g><g class="relationship" transform="translate(438.1497941375688 -48.1346244909121) rotate(357.0437629312945)"><path class="outline" fill="#A5ABB6" stroke="none" d="M 40 0.5 L 52.477773690023696 0.5 L 52.477773690023696 -0.5 L 40 -0.5 Z M 98.0402736900237 0.5 L 110.51804738004739 0.5 L 110.51804738004739 3.5 L 117.51804738004739 0 L 110.51804738004739 -3.5 L 110.51804738004739 -0.5 L 98.0402736900237 -0.5 Z"/><text text-anchor="middle" pointer-events="none" font-size="8px" fill="#000000" x="75.2590236900237" y="3" font-family="sans-serif">CHILD_OF</text></g><g class="relationship" transform="translate(-588.1964256206824 126.60583987878826) rotate(330.87831471817213)"><path class="outline" fill="#A5ABB6" stroke="none" d="M 40 0.5 L 67.63117523770892 0.5 L 67.63117523770892 -0.5 L 40 -0.5 Z M 113.19367523770892 0.5 L 140.82485047541783 0.5 L 140.82485047541783 3.5 L 147.82485047541783 0 L 140.82485047541783 -3.5 L 140.82485047541783 -0.5 L 113.19367523770892 -0.5 Z"/><text text-anchor="middle" pointer-events="none" font-size="8px" fill="#000000" x="90.41242523770892" y="3" font-family="sans-serif">CHILD_OF</text></g></g><g class="layer nodes"><g class="node" transform="translate(-411.947004400334,188.21531685027503)"><circle class="outline" cx="0" cy="0" r="40" fill="#F16667" stroke="#eb2728" stroke-width="2px"/><text text-anchor="middle" pointer-events="none" font-family="sans-serif" dy="2.5" font-size="40" fill="#FFFFFF"/><text text-anchor="middle" pointer-events="none" y="5" font-size="10px" fill="#FFFFFF" font-family="sans-serif"> SARS-CoV-2</text></g><g class="node" transform="translate(-424.1148727785784,35.197861709282165)"><circle class="outline" cx="0" cy="0" r="40" fill="#F16667" stroke="#eb2728" stroke-width="2px"/><text text-anchor="middle" pointer-events="none" font-family="sans-serif" dy="2.5" font-size="40" fill="#FFFFFF"/><text text-anchor="middle" pointer-events="none" font-family="sans-serif" dy="2.5" font-size="40" fill="#FFFFFF"/><text text-anchor="middle" pointer-events="none" font-family="sans-serif" dy="2.5" font-size="40" fill="#FFFFFF"/><text text-anchor="middle" pointer-events="none" y="-5" font-size="10px" fill="#FFFFFF" font-family="sans-serif"> severe acute</text><text text-anchor="middle" pointer-events="none" y="5" font-size="10px" fill="#FFFFFF" font-family="sans-serif"> respiratory</text><text text-anchor="middle" pointer-events="none" y="15" font-size="10px" fill="#FFFFFF" font-family="sans-serif"> syndrome-rela…</text></g><g class="node" transform="translate(-277.8893521723687,-31.082368268940954)"><circle class="outline" cx="0" cy="0" r="40" fill="#F16667" stroke="#eb2728" stroke-width="2px"/><text text-anchor="middle" pointer-events="none" font-family="sans-serif" dy="2.5" font-size="40" fill="#FFFFFF"/><text text-anchor="middle" pointer-events="none" y="5" font-size="10px" fill="#FFFFFF" font-family="sans-serif"> Sarbecovirus</text></g><g class="node" transform="translate(-145.9038030140864,54.38955941646891)"><circle class="outline" cx="0" cy="0" r="40" fill="#F16667" stroke="#eb2728" stroke-width="2px"/><text text-anchor="middle" pointer-events="none" font-family="sans-serif" dy="2.5" font-size="40" fill="#FFFFFF"/><text text-anchor="middle" pointer-events="none" y="5" font-size="10px" fill="#FFFFFF" font-family="sans-serif"> Betacoronavirus</text></g><g class="node" transform="translate(-19.150205550039622,-43.583108576952355)"><circle class="outline" cx="0" cy="0" r="40" fill="#F16667" stroke="#eb2728" stroke-width="2px"/><text text-anchor="middle" pointer-events="none" font-family="sans-serif" dy="2.5" font-size="40" fill="#FFFFFF"/><text text-anchor="middle" pointer-events="none" y="5" font-size="10px" fill="#FFFFFF" font-family="sans-serif"> Orthocoronaviri…</text></g><g class="node" transform="translate(136.79931738856033,17.385277847227073)"><circle class="outline" cx="0" cy="0" r="40" fill="#F16667" stroke="#eb2728" stroke-width="2px"/><text text-anchor="middle" pointer-events="none" font-family="sans-serif" dy="2.5" font-size="40" fill="#FFFFFF"/><text text-anchor="middle" pointer-events="none" y="5" font-size="10px" fill="#FFFFFF" font-family="sans-serif"> Coronaviridae</text></g><g class="node" transform="translate(270.7316751035916,-73.29306359499175)"><circle class="outline" cx="0" cy="0" r="40" fill="#F16667" stroke="#eb2728" stroke-width="2px"/><text text-anchor="middle" pointer-events="none" font-family="sans-serif" dy="2.5" font-size="40" fill="#FFFFFF"/><text text-anchor="middle" pointer-events="none" y="5" font-size="10px" fill="#FFFFFF" font-family="sans-serif"> Cornidovirineae</text></g><g class="node" transform="translate(438.1497941375688,-48.1346244909121)"><circle class="outline" cx="0" cy="0" r="40" fill="#F16667" stroke="#eb2728" stroke-width="2px"/><text text-anchor="middle" pointer-events="none" font-family="sans-serif" dy="2.5" font-size="40" fill="#FFFFFF"/><text text-anchor="middle" pointer-events="none" y="5" font-size="10px" fill="#FFFFFF" font-family="sans-serif"> Nidovirales</text></g><g class="node" transform="translate(595.458219340541,-56.25833119313705)"><circle class="outline" cx="0" cy="0" r="40" fill="#F16667" stroke="#eb2728" stroke-width="2px"/><text text-anchor="middle" pointer-events="none" font-family="sans-serif" dy="2.5" font-size="40" fill="#FFFFFF"/><text text-anchor="middle" pointer-events="none" y="5" font-size="10px" fill="#FFFFFF" font-family="sans-serif"> Riboviria</text></g><g class="node" transform="translate(-588.1964256206824,126.60583987878826)"><circle class="outline" cx="0" cy="0" r="40" fill="#F16667" stroke="#eb2728" stroke-width="2px"/><text text-anchor="middle" pointer-events="none" font-family="sans-serif" dy="2.5" font-size="40" fill="#FFFFFF"/><text text-anchor="middle" pointer-events="none" font-family="sans-serif" dy="2.5" font-size="40" fill="#FFFFFF"/><text text-anchor="middle" pointer-events="none" font-family="sans-serif" dy="2.5" font-size="40" fill="#FFFFFF"/><text text-anchor="middle" pointer-events="none" font-family="sans-serif" dy="2.5" font-size="40" fill="#FFFFFF"/><text text-anchor="middle" pointer-events="none" y="-10" font-size="10px" fill="#FFFFFF" font-family="sans-serif"> severe acute</text><text text-anchor="middle" pointer-events="none" y="0" font-size="10px" fill="#FFFFFF" font-family="sans-serif"> respiratory</text><text text-anchor="middle" pointer-events="none" y="10" font-size="10px" fill="#FFFFFF" font-family="sans-serif"> syndrome</text><text text-anchor="middle" pointer-events="none" y="20" font-size="10px" fill="#FFFFFF" font-family="sans-serif"> coronavirus</text></g></g></svg>