<svg xmlns="http://www.w3.org/2000/svg" class="graphdiagram" viewBox="-709.492919921875 -466 1853 932"><g class="layer relationships"><g class="related-pair"><g class="relationship" transform="translate(0,0) rotate(0)"><path class="relationship" d="M 95.78970242240199 4 L 390.224457733848 4 L 390.224457733848 16 L 422.224457733848 0 L 390.224457733848 -16 L 390.224457733848 -4 L 95.78970242240199 -4 Z" fill="rgb(0, 0, 0)" stroke="rgb(51, 51, 51)" stroke-width="0px"/><text class="type" text-anchor="middle" baseline-shift="30%" alignment-baseline="alphabetic" x="243.007080078125" y="0" font-size="50px" font-family="&quot;Gill Sans&quot;, &quot;Gill Sans MT&quot;, Calibri, sans-serif">CHILD_OF</text></g></g></g><g class="layer nodes"><circle class="node node-id-0" r="80.78970242240199" fill="rgb(255, 255, 255)" stroke="rgb(0, 0, 0)" stroke-width="8px" cx="0" cy="0"/><g class="caption"><text class="caption node" text-anchor="middle" alignment-baseline="central" x="0" y="0" fill="rgb(51, 51, 51)" font-size="50px" font-family="&quot;Gill Sans&quot;, &quot;Gill Sans MT&quot;, Calibri, sans-serif">Virus</text></g><circle class="node node-id-1" r="80.78970242240199" fill="rgb(255, 255, 255)" stroke="rgb(0, 0, 0)" stroke-width="8px" cx="518.01416015625" cy="0"/><g class="caption"><text class="caption node" text-anchor="middle" alignment-baseline="central" x="518.01416015625" y="0" fill="rgb(51, 51, 51)" font-size="50px" font-family="&quot;Gill Sans&quot;, &quot;Gill Sans MT&quot;, Calibri, sans-serif">Virus</text></g></g><g class="layer properties"><g class="speech-bubble node-speech-bubble" transform="translate(-80.78970242240199,0) "><path class="speech-bubble-outline" transform="scale(-1,1) " d="M 0 0 L 20 -10 L 20 -25 A 10 10 0 0 1 30 -35 L 313.4716796875 -35 A 10 10 0 0 1 323.4716796875 -25 L 323.4716796875 25 A 10 10 0 0 1 313.4716796875 35 L 30 35 A 10 10 0 0 1 20 25 L 20 10 Z" fill="rgb(255, 255, 255)" stroke="rgb(0, 0, 0)" stroke-width="3px"/><text class="speech-bubble-content property-key" x="-160.615234375" y="0" alignment-baseline="central" text-anchor="end" font-size="50px" font-family="&quot;Gill Sans&quot;, &quot;Gill Sans MT&quot;, Calibri, sans-serif" xml:space="preserve">name: </text><text class="speech-bubble-content property-value" x="-160.615234375" y="0" alignment-baseline="central" font-size="50px" font-family="&quot;Gill Sans&quot;, &quot;Gill Sans MT&quot;, Calibri, sans-serif">String</text></g><g class="speech-bubble node-speech-bubble" transform="translate(598.803862578652,0) "><path class="speech-bubble-outline" transform="scale(1,1) " d="M 0 0 L 20 -10 L 20 -25 A 10 10 0 0 1 30 -35 L 313.4716796875 -35 A 10 10 0 0 1 323.4716796875 -25 L 323.4716796875 25 A 10 10 0 0 1 313.4716796875 35 L 30 35 A 10 10 0 0 1 20 25 L 20 10 Z" fill="rgb(255, 255, 255)" stroke="rgb(0, 0, 0)" stroke-width="3px"/><text class="speech-bubble-content property-key" x="182.8564453125" y="0" alignment-baseline="central" text-anchor="end" font-size="50px" font-family="&quot;Gill Sans&quot;, &quot;Gill Sans MT&quot;, Calibri, sans-serif" xml:space="preserve">name: </text><text class="speech-bubble-content property-value" x="182.8564453125" y="0" alignment-baseline="central" font-size="50px" font-family="&quot;Gill Sans&quot;, &quot;Gill Sans MT&quot;, Calibri, sans-serif">String</text></g></g><g class="layer overlay"><circle class="node overlay" r="84.78970242240199" stroke="none" fill="rgba(255, 255, 255, 0)" cx="0" cy="0"/><circle class="node ring" r="89.78970242240199" fill="none" stroke="rgba(255, 255, 255, 0)" stroke-width="10px" cx="0" cy="0"/><circle class="node overlay" r="84.78970242240199" stroke="none" fill="rgba(255, 255, 255, 0)" cx="518.01416015625" cy="0"/><circle class="node ring" r="89.78970242240199" fill="none" stroke="rgba(255, 255, 255, 0)" stroke-width="10px" cx="518.01416015625" cy="0"/><path class="relationship overlay" fill="rgba(255, 255, 255, 0)" stroke="rgba(255, 255, 255, 0)" stroke-width="10px" transform="translate(0,0) rotate(0)" d="M 95.78970242240199 4 L 390.224457733848 4 L 390.224457733848 16 L 422.224457733848 0 L 390.224457733848 -16 L 390.224457733848 -4 L 95.78970242240199 -4 Z"/></g></svg>